<svg width="422" height="55" viewBox="0 0 422 55" fill="none" xmlns="http://www.w3.org/2000/svg">
<path d="M16.06 21.946H13.2C12.848 21.11 12.0047 20.692 10.67 20.692C10.01 20.692 9.27667 20.758 8.47 20.89C7.678 21.0073 6.81267 21.066 5.874 21.066C5.31667 21.066 4.73733 21.0147 4.136 20.912C3.53467 20.8093 2.97 20.6113 2.442 20.318C1.914 20.0247 1.48867 19.592 1.166 19.02C0.843333 18.4333 0.682 17.656 0.682 16.688C0.682 16.3653 0.704 16.0133 0.748 15.632C0.806667 15.2507 0.865333 14.9207 0.924 14.642L3.696 15.016C3.63733 15.2067 3.586 15.434 3.542 15.698C3.51267 15.962 3.498 16.226 3.498 16.49C3.498 17.0913 3.61533 17.546 3.85 17.854C4.09933 18.162 4.422 18.3673 4.818 18.47C5.22867 18.5727 5.68333 18.624 6.182 18.624C6.98867 18.624 7.71467 18.5653 8.36 18.448C9.00533 18.316 9.70933 18.25 10.472 18.25C11.0147 18.25 11.5133 18.3527 11.968 18.558C12.4373 18.7487 12.8333 19.042 13.156 19.438V13.322C12.8627 12.9407 12.5767 12.596 12.298 12.288L6.71 17.37L4.708 15.5L5.324 14.95C5.64667 14.5247 5.808 14.1213 5.808 13.74C5.808 13.388 5.71267 13.1387 5.522 12.992C5.33133 12.8307 5.08933 12.75 4.796 12.75C4.42933 12.75 4.026 12.882 3.586 13.146L1.408 11.144C2.08267 10.308 2.728 9.59667 3.344 9.01C3.97467 8.40867 4.63467 7.954 5.324 7.646C6.028 7.32333 6.80533 7.162 7.656 7.162C8.74133 7.162 9.702 7.43333 10.538 7.976C11.3887 8.504 12.2833 9.23 13.222 10.154C13.2073 9.91933 13.1927 9.67733 13.178 9.428C13.1633 9.164 13.156 8.9 13.156 8.636V5.864H15.532L16.038 7.316H18.172V9.736H16.06V21.946ZM7.81 12.86C7.81 12.904 7.81 12.9333 7.81 12.948C7.97133 12.7867 8.14 12.6253 8.316 12.464C8.50667 12.3027 8.68267 12.1487 8.844 12.002L10.494 10.572C10.0393 10.2493 9.58467 10.0073 9.13 9.846C8.67533 9.67 8.21333 9.582 7.744 9.582C7.06933 9.582 6.47533 9.72133 5.962 10C5.44867 10.2787 4.95733 10.66 4.488 11.144C4.664 11.0707 4.85467 11.012 5.06 10.968C5.26533 10.924 5.48533 10.902 5.72 10.902C6.45333 10.902 6.98133 11.1073 7.304 11.518C7.64133 11.914 7.81 12.3613 7.81 12.86ZM22.9549 7.25C24.0696 7.25 24.9716 7.43333 25.6609 7.8C26.3649 8.16667 26.8856 8.64333 27.2229 9.23C27.5603 9.802 27.7289 10.418 27.7289 11.078C27.7289 12.0313 27.4356 12.86 26.8489 13.564C26.2623 14.2533 25.4409 14.774 24.3849 15.126C25.5143 15.4487 26.4163 15.852 27.0909 16.336C27.7803 16.8053 28.4183 17.2893 29.0049 17.788C28.9903 17.4507 28.9756 17.1133 28.9609 16.776C28.9609 16.424 28.9609 16.0573 28.9609 15.676V5.864H31.3369L31.8429 7.316H33.9769V9.736H31.8649V21H28.9609C28.2716 20.164 27.5383 19.46 26.7609 18.888C25.9983 18.316 25.1403 17.8467 24.1869 17.48C23.2483 17.0987 22.1629 16.8127 20.9309 16.622L20.2269 14.07C21.8843 13.762 23.0649 13.3733 23.7689 12.904C24.4729 12.4347 24.8249 11.8553 24.8249 11.166C24.8249 10.7407 24.6709 10.374 24.3629 10.066C24.0549 9.758 23.5929 9.604 22.9769 9.604C22.5223 9.604 22.1849 9.692 21.9649 9.868C21.7596 10.0293 21.6569 10.2127 21.6569 10.418C21.6569 10.77 21.8696 11.0853 22.2949 11.364L20.4909 13.168C20.2416 12.992 19.9776 12.7867 19.6989 12.552C19.4349 12.3027 19.2149 12.002 19.0389 11.65C18.8629 11.298 18.7749 10.88 18.7749 10.396C18.7749 9.824 18.9289 9.30333 19.2369 8.834C19.5449 8.35 20.0069 7.96867 20.6229 7.69C21.2389 7.39667 22.0163 7.25 22.9549 7.25ZM48.162 7.316V9.736H46.05V21H43.146V17.656C42.442 16.8347 41.7306 16.182 41.012 15.698C40.308 15.1993 39.6186 14.95 38.944 14.95C38.5773 14.95 38.262 15.038 37.998 15.214C37.7486 15.39 37.624 15.654 37.624 16.006C37.624 16.3287 37.7413 16.6073 37.976 16.842C38.2106 17.062 38.592 17.2673 39.12 17.458L37.822 19.9C36.8393 19.5187 36.062 18.9687 35.49 18.25C34.918 17.5313 34.632 16.754 34.632 15.918C34.632 15.214 34.7786 14.6273 35.072 14.158C35.38 13.6887 35.776 13.3293 36.26 13.08C36.7586 12.816 37.2866 12.6473 37.844 12.574C37.6973 12.2367 37.4773 11.9727 37.184 11.782C36.8906 11.5767 36.4946 11.4153 35.996 11.298C35.512 11.1807 34.874 11.0707 34.082 10.968L34.39 9.736H33.532V7.316H48.162ZM43.146 9.736H38.438C39.1126 10.044 39.6406 10.4547 40.022 10.968C40.4033 11.4813 40.6453 12.1487 40.748 12.97C41.5546 13.2927 42.3613 13.8427 43.168 14.62C43.1533 14.3707 43.146 14.1213 43.146 13.872C43.146 13.6227 43.146 13.3807 43.146 13.146V9.736ZM61.3554 7.316V9.736H60.1014C59.4414 10.0587 58.8181 10.484 58.2314 11.012C57.6448 11.54 57.1681 12.156 56.8014 12.86C56.4348 13.564 56.2514 14.3487 56.2514 15.214C56.2514 16.094 56.3834 16.7833 56.6474 17.282C56.9114 17.7807 57.2414 18.1327 57.6374 18.338C58.0334 18.5287 58.4294 18.624 58.8254 18.624C59.0894 18.624 59.3461 18.602 59.5954 18.558C59.8448 18.4993 60.1308 18.3893 60.4534 18.228L61.5534 20.406C61.0694 20.6847 60.5928 20.8753 60.1234 20.978C59.6541 21.066 59.1628 21.11 58.6494 21.11C57.0068 21.11 55.7014 20.6113 54.7334 19.614C53.7801 18.602 53.3034 17.1573 53.3034 15.28C53.3034 14.0773 53.5454 12.9627 54.0294 11.936C54.5134 10.8947 55.1661 9.978 55.9874 9.186C56.8088 8.37933 57.7254 7.756 58.7374 7.316H61.3554ZM63.3885 7.162C64.0339 7.162 64.6352 7.28667 65.1925 7.536C65.7645 7.78533 66.2192 8.174 66.5565 8.702C66.8352 8.18867 67.2092 7.80733 67.6785 7.558C68.1479 7.294 68.6539 7.162 69.1965 7.162C69.9299 7.162 70.5679 7.316 71.1105 7.624C71.6532 7.932 72.1299 8.36467 72.5405 8.922C72.5259 8.71667 72.5112 8.51133 72.4965 8.306C72.4965 8.10067 72.4965 7.90267 72.4965 7.712V5.864H74.8725L75.3785 7.316H77.5125V9.736H75.4005V21.946H72.5405C72.3499 21.506 72.0565 21.1907 71.6605 21C71.2645 20.7947 70.7145 20.692 70.0105 20.692C69.4679 20.692 68.8519 20.758 68.1625 20.89C67.4732 21.0073 66.7619 21.066 66.0285 21.066C65.5739 21.066 65.1045 21.022 64.6205 20.934C64.1365 20.846 63.6819 20.67 63.2565 20.406C62.8459 20.1273 62.5085 19.7313 62.2445 19.218C61.9952 18.69 61.8705 18.0007 61.8705 17.15C61.8705 16.9007 61.8779 16.6733 61.8925 16.468C61.9219 16.2627 61.9585 16.0427 62.0025 15.808L64.7525 16.094C64.7085 16.358 64.6865 16.644 64.6865 16.952C64.6865 17.6267 64.8699 18.074 65.2365 18.294C65.6032 18.514 66.0652 18.624 66.6225 18.624C67.2092 18.624 67.7665 18.5653 68.2945 18.448C68.8225 18.316 69.3285 18.25 69.8125 18.25C71.0152 18.25 71.9099 18.646 72.4965 19.438V11.672C72.1005 11.0413 71.6605 10.5353 71.1765 10.154C70.7072 9.77267 70.1939 9.582 69.6365 9.582C69.2259 9.582 68.8665 9.68467 68.5585 9.89C68.2652 10.0953 68.1185 10.4107 68.1185 10.836C68.1185 11.716 68.9839 12.1853 70.7145 12.244L70.4065 14.884C69.4239 14.8253 68.6245 14.6347 68.0085 14.312C67.4072 13.9893 66.9525 13.5713 66.6445 13.058C66.3365 13.586 65.8672 14.026 65.2365 14.378C64.6205 14.7153 63.8065 14.884 62.7945 14.884L62.5085 12.244C63.5059 12.2 64.1805 12.046 64.5325 11.782C64.8992 11.518 65.0825 11.2027 65.0825 10.836C65.0825 10.4107 64.9139 10.0953 64.5765 9.89C64.2539 9.68467 63.8212 9.582 63.2785 9.582C62.8825 9.582 62.5305 9.604 62.2225 9.648C61.9292 9.692 61.6359 9.75067 61.3425 9.824L61.0565 7.404C61.4232 7.33067 61.7899 7.272 62.1565 7.228C62.5232 7.184 62.9339 7.162 63.3885 7.162ZM91.6668 7.316V9.736H89.5548V21H86.6508V12.376C86.0054 11.6133 85.3234 10.968 84.6048 10.44C83.9008 9.912 83.1821 9.648 82.4488 9.648C82.0088 9.648 81.6494 9.77267 81.3708 10.022C81.1068 10.2713 80.9748 10.6233 80.9748 11.078C80.9748 11.386 81.0481 11.672 81.1948 11.936C81.3561 12.1853 81.6348 12.3907 82.0308 12.552C82.4268 12.6987 82.9988 12.7867 83.7468 12.816L83.4168 15.676C81.5101 15.456 80.1241 14.9353 79.2588 14.114C78.4081 13.2927 77.9828 12.2587 77.9828 11.012C77.9828 10.2347 78.1588 9.56 78.5108 8.988C78.8628 8.40133 79.3394 7.954 79.9408 7.646C80.5421 7.32333 81.2241 7.162 81.9868 7.162C82.9988 7.162 83.8788 7.38933 84.6268 7.844C85.3748 8.29867 86.0641 8.82667 86.6948 9.428C86.6654 8.87067 86.6508 8.328 86.6508 7.8V5.864H89.0268L89.5328 7.316H91.6668ZM98.3455 9.736H96.2335V21H93.3295V9.736H91.2175V7.316H93.3295C93.0508 5.79067 92.2295 4.698 90.8655 4.038C89.5015 3.36333 87.6388 3.026 85.2775 3.026C84.1922 3.026 83.3855 3.09933 82.8575 3.246C82.3148 3.39267 82.0435 3.59067 82.0435 3.84C82.0435 3.98667 82.1242 4.08933 82.2855 4.148C82.4322 4.192 82.7255 4.214 83.1655 4.214H85.3875C86.2382 4.214 86.9202 4.28 87.4335 4.412C87.9322 4.544 88.3428 4.75667 88.6655 5.05C88.9588 5.314 89.1715 5.63667 89.3035 6.018C89.4355 6.39933 89.5015 6.88333 89.5015 7.47H86.7295C86.7295 6.95667 86.5828 6.612 86.2895 6.436C86.1575 6.36267 86.0108 6.31133 85.8495 6.282C85.6882 6.238 85.4755 6.216 85.2115 6.216H83.6055C82.7255 6.216 82.0362 6.172 81.5375 6.084C81.0388 5.98133 80.6355 5.842 80.3275 5.666C79.9608 5.46067 79.7042 5.204 79.5575 4.896C79.4108 4.57333 79.3375 4.236 79.3375 3.884C79.3375 2.97467 79.8655 2.24133 80.9215 1.684C81.9628 1.112 83.5615 0.825999 85.7175 0.825999C88.9148 0.825999 91.4155 1.354 93.2195 2.41C95.0235 3.45133 96.0428 5.08667 96.2775 7.316H98.3455V9.736ZM111.543 7.316V9.736H110.289C109.629 10.0587 109.006 10.484 108.419 11.012C107.832 11.54 107.356 12.156 106.989 12.86C106.622 13.564 106.439 14.3487 106.439 15.214C106.439 16.094 106.571 16.7833 106.835 17.282C107.099 17.7807 107.429 18.1327 107.825 18.338C108.221 18.5287 108.617 18.624 109.013 18.624C109.277 18.624 109.534 18.602 109.783 18.558C110.032 18.4993 110.318 18.3893 110.641 18.228L111.741 20.406C111.257 20.6847 110.78 20.8753 110.311 20.978C109.842 21.066 109.35 21.11 108.837 21.11C107.194 21.11 105.889 20.6113 104.921 19.614C103.968 18.602 103.491 17.1573 103.491 15.28C103.491 14.0773 103.733 12.9627 104.217 11.936C104.701 10.8947 105.354 9.978 106.175 9.186C106.996 8.37933 107.913 7.756 108.925 7.316H111.543ZM116.326 7.25C117.441 7.25 118.343 7.43333 119.032 7.8C119.736 8.16667 120.257 8.64333 120.594 9.23C120.931 9.802 121.1 10.418 121.1 11.078C121.1 12.0313 120.807 12.86 120.22 13.564C119.633 14.2533 118.812 14.774 117.756 15.126C118.885 15.4487 119.787 15.852 120.462 16.336C121.151 16.8053 121.789 17.2893 122.376 17.788C122.361 17.4507 122.347 17.1133 122.332 16.776C122.332 16.424 122.332 16.0573 122.332 15.676V5.864H124.708L125.214 7.316H127.348V9.736H125.236V21H122.332C121.643 20.164 120.909 19.46 120.132 18.888C119.369 18.316 118.511 17.8467 117.558 17.48C116.619 17.0987 115.534 16.8127 114.302 16.622L113.598 14.07C115.255 13.762 116.436 13.3733 117.14 12.904C117.844 12.4347 118.196 11.8553 118.196 11.166C118.196 10.7407 118.042 10.374 117.734 10.066C117.426 9.758 116.964 9.604 116.348 9.604C115.893 9.604 115.556 9.692 115.336 9.868C115.131 10.0293 115.028 10.2127 115.028 10.418C115.028 10.77 115.241 11.0853 115.666 11.364L113.862 13.168C113.613 12.992 113.349 12.7867 113.07 12.552C112.806 12.3027 112.586 12.002 112.41 11.65C112.234 11.298 112.146 10.88 112.146 10.396C112.146 9.824 112.3 9.30333 112.608 8.834C112.916 8.35 113.378 7.96867 113.994 7.69C114.61 7.39667 115.387 7.25 116.326 7.25ZM136.121 7.316V9.736H134.867C134.207 10.0587 133.584 10.484 132.997 11.012C132.41 11.54 131.934 12.156 131.567 12.86C131.2 13.564 131.017 14.3487 131.017 15.214C131.017 16.094 131.149 16.7833 131.413 17.282C131.677 17.7807 132.007 18.1327 132.403 18.338C132.799 18.5287 133.195 18.624 133.591 18.624C133.855 18.624 134.112 18.602 134.361 18.558C134.61 18.4993 134.896 18.3893 135.219 18.228L136.319 20.406C135.835 20.6847 135.358 20.8753 134.889 20.978C134.42 21.066 133.928 21.11 133.415 21.11C131.772 21.11 130.467 20.6113 129.499 19.614C128.546 18.602 128.069 17.1573 128.069 15.28C128.069 14.1213 128.304 13.0653 128.773 12.112C129.257 11.144 129.917 10.3373 130.753 9.692C130.386 9.72133 129.858 9.736 129.169 9.736H126.903V7.316H136.121ZM154.06 15.324C154.06 15.808 153.957 16.27 153.752 16.71C153.561 17.15 153.224 17.5093 152.74 17.788C152.256 18.0667 151.581 18.206 150.716 18.206C150.115 18.206 149.594 18.162 149.154 18.074L149.242 15.654C149.315 15.6687 149.403 15.6833 149.506 15.698C149.623 15.698 149.77 15.698 149.946 15.698C150.474 15.698 150.819 15.61 150.98 15.434C151.141 15.2433 151.222 15.016 151.222 14.752C151.222 14.2827 150.936 13.8647 150.364 13.498C149.792 13.1313 148.956 12.838 147.856 12.618V21H144.952C144.131 19.812 143.067 18.844 141.762 18.096C140.471 17.3333 139.005 16.8127 137.362 16.534L136.262 13.938C137.538 13.2193 138.939 12.53 140.464 11.87C142.004 11.1953 143.522 10.6453 145.018 10.22V9.736H135.69V7.316H154.984V9.736H147.812V10.198C148.971 10.374 150.019 10.6893 150.958 11.144C151.911 11.5987 152.667 12.178 153.224 12.882C153.781 13.5713 154.06 14.3853 154.06 15.324ZM139.958 14.884C140.779 15.0453 141.637 15.368 142.532 15.852C143.427 16.3213 144.248 16.93 144.996 17.678C144.981 17.502 144.967 17.3187 144.952 17.128C144.952 16.9227 144.952 16.7173 144.952 16.512V12.838C144.087 13.1167 143.251 13.4247 142.444 13.762C141.652 14.0993 140.823 14.4733 139.958 14.884ZM172.465 7.316V9.736H163.885V9.956C164.296 10.528 164.809 10.968 165.425 11.276C166.056 11.5693 166.738 11.716 167.471 11.716H167.911C168.689 11.716 169.29 11.7893 169.715 11.936C170.141 12.0827 170.493 12.3173 170.771 12.64C170.977 12.86 171.131 13.1387 171.233 13.476C171.336 13.7987 171.387 14.1287 171.387 14.466C171.387 15.3607 171.219 16.1527 170.881 16.842C170.544 17.5313 170.097 18.1547 169.539 18.712C168.953 19.284 168.278 19.7387 167.515 20.076C166.753 20.3987 165.939 20.56 165.073 20.56C164.281 20.56 163.665 20.4867 163.225 20.34C162.785 20.1933 162.419 19.988 162.125 19.724C161.803 19.4453 161.531 19.0493 161.311 18.536C161.091 18.0227 160.981 17.2307 160.981 16.16V9.736H158.979V7.316H172.465ZM164.237 17.81C164.443 18.03 164.78 18.14 165.249 18.14C166.012 18.14 166.767 17.788 167.515 17.084C167.838 16.7907 168.087 16.4753 168.263 16.138C168.439 15.8007 168.527 15.456 168.527 15.104C168.527 14.7667 168.425 14.532 168.219 14.4C168.029 14.268 167.772 14.202 167.449 14.202H167.229C166.789 14.202 166.393 14.158 166.041 14.07C165.704 13.982 165.315 13.8133 164.875 13.564C164.479 13.3293 164.142 13.0653 163.863 12.772C163.863 12.8893 163.863 13.0067 163.863 13.124C163.878 13.2413 163.885 13.3587 163.885 13.476V16.182C163.885 16.6807 163.915 17.0473 163.973 17.282C164.032 17.5167 164.12 17.6927 164.237 17.81ZM188.564 7.316V9.736H172.02V7.316H188.564ZM181.7 20.274C180.322 20.274 179.053 20.01 177.894 19.482C176.75 18.9393 175.731 18.0373 174.836 16.776C173.956 15.5 173.208 13.7693 172.592 11.584L175.342 10.814C176.032 13.19 176.838 14.9427 177.762 16.072C178.686 17.1867 179.882 17.744 181.348 17.744C182.478 17.744 183.314 17.524 183.856 17.084C184.399 16.6293 184.67 15.9767 184.67 15.126C184.67 14.378 184.472 13.8207 184.076 13.454C183.695 13.0727 183.248 12.882 182.734 12.882C182.397 12.882 182.111 12.97 181.876 13.146C181.656 13.322 181.546 13.586 181.546 13.938C181.546 14.2607 181.605 14.576 181.722 14.884L178.972 15.302C178.826 14.9647 178.723 14.6493 178.664 14.356C178.606 14.0627 178.576 13.806 178.576 13.586C178.576 12.8527 178.76 12.266 179.126 11.826C179.493 11.3713 179.97 11.0413 180.556 10.836C181.158 10.6307 181.796 10.528 182.47 10.528C183.57 10.528 184.502 10.7407 185.264 11.166C186.027 11.5913 186.606 12.1707 187.002 12.904C187.398 13.6227 187.596 14.4513 187.596 15.39C187.596 16.2553 187.391 17.062 186.98 17.81C186.584 18.558 185.954 19.1593 185.088 19.614C184.223 20.054 183.094 20.274 181.7 20.274ZM179.666 26.852C179.168 26.852 178.654 26.7567 178.126 26.566C177.584 26.39 177.129 26.104 176.762 25.708C176.396 25.312 176.212 24.784 176.212 24.124C176.212 23.3173 176.52 22.672 177.136 22.188C177.738 21.704 178.618 21.462 179.776 21.462C180.407 21.462 181.016 21.5133 181.602 21.616V18.998H184.33V21.726C184.33 21.8433 184.33 21.9607 184.33 22.078C184.316 22.21 184.308 22.3493 184.308 22.496C184.954 22.7893 185.614 23.156 186.288 23.596C186.948 24.0507 187.652 24.564 188.4 25.136L186.838 26.962C185.753 25.9793 184.741 25.202 183.802 24.63C183.509 25.2313 183.047 25.752 182.416 26.192C181.771 26.632 180.854 26.852 179.666 26.852ZM178.896 24.212C178.896 24.7107 179.226 24.96 179.886 24.96C180.356 24.96 180.715 24.8207 180.964 24.542C181.199 24.278 181.36 23.9627 181.448 23.596C181.008 23.4787 180.583 23.42 180.172 23.42C179.718 23.42 179.395 23.4933 179.204 23.64C178.999 23.7867 178.896 23.9773 178.896 24.212ZM193.348 7.25C194.462 7.25 195.364 7.43333 196.054 7.8C196.758 8.16667 197.278 8.64333 197.616 9.23C197.953 9.802 198.122 10.418 198.122 11.078C198.122 12.0313 197.828 12.86 197.242 13.564C196.655 14.2533 195.834 14.774 194.778 15.126C195.907 15.4487 196.809 15.852 197.484 16.336C198.173 16.8053 198.811 17.2893 199.398 17.788C199.383 17.4507 199.368 17.1133 199.354 16.776C199.354 16.424 199.354 16.0573 199.354 15.676V5.864H201.73L202.236 7.316H204.37V9.736H202.258V21H199.354C198.664 20.164 197.931 19.46 197.154 18.888C196.391 18.316 195.533 17.8467 194.58 17.48C193.641 17.0987 192.556 16.8127 191.324 16.622L190.62 14.07C192.277 13.762 193.458 13.3733 194.162 12.904C194.866 12.4347 195.218 11.8553 195.218 11.166C195.218 10.7407 195.064 10.374 194.756 10.066C194.448 9.758 193.986 9.604 193.37 9.604C192.915 9.604 192.578 9.692 192.358 9.868C192.152 10.0293 192.05 10.2127 192.05 10.418C192.05 10.77 192.262 11.0853 192.688 11.364L190.884 13.168C190.634 12.992 190.37 12.7867 190.092 12.552C189.828 12.3027 189.608 12.002 189.432 11.65C189.256 11.298 189.168 10.88 189.168 10.396C189.168 9.824 189.322 9.30333 189.63 8.834C189.938 8.35 190.4 7.96867 191.016 7.69C191.632 7.39667 192.409 7.25 193.348 7.25ZM196.168 4.632L203.803 0.825999L204.947 2.894L197.4 6.832L196.168 4.632ZM217.568 7.316V9.736H216.314C215.654 10.0587 215.031 10.484 214.444 11.012C213.858 11.54 213.381 12.156 213.014 12.86C212.648 13.564 212.464 14.3487 212.464 15.214C212.464 16.094 212.596 16.7833 212.86 17.282C213.124 17.7807 213.454 18.1327 213.85 18.338C214.246 18.5287 214.642 18.624 215.038 18.624C215.302 18.624 215.559 18.602 215.808 18.558C216.058 18.4993 216.344 18.3893 216.666 18.228L217.766 20.406C217.282 20.6847 216.806 20.8753 216.336 20.978C215.867 21.066 215.376 21.11 214.862 21.11C213.22 21.11 211.914 20.6113 210.946 19.614C209.993 18.602 209.516 17.1573 209.516 15.28C209.516 14.0773 209.758 12.9627 210.242 11.936C210.726 10.8947 211.379 9.978 212.2 9.186C213.022 8.37933 213.938 7.756 214.95 7.316H217.568ZM219.601 7.162C220.247 7.162 220.848 7.28667 221.405 7.536C221.977 7.78533 222.432 8.174 222.769 8.702C223.048 8.18867 223.422 7.80733 223.891 7.558C224.361 7.294 224.867 7.162 225.409 7.162C226.143 7.162 226.781 7.316 227.323 7.624C227.866 7.932 228.343 8.36467 228.753 8.922C228.739 8.71667 228.724 8.51133 228.709 8.306C228.709 8.10067 228.709 7.90267 228.709 7.712V5.864H231.085L231.591 7.316H233.725V9.736H231.613V21.946H228.753C228.563 21.506 228.269 21.1907 227.873 21C227.477 20.7947 226.927 20.692 226.223 20.692C225.681 20.692 225.065 20.758 224.375 20.89C223.686 21.0073 222.975 21.066 222.241 21.066C221.787 21.066 221.317 21.022 220.833 20.934C220.349 20.846 219.895 20.67 219.469 20.406C219.059 20.1273 218.721 19.7313 218.457 19.218C218.208 18.69 218.083 18.0007 218.083 17.15C218.083 16.9007 218.091 16.6733 218.105 16.468C218.135 16.2627 218.171 16.0427 218.215 15.808L220.965 16.094C220.921 16.358 220.899 16.644 220.899 16.952C220.899 17.6267 221.083 18.074 221.449 18.294C221.816 18.514 222.278 18.624 222.835 18.624C223.422 18.624 223.979 18.5653 224.507 18.448C225.035 18.316 225.541 18.25 226.025 18.25C227.228 18.25 228.123 18.646 228.709 19.438V11.672C228.313 11.0413 227.873 10.5353 227.389 10.154C226.92 9.77267 226.407 9.582 225.849 9.582C225.439 9.582 225.079 9.68467 224.771 9.89C224.478 10.0953 224.331 10.4107 224.331 10.836C224.331 11.716 225.197 12.1853 226.927 12.244L226.619 14.884C225.637 14.8253 224.837 14.6347 224.221 14.312C223.62 13.9893 223.165 13.5713 222.857 13.058C222.549 13.586 222.08 14.026 221.449 14.378C220.833 14.7153 220.019 14.884 219.007 14.884L218.721 12.244C219.719 12.2 220.393 12.046 220.745 11.782C221.112 11.518 221.295 11.2027 221.295 10.836C221.295 10.4107 221.127 10.0953 220.789 9.89C220.467 9.68467 220.034 9.582 219.491 9.582C219.095 9.582 218.743 9.604 218.435 9.648C218.142 9.692 217.849 9.75067 217.555 9.824L217.269 7.404C217.636 7.33067 218.003 7.272 218.369 7.228C218.736 7.184 219.147 7.162 219.601 7.162ZM247.88 7.316V9.736H245.768V21H242.864V12.376C242.218 11.6133 241.536 10.968 240.818 10.44C240.114 9.912 239.395 9.648 238.662 9.648C238.222 9.648 237.862 9.77267 237.584 10.022C237.32 10.2713 237.188 10.6233 237.188 11.078C237.188 11.386 237.261 11.672 237.408 11.936C237.569 12.1853 237.848 12.3907 238.244 12.552C238.64 12.6987 239.212 12.7867 239.96 12.816L239.63 15.676C237.723 15.456 236.337 14.9353 235.472 14.114C234.621 13.2927 234.196 12.2587 234.196 11.012C234.196 10.2347 234.372 9.56 234.724 8.988C235.076 8.40133 235.552 7.954 236.154 7.646C236.755 7.32333 237.437 7.162 238.2 7.162C239.212 7.162 240.092 7.38933 240.84 7.844C241.588 8.29867 242.277 8.82667 242.908 9.428C242.878 8.87067 242.864 8.328 242.864 7.8V5.864H245.24L245.746 7.316H247.88ZM254.558 9.736H252.446V21H249.542V9.736H247.43V7.316H249.542C249.264 5.79067 248.442 4.698 247.078 4.038C245.714 3.36333 243.852 3.026 241.49 3.026C240.405 3.026 239.598 3.09933 239.07 3.246C238.528 3.39267 238.256 3.59067 238.256 3.84C238.256 3.98667 238.337 4.08933 238.498 4.148C238.645 4.192 238.938 4.214 239.378 4.214H241.6C242.451 4.214 243.133 4.28 243.646 4.412C244.145 4.544 244.556 4.75667 244.878 5.05C245.172 5.314 245.384 5.63667 245.516 6.018C245.648 6.39933 245.714 6.88333 245.714 7.47H242.942C242.942 6.95667 242.796 6.612 242.502 6.436C242.37 6.36267 242.224 6.31133 242.062 6.282C241.901 6.238 241.688 6.216 241.424 6.216H239.818C238.938 6.216 238.249 6.172 237.75 6.084C237.252 5.98133 236.848 5.842 236.54 5.666C236.174 5.46067 235.917 5.204 235.77 4.896C235.624 4.57333 235.55 4.236 235.55 3.884C235.55 2.97467 236.078 2.24133 237.134 1.684C238.176 1.112 239.774 0.825999 241.93 0.825999C245.128 0.825999 247.628 1.354 249.432 2.41C251.236 3.45133 252.256 5.08667 252.49 7.316H254.558V9.736ZM275.808 7.316V9.736H273.696V21H270.792V13.322C270.498 12.9407 270.22 12.596 269.956 12.288L264.346 17.37L262.344 15.5L262.96 14.95C263.282 14.5247 263.444 14.1213 263.444 13.74C263.444 13.388 263.348 13.1387 263.158 12.992C262.967 12.8307 262.725 12.75 262.432 12.75C262.065 12.75 261.662 12.882 261.222 13.146L259.044 11.144C259.718 10.308 260.371 9.59667 261.002 9.01C261.632 8.40867 262.292 7.954 262.982 7.646C263.671 7.32333 264.441 7.162 265.292 7.162C266.377 7.162 267.338 7.43333 268.174 7.976C269.024 8.504 269.919 9.23 270.858 10.154C270.843 9.91933 270.828 9.67733 270.814 9.428C270.799 9.164 270.792 8.9 270.792 8.636V5.864H273.168L273.674 7.316H275.808ZM265.446 12.86C265.446 12.904 265.446 12.9333 265.446 12.948C265.607 12.7867 265.776 12.6253 265.952 12.464C266.142 12.3027 266.318 12.1487 266.48 12.002L268.13 10.572C267.69 10.2493 267.242 10.0073 266.788 9.846C266.333 9.67 265.864 9.582 265.38 9.582C264.705 9.582 264.111 9.72133 263.598 10C263.084 10.2787 262.593 10.66 262.124 11.144C262.3 11.0707 262.49 11.012 262.696 10.968C262.901 10.924 263.121 10.902 263.356 10.902C264.089 10.902 264.617 11.1073 264.94 11.518C265.277 11.914 265.446 12.3613 265.446 12.86ZM290.43 7.316V9.736H288.318V21H285.414C284.519 19.9 283.405 19.0567 282.07 18.47C280.75 17.8833 279.159 17.4653 277.296 17.216L276.262 14.73C276.863 14.3633 277.516 13.9893 278.22 13.608C278.939 13.212 279.665 12.838 280.398 12.486C279.782 12.134 279.115 11.826 278.396 11.562C277.692 11.298 276.922 11.1 276.086 10.968L276.636 9.736H275.36V7.316H290.43ZM285.414 9.736H279.892C280.552 9.97067 281.153 10.2787 281.696 10.66C282.239 11.0267 282.73 11.408 283.17 11.804L283.434 13.74C282.847 13.9747 282.246 14.2387 281.63 14.532C281.029 14.8107 280.457 15.0967 279.914 15.39C280.501 15.4927 281.124 15.6613 281.784 15.896C282.459 16.1307 283.119 16.4313 283.764 16.798C284.409 17.1647 284.974 17.59 285.458 18.074C285.429 17.8247 285.414 17.5753 285.414 17.326C285.414 17.0767 285.414 16.8127 285.414 16.534V9.736ZM283.567 4.632L291.201 0.825999L292.345 2.894L284.799 6.832L283.567 4.632ZM299.935 22.848C298.688 22.848 297.471 22.6573 296.283 22.276C295.11 21.8947 294.024 21.2787 293.027 20.428C292.044 19.5627 291.201 18.4113 290.497 16.974L293.137 15.874C294.032 17.5167 295.014 18.6827 296.085 19.372C297.17 20.0613 298.373 20.406 299.693 20.406C300.705 20.406 301.424 20.2593 301.849 19.966C302.274 19.6727 302.487 19.2327 302.487 18.646C302.487 18.206 302.34 17.854 302.047 17.59C301.754 17.3113 301.336 17.172 300.793 17.172C300.456 17.172 300.184 17.2453 299.979 17.392C299.774 17.5387 299.671 17.7513 299.671 18.03C299.671 18.2353 299.708 18.4333 299.781 18.624L297.097 18.976C297.009 18.756 296.943 18.514 296.899 18.25C296.855 17.9713 296.833 17.722 296.833 17.502C296.833 16.71 297.119 16.094 297.691 15.654C298.263 15.1993 299.004 14.928 299.913 14.84C299.576 14.7227 299.246 14.576 298.923 14.4C298.6 14.224 298.263 14.0113 297.911 13.762C297.5 13.4687 297.17 13.2707 296.921 13.168C296.686 13.0507 296.466 12.992 296.261 12.992C296.026 12.992 295.836 13.0507 295.689 13.168C295.557 13.2707 295.491 13.4173 295.491 13.608C295.491 13.7987 295.55 13.9747 295.667 14.136C295.799 14.2973 295.968 14.4587 296.173 14.62L294.391 16.38C293.98 16.0133 293.592 15.588 293.225 15.104C292.873 14.62 292.697 14.0187 292.697 13.3C292.697 12.684 292.844 12.1707 293.137 11.76C293.445 11.3493 293.826 11.0487 294.281 10.858C294.736 10.6527 295.198 10.55 295.667 10.55C296.356 10.55 296.95 10.6527 297.449 10.858C297.962 11.0633 298.542 11.3787 299.187 11.804C299.73 12.1413 300.155 12.3833 300.463 12.53C300.786 12.662 301.116 12.728 301.453 12.728C302.23 12.728 302.619 12.2953 302.619 11.43C302.619 11.122 302.553 10.8287 302.421 10.55C302.289 10.2567 302.113 9.98533 301.893 9.736H289.991V7.316H306.865V9.736H304.929C305.12 10.044 305.274 10.3887 305.391 10.77C305.508 11.1513 305.567 11.5547 305.567 11.98C305.567 12.772 305.354 13.4613 304.929 14.048C304.518 14.6347 303.756 14.9867 302.641 15.104C303.58 15.3973 304.269 15.8813 304.709 16.556C305.164 17.2307 305.391 17.9713 305.391 18.778C305.391 19.5407 305.208 20.23 304.841 20.846C304.474 21.462 303.888 21.946 303.081 22.298C302.289 22.6647 301.24 22.848 299.935 22.848ZM316.4 13.454H324.672V16.006H316.4V13.454ZM348.029 8.56V9.98H345.929V21H344.389V14.62C344.096 14.26 343.829 13.9867 343.589 13.8C343.363 13.6 343.136 13.5 342.909 13.5C342.723 13.5 342.549 13.5533 342.389 13.66C342.229 13.7667 342.049 13.9733 341.849 14.28C341.649 14.5733 341.383 15.0267 341.049 15.64C340.689 16.2933 340.363 16.8333 340.069 17.26C339.776 17.6733 339.463 17.98 339.129 18.18C338.809 18.3667 338.416 18.46 337.949 18.46C337.416 18.46 336.909 18.2933 336.429 17.96C335.949 17.6133 335.436 17 334.889 16.12L336.109 15.38C336.469 16.02 336.769 16.44 337.009 16.64C337.249 16.84 337.509 16.94 337.789 16.94C338.069 16.94 338.343 16.8267 338.609 16.6C338.876 16.36 339.196 15.9267 339.569 15.3C339.449 14.4733 339.316 13.82 339.169 13.34C339.023 12.8467 338.789 12.46 338.469 12.18C338.136 11.8733 337.683 11.6467 337.109 11.5C336.536 11.34 335.816 11.2067 334.949 11.1L335.169 9.98H333.989V8.56H348.029ZM336.329 9.98C337.343 10.1267 338.136 10.3467 338.709 10.64C339.296 10.9333 339.723 11.3333 339.989 11.84C340.256 12.3467 340.423 13.0067 340.489 13.82C340.823 13.14 341.143 12.6733 341.449 12.42C341.769 12.1533 342.116 12.02 342.489 12.02C342.849 12.02 343.176 12.1067 343.469 12.28C343.776 12.4533 344.103 12.7067 344.449 13.04C344.423 12.84 344.403 12.64 344.389 12.44C344.389 12.24 344.389 12.04 344.389 11.84V9.98H336.329ZM360.462 8.56V9.98H358.362V21H356.822V17.78C356.182 16.9667 355.482 16.2867 354.722 15.74C353.962 15.1933 353.222 14.92 352.502 14.92C352.009 14.92 351.589 15.0467 351.242 15.3C350.909 15.5533 350.742 15.9333 350.742 16.44C350.742 17.1867 351.316 17.7867 352.462 18.24L351.702 19.68C350.889 19.3333 350.249 18.88 349.782 18.32C349.329 17.7467 349.102 17.1 349.102 16.38C349.102 15.7267 349.256 15.1867 349.562 14.76C349.882 14.3333 350.282 14.0133 350.762 13.8C351.256 13.5867 351.756 13.48 352.262 13.48C352.369 13.48 352.476 13.48 352.582 13.48C352.449 13 352.242 12.6133 351.962 12.32C351.682 12.0133 351.262 11.7667 350.702 11.58C350.156 11.3933 349.409 11.24 348.462 11.12L348.642 9.98H347.622V8.56H360.462ZM354.042 13.58C354.042 13.66 354.042 13.7333 354.042 13.8C354.576 14 355.069 14.28 355.522 14.64C355.989 15 356.436 15.4067 356.862 15.86C356.849 15.6333 356.836 15.4 356.822 15.16C356.822 14.9067 356.822 14.6533 356.822 14.4V9.98H349.962C351.296 10.1667 352.309 10.5867 353.002 11.24C353.696 11.88 354.042 12.66 354.042 13.58ZM371.824 12.16C371.824 11.76 371.737 11.3733 371.564 11C371.39 10.6267 371.17 10.2867 370.904 9.98H367.164C367.31 10.6333 367.517 11.2333 367.784 11.78C368.05 12.3267 368.39 12.7667 368.804 13.1C369.23 13.42 369.757 13.58 370.384 13.58C370.85 13.58 371.204 13.46 371.444 13.22C371.697 12.9667 371.824 12.6133 371.824 12.16ZM368.884 22.1C367.79 22.1 366.764 21.9 365.804 21.5C364.857 21.1133 363.99 20.4667 363.204 19.56C362.43 18.6533 361.75 17.44 361.164 15.92L362.664 15.42C363.37 17.2333 364.21 18.5533 365.184 19.38C366.17 20.1933 367.377 20.6 368.804 20.6C370.004 20.6 370.85 20.38 371.344 19.94C371.837 19.4867 372.084 18.8867 372.084 18.14C372.084 17.4867 371.897 16.9533 371.524 16.54C371.15 16.1267 370.61 15.92 369.904 15.92C369.424 15.92 369.07 16.04 368.844 16.28C368.63 16.5067 368.524 16.7867 368.524 17.12C368.524 17.2133 368.537 17.3533 368.564 17.54C368.604 17.7133 368.65 17.8733 368.704 18.02L367.204 18.3C367.124 18.0733 367.057 17.8267 367.004 17.56C366.964 17.2933 366.944 17.0667 366.944 16.88C366.944 16.28 367.144 15.8 367.544 15.44C367.944 15.0667 368.43 14.82 369.004 14.7C368.497 14.5267 368.057 14.2667 367.684 13.92C367.31 13.56 366.997 13.1133 366.744 12.58C366.624 12.98 366.464 13.3667 366.264 13.74C366.064 14.1 365.797 14.4 365.464 14.64C365.144 14.88 364.757 15 364.304 15C363.717 15 363.177 14.8333 362.684 14.5C362.204 14.1667 361.677 13.5533 361.104 12.66L362.324 11.94C362.71 12.5933 363.024 13.0133 363.264 13.2C363.517 13.3867 363.79 13.48 364.084 13.48C364.577 13.48 364.97 13.2333 365.264 12.74C365.57 12.2333 365.744 11.3133 365.784 9.98H360.064V8.56H375.024V9.98H372.704C372.89 10.2733 373.044 10.6067 373.164 10.98C373.297 11.34 373.364 11.7333 373.364 12.16C373.364 13.68 372.657 14.5667 371.244 14.82C372.017 15.0733 372.604 15.5067 373.004 16.12C373.404 16.7333 373.604 17.4267 373.604 18.2C373.604 19.3867 373.204 20.3333 372.404 21.04C371.604 21.7467 370.43 22.1 368.884 22.1ZM384.631 8.56V9.98H382.531V21H380.991V9.98H378.911V8.56H380.751C380.538 8.30667 380.318 8.04 380.091 7.76C379.878 7.48 379.685 7.2 379.511 6.92C379.965 6.13333 380.451 5.42 380.971 4.78C381.491 4.12667 382.105 3.61333 382.811 3.24C383.518 2.85333 384.371 2.66 385.371 2.66C386.318 2.66 387.211 2.81333 388.051 3.12C388.891 3.42667 389.731 3.86 390.571 4.42C391.411 4.96667 392.291 5.62 393.211 6.38L392.371 7.46C391.451 6.71333 390.618 6.09333 389.871 5.6C389.138 5.10667 388.431 4.74 387.751 4.5C387.085 4.24667 386.371 4.12 385.611 4.12C384.505 4.12 383.618 4.4 382.951 4.96C382.285 5.52 381.711 6.24667 381.231 7.14C381.338 7.34 381.485 7.56 381.671 7.8C381.858 8.04 382.071 8.29333 382.311 8.56H384.631ZM396.544 8.56V9.98H394.444V21H392.904C392.504 20.2 391.95 19.4667 391.244 18.8C390.55 18.12 389.75 17.5467 388.844 17.08C387.937 16.6133 386.97 16.3 385.944 16.14L385.164 14.22C386.377 13.4867 387.624 12.82 388.904 12.22C390.197 11.62 391.53 11.1 392.904 10.66V9.98H384.224V8.56H396.544ZM387.024 14.92C387.704 15.0667 388.424 15.32 389.184 15.68C389.944 16.0267 390.657 16.4667 391.324 17C392.004 17.5333 392.55 18.1467 392.964 18.84C392.95 18.6 392.937 18.3533 392.924 18.1C392.91 17.8467 392.904 17.5533 392.904 17.22V12.22C391.944 12.5533 390.944 12.9533 389.904 13.42C388.864 13.8733 387.904 14.3733 387.024 14.92ZM409.198 8.56V9.98H407.098V21H405.558C404.905 20.2267 404.231 19.56 403.538 19C402.845 18.4267 402.058 17.9533 401.178 17.58C400.298 17.2067 399.245 16.9333 398.018 16.76L397.298 14.94C397.925 14.54 398.605 14.1467 399.338 13.76C400.071 13.36 400.838 12.9867 401.638 12.64C400.918 12.24 400.185 11.9 399.438 11.62C398.705 11.3267 397.991 11.1067 397.298 10.96L397.718 9.98H396.138V8.56H409.198ZM405.558 9.98H398.978C399.751 10.22 400.538 10.54 401.338 10.94C402.138 11.3267 402.905 11.7667 403.638 12.26C404.371 12.7533 405.025 13.2733 405.598 13.82C405.585 13.5667 405.571 13.3133 405.558 13.06C405.558 12.8067 405.558 12.56 405.558 12.32V9.98ZM399.178 15.5C400.645 15.78 401.878 16.2333 402.878 16.86C403.891 17.4733 404.798 18.1933 405.598 19.02C405.598 18.7933 405.591 18.56 405.578 18.32C405.565 18.08 405.558 17.8333 405.558 17.58V15.6C405.211 15.2267 404.825 14.8667 404.398 14.52C403.985 14.16 403.545 13.8267 403.078 13.52C402.425 13.8133 401.745 14.1333 401.038 14.48C400.331 14.8133 399.711 15.1533 399.178 15.5ZM421.714 8.56V9.98H419.614V21H418.074C417.514 20.2533 416.894 19.6 416.214 19.04C415.534 18.4667 414.747 17.9867 413.854 17.6C412.961 17.2133 411.901 16.9333 410.674 16.76L409.954 14.94C410.567 14.5267 411.227 14.1333 411.934 13.76C412.641 13.3867 413.341 13.04 414.034 12.72C413.527 12.3333 412.941 11.9933 412.274 11.7C411.621 11.3933 410.847 11.1467 409.954 10.96L410.394 9.98H408.794V8.56H421.714ZM418.074 9.98H411.874C412.367 10.1533 412.861 10.3733 413.354 10.64C413.847 10.9067 414.301 11.1933 414.714 11.5C415.127 11.8067 415.461 12.0933 415.714 12.36L415.814 13.48C415.147 13.7733 414.454 14.1 413.734 14.46C413.014 14.8067 412.374 15.1533 411.814 15.5C413.267 15.7667 414.487 16.2067 415.474 16.82C416.461 17.4333 417.341 18.1667 418.114 19.02C418.087 18.5533 418.074 18.0733 418.074 17.58V9.98ZM412.594 21.12C412.261 21.12 411.974 21.0133 411.734 20.8C411.507 20.5867 411.394 20.3067 411.394 19.96C411.394 19.6133 411.507 19.3267 411.734 19.1C411.974 18.8733 412.261 18.76 412.594 18.76C412.927 18.76 413.207 18.8733 413.434 19.1C413.674 19.3267 413.794 19.6133 413.794 19.96C413.794 20.3067 413.674 20.5867 413.434 20.8C413.207 21.0133 412.927 21.12 412.594 21.12ZM1.386 50V34.6H13.288V37.372H4.576V41.002H10.362V43.686H4.576V50H1.386ZM14.0786 50V38.538H17.0926V39.792C17.4593 39.2933 17.8993 38.9193 18.4126 38.67C18.9406 38.406 19.52 38.274 20.1506 38.274C20.444 38.2887 20.686 38.318 20.8766 38.362C21.082 38.3913 21.258 38.45 21.4046 38.538V41.178C21.1846 41.0753 20.9426 41.002 20.6786 40.958C20.4146 40.8993 20.1433 40.87 19.8646 40.87C19.278 40.87 18.7353 41.0167 18.2366 41.31C17.7526 41.6033 17.3713 42.0287 17.0926 42.586V50H14.0786ZM21.951 44.28C21.951 43.444 22.105 42.6667 22.413 41.948C22.7357 41.2147 23.1683 40.584 23.711 40.056C24.2683 39.5133 24.921 39.088 25.669 38.78C26.417 38.472 27.2163 38.318 28.067 38.318C28.9177 38.318 29.717 38.472 30.465 38.78C31.213 39.088 31.8583 39.5133 32.401 40.056C32.9583 40.584 33.391 41.2147 33.699 41.948C34.0217 42.6667 34.183 43.444 34.183 44.28C34.183 45.116 34.0217 45.9007 33.699 46.634C33.391 47.3527 32.9583 47.976 32.401 48.504C31.8583 49.032 31.213 49.45 30.465 49.758C29.717 50.066 28.9177 50.22 28.067 50.22C27.2163 50.22 26.417 50.066 25.669 49.758C24.921 49.45 24.2683 49.032 23.711 48.504C23.1683 47.976 22.7357 47.3527 22.413 46.634C22.105 45.9007 21.951 45.116 21.951 44.28ZM28.067 47.602C28.947 47.602 29.695 47.2793 30.311 46.634C30.927 45.9887 31.235 45.204 31.235 44.28C31.235 43.3413 30.927 42.5493 30.311 41.904C29.695 41.2587 28.947 40.936 28.067 40.936C27.187 40.936 26.439 41.2587 25.823 41.904C25.207 42.5493 24.899 43.3413 24.899 44.28C24.899 45.204 25.207 45.9887 25.823 46.634C26.439 47.2793 27.187 47.602 28.067 47.602ZM36.0357 50V38.538H39.0497V39.396C39.4603 39.044 39.915 38.78 40.4137 38.604C40.9123 38.4133 41.455 38.318 42.0417 38.318C42.775 38.318 43.435 38.472 44.0217 38.78C44.623 39.0733 45.1143 39.4913 45.4957 40.034C45.9503 39.4767 46.5003 39.0513 47.1457 38.758C47.791 38.4647 48.5023 38.318 49.2797 38.318C50.5557 38.318 51.6043 38.7433 52.4257 39.594C53.247 40.4447 53.6577 41.5373 53.6577 42.872V50H50.6437V43.312C50.6437 42.5933 50.4457 42.014 50.0497 41.574C49.6683 41.134 49.1477 40.914 48.4877 40.914C48.033 40.914 47.615 41.0167 47.2337 41.222C46.867 41.4127 46.5517 41.6913 46.2877 42.058C46.3023 42.19 46.317 42.322 46.3317 42.454C46.3463 42.586 46.3537 42.7253 46.3537 42.872V50H43.3397V43.312C43.3397 42.5933 43.1417 42.014 42.7457 41.574C42.3643 41.134 41.8437 40.914 41.1837 40.914C40.729 40.914 40.3257 41.002 39.9737 41.178C39.6217 41.354 39.3137 41.6107 39.0497 41.948V50H36.0357ZM68.2969 47.272C69.1036 47.272 69.8589 47.1033 70.5629 46.766C71.2669 46.4287 71.8903 45.9447 72.4329 45.314L74.5229 47.382C73.7896 48.2473 72.8509 48.9367 71.7069 49.45C70.5776 49.9633 69.4116 50.22 68.2089 50.22C67.0503 50.22 65.9649 50.0147 64.9529 49.604C63.9556 49.1933 63.0903 48.636 62.3569 47.932C61.6236 47.228 61.0443 46.392 60.6189 45.424C60.2083 44.456 60.0029 43.4147 60.0029 42.3C60.0029 41.1853 60.2156 40.144 60.6409 39.176C61.0663 38.1933 61.6456 37.35 62.3789 36.646C63.1123 35.942 63.9776 35.3847 64.9749 34.974C65.9869 34.5633 67.0649 34.358 68.2089 34.358C69.4409 34.358 70.6363 34.622 71.7949 35.15C72.9536 35.6633 73.8923 36.36 74.6109 37.24L72.4549 39.374C71.9123 38.6993 71.2743 38.186 70.5409 37.834C69.8076 37.4673 69.0303 37.284 68.2089 37.284C67.5196 37.284 66.8669 37.416 66.2509 37.68C65.6496 37.9293 65.1289 38.2813 64.6889 38.736C64.2489 39.176 63.9043 39.704 63.6549 40.32C63.4056 40.9213 63.2809 41.5813 63.2809 42.3C63.2809 43.004 63.4056 43.664 63.6549 44.28C63.9189 44.8813 64.2709 45.402 64.7109 45.842C65.1656 46.282 65.6936 46.634 66.2949 46.898C66.9109 47.1473 67.5783 47.272 68.2969 47.272ZM79.204 33.94V50H76.19V34.6L79.204 33.94ZM85.191 50.198C83.959 50.198 82.9544 49.8753 82.177 49.23C81.3997 48.57 81.011 47.7193 81.011 46.678C81.011 45.5927 81.429 44.742 82.265 44.126C83.101 43.51 84.2524 43.202 85.719 43.202C86.1884 43.202 86.6577 43.2387 87.127 43.312C87.5964 43.3853 88.0584 43.4953 88.513 43.642V42.828C88.513 42.168 88.3077 41.6693 87.897 41.332C87.4864 40.9947 86.885 40.826 86.093 40.826C85.609 40.826 85.081 40.9067 84.509 41.068C83.9517 41.2147 83.3137 41.4493 82.595 41.772L81.495 39.55C82.3897 39.1393 83.255 38.8313 84.091 38.626C84.9417 38.4207 85.7777 38.318 86.599 38.318C88.139 38.318 89.3344 38.692 90.185 39.44C91.0504 40.1733 91.483 41.2147 91.483 42.564V50H88.513V49.208C88.029 49.5453 87.5157 49.7947 86.973 49.956C86.445 50.1173 85.851 50.198 85.191 50.198ZM83.893 46.612C83.893 47.052 84.0837 47.404 84.465 47.668C84.8464 47.9173 85.3524 48.042 85.983 48.042C86.4817 48.042 86.9364 47.9833 87.347 47.866C87.7724 47.734 88.161 47.5507 88.513 47.316V45.6C88.1464 45.4533 87.7577 45.3507 87.347 45.292C86.951 45.2187 86.533 45.182 86.093 45.182C85.4037 45.182 84.861 45.314 84.465 45.578C84.0837 45.8273 83.893 46.172 83.893 46.612ZM92.7962 48.636L94.2922 46.634C94.9668 47.074 95.6048 47.404 96.2062 47.624C96.8075 47.8293 97.4088 47.932 98.0102 47.932C98.6848 47.932 99.2202 47.822 99.6162 47.602C100.027 47.382 100.232 47.0887 100.232 46.722C100.232 46.4287 100.115 46.194 99.8802 46.018C99.6602 45.842 99.3008 45.7173 98.8022 45.644L96.6022 45.314C95.4728 45.138 94.6075 44.7713 94.0062 44.214C93.4195 43.6567 93.1262 42.916 93.1262 41.992C93.1262 40.892 93.5588 40.012 94.4242 39.352C95.2895 38.692 96.4482 38.362 97.9002 38.362C98.7362 38.362 99.5502 38.4867 100.342 38.736C101.134 38.9707 101.89 39.3227 102.608 39.792L101.156 41.728C100.526 41.3613 99.9242 41.09 99.3522 40.914C98.7802 40.7233 98.2008 40.628 97.6142 40.628C97.0715 40.628 96.6315 40.7307 96.2942 40.936C95.9715 41.1413 95.8102 41.4127 95.8102 41.75C95.8102 42.058 95.9275 42.3 96.1622 42.476C96.4115 42.6373 96.8148 42.7547 97.3722 42.828L99.5722 43.158C100.687 43.3193 101.545 43.686 102.146 44.258C102.762 44.83 103.07 45.556 103.07 46.436C103.07 46.9787 102.938 47.4847 102.674 47.954C102.425 48.4087 102.08 48.8047 101.64 49.142C101.2 49.4793 100.672 49.7433 100.056 49.934C99.4402 50.1247 98.7728 50.22 98.0542 50.22C97.0128 50.22 96.0375 50.088 95.1282 49.824C94.2188 49.5453 93.4415 49.1493 92.7962 48.636ZM103.646 48.636L105.142 46.634C105.816 47.074 106.454 47.404 107.056 47.624C107.657 47.8293 108.258 47.932 108.86 47.932C109.534 47.932 110.07 47.822 110.466 47.602C110.876 47.382 111.082 47.0887 111.082 46.722C111.082 46.4287 110.964 46.194 110.73 46.018C110.51 45.842 110.15 45.7173 109.652 45.644L107.452 45.314C106.322 45.138 105.457 44.7713 104.856 44.214C104.269 43.6567 103.976 42.916 103.976 41.992C103.976 40.892 104.408 40.012 105.274 39.352C106.139 38.692 107.298 38.362 108.75 38.362C109.586 38.362 110.4 38.4867 111.192 38.736C111.984 38.9707 112.739 39.3227 113.458 39.792L112.006 41.728C111.375 41.3613 110.774 41.09 110.202 40.914C109.63 40.7233 109.05 40.628 108.464 40.628C107.921 40.628 107.481 40.7307 107.144 40.936C106.821 41.1413 106.66 41.4127 106.66 41.75C106.66 42.058 106.777 42.3 107.012 42.476C107.261 42.6373 107.664 42.7547 108.222 42.828L110.422 43.158C111.536 43.3193 112.394 43.686 112.996 44.258C113.612 44.83 113.92 45.556 113.92 46.436C113.92 46.9787 113.788 47.4847 113.524 47.954C113.274 48.4087 112.93 48.8047 112.49 49.142C112.05 49.4793 111.522 49.7433 110.906 49.934C110.29 50.1247 109.622 50.22 108.904 50.22C107.862 50.22 106.887 50.088 105.978 49.824C105.068 49.5453 104.291 49.1493 103.646 48.636ZM124.47 50V34.6H127.66V50H124.47ZM140.68 46.766V41.068H138.326V38.538H140.68V35.612L143.694 34.93V38.538H146.95V41.068H143.694V46.15C143.694 46.6927 143.811 47.074 144.046 47.294C144.28 47.514 144.691 47.624 145.278 47.624C145.556 47.624 145.82 47.6093 146.07 47.58C146.319 47.536 146.59 47.4627 146.884 47.36V49.824C146.561 49.9267 146.172 50.0073 145.718 50.066C145.263 50.1393 144.874 50.176 144.552 50.176C143.276 50.176 142.308 49.89 141.648 49.318C141.002 48.7313 140.68 47.8807 140.68 46.766ZM147.806 44.28C147.806 43.444 147.96 42.6667 148.268 41.948C148.591 41.2147 149.024 40.584 149.566 40.056C150.124 39.5133 150.776 39.088 151.524 38.78C152.272 38.472 153.072 38.318 153.922 38.318C154.773 38.318 155.572 38.472 156.32 38.78C157.068 39.088 157.714 39.5133 158.256 40.056C158.814 40.584 159.246 41.2147 159.554 41.948C159.877 42.6667 160.038 43.444 160.038 44.28C160.038 45.116 159.877 45.9007 159.554 46.634C159.246 47.3527 158.814 47.976 158.256 48.504C157.714 49.032 157.068 49.45 156.32 49.758C155.572 50.066 154.773 50.22 153.922 50.22C153.072 50.22 152.272 50.066 151.524 49.758C150.776 49.45 150.124 49.032 149.566 48.504C149.024 47.976 148.591 47.3527 148.268 46.634C147.96 45.9007 147.806 45.116 147.806 44.28ZM153.922 47.602C154.802 47.602 155.55 47.2793 156.166 46.634C156.782 45.9887 157.09 45.204 157.09 44.28C157.09 43.3413 156.782 42.5493 156.166 41.904C155.55 41.2587 154.802 40.936 153.922 40.936C153.042 40.936 152.294 41.2587 151.678 41.904C151.062 42.5493 150.754 43.3413 150.754 44.28C150.754 45.204 151.062 45.9887 151.678 46.634C152.294 47.2793 153.042 47.602 153.922 47.602ZM174.215 47.272C175.022 47.272 175.777 47.1033 176.481 46.766C177.185 46.4287 177.808 45.9447 178.351 45.314L180.441 47.382C179.708 48.2473 178.769 48.9367 177.625 49.45C176.496 49.9633 175.33 50.22 174.127 50.22C172.968 50.22 171.883 50.0147 170.871 49.604C169.874 49.1933 169.008 48.636 168.275 47.932C167.542 47.228 166.962 46.392 166.537 45.424C166.126 44.456 165.921 43.4147 165.921 42.3C165.921 41.1853 166.134 40.144 166.559 39.176C166.984 38.1933 167.564 37.35 168.297 36.646C169.03 35.942 169.896 35.3847 170.893 34.974C171.905 34.5633 172.983 34.358 174.127 34.358C175.359 34.358 176.554 34.622 177.713 35.15C178.872 35.6633 179.81 36.36 180.529 37.24L178.373 39.374C177.83 38.6993 177.192 38.186 176.459 37.834C175.726 37.4673 174.948 37.284 174.127 37.284C173.438 37.284 172.785 37.416 172.169 37.68C171.568 37.9293 171.047 38.2813 170.607 38.736C170.167 39.176 169.822 39.704 169.573 40.32C169.324 40.9213 169.199 41.5813 169.199 42.3C169.199 43.004 169.324 43.664 169.573 44.28C169.837 44.8813 170.189 45.402 170.629 45.842C171.084 46.282 171.612 46.634 172.213 46.898C172.829 47.1473 173.496 47.272 174.215 47.272ZM185.122 33.94V50H182.108V34.6L185.122 33.94ZM191.109 50.198C189.877 50.198 188.872 49.8753 188.095 49.23C187.318 48.57 186.929 47.7193 186.929 46.678C186.929 45.5927 187.347 44.742 188.183 44.126C189.019 43.51 190.17 43.202 191.637 43.202C192.106 43.202 192.576 43.2387 193.045 43.312C193.514 43.3853 193.976 43.4953 194.431 43.642V42.828C194.431 42.168 194.226 41.6693 193.815 41.332C193.404 40.9947 192.803 40.826 192.011 40.826C191.527 40.826 190.999 40.9067 190.427 41.068C189.87 41.2147 189.232 41.4493 188.513 41.772L187.413 39.55C188.308 39.1393 189.173 38.8313 190.009 38.626C190.86 38.4207 191.696 38.318 192.517 38.318C194.057 38.318 195.252 38.692 196.103 39.44C196.968 40.1733 197.401 41.2147 197.401 42.564V50H194.431V49.208C193.947 49.5453 193.434 49.7947 192.891 49.956C192.363 50.1173 191.769 50.198 191.109 50.198ZM189.811 46.612C189.811 47.052 190.002 47.404 190.383 47.668C190.764 47.9173 191.27 48.042 191.901 48.042C192.4 48.042 192.854 47.9833 193.265 47.866C193.69 47.734 194.079 47.5507 194.431 47.316V45.6C194.064 45.4533 193.676 45.3507 193.265 45.292C192.869 45.2187 192.451 45.182 192.011 45.182C191.322 45.182 190.779 45.314 190.383 45.578C190.002 45.8273 189.811 46.172 189.811 46.612ZM198.714 48.636L200.21 46.634C200.885 47.074 201.523 47.404 202.124 47.624C202.725 47.8293 203.327 47.932 203.928 47.932C204.603 47.932 205.138 47.822 205.534 47.602C205.945 47.382 206.15 47.0887 206.15 46.722C206.15 46.4287 206.033 46.194 205.798 46.018C205.578 45.842 205.219 45.7173 204.72 45.644L202.52 45.314C201.391 45.138 200.525 44.7713 199.924 44.214C199.337 43.6567 199.044 42.916 199.044 41.992C199.044 40.892 199.477 40.012 200.342 39.352C201.207 38.692 202.366 38.362 203.818 38.362C204.654 38.362 205.468 38.4867 206.26 38.736C207.052 38.9707 207.807 39.3227 208.526 39.792L207.074 41.728C206.443 41.3613 205.842 41.09 205.27 40.914C204.698 40.7233 204.119 40.628 203.532 40.628C202.989 40.628 202.549 40.7307 202.212 40.936C201.889 41.1413 201.728 41.4127 201.728 41.75C201.728 42.058 201.845 42.3 202.08 42.476C202.329 42.6373 202.733 42.7547 203.29 42.828L205.49 43.158C206.605 43.3193 207.463 43.686 208.064 44.258C208.68 44.83 208.988 45.556 208.988 46.436C208.988 46.9787 208.856 47.4847 208.592 47.954C208.343 48.4087 207.998 48.8047 207.558 49.142C207.118 49.4793 206.59 49.7433 205.974 49.934C205.358 50.1247 204.691 50.22 203.972 50.22C202.931 50.22 201.955 50.088 201.046 49.824C200.137 49.5453 199.359 49.1493 198.714 48.636ZM209.564 48.636L211.06 46.634C211.734 47.074 212.372 47.404 212.974 47.624C213.575 47.8293 214.176 47.932 214.778 47.932C215.452 47.932 215.988 47.822 216.384 47.602C216.794 47.382 217 47.0887 217 46.722C217 46.4287 216.882 46.194 216.648 46.018C216.428 45.842 216.068 45.7173 215.57 45.644L213.37 45.314C212.24 45.138 211.375 44.7713 210.774 44.214C210.187 43.6567 209.894 42.916 209.894 41.992C209.894 40.892 210.326 40.012 211.192 39.352C212.057 38.692 213.216 38.362 214.668 38.362C215.504 38.362 216.318 38.4867 217.11 38.736C217.902 38.9707 218.657 39.3227 219.376 39.792L217.924 41.728C217.293 41.3613 216.692 41.09 216.12 40.914C215.548 40.7233 214.968 40.628 214.382 40.628C213.839 40.628 213.399 40.7307 213.062 40.936C212.739 41.1413 212.578 41.4127 212.578 41.75C212.578 42.058 212.695 42.3 212.93 42.476C213.179 42.6373 213.582 42.7547 214.14 42.828L216.34 43.158C217.454 43.3193 218.312 43.686 218.914 44.258C219.53 44.83 219.838 45.556 219.838 46.436C219.838 46.9787 219.706 47.4847 219.442 47.954C219.192 48.4087 218.848 48.8047 218.408 49.142C217.968 49.4793 217.44 49.7433 216.824 49.934C216.208 50.1247 215.54 50.22 214.822 50.22C213.78 50.22 212.805 50.088 211.896 49.824C210.986 49.5453 210.209 49.1493 209.564 48.636ZM230.388 50V34.6H233.578V50H230.388ZM241.156 50L234.908 34.6H238.362L243.07 46.766L247.888 34.6H251.188L244.852 50H241.156ZM260.863 42.454H269.135V45.006H260.863V42.454ZM278.732 50L284.552 36H286.412L292.152 50H290.472L288.712 45.6H282.112L280.332 50H278.732ZM282.652 44.28H288.172L285.432 37.44L282.652 44.28ZM294.967 35.66V50H293.487V36L294.967 35.66ZM298.97 35.66V50H297.49V36L298.97 35.66ZM304.751 47.6L305.771 46.54C306.491 47.3 307.258 47.88 308.071 48.28C308.898 48.6667 309.765 48.86 310.671 48.86C311.765 48.86 312.665 48.6 313.371 48.08C314.078 47.56 314.431 46.9 314.431 46.1C314.431 45.38 314.178 44.8267 313.671 44.44C313.178 44.0533 312.358 43.7667 311.211 43.58L309.191 43.26C307.845 43.0467 306.851 42.6533 306.211 42.08C305.571 41.4933 305.251 40.7067 305.251 39.72C305.251 38.56 305.705 37.62 306.611 36.9C307.518 36.18 308.705 35.82 310.171 35.82C311.145 35.82 312.111 35.98 313.071 36.3C314.031 36.62 314.905 37.08 315.691 37.68L314.811 38.88C314.051 38.3067 313.278 37.8733 312.491 37.58C311.705 37.2867 310.911 37.14 310.111 37.14C309.111 37.14 308.298 37.3733 307.671 37.84C307.058 38.2933 306.751 38.88 306.751 39.6C306.751 40.2533 306.971 40.7533 307.411 41.1C307.851 41.4467 308.578 41.7 309.591 41.86L311.591 42.18C313.111 42.4333 314.218 42.8667 314.911 43.48C315.618 44.0933 315.971 44.94 315.971 46.02C315.971 46.6333 315.838 47.2 315.571 47.72C315.318 48.2267 314.951 48.6667 314.471 49.04C314.005 49.4 313.438 49.6867 312.771 49.9C312.118 50.1 311.398 50.2 310.611 50.2C309.505 50.2 308.438 49.98 307.411 49.54C306.398 49.0867 305.511 48.44 304.751 47.6ZM319.203 39.98V46.02C319.203 46.9 319.457 47.6 319.963 48.12C320.47 48.64 321.15 48.9 322.003 48.9C322.603 48.9 323.137 48.7667 323.603 48.5C324.083 48.22 324.47 47.8333 324.763 47.34V39.98H326.243V50H324.763V48.84C324.377 49.2933 323.917 49.6333 323.383 49.86C322.863 50.0867 322.277 50.2 321.623 50.2C320.477 50.2 319.543 49.84 318.823 49.12C318.103 48.4 317.743 47.4667 317.743 46.32V39.98H319.203ZM338.5 44.98C338.5 45.7 338.367 46.38 338.1 47.02C337.847 47.66 337.493 48.2133 337.04 48.68C336.587 49.1333 336.047 49.4933 335.42 49.76C334.807 50.0267 334.147 50.16 333.44 50.16C332.853 50.16 332.28 50.06 331.72 49.86C331.173 49.66 330.673 49.3733 330.22 49V50H328.76V36L330.24 35.66V41.04C330.653 40.64 331.133 40.34 331.68 40.14C332.24 39.9267 332.833 39.82 333.46 39.82C334.167 39.82 334.827 39.9533 335.44 40.22C336.053 40.4867 336.587 40.8533 337.04 41.32C337.493 41.7733 337.847 42.32 338.1 42.96C338.367 43.5867 338.5 44.26 338.5 44.98ZM333.32 41.12C332.693 41.12 332.107 41.2467 331.56 41.5C331.027 41.74 330.587 42.08 330.24 42.52V47.48C330.587 47.9067 331.033 48.2467 331.58 48.5C332.127 48.74 332.707 48.86 333.32 48.86C334.373 48.86 335.253 48.4933 335.96 47.76C336.68 47.0133 337.04 46.0933 337.04 45C337.04 44.4533 336.94 43.9467 336.74 43.48C336.553 43 336.293 42.5867 335.96 42.24C335.627 41.8933 335.233 41.62 334.78 41.42C334.327 41.22 333.84 41.12 333.32 41.12ZM341.297 38.06C341.03 38.06 340.797 37.96 340.597 37.76C340.397 37.56 340.297 37.3267 340.297 37.06C340.297 36.78 340.397 36.5467 340.597 36.36C340.797 36.16 341.03 36.06 341.297 36.06C341.577 36.06 341.81 36.16 341.997 36.36C342.197 36.5467 342.297 36.78 342.297 37.06C342.297 37.3267 342.197 37.56 341.997 37.76C341.81 37.96 341.577 38.06 341.297 38.06ZM339.457 54.16C339.27 54.16 339.097 54.1467 338.937 54.12C338.777 54.0933 338.644 54.0667 338.537 54.04V52.8C338.657 52.8267 338.777 52.8467 338.897 52.86C339.004 52.8733 339.13 52.88 339.277 52.88C339.73 52.88 340.057 52.7733 340.257 52.56C340.457 52.3467 340.557 52 340.557 51.52V39.98H342.037V51.64C342.037 52.44 341.81 53.06 341.357 53.5C340.904 53.94 340.27 54.16 339.457 54.16ZM353.001 48.94C352.441 49.3533 351.854 49.6667 351.241 49.88C350.641 50.08 349.981 50.18 349.261 50.18C348.541 50.18 347.861 50.0467 347.221 49.78C346.594 49.5133 346.047 49.1467 345.581 48.68C345.127 48.2133 344.767 47.6667 344.501 47.04C344.234 46.4 344.101 45.7133 344.101 44.98C344.101 44.26 344.227 43.5867 344.481 42.96C344.747 42.3333 345.101 41.7867 345.541 41.32C345.981 40.8533 346.501 40.4867 347.101 40.22C347.714 39.9533 348.361 39.82 349.041 39.82C349.707 39.82 350.327 39.9533 350.901 40.22C351.487 40.4867 351.987 40.8533 352.401 41.32C352.827 41.7867 353.161 42.3333 353.401 42.96C353.654 43.5867 353.781 44.26 353.781 44.98V45.44H345.561C345.667 46.4267 346.074 47.2467 346.781 47.9C347.487 48.5533 348.334 48.88 349.321 48.88C349.841 48.88 350.347 48.8 350.841 48.64C351.334 48.48 351.747 48.2533 352.081 47.96L353.001 48.94ZM349.001 41.12C348.134 41.12 347.381 41.4133 346.741 42C346.114 42.5867 345.734 43.34 345.601 44.26H352.301C352.167 43.38 351.787 42.64 351.161 42.04C350.547 41.4267 349.827 41.12 349.001 41.12ZM360.549 48.84C361.083 48.84 361.596 48.7333 362.089 48.52C362.583 48.3067 363.043 47.9933 363.469 47.58L364.389 48.58C363.856 49.0867 363.256 49.48 362.589 49.76C361.923 50.04 361.229 50.18 360.509 50.18C359.803 50.18 359.136 50.0467 358.509 49.78C357.883 49.5133 357.343 49.1467 356.889 48.68C356.436 48.2133 356.076 47.66 355.809 47.02C355.543 46.38 355.409 45.7 355.409 44.98C355.409 44.26 355.543 43.5867 355.809 42.96C356.076 42.32 356.436 41.7667 356.889 41.3C357.343 40.8333 357.883 40.4667 358.509 40.2C359.136 39.92 359.803 39.78 360.509 39.78C361.229 39.78 361.929 39.92 362.609 40.2C363.303 40.48 363.909 40.8667 364.429 41.36L363.489 42.44C363.089 42.0267 362.629 41.7067 362.109 41.48C361.589 41.2533 361.063 41.14 360.529 41.14C360.023 41.14 359.543 41.24 359.089 41.44C358.636 41.64 358.243 41.9133 357.909 42.26C357.589 42.6067 357.336 43.0133 357.149 43.48C356.963 43.9467 356.869 44.4467 356.869 44.98C356.869 45.5267 356.963 46.04 357.149 46.52C357.349 46.9867 357.609 47.3933 357.929 47.74C358.263 48.0733 358.656 48.34 359.109 48.54C359.563 48.74 360.043 48.84 360.549 48.84ZM367.559 47.76V41.24H365.399V39.98H367.559V37.44L369.019 37.06V39.98H372.039V41.24H369.019V47.38C369.019 47.9133 369.139 48.3 369.379 48.54C369.619 48.7667 370.012 48.88 370.559 48.88C370.839 48.88 371.085 48.86 371.299 48.82C371.525 48.78 371.765 48.7133 372.019 48.62V49.92C371.765 50.0133 371.479 50.08 371.159 50.12C370.852 50.16 370.552 50.18 370.259 50.18C369.392 50.18 368.725 49.9733 368.259 49.56C367.792 49.1467 367.559 48.5467 367.559 47.76ZM372.799 48.62L373.699 47.66C374.152 48.0867 374.659 48.42 375.219 48.66C375.792 48.8867 376.372 49 376.959 49C377.759 49 378.412 48.8333 378.919 48.5C379.425 48.1667 379.679 47.7333 379.679 47.2C379.679 46.7733 379.525 46.44 379.219 46.2C378.925 45.9467 378.459 45.7733 377.819 45.68L376.079 45.44C375.079 45.2933 374.332 45 373.839 44.56C373.359 44.1067 373.119 43.5 373.119 42.74C373.119 41.9 373.472 41.2067 374.179 40.66C374.885 40.1 375.785 39.82 376.879 39.82C377.599 39.82 378.279 39.9267 378.919 40.14C379.572 40.3533 380.205 40.6867 380.819 41.14L380.039 42.14C379.479 41.7667 378.932 41.4867 378.399 41.3C377.879 41.1133 377.345 41.02 376.799 41.02C376.119 41.02 375.559 41.1733 375.119 41.48C374.692 41.7867 374.479 42.1867 374.479 42.68C374.479 43.1067 374.625 43.44 374.919 43.68C375.212 43.9067 375.685 44.0667 376.339 44.16L378.079 44.4C379.079 44.5333 379.825 44.8333 380.319 45.3C380.825 45.7533 381.079 46.36 381.079 47.12C381.079 47.5467 380.972 47.9533 380.759 48.34C380.559 48.7133 380.272 49.04 379.899 49.32C379.539 49.5867 379.112 49.8 378.619 49.96C378.125 50.1067 377.592 50.18 377.019 50.18C376.192 50.18 375.412 50.0467 374.679 49.78C373.959 49.5 373.332 49.1133 372.799 48.62Z" fill="black"/>
</svg>
