<svg width="401" height="103" viewBox="0 0 401 103" fill="none" xmlns="http://www.w3.org/2000/svg">
<path d="M17.05 7.316V9.736H14.938V21H12.034V13.322C11.7407 12.9407 11.462 12.596 11.198 12.288L5.588 17.37L3.586 15.5L4.202 14.95C4.52467 14.5247 4.686 14.1213 4.686 13.74C4.686 13.388 4.59067 13.1387 4.4 12.992C4.20933 12.8307 3.96733 12.75 3.674 12.75C3.30733 12.75 2.904 12.882 2.464 13.146L0.286 11.144C0.960667 10.308 1.61333 9.59667 2.244 9.01C2.87467 8.40867 3.53467 7.954 4.224 7.646C4.91333 7.32333 5.68333 7.162 6.534 7.162C7.61933 7.162 8.58 7.43333 9.416 7.976C10.2667 8.504 11.1613 9.23 12.1 10.154C12.0853 9.91933 12.0707 9.67733 12.056 9.428C12.0413 9.164 12.034 8.9 12.034 8.636V5.864H14.41L14.916 7.316H17.05ZM6.688 12.86C6.688 12.904 6.688 12.9333 6.688 12.948C6.84933 12.7867 7.018 12.6253 7.194 12.464C7.38467 12.3027 7.56067 12.1487 7.722 12.002L9.372 10.572C8.932 10.2493 8.48467 10.0073 8.03 9.846C7.57533 9.67 7.106 9.582 6.622 9.582C5.94733 9.582 5.35333 9.72133 4.84 10C4.32667 10.2787 3.83533 10.66 3.366 11.144C3.542 11.0707 3.73267 11.012 3.938 10.968C4.14333 10.924 4.36333 10.902 4.598 10.902C5.33133 10.902 5.85933 11.1073 6.182 11.518C6.51933 11.914 6.688 12.3613 6.688 12.86ZM21.0903 7.25C22.1463 7.25 23.1436 7.49933 24.0823 7.998C25.0356 8.49667 25.8936 9.15667 26.6563 9.978C26.6416 9.46467 26.6343 8.944 26.6343 8.416V5.864H29.0103L29.5383 7.316V8.13C29.5383 8.24733 29.5383 8.372 29.5383 8.504C29.5383 8.636 29.5309 8.76067 29.5163 8.878C30.0149 8.42333 30.5503 8.07867 31.1223 7.844C31.7089 7.60933 32.3543 7.492 33.0583 7.492C34.0996 7.492 34.9063 7.74867 35.4783 8.262C36.0649 8.77533 36.3583 9.42067 36.3583 10.198C36.3583 10.5353 36.2849 10.902 36.1383 11.298C36.0063 11.694 35.7423 12.068 35.3463 12.42C35.6543 12.6547 35.9183 12.9553 36.1383 13.322C36.3583 13.6887 36.4683 14.1287 36.4683 14.642C36.4683 15.1407 36.3436 15.61 36.0943 16.05C35.8449 16.4753 35.4636 16.82 34.9503 17.084C34.4369 17.348 33.7696 17.48 32.9483 17.48C32.1709 17.48 31.4963 17.3407 30.9243 17.062C30.3523 16.7687 29.8683 16.3947 29.4723 15.94C29.5016 16.1747 29.5163 16.4093 29.5163 16.644C29.5309 16.864 29.5383 17.0913 29.5383 17.326V21H26.6343C25.7983 19.9147 24.7643 19.02 23.5323 18.316C22.3149 17.612 20.8996 17.128 19.2863 16.864L18.2083 14.29C19.1616 13.762 20.1883 13.234 21.2883 12.706C22.4029 12.178 23.5323 11.7087 24.6763 11.298C24.1629 10.8287 23.6129 10.4253 23.0263 10.088C22.4396 9.75067 21.8749 9.582 21.3323 9.582C21.1123 9.582 20.9289 9.63333 20.7823 9.736C20.6503 9.824 20.5843 9.94867 20.5843 10.11C20.5843 10.286 20.6356 10.4327 20.7383 10.55C20.8409 10.6673 21.0096 10.8067 21.2443 10.968L19.3743 12.75C18.8609 12.4127 18.4503 12.024 18.1423 11.584C17.8343 11.1293 17.6803 10.5867 17.6803 9.956C17.6803 9.14933 17.9663 8.49667 18.5383 7.998C19.1249 7.49933 19.9756 7.25 21.0903 7.25ZM32.6623 9.714C32.0463 9.714 31.4669 9.934 30.9243 10.374C30.3963 10.7993 29.9343 11.3713 29.5383 12.09V12.31C29.8316 13.322 30.2496 14.07 30.7923 14.554C31.3349 15.0233 31.9143 15.258 32.5303 15.258C32.8823 15.258 33.1683 15.192 33.3883 15.06C33.6229 14.9133 33.7403 14.6713 33.7403 14.334C33.7403 14.026 33.6229 13.7473 33.3883 13.498C33.0509 13.6007 32.6843 13.6887 32.2883 13.762L31.7603 11.628C32.9923 11.4227 33.6083 11.0267 33.6083 10.44C33.6083 10.1613 33.5129 9.97067 33.3223 9.868C33.1463 9.76533 32.9263 9.714 32.6623 9.714ZM21.8823 15.214C22.6743 15.3607 23.4883 15.6613 24.3243 16.116C25.1749 16.556 25.9596 17.128 26.6783 17.832C26.6489 17.304 26.6343 16.7687 26.6343 16.226V13.234C25.8276 13.5127 25.0356 13.8133 24.2583 14.136C23.4956 14.4587 22.7036 14.818 21.8823 15.214ZM51.8358 7.316V9.736H49.7238V21H46.8198V17.656C46.1158 16.8347 45.4044 16.182 44.6858 15.698C43.9818 15.1993 43.2924 14.95 42.6178 14.95C42.2511 14.95 41.9358 15.038 41.6718 15.214C41.4224 15.39 41.2978 15.654 41.2978 16.006C41.2978 16.3287 41.4151 16.6073 41.6498 16.842C41.8844 17.062 42.2658 17.2673 42.7938 17.458L41.4958 19.9C40.5131 19.5187 39.7358 18.9687 39.1638 18.25C38.5918 17.5313 38.3058 16.754 38.3058 15.918C38.3058 15.214 38.4524 14.6273 38.7458 14.158C39.0538 13.6887 39.4498 13.3293 39.9338 13.08C40.4324 12.816 40.9604 12.6473 41.5178 12.574C41.3711 12.2367 41.1511 11.9727 40.8578 11.782C40.5644 11.5767 40.1684 11.4153 39.6698 11.298C39.1858 11.1807 38.5478 11.0707 37.7558 10.968L38.0638 9.736H37.2058V7.316H51.8358ZM46.8198 9.736H42.1118C42.7864 10.044 43.3144 10.4547 43.6958 10.968C44.0771 11.4813 44.3191 12.1487 44.4218 12.97C45.2284 13.2927 46.0351 13.8427 46.8418 14.62C46.8271 14.3707 46.8198 14.1213 46.8198 13.872C46.8198 13.6227 46.8198 13.3807 46.8198 13.146V9.736ZM65.0293 7.316V9.736H63.7753C63.1153 10.0587 62.4919 10.484 61.9053 11.012C61.3186 11.54 60.8419 12.156 60.4753 12.86C60.1086 13.564 59.9253 14.3487 59.9253 15.214C59.9253 16.094 60.0573 16.7833 60.3213 17.282C60.5853 17.7807 60.9153 18.1327 61.3113 18.338C61.7073 18.5287 62.1033 18.624 62.4992 18.624C62.7633 18.624 63.0199 18.602 63.2693 18.558C63.5186 18.4993 63.8046 18.3893 64.1273 18.228L65.2273 20.406C64.7433 20.6847 64.2666 20.8753 63.7973 20.978C63.3279 21.066 62.8366 21.11 62.3233 21.11C60.6806 21.11 59.3753 20.6113 58.4073 19.614C57.4539 18.602 56.9773 17.1573 56.9773 15.28C56.9773 14.0773 57.2193 12.9627 57.7033 11.936C58.1873 10.8947 58.8399 9.978 59.6613 9.186C60.4826 8.37933 61.3993 7.756 62.4113 7.316H65.0293ZM67.0624 7.162C67.7077 7.162 68.309 7.28667 68.8664 7.536C69.4384 7.78533 69.893 8.174 70.2304 8.702C70.509 8.18867 70.883 7.80733 71.3524 7.558C71.8217 7.294 72.3277 7.162 72.8704 7.162C73.6037 7.162 74.2417 7.316 74.7844 7.624C75.327 7.932 75.8037 8.36467 76.2144 8.922C76.1997 8.71667 76.185 8.51133 76.1704 8.306C76.1704 8.10067 76.1704 7.90267 76.1704 7.712V5.864H78.5464L79.0524 7.316H81.1864V9.736H79.0744V21.946H76.2144C76.0237 21.506 75.7304 21.1907 75.3344 21C74.9384 20.7947 74.3884 20.692 73.6844 20.692C73.1417 20.692 72.5257 20.758 71.8364 20.89C71.147 21.0073 70.4357 21.066 69.7024 21.066C69.2477 21.066 68.7784 21.022 68.2944 20.934C67.8104 20.846 67.3557 20.67 66.9304 20.406C66.5197 20.1273 66.1824 19.7313 65.9184 19.218C65.669 18.69 65.5444 18.0007 65.5444 17.15C65.5444 16.9007 65.5517 16.6733 65.5664 16.468C65.5957 16.2627 65.6324 16.0427 65.6764 15.808L68.4264 16.094C68.3824 16.358 68.3604 16.644 68.3604 16.952C68.3604 17.6267 68.5437 18.074 68.9104 18.294C69.277 18.514 69.739 18.624 70.2964 18.624C70.883 18.624 71.4404 18.5653 71.9684 18.448C72.4964 18.316 73.0024 18.25 73.4864 18.25C74.689 18.25 75.5837 18.646 76.1704 19.438V11.672C75.7744 11.0413 75.3344 10.5353 74.8504 10.154C74.381 9.77267 73.8677 9.582 73.3104 9.582C72.8997 9.582 72.5404 9.68467 72.2324 9.89C71.939 10.0953 71.7924 10.4107 71.7924 10.836C71.7924 11.716 72.6577 12.1853 74.3884 12.244L74.0804 14.884C73.0977 14.8253 72.2984 14.6347 71.6824 14.312C71.081 13.9893 70.6264 13.5713 70.3184 13.058C70.0104 13.586 69.541 14.026 68.9104 14.378C68.2944 14.7153 67.4804 14.884 66.4684 14.884L66.1824 12.244C67.1797 12.2 67.8544 12.046 68.2064 11.782C68.573 11.518 68.7564 11.2027 68.7564 10.836C68.7564 10.4107 68.5877 10.0953 68.2504 9.89C67.9277 9.68467 67.495 9.582 66.9524 9.582C66.5564 9.582 66.2044 9.604 65.8964 9.648C65.603 9.692 65.3097 9.75067 65.0164 9.824L64.7304 7.404C65.097 7.33067 65.4637 7.272 65.8304 7.228C66.197 7.184 66.6077 7.162 67.0624 7.162ZM95.3406 7.316V9.736H93.2286V21H90.3246V12.376C89.6793 11.6133 88.9973 10.968 88.2786 10.44C87.5746 9.912 86.8559 9.648 86.1226 9.648C85.6826 9.648 85.3233 9.77267 85.0446 10.022C84.7806 10.2713 84.6486 10.6233 84.6486 11.078C84.6486 11.386 84.7219 11.672 84.8686 11.936C85.0299 12.1853 85.3086 12.3907 85.7046 12.552C86.1006 12.6987 86.6726 12.7867 87.4206 12.816L87.0906 15.676C85.1839 15.456 83.7979 14.9353 82.9326 14.114C82.0819 13.2927 81.6566 12.2587 81.6566 11.012C81.6566 10.2347 81.8326 9.56 82.1846 8.988C82.5366 8.40133 83.0133 7.954 83.6146 7.646C84.2159 7.32333 84.8979 7.162 85.6606 7.162C86.6726 7.162 87.5526 7.38933 88.3006 7.844C89.0486 8.29867 89.7379 8.82667 90.3686 9.428C90.3393 8.87067 90.3246 8.328 90.3246 7.8V5.864H92.7006L93.2066 7.316H95.3406ZM102.019 9.736H99.9073V21H97.0033V9.736H94.8913V7.316H97.0033C96.7247 5.79067 95.9033 4.698 94.5393 4.038C93.1753 3.36333 91.3127 3.026 88.9513 3.026C87.866 3.026 87.0593 3.09933 86.5313 3.246C85.9887 3.39267 85.7173 3.59067 85.7173 3.84C85.7173 3.98667 85.798 4.08933 85.9593 4.148C86.106 4.192 86.3993 4.214 86.8393 4.214H89.0613C89.912 4.214 90.594 4.28 91.1073 4.412C91.606 4.544 92.0167 4.75667 92.3393 5.05C92.6327 5.314 92.8453 5.63667 92.9773 6.018C93.1093 6.39933 93.1753 6.88333 93.1753 7.47H90.4033C90.4033 6.95667 90.2567 6.612 89.9633 6.436C89.8313 6.36267 89.6847 6.31133 89.5233 6.282C89.362 6.238 89.1493 6.216 88.8853 6.216H87.2793C86.3993 6.216 85.71 6.172 85.2113 6.084C84.7127 5.98133 84.3093 5.842 84.0013 5.666C83.6347 5.46067 83.378 5.204 83.2313 4.896C83.0847 4.57333 83.0113 4.236 83.0113 3.884C83.0113 2.97467 83.5393 2.24133 84.5953 1.684C85.6367 1.112 87.2353 0.825999 89.3913 0.825999C92.5887 0.825999 95.0893 1.354 96.8933 2.41C98.6973 3.45133 99.7167 5.08667 99.9513 7.316H102.019V9.736ZM115.217 7.316V9.736H113.963C113.303 10.0587 112.679 10.484 112.093 11.012C111.506 11.54 111.029 12.156 110.663 12.86C110.296 13.564 110.113 14.3487 110.113 15.214C110.113 16.094 110.245 16.7833 110.509 17.282C110.773 17.7807 111.103 18.1327 111.499 18.338C111.895 18.5287 112.291 18.624 112.687 18.624C112.951 18.624 113.207 18.602 113.457 18.558C113.706 18.4993 113.992 18.3893 114.315 18.228L115.415 20.406C114.931 20.6847 114.454 20.8753 113.985 20.978C113.515 21.066 113.024 21.11 112.511 21.11C110.868 21.11 109.563 20.6113 108.595 19.614C107.641 18.602 107.165 17.1573 107.165 15.28C107.165 14.0773 107.407 12.9627 107.891 11.936C108.375 10.8947 109.027 9.978 109.849 9.186C110.67 8.37933 111.587 7.756 112.599 7.316H115.217ZM120 7.25C121.115 7.25 122.017 7.43333 122.706 7.8C123.41 8.16667 123.931 8.64333 124.268 9.23C124.605 9.802 124.774 10.418 124.774 11.078C124.774 12.0313 124.481 12.86 123.894 13.564C123.307 14.2533 122.486 14.774 121.43 15.126C122.559 15.4487 123.461 15.852 124.136 16.336C124.825 16.8053 125.463 17.2893 126.05 17.788C126.035 17.4507 126.021 17.1133 126.006 16.776C126.006 16.424 126.006 16.0573 126.006 15.676V5.864H128.382L128.888 7.316H131.022V9.736H128.91V21H126.006C125.317 20.164 124.583 19.46 123.806 18.888C123.043 18.316 122.185 17.8467 121.232 17.48C120.293 17.0987 119.208 16.8127 117.976 16.622L117.272 14.07C118.929 13.762 120.11 13.3733 120.814 12.904C121.518 12.4347 121.87 11.8553 121.87 11.166C121.87 10.7407 121.716 10.374 121.408 10.066C121.1 9.758 120.638 9.604 120.022 9.604C119.567 9.604 119.23 9.692 119.01 9.868C118.805 10.0293 118.702 10.2127 118.702 10.418C118.702 10.77 118.915 11.0853 119.34 11.364L117.536 13.168C117.287 12.992 117.023 12.7867 116.744 12.552C116.48 12.3027 116.26 12.002 116.084 11.65C115.908 11.298 115.82 10.88 115.82 10.396C115.82 9.824 115.974 9.30333 116.282 8.834C116.59 8.35 117.052 7.96867 117.668 7.69C118.284 7.39667 119.061 7.25 120 7.25ZM139.795 7.316V9.736H138.541C137.881 10.0587 137.258 10.484 136.671 11.012C136.084 11.54 135.608 12.156 135.241 12.86C134.874 13.564 134.691 14.3487 134.691 15.214C134.691 16.094 134.823 16.7833 135.087 17.282C135.351 17.7807 135.681 18.1327 136.077 18.338C136.473 18.5287 136.869 18.624 137.265 18.624C137.529 18.624 137.786 18.602 138.035 18.558C138.284 18.4993 138.57 18.3893 138.893 18.228L139.993 20.406C139.509 20.6847 139.032 20.8753 138.563 20.978C138.094 21.066 137.602 21.11 137.089 21.11C135.446 21.11 134.141 20.6113 133.173 19.614C132.22 18.602 131.743 17.1573 131.743 15.28C131.743 14.1213 131.978 13.0653 132.447 12.112C132.931 11.144 133.591 10.3373 134.427 9.692C134.06 9.72133 133.532 9.736 132.843 9.736H130.577V7.316H139.795ZM157.734 15.324C157.734 15.808 157.631 16.27 157.426 16.71C157.235 17.15 156.898 17.5093 156.414 17.788C155.93 18.0667 155.255 18.206 154.39 18.206C153.789 18.206 153.268 18.162 152.828 18.074L152.916 15.654C152.989 15.6687 153.077 15.6833 153.18 15.698C153.297 15.698 153.444 15.698 153.62 15.698C154.148 15.698 154.493 15.61 154.654 15.434C154.815 15.2433 154.896 15.016 154.896 14.752C154.896 14.2827 154.61 13.8647 154.038 13.498C153.466 13.1313 152.63 12.838 151.53 12.618V21H148.626C147.805 19.812 146.741 18.844 145.436 18.096C144.145 17.3333 142.679 16.8127 141.036 16.534L139.936 13.938C141.212 13.2193 142.613 12.53 144.138 11.87C145.678 11.1953 147.196 10.6453 148.692 10.22V9.736H139.364V7.316H158.658V9.736H151.486V10.198C152.645 10.374 153.693 10.6893 154.632 11.144C155.585 11.5987 156.341 12.178 156.898 12.882C157.455 13.5713 157.734 14.3853 157.734 15.324ZM143.632 14.884C144.453 15.0453 145.311 15.368 146.206 15.852C147.101 16.3213 147.922 16.93 148.67 17.678C148.655 17.502 148.641 17.3187 148.626 17.128C148.626 16.9227 148.626 16.7173 148.626 16.512V12.838C147.761 13.1167 146.925 13.4247 146.118 13.762C145.326 14.0993 144.497 14.4733 143.632 14.884ZM171.629 19.196C170.426 19.196 169.297 18.9613 168.241 18.492C167.2 18.0227 166.254 17.2307 165.403 16.116C164.567 15.0013 163.834 13.4907 163.203 11.584L165.953 10.814C166.422 12.178 166.914 13.2927 167.427 14.158C167.94 15.0233 168.527 15.6613 169.187 16.072C169.847 16.468 170.617 16.666 171.497 16.666C172.538 16.666 173.301 16.468 173.785 16.072C174.284 15.676 174.533 15.1333 174.533 14.444C174.533 13.8867 174.379 13.454 174.071 13.146C173.778 12.8233 173.396 12.662 172.927 12.662C172.604 12.662 172.355 12.7427 172.179 12.904C172.003 13.0653 171.915 13.278 171.915 13.542C171.915 13.7767 171.966 14.0333 172.069 14.312L169.341 14.708C169.224 14.4293 169.136 14.158 169.077 13.894C169.018 13.63 168.989 13.4027 168.989 13.212C168.989 12.684 169.084 12.2367 169.275 11.87C169.48 11.5033 169.744 11.2027 170.067 10.968C169.818 10.4253 169.326 10.0147 168.593 9.736H162.653V7.316H184.213V9.736H182.101V21H179.197C178.845 20.3547 178.368 19.7827 177.767 19.284C177.18 18.7707 176.586 18.3307 175.985 17.964C175.516 18.3453 174.922 18.646 174.203 18.866C173.484 19.086 172.626 19.196 171.629 19.196ZM177.437 14.774C177.437 15.2433 177.371 15.6907 177.239 16.116C178.075 16.6733 178.75 17.2307 179.263 17.788C179.219 17.3187 179.197 16.798 179.197 16.226V9.736H172.245C172.436 9.912 172.597 10.1027 172.729 10.308C173.712 10.3373 174.548 10.55 175.237 10.946C175.941 11.342 176.484 11.87 176.865 12.53C177.246 13.19 177.437 13.938 177.437 14.774ZM190.768 21.264C189.302 21.264 188.18 20.9633 187.402 20.362C186.64 19.746 186.258 18.888 186.258 17.788C186.258 17.2307 186.398 16.7393 186.676 16.314C186.97 15.874 187.358 15.4707 187.842 15.104C186.889 14.884 186.112 14.488 185.51 13.916C184.924 13.3293 184.63 12.5667 184.63 11.628C184.63 11.2613 184.689 10.924 184.806 10.616C184.924 10.2933 185.078 10 185.268 9.736C185.048 9.736 184.814 9.736 184.564 9.736H183.772V7.316H192.814C192.8 6.86133 192.682 6.53867 192.462 6.348C192.242 6.14267 191.854 6.04 191.296 6.04H189.272C188.158 6.04 187.248 5.93733 186.544 5.732C185.855 5.512 185.312 5.182 184.916 4.742C184.388 4.15533 184.124 3.312 184.124 2.212C184.124 1.992 184.132 1.794 184.146 1.618C184.161 1.42733 184.19 1.2 184.234 0.935999L186.984 1.112C186.97 1.244 186.955 1.36133 186.94 1.464C186.94 1.56667 186.94 1.662 186.94 1.75C186.94 2.058 186.97 2.33667 187.028 2.586C187.102 2.82067 187.219 3.01867 187.38 3.18C187.542 3.32667 187.747 3.43667 187.996 3.51C188.246 3.58333 188.649 3.62 189.206 3.62H191.318C192.184 3.62 192.866 3.686 193.364 3.818C193.878 3.95 194.31 4.18467 194.662 4.522C194.941 4.80067 195.154 5.16733 195.3 5.622C195.462 6.062 195.55 6.62667 195.564 7.316H197.72V9.736H195.234C195.498 10.1907 195.63 10.6967 195.63 11.254C195.63 12.1047 195.366 12.8233 194.838 13.41C194.325 13.982 193.672 14.422 192.88 14.73C191.912 15.17 191.157 15.5513 190.614 15.874C190.086 16.1967 189.72 16.5047 189.514 16.798C189.309 17.0767 189.206 17.3773 189.206 17.7C189.206 18.1693 189.382 18.492 189.734 18.668C190.101 18.8293 190.519 18.91 190.988 18.91C191.722 18.91 192.338 18.7853 192.836 18.536C193.35 18.2867 193.606 17.9273 193.606 17.458C193.606 17.0767 193.364 16.7613 192.88 16.512L194.596 14.554C195.11 14.8767 195.572 15.258 195.982 15.698C196.408 16.138 196.62 16.7027 196.62 17.392C196.62 18.536 196.136 19.4673 195.168 20.186C194.2 20.9047 192.734 21.264 190.768 21.264ZM190.394 9.406C189.969 9.406 189.573 9.45733 189.206 9.56C190.409 10.2787 191.502 11.1 192.484 12.024C192.66 11.7307 192.748 11.4153 192.748 11.078C192.748 10.55 192.55 10.1393 192.154 9.846C191.758 9.55267 191.172 9.406 190.394 9.406ZM187.512 11.43C187.512 11.958 187.718 12.3833 188.128 12.706C188.554 13.0287 189.14 13.19 189.888 13.19C190.299 13.19 190.68 13.1387 191.032 13.036C190.02 12.0827 188.928 11.254 187.754 10.55C187.593 10.814 187.512 11.1073 187.512 11.43ZM211.916 7.316V9.736H209.804V21H206.9V17.656C206.196 16.8347 205.485 16.182 204.766 15.698C204.062 15.1993 203.373 14.95 202.698 14.95C202.331 14.95 202.016 15.038 201.752 15.214C201.503 15.39 201.378 15.654 201.378 16.006C201.378 16.3287 201.495 16.6073 201.73 16.842C201.965 17.062 202.346 17.2673 202.874 17.458L201.576 19.9C200.593 19.5187 199.816 18.9687 199.244 18.25C198.672 17.5313 198.386 16.754 198.386 15.918C198.386 15.214 198.533 14.6273 198.826 14.158C199.134 13.6887 199.53 13.3293 200.014 13.08C200.513 12.816 201.041 12.6473 201.598 12.574C201.451 12.2367 201.231 11.9727 200.938 11.782C200.645 11.5767 200.249 11.4153 199.75 11.298C199.266 11.1807 198.628 11.0707 197.836 10.968L198.144 9.736H197.286V7.316H211.916ZM206.9 9.736H202.192C202.867 10.044 203.395 10.4547 203.776 10.968C204.157 11.4813 204.399 12.1487 204.502 12.97C205.309 13.2927 206.115 13.8427 206.922 14.62C206.907 14.3707 206.9 14.1213 206.9 13.872C206.9 13.6227 206.9 13.3807 206.9 13.146V9.736ZM225.109 7.316V9.736H223.855C223.195 10.0587 222.572 10.484 221.985 11.012C221.399 11.54 220.922 12.156 220.555 12.86C220.189 13.564 220.005 14.3487 220.005 15.214C220.005 16.094 220.137 16.7833 220.401 17.282C220.665 17.7807 220.995 18.1327 221.391 18.338C221.787 18.5287 222.183 18.624 222.579 18.624C222.843 18.624 223.1 18.602 223.349 18.558C223.599 18.4993 223.885 18.3893 224.207 18.228L225.307 20.406C224.823 20.6847 224.347 20.8753 223.877 20.978C223.408 21.066 222.917 21.11 222.403 21.11C220.761 21.11 219.455 20.6113 218.487 19.614C217.534 18.602 217.057 17.1573 217.057 15.28C217.057 14.0773 217.299 12.9627 217.783 11.936C218.267 10.8947 218.92 9.978 219.741 9.186C220.563 8.37933 221.479 7.756 222.491 7.316H225.109ZM227.142 7.162C227.788 7.162 228.389 7.28667 228.946 7.536C229.518 7.78533 229.973 8.174 230.31 8.702C230.589 8.18867 230.963 7.80733 231.432 7.558C231.902 7.294 232.408 7.162 232.95 7.162C233.684 7.162 234.322 7.316 234.864 7.624C235.407 7.932 235.884 8.36467 236.294 8.922C236.28 8.71667 236.265 8.51133 236.25 8.306C236.25 8.10067 236.25 7.90267 236.25 7.712V5.864H238.626L239.132 7.316H241.266V9.736H239.154V21.946H236.294C236.104 21.506 235.81 21.1907 235.414 21C235.018 20.7947 234.468 20.692 233.764 20.692C233.222 20.692 232.606 20.758 231.916 20.89C231.227 21.0073 230.516 21.066 229.782 21.066C229.328 21.066 228.858 21.022 228.374 20.934C227.89 20.846 227.436 20.67 227.01 20.406C226.6 20.1273 226.262 19.7313 225.998 19.218C225.749 18.69 225.624 18.0007 225.624 17.15C225.624 16.9007 225.632 16.6733 225.646 16.468C225.676 16.2627 225.712 16.0427 225.756 15.808L228.506 16.094C228.462 16.358 228.44 16.644 228.44 16.952C228.44 17.6267 228.624 18.074 228.99 18.294C229.357 18.514 229.819 18.624 230.376 18.624C230.963 18.624 231.52 18.5653 232.048 18.448C232.576 18.316 233.082 18.25 233.566 18.25C234.769 18.25 235.664 18.646 236.25 19.438V11.672C235.854 11.0413 235.414 10.5353 234.93 10.154C234.461 9.77267 233.948 9.582 233.39 9.582C232.98 9.582 232.62 9.68467 232.312 9.89C232.019 10.0953 231.872 10.4107 231.872 10.836C231.872 11.716 232.738 12.1853 234.468 12.244L234.16 14.884C233.178 14.8253 232.378 14.6347 231.762 14.312C231.161 13.9893 230.706 13.5713 230.398 13.058C230.09 13.586 229.621 14.026 228.99 14.378C228.374 14.7153 227.56 14.884 226.548 14.884L226.262 12.244C227.26 12.2 227.934 12.046 228.286 11.782C228.653 11.518 228.836 11.2027 228.836 10.836C228.836 10.4107 228.668 10.0953 228.33 9.89C228.008 9.68467 227.575 9.582 227.032 9.582C226.636 9.582 226.284 9.604 225.976 9.648C225.683 9.692 225.39 9.75067 225.096 9.824L224.81 7.404C225.177 7.33067 225.544 7.272 225.91 7.228C226.277 7.184 226.688 7.162 227.142 7.162ZM255.421 7.316V9.736H253.309V21H250.405V12.376C249.759 11.6133 249.077 10.968 248.359 10.44C247.655 9.912 246.936 9.648 246.203 9.648C245.763 9.648 245.403 9.77267 245.125 10.022C244.861 10.2713 244.729 10.6233 244.729 11.078C244.729 11.386 244.802 11.672 244.949 11.936C245.11 12.1853 245.389 12.3907 245.785 12.552C246.181 12.6987 246.753 12.7867 247.501 12.816L247.171 15.676C245.264 15.456 243.878 14.9353 243.013 14.114C242.162 13.2927 241.737 12.2587 241.737 11.012C241.737 10.2347 241.913 9.56 242.265 8.988C242.617 8.40133 243.093 7.954 243.695 7.646C244.296 7.32333 244.978 7.162 245.741 7.162C246.753 7.162 247.633 7.38933 248.381 7.844C249.129 8.29867 249.818 8.82667 250.449 9.428C250.419 8.87067 250.405 8.328 250.405 7.8V5.864H252.781L253.287 7.316H255.421ZM262.099 9.736H259.987V21H257.083V9.736H254.971V7.316H257.083C256.805 5.79067 255.983 4.698 254.619 4.038C253.255 3.36333 251.393 3.026 249.031 3.026C247.946 3.026 247.139 3.09933 246.611 3.246C246.069 3.39267 245.797 3.59067 245.797 3.84C245.797 3.98667 245.878 4.08933 246.039 4.148C246.186 4.192 246.479 4.214 246.919 4.214H249.141C249.992 4.214 250.674 4.28 251.187 4.412C251.686 4.544 252.097 4.75667 252.419 5.05C252.713 5.314 252.925 5.63667 253.057 6.018C253.189 6.39933 253.255 6.88333 253.255 7.47H250.483C250.483 6.95667 250.337 6.612 250.043 6.436C249.911 6.36267 249.765 6.31133 249.603 6.282C249.442 6.238 249.229 6.216 248.965 6.216H247.359C246.479 6.216 245.79 6.172 245.291 6.084C244.793 5.98133 244.389 5.842 244.081 5.666C243.715 5.46067 243.458 5.204 243.311 4.896C243.165 4.57333 243.091 4.236 243.091 3.884C243.091 2.97467 243.619 2.24133 244.675 1.684C245.717 1.112 247.315 0.825999 249.471 0.825999C252.669 0.825999 255.169 1.354 256.973 2.41C258.777 3.45133 259.797 5.08667 260.031 7.316H262.099V9.736ZM283.349 7.316V9.736H281.237V21H278.333V13.322C278.039 12.9407 277.761 12.596 277.497 12.288L271.887 17.37L269.885 15.5L270.501 14.95C270.823 14.5247 270.985 14.1213 270.985 13.74C270.985 13.388 270.889 13.1387 270.699 12.992C270.508 12.8307 270.266 12.75 269.973 12.75C269.606 12.75 269.203 12.882 268.763 13.146L266.585 11.144C267.259 10.308 267.912 9.59667 268.543 9.01C269.173 8.40867 269.833 7.954 270.523 7.646C271.212 7.32333 271.982 7.162 272.833 7.162C273.918 7.162 274.879 7.43333 275.715 7.976C276.565 8.504 277.46 9.23 278.399 10.154C278.384 9.91933 278.369 9.67733 278.355 9.428C278.34 9.164 278.333 8.9 278.333 8.636V5.864H280.709L281.215 7.316H283.349ZM272.987 12.86C272.987 12.904 272.987 12.9333 272.987 12.948C273.148 12.7867 273.317 12.6253 273.493 12.464C273.683 12.3027 273.859 12.1487 274.021 12.002L275.671 10.572C275.231 10.2493 274.783 10.0073 274.329 9.846C273.874 9.67 273.405 9.582 272.921 9.582C272.246 9.582 271.652 9.72133 271.139 10C270.625 10.2787 270.134 10.66 269.665 11.144C269.841 11.0707 270.031 11.012 270.237 10.968C270.442 10.924 270.662 10.902 270.897 10.902C271.63 10.902 272.158 11.1073 272.481 11.518C272.818 11.914 272.987 12.3613 272.987 12.86ZM297.971 7.316V9.736H295.859V21H292.955C292.06 19.9 290.946 19.0567 289.611 18.47C288.291 17.8833 286.7 17.4653 284.837 17.216L283.803 14.73C284.404 14.3633 285.057 13.9893 285.761 13.608C286.48 13.212 287.206 12.838 287.939 12.486C287.323 12.134 286.656 11.826 285.937 11.562C285.233 11.298 284.463 11.1 283.627 10.968L284.177 9.736H282.901V7.316H297.971ZM292.955 9.736H287.433C288.093 9.97067 288.694 10.2787 289.237 10.66C289.78 11.0267 290.271 11.408 290.711 11.804L290.975 13.74C290.388 13.9747 289.787 14.2387 289.171 14.532C288.57 14.8107 287.998 15.0967 287.455 15.39C288.042 15.4927 288.665 15.6613 289.325 15.896C290 16.1307 290.66 16.4313 291.305 16.798C291.95 17.1647 292.515 17.59 292.999 18.074C292.97 17.8247 292.955 17.5753 292.955 17.326C292.955 17.0767 292.955 16.8127 292.955 16.534V9.736ZM291.108 4.632L298.742 0.825999L299.886 2.894L292.34 6.832L291.108 4.632ZM307.476 22.848C306.229 22.848 305.012 22.6573 303.824 22.276C302.651 21.8947 301.565 21.2787 300.568 20.428C299.585 19.5627 298.742 18.4113 298.038 16.974L300.678 15.874C301.573 17.5167 302.555 18.6827 303.626 19.372C304.711 20.0613 305.914 20.406 307.234 20.406C308.246 20.406 308.965 20.2593 309.39 19.966C309.815 19.6727 310.028 19.2327 310.028 18.646C310.028 18.206 309.881 17.854 309.588 17.59C309.295 17.3113 308.877 17.172 308.334 17.172C307.997 17.172 307.725 17.2453 307.52 17.392C307.315 17.5387 307.212 17.7513 307.212 18.03C307.212 18.2353 307.249 18.4333 307.322 18.624L304.638 18.976C304.55 18.756 304.484 18.514 304.44 18.25C304.396 17.9713 304.374 17.722 304.374 17.502C304.374 16.71 304.66 16.094 305.232 15.654C305.804 15.1993 306.545 14.928 307.454 14.84C307.117 14.7227 306.787 14.576 306.464 14.4C306.141 14.224 305.804 14.0113 305.452 13.762C305.041 13.4687 304.711 13.2707 304.462 13.168C304.227 13.0507 304.007 12.992 303.802 12.992C303.567 12.992 303.377 13.0507 303.23 13.168C303.098 13.2707 303.032 13.4173 303.032 13.608C303.032 13.7987 303.091 13.9747 303.208 14.136C303.34 14.2973 303.509 14.4587 303.714 14.62L301.932 16.38C301.521 16.0133 301.133 15.588 300.766 15.104C300.414 14.62 300.238 14.0187 300.238 13.3C300.238 12.684 300.385 12.1707 300.678 11.76C300.986 11.3493 301.367 11.0487 301.822 10.858C302.277 10.6527 302.739 10.55 303.208 10.55C303.897 10.55 304.491 10.6527 304.99 10.858C305.503 11.0633 306.083 11.3787 306.728 11.804C307.271 12.1413 307.696 12.3833 308.004 12.53C308.327 12.662 308.657 12.728 308.994 12.728C309.771 12.728 310.16 12.2953 310.16 11.43C310.16 11.122 310.094 10.8287 309.962 10.55C309.83 10.2567 309.654 9.98533 309.434 9.736H297.532V7.316H314.406V9.736H312.47C312.661 10.044 312.815 10.3887 312.932 10.77C313.049 11.1513 313.108 11.5547 313.108 11.98C313.108 12.772 312.895 13.4613 312.47 14.048C312.059 14.6347 311.297 14.9867 310.182 15.104C311.121 15.3973 311.81 15.8813 312.25 16.556C312.705 17.2307 312.932 17.9713 312.932 18.778C312.932 19.5407 312.749 20.23 312.382 20.846C312.015 21.462 311.429 21.946 310.622 22.298C309.83 22.6647 308.781 22.848 307.476 22.848ZM319.515 13.454H327.787V16.006H319.515V13.454ZM156.474 46.36C155.02 46.36 153.66 46.0733 152.394 45.5C151.14 44.9267 150.027 44.0067 149.054 42.74C148.08 41.4733 147.28 39.8 146.654 37.72L148.134 37.26C149 39.94 150.107 41.8733 151.454 43.06C152.814 44.2467 154.474 44.84 156.434 44.84C157.46 44.84 158.28 44.6667 158.894 44.32C159.52 43.96 159.834 43.4 159.834 42.64C159.834 42.32 159.774 42.0333 159.654 41.78C159.534 41.5267 159.367 41.3 159.154 41.1C158.66 41.4333 158.08 41.7333 157.414 42L156.794 40.54C157.687 40.2067 158.394 39.82 158.914 39.38C159.447 38.9267 159.714 38.3333 159.714 37.6C159.714 37.3333 159.667 37.0733 159.574 36.82C159.48 36.5667 159.327 36.3333 159.114 36.12L157.734 37.82L156.514 37.86C156.394 37.1667 156.194 36.6667 155.914 36.36C155.647 36.04 155.3 35.88 154.874 35.88C154.5 35.88 154.187 35.9933 153.934 36.22C153.694 36.4333 153.574 36.76 153.574 37.2C153.574 37.6267 153.734 37.9733 154.054 38.24C154.374 38.5067 154.894 38.6533 155.614 38.68L155.514 40.22C154.807 40.18 154.227 40.0333 153.774 39.78C153.32 39.5133 152.98 39.1667 152.754 38.74C152.54 39.18 152.207 39.5467 151.754 39.84C151.314 40.12 150.734 40.26 150.014 40.26L149.874 38.72C150.647 38.7067 151.174 38.5467 151.454 38.24C151.734 37.9333 151.874 37.6133 151.874 37.28C151.874 36.84 151.727 36.5 151.434 36.26C151.154 36.0067 150.727 35.88 150.154 35.88C149.914 35.88 149.7 35.9 149.514 35.94C149.34 35.98 149.14 36.0333 148.914 36.1L148.754 34.6C149.034 34.5333 149.287 34.4867 149.514 34.46C149.74 34.4333 149.98 34.42 150.234 34.42C150.714 34.42 151.174 34.5267 151.614 34.74C152.067 34.9533 152.42 35.2933 152.674 35.76C152.887 35.3067 153.194 34.9733 153.594 34.76C153.994 34.5333 154.427 34.42 154.894 34.42C155.427 34.42 155.88 34.5467 156.254 34.8C156.64 35.0533 157 35.5067 157.334 36.16L158.414 34.84L159.634 34.56C160.06 34.8933 160.434 35.3133 160.754 35.82C161.074 36.3133 161.234 36.9 161.234 37.58C161.234 38.0867 161.147 38.5533 160.974 38.98C160.8 39.4067 160.56 39.8 160.254 40.16C161.054 40.8133 161.454 41.68 161.454 42.76C161.454 43.84 161.007 44.7133 160.114 45.38C159.234 46.0333 158.02 46.36 156.474 46.36ZM167.046 34.42C167.206 34.42 167.379 34.4333 167.566 34.46C167.753 34.4733 167.933 34.4933 168.106 34.52L167.986 35.96C167.906 35.9467 167.806 35.94 167.686 35.94C167.579 35.9267 167.439 35.92 167.266 35.92C166.866 35.92 166.553 36.0067 166.326 36.18C166.113 36.34 166.006 36.5533 166.006 36.82C166.006 37.0733 166.079 37.3 166.226 37.5C166.386 37.6867 166.659 37.88 167.046 38.08C167.646 37.8133 168.253 37.56 168.866 37.32C169.479 37.08 170.099 36.86 170.726 36.66V34.56H174.366V35.98H172.266V47H170.726C170.326 46.2 169.773 45.4667 169.066 44.8C168.373 44.12 167.573 43.5467 166.666 43.08C165.759 42.6133 164.793 42.3 163.766 42.14L162.986 40.22C163.893 39.6733 164.799 39.1733 165.706 38.72C165.306 38.4267 164.993 38.1 164.766 37.74C164.539 37.38 164.426 36.9733 164.426 36.52C164.426 35.9733 164.639 35.4867 165.066 35.06C165.493 34.6333 166.153 34.42 167.046 34.42ZM164.846 40.92C165.526 41.0667 166.246 41.32 167.006 41.68C167.766 42.0267 168.479 42.4667 169.146 43C169.826 43.5333 170.373 44.1467 170.786 44.84C170.773 44.6 170.759 44.3533 170.746 44.1C170.733 43.8467 170.726 43.5533 170.726 43.22V38.22C169.766 38.5533 168.766 38.9533 167.726 39.42C166.686 39.8733 165.726 40.3733 164.846 40.92ZM168.44 52.32C168.08 52.32 167.687 52.24 167.26 52.08C166.833 51.9333 166.473 51.6933 166.18 51.36C165.873 51.0267 165.72 50.58 165.72 50.02C165.72 49.34 165.98 48.7933 166.5 48.38C167.02 47.98 167.747 47.78 168.68 47.78C169.36 47.78 170.04 47.8933 170.72 48.12V46.84H172.26V47.9C172.26 48.02 172.26 48.1533 172.26 48.3C172.247 48.4467 172.227 48.6 172.2 48.76C172.8 49.0667 173.407 49.44 174.02 49.88C174.62 50.32 175.26 50.8067 175.94 51.34L175.04 52.42C174.44 51.9267 173.88 51.4867 173.36 51.1C172.84 50.7133 172.347 50.38 171.88 50.1C171.64 50.6867 171.26 51.2 170.74 51.64C170.207 52.0933 169.44 52.32 168.44 52.32ZM167.14 50.06C167.14 50.4333 167.273 50.6933 167.54 50.84C167.793 51 168.093 51.08 168.44 51.08C169.08 51.08 169.56 50.9133 169.88 50.58C170.2 50.2467 170.42 49.8667 170.54 49.44C169.873 49.1867 169.22 49.06 168.58 49.06C168.1 49.06 167.74 49.1533 167.5 49.34C167.26 49.5267 167.14 49.7667 167.14 50.06ZM186.8 34.56V35.98H184.7V47H183.16V43.78C182.52 42.9667 181.82 42.2867 181.06 41.74C180.3 41.1933 179.56 40.92 178.84 40.92C178.347 40.92 177.927 41.0467 177.58 41.3C177.247 41.5533 177.08 41.9333 177.08 42.44C177.08 43.1867 177.653 43.7867 178.8 44.24L178.04 45.68C177.227 45.3333 176.587 44.88 176.12 44.32C175.667 43.7467 175.44 43.1 175.44 42.38C175.44 41.7267 175.593 41.1867 175.9 40.76C176.22 40.3333 176.62 40.0133 177.1 39.8C177.593 39.5867 178.093 39.48 178.6 39.48C178.707 39.48 178.813 39.48 178.92 39.48C178.787 39 178.58 38.6133 178.3 38.32C178.02 38.0133 177.6 37.7667 177.04 37.58C176.493 37.3933 175.747 37.24 174.8 37.12L174.98 35.98H173.96V34.56H186.8ZM180.38 39.58C180.38 39.66 180.38 39.7333 180.38 39.8C180.913 40 181.407 40.28 181.86 40.64C182.327 41 182.773 41.4067 183.2 41.86C183.187 41.6333 183.173 41.4 183.16 41.16C183.16 40.9067 183.16 40.6533 183.16 40.4V35.98H176.3C177.633 36.1667 178.647 36.5867 179.34 37.24C180.033 37.88 180.38 38.66 180.38 39.58ZM192.122 34.56V35.98H190.022V47H188.482V37.62C188.322 37.1667 188.082 36.78 187.762 36.46C187.455 36.14 187.055 35.98 186.562 35.98H186.402V34.56H186.702C187.022 34.56 187.355 34.6667 187.702 34.88C188.048 35.08 188.328 35.3933 188.542 35.82C188.528 35.7533 188.515 35.6 188.502 35.36C188.488 35.12 188.482 34.9133 188.482 34.74V33.24H189.562L190.002 34.56H192.122ZM206.414 34.56V35.98H191.714V34.56H206.414ZM201.334 36.44C201.841 36.44 202.261 36.4867 202.594 36.58C202.927 36.6733 203.214 36.8133 203.454 37C203.734 37.2133 203.947 37.4867 204.094 37.82C204.241 38.14 204.314 38.6067 204.314 39.22V47H202.774C202.547 45.84 201.927 45.26 200.914 45.26C200.461 45.26 200.041 45.2867 199.654 45.34C199.267 45.3933 198.861 45.4533 198.434 45.52C198.021 45.5733 197.527 45.6 196.954 45.6C196.541 45.6 196.094 45.5533 195.614 45.46C195.134 45.3667 194.681 45.1933 194.254 44.94C193.841 44.6733 193.501 44.2867 193.234 43.78C192.967 43.2733 192.834 42.6 192.834 41.76C192.834 41.12 192.901 40.5133 193.034 39.94L194.574 40.18C194.521 40.3933 194.474 40.6133 194.434 40.84C194.407 41.0667 194.394 41.3533 194.394 41.7C194.394 42.42 194.527 42.9533 194.794 43.3C195.061 43.6467 195.387 43.8733 195.774 43.98C196.174 44.0733 196.561 44.12 196.934 44.12C197.427 44.12 197.867 44.0933 198.254 44.04C198.641 43.9733 199.014 43.9133 199.374 43.86C199.747 43.8067 200.141 43.78 200.554 43.78C201.021 43.78 201.441 43.8667 201.814 44.04C202.201 44.2 202.521 44.48 202.774 44.88V39.36C202.774 39.0133 202.741 38.7533 202.674 38.58C202.621 38.3933 202.527 38.2467 202.394 38.14C202.287 38.0467 202.147 37.98 201.974 37.94C201.814 37.8867 201.601 37.86 201.334 37.86C200.934 37.86 200.561 37.94 200.214 38.1C199.881 38.2467 199.581 38.4333 199.314 38.66C199.047 38.8867 198.834 39.14 198.674 39.42C198.514 39.6867 198.434 39.9467 198.434 40.2C198.434 40.4 198.494 40.58 198.614 40.74C198.734 40.9 199.014 40.98 199.454 40.98C199.801 40.98 200.101 40.9533 200.354 40.9L200.494 42.32C200.361 42.36 200.181 42.4 199.954 42.44C199.741 42.4667 199.474 42.48 199.154 42.48C198.554 42.48 198.021 42.3133 197.554 41.98C197.087 41.6467 196.854 41.1 196.854 40.34C196.854 39.9 196.967 39.4533 197.194 39C197.434 38.5333 197.767 38.1067 198.194 37.72C198.607 37.3467 199.081 37.04 199.614 36.8C200.147 36.56 200.721 36.44 201.334 36.44ZM216.028 34.56V35.98H213.928V47H212.388V35.98H210.308V34.56H212.148C211.934 34.3067 211.714 34.04 211.488 33.76C211.274 33.48 211.081 33.2 210.908 32.92C211.361 32.1333 211.848 31.42 212.368 30.78C212.888 30.1267 213.501 29.6133 214.208 29.24C214.914 28.8533 215.768 28.66 216.768 28.66C217.714 28.66 218.608 28.8133 219.448 29.12C220.288 29.4267 221.128 29.86 221.968 30.42C222.808 30.9667 223.688 31.62 224.608 32.38L223.768 33.46C222.848 32.7133 222.014 32.0933 221.268 31.6C220.534 31.1067 219.828 30.74 219.148 30.5C218.481 30.2467 217.768 30.12 217.008 30.12C215.901 30.12 215.014 30.4 214.348 30.96C213.681 31.52 213.108 32.2467 212.628 33.14C212.734 33.34 212.881 33.56 213.068 33.8C213.254 34.04 213.468 34.2933 213.708 34.56H216.028ZM227.94 34.56V35.98H225.84V47H224.3C223.9 46.2 223.347 45.4667 222.64 44.8C221.947 44.12 221.147 43.5467 220.24 43.08C219.334 42.6133 218.367 42.3 217.34 42.14L216.56 40.22C217.774 39.4867 219.02 38.82 220.3 38.22C221.594 37.62 222.927 37.1 224.3 36.66V35.98H215.62V34.56H227.94ZM218.42 40.92C219.1 41.0667 219.82 41.32 220.58 41.68C221.34 42.0267 222.054 42.4667 222.72 43C223.4 43.5333 223.947 44.1467 224.36 44.84C224.347 44.6 224.334 44.3533 224.32 44.1C224.307 43.8467 224.3 43.5533 224.3 43.22V38.22C223.34 38.5533 222.34 38.9533 221.3 39.42C220.26 39.8733 219.3 40.3733 218.42 40.92ZM243.334 45.42C242.494 45.42 241.801 45.2467 241.254 44.9C240.721 44.5533 240.274 44.08 239.914 43.48C239.661 44.1467 239.201 44.6933 238.534 45.12C237.868 45.5333 236.941 45.74 235.754 45.74C234.714 45.74 233.728 45.4867 232.794 44.98C231.874 44.4733 231.034 43.6333 230.274 42.46C229.514 41.2867 228.861 39.7 228.314 37.7L229.834 37.3C230.288 38.94 230.794 40.2733 231.354 41.3C231.914 42.3133 232.561 43.0533 233.294 43.52C234.028 43.9867 234.868 44.22 235.814 44.22C237.814 44.22 238.814 43.36 238.814 41.64C238.814 41.4267 238.794 41.2267 238.754 41.04C238.728 40.8533 238.688 40.6867 238.634 40.54C238.114 40.9933 237.608 41.3267 237.114 41.54C236.634 41.7533 236.114 41.86 235.554 41.86C234.768 41.86 234.128 41.64 233.634 41.2C233.141 40.76 232.894 40.1333 232.894 39.32C232.894 38.7333 233.101 38.14 233.514 37.54C233.928 36.9267 234.628 36.3933 235.614 35.94C235.348 35.9533 235.041 35.9667 234.694 35.98C234.361 35.98 234.028 35.98 233.694 35.98H227.534V34.56H247.414V35.98H238.254C238.148 36.0333 238.041 36.08 237.934 36.12C238.188 37.2667 238.654 38.24 239.334 39.04C239.934 38.24 240.548 37.64 241.174 37.24C241.801 36.8267 242.501 36.62 243.274 36.62C244.168 36.62 244.854 36.8333 245.334 37.26C245.814 37.6867 246.054 38.2333 246.054 38.9C246.054 39.2067 245.994 39.5467 245.874 39.92C245.754 40.28 245.508 40.62 245.134 40.94C245.414 41.14 245.654 41.4067 245.854 41.74C246.068 42.0733 246.174 42.4733 246.174 42.94C246.174 43.5933 245.934 44.1733 245.454 44.68C244.974 45.1733 244.268 45.42 243.334 45.42ZM234.434 39.4C234.434 39.7733 234.541 40.04 234.754 40.2C234.968 40.36 235.208 40.44 235.474 40.44C235.941 40.44 236.341 40.3533 236.674 40.18C237.008 40.0067 237.381 39.76 237.794 39.44C237.501 39.04 237.248 38.6133 237.034 38.16C236.821 37.7067 236.661 37.2667 236.554 36.84C235.688 37.3467 235.114 37.8133 234.834 38.24C234.568 38.6533 234.434 39.04 234.434 39.4ZM243.254 38C242.108 38 241.048 38.84 240.074 40.52C240.101 40.6133 240.121 40.7067 240.134 40.8C240.414 41.8667 240.828 42.6733 241.374 43.22C241.934 43.7667 242.568 44.04 243.274 44.04C243.634 44.04 243.954 43.9467 244.234 43.76C244.514 43.56 244.654 43.2667 244.654 42.88C244.654 42.3467 244.401 41.92 243.894 41.6C243.601 41.7067 243.274 41.8 242.914 41.88L242.574 40.52C243.281 40.4133 243.781 40.2267 244.074 39.96C244.381 39.6933 244.534 39.3933 244.534 39.06C244.534 38.6867 244.408 38.42 244.154 38.26C243.901 38.0867 243.601 38 243.254 38ZM252.727 34.56V35.98H250.627V47H249.087V37.62C248.927 37.1667 248.687 36.78 248.367 36.46C248.06 36.14 247.66 35.98 247.167 35.98H247.007V34.56H247.307C247.627 34.56 247.96 34.6667 248.307 34.88C248.654 35.08 248.934 35.3933 249.147 35.82C249.134 35.7533 249.12 35.6 249.107 35.36C249.094 35.12 249.087 34.9133 249.087 34.74V33.24H250.167L250.607 34.56H252.727ZM264.8 34.56V35.98H262.7V47H261.16V42.84C260.52 42.0267 259.82 41.3467 259.06 40.8C258.3 40.2533 257.56 39.98 256.84 39.98C256.346 39.98 255.926 40.1133 255.58 40.38C255.246 40.6333 255.08 41.0133 255.08 41.52C255.08 42.2667 255.653 42.8667 256.8 43.32L256.04 44.74C255.226 44.4067 254.586 43.96 254.12 43.4C253.666 42.8267 253.44 42.18 253.44 41.46C253.44 40.8067 253.593 40.2667 253.9 39.84C254.22 39.4 254.62 39.0733 255.1 38.86C255.593 38.6467 256.093 38.54 256.6 38.54C257.546 38.54 258.386 38.7667 259.12 39.22C259.866 39.66 260.566 40.2333 261.22 40.94C261.193 40.7133 261.173 40.4867 261.16 40.26C261.16 40.0333 261.16 39.8067 261.16 39.58V35.98H252.32V34.56H264.8ZM274.407 34.56V35.98H272.307V47H270.767V35.98H268.687V34.56H270.527C270.313 34.3067 270.093 34.04 269.867 33.76C269.653 33.48 269.46 33.2 269.287 32.92C269.74 32.1333 270.227 31.42 270.747 30.78C271.267 30.1267 271.88 29.6133 272.587 29.24C273.293 28.8533 274.147 28.66 275.147 28.66C276.093 28.66 276.987 28.8133 277.827 29.12C278.667 29.4267 279.507 29.86 280.347 30.42C281.187 30.9667 282.067 31.62 282.987 32.38L282.147 33.46C281.227 32.7133 280.393 32.0933 279.647 31.6C278.913 31.1067 278.207 30.74 277.527 30.5C276.86 30.2467 276.147 30.12 275.387 30.12C274.28 30.12 273.393 30.4 272.727 30.96C272.06 31.52 271.487 32.2467 271.007 33.14C271.113 33.34 271.26 33.56 271.447 33.8C271.633 34.04 271.847 34.2933 272.087 34.56H274.407ZM286.319 34.56V35.98H284.219V47H282.679C282.279 46.2 281.726 45.4667 281.019 44.8C280.326 44.12 279.526 43.5467 278.619 43.08C277.713 42.6133 276.746 42.3 275.719 42.14L274.939 40.22C276.153 39.4867 277.399 38.82 278.679 38.22C279.973 37.62 281.306 37.1 282.679 36.66V35.98H273.999V34.56H286.319ZM276.799 40.92C277.479 41.0667 278.199 41.32 278.959 41.68C279.719 42.0267 280.433 42.4667 281.099 43C281.779 43.5333 282.326 44.1467 282.739 44.84C282.726 44.6 282.713 44.3533 282.699 44.1C282.686 43.8467 282.679 43.5533 282.679 43.22V38.22C281.719 38.5533 280.719 38.9533 279.679 39.42C278.639 39.8733 277.679 40.3733 276.799 40.92ZM298.973 34.56V35.98H296.873V47H295.333C294.68 46.2267 294.007 45.56 293.313 45C292.62 44.4267 291.833 43.9533 290.953 43.58C290.073 43.2067 289.02 42.9333 287.793 42.76L287.073 40.94C287.7 40.54 288.38 40.1467 289.113 39.76C289.847 39.36 290.613 38.9867 291.413 38.64C290.693 38.24 289.96 37.9 289.213 37.62C288.48 37.3267 287.767 37.1067 287.073 36.96L287.493 35.98H285.913V34.56H298.973ZM295.333 35.98H288.753C289.527 36.22 290.313 36.54 291.113 36.94C291.913 37.3267 292.68 37.7667 293.413 38.26C294.147 38.7533 294.8 39.2733 295.373 39.82C295.36 39.5667 295.347 39.3133 295.333 39.06C295.333 38.8067 295.333 38.56 295.333 38.32V35.98ZM288.953 41.5C290.42 41.78 291.653 42.2333 292.653 42.86C293.667 43.4733 294.573 44.1933 295.373 45.02C295.373 44.7933 295.367 44.56 295.353 44.32C295.34 44.08 295.333 43.8333 295.333 43.58V41.6C294.987 41.2267 294.6 40.8667 294.173 40.52C293.76 40.16 293.32 39.8267 292.853 39.52C292.2 39.8133 291.52 40.1333 290.813 40.48C290.107 40.8133 289.487 41.1533 288.953 41.5ZM311.49 34.56V35.98H309.39V47H307.85C307.29 46.2533 306.67 45.6 305.99 45.04C305.31 44.4667 304.523 43.9867 303.63 43.6C302.736 43.2133 301.676 42.9333 300.45 42.76L299.73 40.94C300.343 40.5267 301.003 40.1333 301.71 39.76C302.416 39.3867 303.116 39.04 303.81 38.72C303.303 38.3333 302.716 37.9933 302.05 37.7C301.396 37.3933 300.623 37.1467 299.73 36.96L300.17 35.98H298.57V34.56H311.49ZM307.85 35.98H301.65C302.143 36.1533 302.636 36.3733 303.13 36.64C303.623 36.9067 304.076 37.1933 304.49 37.5C304.903 37.8067 305.236 38.0933 305.49 38.36L305.59 39.48C304.923 39.7733 304.23 40.1 303.51 40.46C302.79 40.8067 302.15 41.1533 301.59 41.5C303.043 41.7667 304.263 42.2067 305.25 42.82C306.236 43.4333 307.116 44.1667 307.89 45.02C307.863 44.5533 307.85 44.0733 307.85 43.58V35.98ZM302.37 47.12C302.036 47.12 301.75 47.0133 301.51 46.8C301.283 46.5867 301.17 46.3067 301.17 45.96C301.17 45.6133 301.283 45.3267 301.51 45.1C301.75 44.8733 302.036 44.76 302.37 44.76C302.703 44.76 302.983 44.8733 303.21 45.1C303.45 45.3267 303.57 45.6133 303.57 45.96C303.57 46.3067 303.45 46.5867 303.21 46.8C302.983 47.0133 302.703 47.12 302.37 47.12ZM325.806 34.44C326.353 34.44 326.806 34.5 327.166 34.62C327.539 34.7267 327.853 34.8933 328.106 35.12C328.359 35.3333 328.559 35.6 328.706 35.92C328.853 36.2267 328.926 36.6533 328.926 37.2V47H327.426C327.253 46.4 326.986 45.96 326.626 45.68C326.279 45.4 325.806 45.26 325.206 45.26C324.726 45.26 324.279 45.2867 323.866 45.34C323.453 45.3933 323.019 45.4533 322.566 45.52C322.126 45.5733 321.613 45.6 321.026 45.6C320.573 45.6 320.086 45.5533 319.566 45.46C319.046 45.3533 318.553 45.16 318.086 44.88C317.619 44.6 317.239 44.1867 316.946 43.64C316.653 43.08 316.506 42.3467 316.506 41.44C316.506 41.12 316.533 40.7867 316.586 40.44C316.639 40.08 316.693 39.7533 316.746 39.46L318.286 39.68C318.233 39.88 318.179 40.12 318.126 40.4C318.086 40.68 318.066 41.0133 318.066 41.4C318.066 42.1867 318.213 42.7733 318.506 43.16C318.813 43.5467 319.199 43.8067 319.666 43.94C320.133 44.06 320.613 44.12 321.106 44.12C321.773 44.12 322.379 44.0667 322.926 43.96C323.486 43.84 324.113 43.78 324.806 43.78C325.379 43.78 325.879 43.8667 326.306 44.04C326.733 44.2 327.093 44.48 327.386 44.88V37.74C327.386 37.2467 327.353 36.8933 327.286 36.68C327.219 36.4667 327.113 36.2933 326.966 36.16C326.726 35.96 326.359 35.86 325.866 35.86C325.386 35.86 324.926 35.9667 324.486 36.18C324.059 36.3933 323.673 36.6667 323.326 37C322.993 37.3333 322.726 37.6933 322.526 38.08C322.339 38.4533 322.246 38.8067 322.246 39.14C322.246 39.34 322.313 39.5533 322.446 39.78C322.593 39.9933 322.919 40.1 323.426 40.1C323.693 40.1 323.973 40.08 324.266 40.04L324.406 41.44C324.113 41.5467 323.679 41.6 323.106 41.6C322.453 41.6 321.879 41.4 321.386 41C320.906 40.6 320.666 39.9867 320.666 39.16C320.666 38.6267 320.799 38.0867 321.066 37.54C321.346 36.98 321.726 36.4667 322.206 36C322.686 35.5333 323.233 35.16 323.846 34.88C324.473 34.5867 325.126 34.44 325.806 34.44ZM342.862 34.56V35.98H340.762V47H339.222C338.822 46.2 338.269 45.4667 337.562 44.8C336.869 44.12 336.069 43.5467 335.162 43.08C334.256 42.6133 333.289 42.3 332.262 42.14L331.482 40.22C332.696 39.4867 333.942 38.82 335.222 38.22C336.516 37.62 337.849 37.1 339.222 36.66V35.98H330.542V34.56H342.862ZM333.342 40.92C334.022 41.0667 334.742 41.32 335.502 41.68C336.262 42.0267 336.976 42.4667 337.642 43C338.322 43.5333 338.869 44.1467 339.282 44.84C339.269 44.6 339.256 44.3533 339.242 44.1C339.229 43.8467 339.222 43.5533 339.222 43.22V38.22C338.262 38.5533 337.262 38.9533 336.222 39.42C335.182 39.8733 334.222 40.3733 333.342 40.92ZM344.216 37.28C344.216 36.4533 344.483 35.7933 345.016 35.3C345.563 34.8067 346.236 34.56 347.036 34.56C347.836 34.56 348.503 34.8067 349.036 35.3C349.583 35.7933 349.856 36.4533 349.856 37.28C349.856 38.1067 349.583 38.7733 349.036 39.28C348.503 39.7733 347.836 40.02 347.036 40.02C346.236 40.02 345.563 39.7733 345.016 39.28C344.483 38.7867 344.216 38.12 344.216 37.28ZM345.596 37.28C345.596 37.7333 345.73 38.0867 345.996 38.34C346.276 38.5933 346.623 38.72 347.036 38.72C347.463 38.72 347.81 38.5933 348.076 38.34C348.343 38.0733 348.476 37.72 348.476 37.28C348.476 36.8267 348.343 36.48 348.076 36.24C347.81 35.9867 347.463 35.86 347.036 35.86C346.623 35.86 346.276 35.9933 345.996 36.26C345.73 36.5133 345.596 36.8533 345.596 37.28ZM345.116 40.72C345.956 41.2267 346.75 41.8333 347.496 42.54C348.256 43.2333 348.943 43.98 349.556 44.78C350.183 45.58 350.71 46.3733 351.136 47.16L349.836 47.82C349.29 46.98 348.743 46.2267 348.196 45.56C347.663 44.88 347.07 44.2533 346.416 43.68C345.776 43.1067 345.01 42.5467 344.116 42L345.116 40.72ZM365.403 47V39.18C364.589 38.0467 363.843 37.2133 363.163 36.68C362.496 36.1467 361.769 35.88 360.983 35.88C360.276 35.88 359.703 36.06 359.263 36.42C358.836 36.78 358.469 37.1867 358.163 37.64C358.376 37.52 358.643 37.4267 358.963 37.36C359.296 37.2933 359.656 37.26 360.043 37.26C360.656 37.26 361.149 37.38 361.523 37.62C361.909 37.86 362.189 38.1667 362.363 38.54C362.549 38.9 362.643 39.26 362.643 39.62C362.643 40.4067 362.376 41.1133 361.843 41.74C361.309 42.3533 360.483 42.96 359.363 43.56L358.343 42.1C359.076 41.7933 359.709 41.4533 360.243 41.08C360.776 40.6933 361.043 40.2333 361.043 39.7C361.043 39.4067 360.929 39.16 360.703 38.96C360.476 38.76 360.149 38.66 359.723 38.66C359.376 38.66 359.049 38.7 358.743 38.78C358.449 38.86 358.129 38.9867 357.783 39.16L356.163 37.84C356.776 36.8 357.456 35.9733 358.203 35.36C358.963 34.7333 359.836 34.42 360.823 34.42C361.729 34.42 362.543 34.6467 363.263 35.1C363.996 35.54 364.729 36.2 365.463 37.08C365.449 36.8533 365.436 36.58 365.423 36.26C365.409 35.94 365.403 35.62 365.403 35.3V33.24H366.463L366.923 34.56H369.043V35.98H366.943V47H365.403ZM374.368 34.56V35.98H372.268V47H370.728V35.98H368.648V34.56H370.488C370.274 34.3067 370.054 34.04 369.828 33.76C369.614 33.48 369.421 33.2 369.248 32.92C369.701 32.1333 370.188 31.42 370.708 30.78C371.228 30.1267 371.841 29.6133 372.548 29.24C373.254 28.8533 374.108 28.66 375.108 28.66C376.054 28.66 376.948 28.8133 377.788 29.12C378.628 29.4267 379.468 29.86 380.308 30.42C381.148 30.9667 382.028 31.62 382.948 32.38L382.108 33.46C381.188 32.7133 380.354 32.0933 379.608 31.6C378.874 31.1067 378.168 30.74 377.488 30.5C376.821 30.2467 376.108 30.12 375.348 30.12C374.241 30.12 373.354 30.4 372.688 30.96C372.021 31.52 371.448 32.2467 370.968 33.14C371.074 33.34 371.221 33.56 371.408 33.8C371.594 34.04 371.808 34.2933 372.048 34.56H374.368ZM386.76 34.56V35.98H384.66V47H383.12V39.18C382.293 38.0467 381.52 37.2133 380.8 36.68C380.08 36.1467 379.347 35.88 378.6 35.88C377.973 35.88 377.48 36.0533 377.12 36.4C376.773 36.7467 376.6 37.1933 376.6 37.74C376.6 38.3933 376.833 38.8933 377.3 39.24C377.78 39.5733 378.567 39.7933 379.66 39.9L379.54 41.56C378.66 41.48 377.873 41.2933 377.18 41C376.5 40.6933 375.96 40.2733 375.56 39.74C375.16 39.1933 374.96 38.5333 374.96 37.76C374.96 37.04 375.12 36.4333 375.44 35.94C375.76 35.4333 376.18 35.0533 376.7 34.8C377.22 34.5467 377.78 34.42 378.38 34.42C379.34 34.42 380.187 34.6533 380.92 35.12C381.667 35.5733 382.427 36.24 383.2 37.12C383.173 36.88 383.153 36.6133 383.14 36.32C383.127 36.0133 383.12 35.7333 383.12 35.48V33.24H384.18L384.64 34.56H386.76ZM400.903 34.56V35.98H386.362V34.56H400.903ZM394.703 46C393.609 46 392.589 45.7333 391.643 45.2C390.696 44.6533 389.843 43.7733 389.083 42.56C388.336 41.3467 387.689 39.72 387.143 37.68L388.663 37.28C389.129 38.9333 389.636 40.2933 390.183 41.36C390.743 42.4267 391.383 43.2133 392.103 43.72C392.836 44.2267 393.689 44.48 394.663 44.48C395.489 44.48 396.149 44.3467 396.643 44.08C397.136 43.8 397.489 43.4333 397.703 42.98C397.916 42.5133 398.023 42 398.023 41.44C398.023 40.88 397.916 40.3733 397.703 39.92C397.489 39.4533 397.189 39.0867 396.803 38.82C396.416 38.5533 395.963 38.42 395.443 38.42C394.909 38.42 394.523 38.5333 394.283 38.76C394.056 38.9867 393.943 39.2867 393.943 39.66C393.943 39.7933 393.956 39.9333 393.983 40.08C394.009 40.2267 394.056 40.3933 394.123 40.58L392.583 40.88C392.503 40.6267 392.436 40.38 392.383 40.14C392.343 39.9 392.323 39.6533 392.323 39.4C392.323 38.6267 392.603 38.0333 393.163 37.62C393.736 37.2067 394.469 37 395.363 37C396.189 37 396.916 37.1933 397.543 37.58C398.169 37.9533 398.663 38.48 399.023 39.16C399.383 39.84 399.563 40.6267 399.563 41.52C399.563 42.36 399.383 43.12 399.023 43.8C398.676 44.4667 398.143 45 397.423 45.4C396.703 45.8 395.796 46 394.703 46ZM1.386 76V60.6H13.288V63.372H4.576V67.002H10.362V69.686H4.576V76H1.386ZM14.0786 76V64.538H17.0926V65.792C17.4593 65.2933 17.8993 64.9193 18.4126 64.67C18.9406 64.406 19.52 64.274 20.1506 64.274C20.444 64.2887 20.686 64.318 20.8766 64.362C21.082 64.3913 21.258 64.45 21.4046 64.538V67.178C21.1846 67.0753 20.9426 67.002 20.6786 66.958C20.4146 66.8993 20.1433 66.87 19.8646 66.87C19.278 66.87 18.7353 67.0167 18.2366 67.31C17.7526 67.6033 17.3713 68.0287 17.0926 68.586V76H14.0786ZM21.951 70.28C21.951 69.444 22.105 68.6667 22.413 67.948C22.7357 67.2147 23.1683 66.584 23.711 66.056C24.2683 65.5133 24.921 65.088 25.669 64.78C26.417 64.472 27.2163 64.318 28.067 64.318C28.9177 64.318 29.717 64.472 30.465 64.78C31.213 65.088 31.8583 65.5133 32.401 66.056C32.9583 66.584 33.391 67.2147 33.699 67.948C34.0217 68.6667 34.183 69.444 34.183 70.28C34.183 71.116 34.0217 71.9007 33.699 72.634C33.391 73.3527 32.9583 73.976 32.401 74.504C31.8583 75.032 31.213 75.45 30.465 75.758C29.717 76.066 28.9177 76.22 28.067 76.22C27.2163 76.22 26.417 76.066 25.669 75.758C24.921 75.45 24.2683 75.032 23.711 74.504C23.1683 73.976 22.7357 73.3527 22.413 72.634C22.105 71.9007 21.951 71.116 21.951 70.28ZM28.067 73.602C28.947 73.602 29.695 73.2793 30.311 72.634C30.927 71.9887 31.235 71.204 31.235 70.28C31.235 69.3413 30.927 68.5493 30.311 67.904C29.695 67.2587 28.947 66.936 28.067 66.936C27.187 66.936 26.439 67.2587 25.823 67.904C25.207 68.5493 24.899 69.3413 24.899 70.28C24.899 71.204 25.207 71.9887 25.823 72.634C26.439 73.2793 27.187 73.602 28.067 73.602ZM36.0357 76V64.538H39.0497V65.396C39.4603 65.044 39.915 64.78 40.4137 64.604C40.9123 64.4133 41.455 64.318 42.0417 64.318C42.775 64.318 43.435 64.472 44.0217 64.78C44.623 65.0733 45.1143 65.4913 45.4957 66.034C45.9503 65.4767 46.5003 65.0513 47.1457 64.758C47.791 64.4647 48.5023 64.318 49.2797 64.318C50.5557 64.318 51.6043 64.7433 52.4257 65.594C53.247 66.4447 53.6577 67.5373 53.6577 68.872V76H50.6437V69.312C50.6437 68.5933 50.4457 68.014 50.0497 67.574C49.6683 67.134 49.1477 66.914 48.4877 66.914C48.033 66.914 47.615 67.0167 47.2337 67.222C46.867 67.4127 46.5517 67.6913 46.2877 68.058C46.3023 68.19 46.317 68.322 46.3317 68.454C46.3463 68.586 46.3537 68.7253 46.3537 68.872V76H43.3397V69.312C43.3397 68.5933 43.1417 68.014 42.7457 67.574C42.3643 67.134 41.8437 66.914 41.1837 66.914C40.729 66.914 40.3257 67.002 39.9737 67.178C39.6217 67.354 39.3137 67.6107 39.0497 67.948V76H36.0357ZM68.2969 73.272C69.1036 73.272 69.8589 73.1033 70.5629 72.766C71.2669 72.4287 71.8903 71.9447 72.4329 71.314L74.5229 73.382C73.7896 74.2473 72.8509 74.9367 71.7069 75.45C70.5776 75.9633 69.4116 76.22 68.2089 76.22C67.0503 76.22 65.9649 76.0147 64.9529 75.604C63.9556 75.1933 63.0903 74.636 62.3569 73.932C61.6236 73.228 61.0443 72.392 60.6189 71.424C60.2083 70.456 60.0029 69.4147 60.0029 68.3C60.0029 67.1853 60.2156 66.144 60.6409 65.176C61.0663 64.1933 61.6456 63.35 62.3789 62.646C63.1123 61.942 63.9776 61.3847 64.9749 60.974C65.9869 60.5633 67.0649 60.358 68.2089 60.358C69.4409 60.358 70.6363 60.622 71.7949 61.15C72.9536 61.6633 73.8923 62.36 74.6109 63.24L72.4549 65.374C71.9123 64.6993 71.2743 64.186 70.5409 63.834C69.8076 63.4673 69.0303 63.284 68.2089 63.284C67.5196 63.284 66.8669 63.416 66.2509 63.68C65.6496 63.9293 65.1289 64.2813 64.6889 64.736C64.2489 65.176 63.9043 65.704 63.6549 66.32C63.4056 66.9213 63.2809 67.5813 63.2809 68.3C63.2809 69.004 63.4056 69.664 63.6549 70.28C63.9189 70.8813 64.2709 71.402 64.7109 71.842C65.1656 72.282 65.6936 72.634 66.2949 72.898C66.9109 73.1473 67.5783 73.272 68.2969 73.272ZM79.204 59.94V76H76.19V60.6L79.204 59.94ZM85.191 76.198C83.959 76.198 82.9544 75.8753 82.177 75.23C81.3997 74.57 81.011 73.7193 81.011 72.678C81.011 71.5927 81.429 70.742 82.265 70.126C83.101 69.51 84.2524 69.202 85.719 69.202C86.1884 69.202 86.6577 69.2387 87.127 69.312C87.5964 69.3853 88.0584 69.4953 88.513 69.642V68.828C88.513 68.168 88.3077 67.6693 87.897 67.332C87.4864 66.9947 86.885 66.826 86.093 66.826C85.609 66.826 85.081 66.9067 84.509 67.068C83.9517 67.2147 83.3137 67.4493 82.595 67.772L81.495 65.55C82.3897 65.1393 83.255 64.8313 84.091 64.626C84.9417 64.4207 85.7777 64.318 86.599 64.318C88.139 64.318 89.3344 64.692 90.185 65.44C91.0504 66.1733 91.483 67.2147 91.483 68.564V76H88.513V75.208C88.029 75.5453 87.5157 75.7947 86.973 75.956C86.445 76.1173 85.851 76.198 85.191 76.198ZM83.893 72.612C83.893 73.052 84.0837 73.404 84.465 73.668C84.8464 73.9173 85.3524 74.042 85.983 74.042C86.4817 74.042 86.9364 73.9833 87.347 73.866C87.7724 73.734 88.161 73.5507 88.513 73.316V71.6C88.1464 71.4533 87.7577 71.3507 87.347 71.292C86.951 71.2187 86.533 71.182 86.093 71.182C85.4037 71.182 84.861 71.314 84.465 71.578C84.0837 71.8273 83.893 72.172 83.893 72.612ZM92.7962 74.636L94.2922 72.634C94.9668 73.074 95.6048 73.404 96.2062 73.624C96.8075 73.8293 97.4088 73.932 98.0102 73.932C98.6848 73.932 99.2202 73.822 99.6162 73.602C100.027 73.382 100.232 73.0887 100.232 72.722C100.232 72.4287 100.115 72.194 99.8802 72.018C99.6602 71.842 99.3008 71.7173 98.8022 71.644L96.6022 71.314C95.4728 71.138 94.6075 70.7713 94.0062 70.214C93.4195 69.6567 93.1262 68.916 93.1262 67.992C93.1262 66.892 93.5588 66.012 94.4242 65.352C95.2895 64.692 96.4482 64.362 97.9002 64.362C98.7362 64.362 99.5502 64.4867 100.342 64.736C101.134 64.9707 101.89 65.3227 102.608 65.792L101.156 67.728C100.526 67.3613 99.9242 67.09 99.3522 66.914C98.7802 66.7233 98.2008 66.628 97.6142 66.628C97.0715 66.628 96.6315 66.7307 96.2942 66.936C95.9715 67.1413 95.8102 67.4127 95.8102 67.75C95.8102 68.058 95.9275 68.3 96.1622 68.476C96.4115 68.6373 96.8148 68.7547 97.3722 68.828L99.5722 69.158C100.687 69.3193 101.545 69.686 102.146 70.258C102.762 70.83 103.07 71.556 103.07 72.436C103.07 72.9787 102.938 73.4847 102.674 73.954C102.425 74.4087 102.08 74.8047 101.64 75.142C101.2 75.4793 100.672 75.7433 100.056 75.934C99.4402 76.1247 98.7728 76.22 98.0542 76.22C97.0128 76.22 96.0375 76.088 95.1282 75.824C94.2188 75.5453 93.4415 75.1493 92.7962 74.636ZM103.646 74.636L105.142 72.634C105.816 73.074 106.454 73.404 107.056 73.624C107.657 73.8293 108.258 73.932 108.86 73.932C109.534 73.932 110.07 73.822 110.466 73.602C110.876 73.382 111.082 73.0887 111.082 72.722C111.082 72.4287 110.964 72.194 110.73 72.018C110.51 71.842 110.15 71.7173 109.652 71.644L107.452 71.314C106.322 71.138 105.457 70.7713 104.856 70.214C104.269 69.6567 103.976 68.916 103.976 67.992C103.976 66.892 104.408 66.012 105.274 65.352C106.139 64.692 107.298 64.362 108.75 64.362C109.586 64.362 110.4 64.4867 111.192 64.736C111.984 64.9707 112.739 65.3227 113.458 65.792L112.006 67.728C111.375 67.3613 110.774 67.09 110.202 66.914C109.63 66.7233 109.05 66.628 108.464 66.628C107.921 66.628 107.481 66.7307 107.144 66.936C106.821 67.1413 106.66 67.4127 106.66 67.75C106.66 68.058 106.777 68.3 107.012 68.476C107.261 68.6373 107.664 68.7547 108.222 68.828L110.422 69.158C111.536 69.3193 112.394 69.686 112.996 70.258C113.612 70.83 113.92 71.556 113.92 72.436C113.92 72.9787 113.788 73.4847 113.524 73.954C113.274 74.4087 112.93 74.8047 112.49 75.142C112.05 75.4793 111.522 75.7433 110.906 75.934C110.29 76.1247 109.622 76.22 108.904 76.22C107.862 76.22 106.887 76.088 105.978 75.824C105.068 75.5453 104.291 75.1493 103.646 74.636ZM129.244 76L122.996 60.6H126.45L131.158 72.766L135.976 60.6H139.276L132.94 76H129.244ZM146.373 72.766V67.068H144.019V64.538H146.373V61.612L149.387 60.93V64.538H152.643V67.068H149.387V72.15C149.387 72.6927 149.504 73.074 149.739 73.294C149.974 73.514 150.384 73.624 150.971 73.624C151.25 73.624 151.514 73.6093 151.763 73.58C152.012 73.536 152.284 73.4627 152.577 73.36V75.824C152.254 75.9267 151.866 76.0073 151.411 76.066C150.956 76.1393 150.568 76.176 150.245 76.176C148.969 76.176 148.001 75.89 147.341 75.318C146.696 74.7313 146.373 73.8807 146.373 72.766ZM153.5 70.28C153.5 69.444 153.654 68.6667 153.962 67.948C154.285 67.2147 154.717 66.584 155.26 66.056C155.817 65.5133 156.47 65.088 157.218 64.78C157.966 64.472 158.765 64.318 159.616 64.318C160.467 64.318 161.266 64.472 162.014 64.78C162.762 65.088 163.407 65.5133 163.95 66.056C164.507 66.584 164.94 67.2147 165.248 67.948C165.571 68.6667 165.732 69.444 165.732 70.28C165.732 71.116 165.571 71.9007 165.248 72.634C164.94 73.3527 164.507 73.976 163.95 74.504C163.407 75.032 162.762 75.45 162.014 75.758C161.266 76.066 160.467 76.22 159.616 76.22C158.765 76.22 157.966 76.066 157.218 75.758C156.47 75.45 155.817 75.032 155.26 74.504C154.717 73.976 154.285 73.3527 153.962 72.634C153.654 71.9007 153.5 71.116 153.5 70.28ZM159.616 73.602C160.496 73.602 161.244 73.2793 161.86 72.634C162.476 71.9887 162.784 71.204 162.784 70.28C162.784 69.3413 162.476 68.5493 161.86 67.904C161.244 67.2587 160.496 66.936 159.616 66.936C158.736 66.936 157.988 67.2587 157.372 67.904C156.756 68.5493 156.448 69.3413 156.448 70.28C156.448 71.204 156.756 71.9887 157.372 72.634C157.988 73.2793 158.736 73.602 159.616 73.602ZM179.908 73.272C180.715 73.272 181.47 73.1033 182.174 72.766C182.878 72.4287 183.502 71.9447 184.044 71.314L186.134 73.382C185.401 74.2473 184.462 74.9367 183.318 75.45C182.189 75.9633 181.023 76.22 179.82 76.22C178.662 76.22 177.576 76.0147 176.564 75.604C175.567 75.1933 174.702 74.636 173.968 73.932C173.235 73.228 172.656 72.392 172.23 71.424C171.82 70.456 171.614 69.4147 171.614 68.3C171.614 67.1853 171.827 66.144 172.252 65.176C172.678 64.1933 173.257 63.35 173.99 62.646C174.724 61.942 175.589 61.3847 176.586 60.974C177.598 60.5633 178.676 60.358 179.82 60.358C181.052 60.358 182.248 60.622 183.406 61.15C184.565 61.6633 185.504 62.36 186.222 63.24L184.066 65.374C183.524 64.6993 182.886 64.186 182.152 63.834C181.419 63.4673 180.642 63.284 179.82 63.284C179.131 63.284 178.478 63.416 177.862 63.68C177.261 63.9293 176.74 64.2813 176.3 64.736C175.86 65.176 175.516 65.704 175.266 66.32C175.017 66.9213 174.892 67.5813 174.892 68.3C174.892 69.004 175.017 69.664 175.266 70.28C175.53 70.8813 175.882 71.402 176.322 71.842C176.777 72.282 177.305 72.634 177.906 72.898C178.522 73.1473 179.19 73.272 179.908 73.272ZM190.815 59.94V76H187.801V60.6L190.815 59.94ZM196.802 76.198C195.57 76.198 194.566 75.8753 193.788 75.23C193.011 74.57 192.622 73.7193 192.622 72.678C192.622 71.5927 193.04 70.742 193.876 70.126C194.712 69.51 195.864 69.202 197.33 69.202C197.8 69.202 198.269 69.2387 198.738 69.312C199.208 69.3853 199.67 69.4953 200.124 69.642V68.828C200.124 68.168 199.919 67.6693 199.508 67.332C199.098 66.9947 198.496 66.826 197.704 66.826C197.22 66.826 196.692 66.9067 196.12 67.068C195.563 67.2147 194.925 67.4493 194.206 67.772L193.106 65.55C194.001 65.1393 194.866 64.8313 195.702 64.626C196.553 64.4207 197.389 64.318 198.21 64.318C199.75 64.318 200.946 64.692 201.796 65.44C202.662 66.1733 203.094 67.2147 203.094 68.564V76H200.124V75.208C199.64 75.5453 199.127 75.7947 198.584 75.956C198.056 76.1173 197.462 76.198 196.802 76.198ZM195.504 72.612C195.504 73.052 195.695 73.404 196.076 73.668C196.458 73.9173 196.964 74.042 197.594 74.042C198.093 74.042 198.548 73.9833 198.958 73.866C199.384 73.734 199.772 73.5507 200.124 73.316V71.6C199.758 71.4533 199.369 71.3507 198.958 71.292C198.562 71.2187 198.144 71.182 197.704 71.182C197.015 71.182 196.472 71.314 196.076 71.578C195.695 71.8273 195.504 72.172 195.504 72.612ZM204.408 74.636L205.904 72.634C206.578 73.074 207.216 73.404 207.818 73.624C208.419 73.8293 209.02 73.932 209.622 73.932C210.296 73.932 210.832 73.822 211.228 73.602C211.638 73.382 211.844 73.0887 211.844 72.722C211.844 72.4287 211.726 72.194 211.492 72.018C211.272 71.842 210.912 71.7173 210.414 71.644L208.214 71.314C207.084 71.138 206.219 70.7713 205.618 70.214C205.031 69.6567 204.738 68.916 204.738 67.992C204.738 66.892 205.17 66.012 206.036 65.352C206.901 64.692 208.06 64.362 209.512 64.362C210.348 64.362 211.162 64.4867 211.954 64.736C212.746 64.9707 213.501 65.3227 214.22 65.792L212.768 67.728C212.137 67.3613 211.536 67.09 210.964 66.914C210.392 66.7233 209.812 66.628 209.226 66.628C208.683 66.628 208.243 66.7307 207.906 66.936C207.583 67.1413 207.421 67.4127 207.421 67.75C207.421 68.058 207.539 68.3 207.774 68.476C208.023 68.6373 208.426 68.7547 208.984 68.828L211.184 69.158C212.298 69.3193 213.156 69.686 213.758 70.258C214.374 70.83 214.682 71.556 214.682 72.436C214.682 72.9787 214.55 73.4847 214.286 73.954C214.036 74.4087 213.692 74.8047 213.252 75.142C212.812 75.4793 212.284 75.7433 211.668 75.934C211.052 76.1247 210.384 76.22 209.666 76.22C208.624 76.22 207.649 76.088 206.74 75.824C205.83 75.5453 205.053 75.1493 204.408 74.636ZM215.257 74.636L216.753 72.634C217.428 73.074 218.066 73.404 218.667 73.624C219.268 73.8293 219.87 73.932 220.471 73.932C221.146 73.932 221.681 73.822 222.077 73.602C222.488 73.382 222.693 73.0887 222.693 72.722C222.693 72.4287 222.576 72.194 222.341 72.018C222.121 71.842 221.762 71.7173 221.263 71.644L219.063 71.314C217.934 71.138 217.068 70.7713 216.467 70.214C215.88 69.6567 215.587 68.916 215.587 67.992C215.587 66.892 216.02 66.012 216.885 65.352C217.75 64.692 218.909 64.362 220.361 64.362C221.197 64.362 222.011 64.4867 222.803 64.736C223.595 64.9707 224.35 65.3227 225.069 65.792L223.617 67.728C222.986 67.3613 222.385 67.09 221.813 66.914C221.241 66.7233 220.662 66.628 220.075 66.628C219.532 66.628 219.092 66.7307 218.755 66.936C218.432 67.1413 218.271 67.4127 218.271 67.75C218.271 68.058 218.388 68.3 218.623 68.476C218.872 68.6373 219.276 68.7547 219.833 68.828L222.033 69.158C223.148 69.3193 224.006 69.686 224.607 70.258C225.223 70.83 225.531 71.556 225.531 72.436C225.531 72.9787 225.399 73.4847 225.135 73.954C224.886 74.4087 224.541 74.8047 224.101 75.142C223.661 75.4793 223.133 75.7433 222.517 75.934C221.901 76.1247 221.234 76.22 220.515 76.22C219.474 76.22 218.498 76.088 217.589 75.824C216.68 75.5453 215.902 75.1493 215.257 74.636ZM236.43 76L230.182 60.6H233.636L238.344 72.766L243.162 60.6H246.462L240.126 76H236.43ZM247.769 76V60.6H250.959V76H247.769ZM253.763 76V60.6H256.953V76H253.763ZM259.757 76V60.6H262.947V76H259.757ZM274.119 68.454H282.391V71.006H274.119V68.454ZM146.314 99.6L147.334 98.54C148.054 99.3 148.82 99.88 149.634 100.28C150.46 100.667 151.327 100.86 152.234 100.86C153.327 100.86 154.227 100.6 154.934 100.08C155.64 99.56 155.994 98.9 155.994 98.1C155.994 97.38 155.74 96.8267 155.234 96.44C154.74 96.0533 153.92 95.7667 152.774 95.58L150.754 95.26C149.407 95.0467 148.414 94.6533 147.774 94.08C147.134 93.4933 146.814 92.7067 146.814 91.72C146.814 90.56 147.267 89.62 148.174 88.9C149.08 88.18 150.267 87.82 151.734 87.82C152.707 87.82 153.674 87.98 154.634 88.3C155.594 88.62 156.467 89.08 157.254 89.68L156.374 90.88C155.614 90.3067 154.84 89.8733 154.054 89.58C153.267 89.2867 152.474 89.14 151.674 89.14C150.674 89.14 149.86 89.3733 149.234 89.84C148.62 90.2933 148.314 90.88 148.314 91.6C148.314 92.2533 148.534 92.7533 148.974 93.1C149.414 93.4467 150.14 93.7 151.154 93.86L153.154 94.18C154.674 94.4333 155.78 94.8667 156.474 95.48C157.18 96.0933 157.534 96.94 157.534 98.02C157.534 98.6333 157.4 99.2 157.134 99.72C156.88 100.227 156.514 100.667 156.034 101.04C155.567 101.4 155 101.687 154.334 101.9C153.68 102.1 152.96 102.2 152.174 102.2C151.067 102.2 150 101.98 148.974 101.54C147.96 101.087 147.074 100.44 146.314 99.6ZM164.221 100.84C164.755 100.84 165.268 100.733 165.761 100.52C166.255 100.307 166.715 99.9933 167.141 99.58L168.061 100.58C167.528 101.087 166.928 101.48 166.261 101.76C165.595 102.04 164.901 102.18 164.181 102.18C163.475 102.18 162.808 102.047 162.181 101.78C161.555 101.513 161.015 101.147 160.561 100.68C160.108 100.213 159.748 99.66 159.481 99.02C159.215 98.38 159.081 97.7 159.081 96.98C159.081 96.26 159.215 95.5867 159.481 94.96C159.748 94.32 160.108 93.7667 160.561 93.3C161.015 92.8333 161.555 92.4667 162.181 92.2C162.808 91.92 163.475 91.78 164.181 91.78C164.901 91.78 165.601 91.92 166.281 92.2C166.975 92.48 167.581 92.8667 168.101 93.36L167.161 94.44C166.761 94.0267 166.301 93.7067 165.781 93.48C165.261 93.2533 164.735 93.14 164.201 93.14C163.695 93.14 163.215 93.24 162.761 93.44C162.308 93.64 161.915 93.9133 161.581 94.26C161.261 94.6067 161.008 95.0133 160.821 95.48C160.635 95.9467 160.541 96.4467 160.541 96.98C160.541 97.5267 160.635 98.04 160.821 98.52C161.021 98.9867 161.281 99.3933 161.601 99.74C161.935 100.073 162.328 100.34 162.781 100.54C163.235 100.74 163.715 100.84 164.221 100.84ZM170.535 90.06C170.268 90.06 170.035 89.96 169.835 89.76C169.635 89.56 169.535 89.3267 169.535 89.06C169.535 88.78 169.635 88.5467 169.835 88.36C170.035 88.16 170.268 88.06 170.535 88.06C170.815 88.06 171.048 88.16 171.235 88.36C171.435 88.5467 171.535 88.78 171.535 89.06C171.535 89.3267 171.435 89.56 171.235 89.76C171.048 89.96 170.815 90.06 170.535 90.06ZM171.275 91.98V102H169.795V91.98H171.275ZM182.239 100.94C181.679 101.353 181.092 101.667 180.479 101.88C179.879 102.08 179.219 102.18 178.499 102.18C177.779 102.18 177.099 102.047 176.459 101.78C175.832 101.513 175.286 101.147 174.819 100.68C174.366 100.213 174.006 99.6667 173.739 99.04C173.472 98.4 173.339 97.7133 173.339 96.98C173.339 96.26 173.466 95.5867 173.719 94.96C173.986 94.3333 174.339 93.7867 174.779 93.32C175.219 92.8533 175.739 92.4867 176.339 92.22C176.952 91.9533 177.599 91.82 178.279 91.82C178.946 91.82 179.566 91.9533 180.139 92.22C180.726 92.4867 181.226 92.8533 181.639 93.32C182.066 93.7867 182.399 94.3333 182.639 94.96C182.892 95.5867 183.019 96.26 183.019 96.98V97.44H174.799C174.906 98.4267 175.312 99.2467 176.019 99.9C176.726 100.553 177.572 100.88 178.559 100.88C179.079 100.88 179.586 100.8 180.079 100.64C180.572 100.48 180.986 100.253 181.319 99.96L182.239 100.94ZM178.239 93.12C177.372 93.12 176.619 93.4133 175.979 94C175.352 94.5867 174.972 95.34 174.839 96.26H181.539C181.406 95.38 181.026 94.64 180.399 94.04C179.786 93.4267 179.066 93.12 178.239 93.12ZM185.088 102V91.98H186.568V93.16C186.955 92.7067 187.415 92.3667 187.948 92.14C188.481 91.9 189.075 91.78 189.728 91.78C190.861 91.78 191.788 92.14 192.508 92.86C193.228 93.58 193.588 94.5133 193.588 95.66V102H192.128V95.96C192.128 95.08 191.875 94.38 191.368 93.86C190.861 93.34 190.181 93.08 189.328 93.08C188.728 93.08 188.188 93.2133 187.708 93.48C187.241 93.7467 186.861 94.1267 186.568 94.62V102H185.088ZM200.745 100.84C201.278 100.84 201.791 100.733 202.285 100.52C202.778 100.307 203.238 99.9933 203.665 99.58L204.585 100.58C204.051 101.087 203.451 101.48 202.785 101.76C202.118 102.04 201.425 102.18 200.705 102.18C199.998 102.18 199.331 102.047 198.705 101.78C198.078 101.513 197.538 101.147 197.085 100.68C196.631 100.213 196.271 99.66 196.005 99.02C195.738 98.38 195.605 97.7 195.605 96.98C195.605 96.26 195.738 95.5867 196.005 94.96C196.271 94.32 196.631 93.7667 197.085 93.3C197.538 92.8333 198.078 92.4667 198.705 92.2C199.331 91.92 199.998 91.78 200.705 91.78C201.425 91.78 202.125 91.92 202.805 92.2C203.498 92.48 204.105 92.8667 204.625 93.36L203.685 94.44C203.285 94.0267 202.825 93.7067 202.305 93.48C201.785 93.2533 201.258 93.14 200.725 93.14C200.218 93.14 199.738 93.24 199.285 93.44C198.831 93.64 198.438 93.9133 198.105 94.26C197.785 94.6067 197.531 95.0133 197.345 95.48C197.158 95.9467 197.065 96.4467 197.065 96.98C197.065 97.5267 197.158 98.04 197.345 98.52C197.545 98.9867 197.805 99.3933 198.125 99.74C198.458 100.073 198.851 100.34 199.305 100.54C199.758 100.74 200.238 100.84 200.745 100.84ZM214.368 100.94C213.808 101.353 213.221 101.667 212.608 101.88C212.008 102.08 211.348 102.18 210.628 102.18C209.908 102.18 209.228 102.047 208.588 101.78C207.961 101.513 207.415 101.147 206.948 100.68C206.495 100.213 206.135 99.6667 205.868 99.04C205.601 98.4 205.468 97.7133 205.468 96.98C205.468 96.26 205.595 95.5867 205.848 94.96C206.115 94.3333 206.468 93.7867 206.908 93.32C207.348 92.8533 207.868 92.4867 208.468 92.22C209.081 91.9533 209.728 91.82 210.408 91.82C211.075 91.82 211.695 91.9533 212.268 92.22C212.855 92.4867 213.355 92.8533 213.768 93.32C214.195 93.7867 214.528 94.3333 214.768 94.96C215.021 95.5867 215.148 96.26 215.148 96.98V97.44H206.928C207.035 98.4267 207.441 99.2467 208.148 99.9C208.855 100.553 209.701 100.88 210.688 100.88C211.208 100.88 211.715 100.8 212.208 100.64C212.701 100.48 213.115 100.253 213.448 99.96L214.368 100.94ZM210.368 93.12C209.501 93.12 208.748 93.4133 208.108 94C207.481 94.5867 207.101 95.34 206.968 96.26H213.668C213.535 95.38 213.155 94.64 212.528 94.04C211.915 93.4267 211.195 93.12 210.368 93.12ZM233.174 101.2L232.274 102.26C231.901 101.967 231.507 101.66 231.094 101.34C230.694 101.007 230.287 100.667 229.874 100.32C229.301 100.933 228.627 101.4 227.854 101.72C227.094 102.04 226.274 102.2 225.394 102.2C224.007 102.2 222.887 101.84 222.034 101.12C221.194 100.387 220.774 99.4267 220.774 98.24C220.774 97.44 220.981 96.74 221.394 96.14C221.821 95.54 222.521 94.9733 223.494 94.44L223.874 94.22C223.407 93.6333 223.074 93.1 222.874 92.62C222.687 92.1267 222.594 91.6133 222.594 91.08C222.594 90.1467 222.914 89.3667 223.554 88.74C224.207 88.1133 225.014 87.8 225.974 87.8C226.894 87.8 227.647 88.0733 228.234 88.62C228.834 89.1533 229.134 89.84 229.134 90.68C229.134 91.3333 228.947 91.92 228.574 92.44C228.214 92.96 227.654 93.4467 226.894 93.9L225.894 94.5C226.441 95.1133 227.041 95.7467 227.694 96.4C228.347 97.04 229.014 97.6667 229.694 98.28C230.027 97.7467 230.301 97.16 230.514 96.52C230.741 95.88 230.921 95.2133 231.054 94.52L232.414 94.74C232.241 95.5933 232.014 96.3933 231.734 97.14C231.454 97.8867 231.107 98.5667 230.694 99.18C231.121 99.5533 231.547 99.9133 231.974 100.26C232.401 100.593 232.801 100.907 233.174 101.2ZM223.994 91.06C223.994 91.4733 224.074 91.8733 224.234 92.26C224.407 92.6333 224.701 93.0733 225.114 93.58L226.254 92.92C226.747 92.6267 227.114 92.3 227.354 91.94C227.607 91.58 227.734 91.1733 227.734 90.72C227.734 90.2267 227.554 89.82 227.194 89.5C226.847 89.1667 226.427 89 225.934 89C225.374 89 224.907 89.1933 224.534 89.58C224.174 89.9533 223.994 90.4467 223.994 91.06ZM222.174 98.2C222.174 99.0267 222.474 99.6933 223.074 100.2C223.687 100.693 224.487 100.94 225.474 100.94C226.127 100.94 226.747 100.813 227.334 100.56C227.921 100.307 228.441 99.9333 228.894 99.44C228.134 98.7467 227.381 98.0333 226.634 97.3C225.901 96.5667 225.241 95.86 224.654 95.18L224.194 95.44C223.474 95.8533 222.954 96.2733 222.634 96.7C222.327 97.1267 222.174 97.6267 222.174 98.2ZM246.077 101L240.597 89.78V102H239.157V88H241.317L246.097 97.94L250.857 88H253.017V102H251.557V89.76L246.077 101ZM258.775 102.18C257.682 102.18 256.789 101.9 256.095 101.34C255.415 100.78 255.075 100.053 255.075 99.16C255.075 98.2267 255.435 97.4867 256.155 96.94C256.875 96.38 257.849 96.1 259.075 96.1C259.609 96.1 260.122 96.16 260.615 96.28C261.122 96.4 261.589 96.5667 262.015 96.78V95.46C262.015 94.66 261.789 94.06 261.335 93.66C260.882 93.2467 260.222 93.04 259.355 93.04C258.862 93.04 258.362 93.1133 257.855 93.26C257.362 93.3933 256.815 93.6133 256.215 93.92L255.655 92.78C256.375 92.4333 257.042 92.18 257.655 92.02C258.269 91.86 258.882 91.78 259.495 91.78C260.762 91.78 261.735 92.08 262.415 92.68C263.109 93.28 263.455 94.14 263.455 95.26V102H262.015V101.02C261.562 101.407 261.062 101.7 260.515 101.9C259.982 102.087 259.402 102.18 258.775 102.18ZM256.495 99.12C256.495 99.68 256.729 100.14 257.195 100.5C257.675 100.847 258.289 101.02 259.035 101.02C259.635 101.02 260.182 100.927 260.675 100.74C261.169 100.553 261.615 100.26 262.015 99.86V97.98C261.602 97.7 261.155 97.5 260.675 97.38C260.209 97.2467 259.689 97.18 259.115 97.18C258.315 97.18 257.675 97.36 257.195 97.72C256.729 98.0667 256.495 98.5333 256.495 99.12ZM266.777 99.76V93.24H264.617V91.98H266.777V89.44L268.237 89.06V91.98H271.257V93.24H268.237V99.38C268.237 99.9133 268.357 100.3 268.597 100.54C268.837 100.767 269.231 100.88 269.777 100.88C270.057 100.88 270.304 100.86 270.517 100.82C270.744 100.78 270.984 100.713 271.237 100.62V101.92C270.984 102.013 270.697 102.08 270.377 102.12C270.071 102.16 269.771 102.18 269.477 102.18C268.611 102.18 267.944 101.973 267.477 101.56C267.011 101.147 266.777 100.547 266.777 99.76ZM272.842 102V88L274.322 87.66V93.16C274.709 92.7067 275.169 92.3667 275.702 92.14C276.235 91.9 276.829 91.78 277.482 91.78C278.615 91.78 279.542 92.14 280.262 92.86C280.982 93.58 281.342 94.5133 281.342 95.66V102H279.882V95.96C279.882 95.08 279.629 94.38 279.122 93.86C278.615 93.34 277.935 93.08 277.082 93.08C276.482 93.08 275.942 93.2133 275.462 93.48C274.995 93.7467 274.615 94.1267 274.322 94.62V102H272.842ZM292.259 100.94C291.699 101.353 291.112 101.667 290.499 101.88C289.899 102.08 289.239 102.18 288.519 102.18C287.799 102.18 287.119 102.047 286.479 101.78C285.852 101.513 285.305 101.147 284.839 100.68C284.385 100.213 284.025 99.6667 283.759 99.04C283.492 98.4 283.359 97.7133 283.359 96.98C283.359 96.26 283.485 95.5867 283.739 94.96C284.005 94.3333 284.359 93.7867 284.799 93.32C285.239 92.8533 285.759 92.4867 286.359 92.22C286.972 91.9533 287.619 91.82 288.299 91.82C288.965 91.82 289.585 91.9533 290.159 92.22C290.745 92.4867 291.245 92.8533 291.659 93.32C292.085 93.7867 292.419 94.3333 292.659 94.96C292.912 95.5867 293.039 96.26 293.039 96.98V97.44H284.819C284.925 98.4267 285.332 99.2467 286.039 99.9C286.745 100.553 287.592 100.88 288.579 100.88C289.099 100.88 289.605 100.8 290.099 100.64C290.592 100.48 291.005 100.253 291.339 99.96L292.259 100.94ZM288.259 93.12C287.392 93.12 286.639 93.4133 285.999 94C285.372 94.5867 284.992 95.34 284.859 96.26H291.559C291.425 95.38 291.045 94.64 290.419 94.04C289.805 93.4267 289.085 93.12 288.259 93.12ZM295.108 102V91.98H296.588V93.08C296.961 92.6533 297.394 92.3333 297.888 92.12C298.381 91.8933 298.928 91.78 299.528 91.78C300.221 91.78 300.841 91.9467 301.388 92.28C301.948 92.6 302.381 93.04 302.688 93.6C303.101 92.9867 303.594 92.5333 304.168 92.24C304.754 91.9333 305.408 91.78 306.128 91.78C307.208 91.78 308.088 92.14 308.768 92.86C309.461 93.58 309.808 94.5133 309.808 95.66V102H308.348V95.96C308.348 95.08 308.114 94.38 307.648 93.86C307.181 93.34 306.548 93.08 305.748 93.08C305.201 93.08 304.701 93.22 304.248 93.5C303.794 93.78 303.408 94.1867 303.088 94.72C303.114 94.8667 303.134 95.02 303.148 95.18C303.174 95.3267 303.188 95.4867 303.188 95.66V102H301.728V95.96C301.728 95.08 301.494 94.38 301.028 93.86C300.561 93.34 299.934 93.08 299.148 93.08C298.614 93.08 298.128 93.2067 297.688 93.46C297.261 93.7 296.894 94.06 296.588 94.54V102H295.108ZM315.455 102.18C314.362 102.18 313.468 101.9 312.775 101.34C312.095 100.78 311.755 100.053 311.755 99.16C311.755 98.2267 312.115 97.4867 312.835 96.94C313.555 96.38 314.528 96.1 315.755 96.1C316.288 96.1 316.802 96.16 317.295 96.28C317.802 96.4 318.268 96.5667 318.695 96.78V95.46C318.695 94.66 318.468 94.06 318.015 93.66C317.562 93.2467 316.902 93.04 316.035 93.04C315.542 93.04 315.042 93.1133 314.535 93.26C314.042 93.3933 313.495 93.6133 312.895 93.92L312.335 92.78C313.055 92.4333 313.722 92.18 314.335 92.02C314.948 91.86 315.562 91.78 316.175 91.78C317.442 91.78 318.415 92.08 319.095 92.68C319.788 93.28 320.135 94.14 320.135 95.26V102H318.695V101.02C318.242 101.407 317.742 101.7 317.195 101.9C316.662 102.087 316.082 102.18 315.455 102.18ZM313.175 99.12C313.175 99.68 313.408 100.14 313.875 100.5C314.355 100.847 314.968 101.02 315.715 101.02C316.315 101.02 316.862 100.927 317.355 100.74C317.848 100.553 318.295 100.26 318.695 99.86V97.98C318.282 97.7 317.835 97.5 317.355 97.38C316.888 97.2467 316.368 97.18 315.795 97.18C314.995 97.18 314.355 97.36 313.875 97.72C313.408 98.0667 313.175 98.5333 313.175 99.12ZM323.457 99.76V93.24H321.297V91.98H323.457V89.44L324.917 89.06V91.98H327.937V93.24H324.917V99.38C324.917 99.9133 325.037 100.3 325.277 100.54C325.517 100.767 325.91 100.88 326.457 100.88C326.737 100.88 326.984 100.86 327.197 100.82C327.424 100.78 327.664 100.713 327.917 100.62V101.92C327.664 102.013 327.377 102.08 327.057 102.12C326.75 102.16 326.45 102.18 326.157 102.18C325.29 102.18 324.624 101.973 324.157 101.56C323.69 101.147 323.457 100.547 323.457 99.76ZM330.262 90.06C329.995 90.06 329.762 89.96 329.562 89.76C329.362 89.56 329.262 89.3267 329.262 89.06C329.262 88.78 329.362 88.5467 329.562 88.36C329.762 88.16 329.995 88.06 330.262 88.06C330.542 88.06 330.775 88.16 330.962 88.36C331.162 88.5467 331.262 88.78 331.262 89.06C331.262 89.3267 331.162 89.56 330.962 89.76C330.775 89.96 330.542 90.06 330.262 90.06ZM331.002 91.98V102H329.522V91.98H331.002ZM338.206 100.84C338.739 100.84 339.252 100.733 339.746 100.52C340.239 100.307 340.699 99.9933 341.126 99.58L342.046 100.58C341.512 101.087 340.912 101.48 340.246 101.76C339.579 102.04 338.886 102.18 338.166 102.18C337.459 102.18 336.792 102.047 336.166 101.78C335.539 101.513 334.999 101.147 334.546 100.68C334.092 100.213 333.732 99.66 333.466 99.02C333.199 98.38 333.066 97.7 333.066 96.98C333.066 96.26 333.199 95.5867 333.466 94.96C333.732 94.32 334.092 93.7667 334.546 93.3C334.999 92.8333 335.539 92.4667 336.166 92.2C336.792 91.92 337.459 91.78 338.166 91.78C338.886 91.78 339.586 91.92 340.266 92.2C340.959 92.48 341.566 92.8667 342.086 93.36L341.146 94.44C340.746 94.0267 340.286 93.7067 339.766 93.48C339.246 93.2533 338.719 93.14 338.186 93.14C337.679 93.14 337.199 93.24 336.746 93.44C336.292 93.64 335.899 93.9133 335.566 94.26C335.246 94.6067 334.992 95.0133 334.806 95.48C334.619 95.9467 334.526 96.4467 334.526 96.98C334.526 97.5267 334.619 98.04 334.806 98.52C335.006 98.9867 335.266 99.3933 335.586 99.74C335.919 100.073 336.312 100.34 336.766 100.54C337.219 100.74 337.699 100.84 338.206 100.84ZM342.857 100.62L343.757 99.66C344.211 100.087 344.717 100.42 345.277 100.66C345.851 100.887 346.431 101 347.017 101C347.817 101 348.471 100.833 348.977 100.5C349.484 100.167 349.737 99.7333 349.737 99.2C349.737 98.7733 349.584 98.44 349.277 98.2C348.984 97.9467 348.517 97.7733 347.877 97.68L346.137 97.44C345.137 97.2933 344.391 97 343.897 96.56C343.417 96.1067 343.177 95.5 343.177 94.74C343.177 93.9 343.531 93.2067 344.237 92.66C344.944 92.1 345.844 91.82 346.937 91.82C347.657 91.82 348.337 91.9267 348.977 92.14C349.631 92.3533 350.264 92.6867 350.877 93.14L350.097 94.14C349.537 93.7667 348.991 93.4867 348.457 93.3C347.937 93.1133 347.404 93.02 346.857 93.02C346.177 93.02 345.617 93.1733 345.177 93.48C344.751 93.7867 344.537 94.1867 344.537 94.68C344.537 95.1067 344.684 95.44 344.977 95.68C345.271 95.9067 345.744 96.0667 346.397 96.16L348.137 96.4C349.137 96.5333 349.884 96.8333 350.377 97.3C350.884 97.7533 351.137 98.36 351.137 99.12C351.137 99.5467 351.031 99.9533 350.817 100.34C350.617 100.713 350.331 101.04 349.957 101.32C349.597 101.587 349.171 101.8 348.677 101.96C348.184 102.107 347.651 102.18 347.077 102.18C346.251 102.18 345.471 102.047 344.737 101.78C344.017 101.5 343.391 101.113 342.857 100.62Z" fill="black"/>
</svg>
