<svg width="388" height="106" viewBox="0 0 388 106" fill="none" xmlns="http://www.w3.org/2000/svg">
<path d="M1.386 17V1.6H13.288V4.372H4.576V8.002H10.362V10.686H4.576V17H1.386ZM12.7772 11.28C12.7772 10.444 12.9312 9.66667 13.2392 8.948C13.5619 8.21467 13.9945 7.584 14.5372 7.056C15.0945 6.51333 15.7472 6.088 16.4952 5.78C17.2432 5.472 18.0425 5.318 18.8932 5.318C19.7439 5.318 20.5432 5.472 21.2912 5.78C22.0392 6.088 22.6845 6.51333 23.2272 7.056C23.7845 7.584 24.2172 8.21467 24.5252 8.948C24.8479 9.66667 25.0092 10.444 25.0092 11.28C25.0092 12.116 24.8479 12.9007 24.5252 13.634C24.2172 14.3527 23.7845 14.976 23.2272 15.504C22.6845 16.032 22.0392 16.45 21.2912 16.758C20.5432 17.066 19.7439 17.22 18.8932 17.22C18.0425 17.22 17.2432 17.066 16.4952 16.758C15.7472 16.45 15.0945 16.032 14.5372 15.504C13.9945 14.976 13.5619 14.3527 13.2392 13.634C12.9312 12.9007 12.7772 12.116 12.7772 11.28ZM18.8932 14.602C19.7732 14.602 20.5212 14.2793 21.1372 13.634C21.7532 12.9887 22.0612 12.204 22.0612 11.28C22.0612 10.3413 21.7532 9.54933 21.1372 8.904C20.5212 8.25867 19.7732 7.936 18.8932 7.936C18.0132 7.936 17.2652 8.25867 16.6492 8.904C16.0332 9.54933 15.7252 10.3413 15.7252 11.28C15.7252 12.204 16.0332 12.9887 16.6492 13.634C17.2652 14.2793 18.0132 14.602 18.8932 14.602ZM26.8618 17V5.538H29.8758V6.792C30.2425 6.29333 30.6825 5.91933 31.1958 5.67C31.7238 5.406 32.3032 5.274 32.9338 5.274C33.2272 5.28867 33.4692 5.318 33.6598 5.362C33.8652 5.39133 34.0412 5.45 34.1878 5.538V8.178C33.9678 8.07533 33.7258 8.002 33.4618 7.958C33.1978 7.89933 32.9265 7.87 32.6478 7.87C32.0612 7.87 31.5185 8.01667 31.0198 8.31C30.5358 8.60333 30.1545 9.02867 29.8758 9.586V17H26.8618ZM40.4446 17V1.6H46.3626C47.5066 1.6 48.5773 1.798 49.5746 2.194C50.5719 2.59 51.4299 3.13267 52.1486 3.822C52.8819 4.51133 53.4539 5.33267 53.8646 6.286C54.2899 7.23933 54.5026 8.25867 54.5026 9.344C54.5026 10.4147 54.2899 11.4193 53.8646 12.358C53.4539 13.2967 52.8819 14.1107 52.1486 14.8C51.4299 15.4747 50.5719 16.01 49.5746 16.406C48.5773 16.802 47.5066 17 46.3626 17H40.4446ZM46.3406 4.438H43.6346V14.162H46.3406C47.0153 14.162 47.6459 14.0373 48.2326 13.788C48.8339 13.5387 49.3546 13.2013 49.7946 12.776C50.2346 12.336 50.5793 11.8227 50.8286 11.236C51.0779 10.6493 51.2026 10.0187 51.2026 9.344C51.2026 8.65467 51.0779 8.00933 50.8286 7.408C50.5793 6.80667 50.2346 6.286 49.7946 5.846C49.3546 5.406 48.8339 5.06133 48.2326 4.812C47.6459 4.56267 47.0153 4.438 46.3406 4.438ZM57.9848 4.174C57.5154 4.174 57.1121 4.00533 56.7748 3.668C56.4374 3.33067 56.2688 2.92733 56.2688 2.458C56.2688 1.98867 56.4374 1.58533 56.7748 1.248C57.1121 0.910666 57.5154 0.742 57.9848 0.742C58.4541 0.742 58.8574 0.910666 59.1948 1.248C59.5321 1.58533 59.7008 1.98867 59.7008 2.458C59.7008 2.92733 59.5321 3.33067 59.1948 3.668C58.8574 4.00533 58.4541 4.174 57.9848 4.174ZM59.5028 5.538V17H56.4888V5.538H59.5028ZM61.8599 21.598V5.538H64.8299V6.484C65.2845 6.11733 65.7905 5.846 66.3479 5.67C66.9052 5.47933 67.4845 5.384 68.0859 5.384C68.8925 5.384 69.6479 5.538 70.3519 5.846C71.0705 6.154 71.6939 6.572 72.2219 7.1C72.7499 7.628 73.1605 8.25133 73.4539 8.97C73.7619 9.68867 73.9159 10.4587 73.9159 11.28C73.9159 12.1013 73.7619 12.8713 73.4539 13.59C73.1459 14.3087 72.7279 14.932 72.1999 15.46C71.6719 15.988 71.0412 16.406 70.3079 16.714C69.5892 17.0073 68.8192 17.154 67.9979 17.154C67.4405 17.154 66.8905 17.0807 66.3479 16.934C65.8199 16.7727 65.3285 16.5453 64.8739 16.252V21.598H61.8599ZM67.6019 7.958C67.0592 7.958 66.5532 8.05333 66.0839 8.244C65.6145 8.42 65.2112 8.684 64.8739 9.036V13.546C65.1965 13.8687 65.5925 14.1253 66.0619 14.316C66.5459 14.5067 67.0592 14.602 67.6019 14.602C68.5405 14.602 69.3325 14.2867 69.9779 13.656C70.6232 13.0107 70.9459 12.2187 70.9459 11.28C70.9459 10.3413 70.6159 9.55667 69.9559 8.926C69.3105 8.28067 68.5259 7.958 67.6019 7.958ZM78.7743 0.94V17H75.7603V1.6L78.7743 0.94ZM80.6034 11.28C80.6034 10.444 80.7574 9.66667 81.0654 8.948C81.388 8.21467 81.8207 7.584 82.3634 7.056C82.9207 6.51333 83.5734 6.088 84.3214 5.78C85.0694 5.472 85.8687 5.318 86.7194 5.318C87.57 5.318 88.3694 5.472 89.1174 5.78C89.8654 6.088 90.5107 6.51333 91.0534 7.056C91.6107 7.584 92.0434 8.21467 92.3514 8.948C92.674 9.66667 92.8354 10.444 92.8354 11.28C92.8354 12.116 92.674 12.9007 92.3514 13.634C92.0434 14.3527 91.6107 14.976 91.0534 15.504C90.5107 16.032 89.8654 16.45 89.1174 16.758C88.3694 17.066 87.57 17.22 86.7194 17.22C85.8687 17.22 85.0694 17.066 84.3214 16.758C83.5734 16.45 82.9207 16.032 82.3634 15.504C81.8207 14.976 81.388 14.3527 81.0654 13.634C80.7574 12.9007 80.6034 12.116 80.6034 11.28ZM86.7194 14.602C87.5994 14.602 88.3474 14.2793 88.9634 13.634C89.5794 12.9887 89.8874 12.204 89.8874 11.28C89.8874 10.3413 89.5794 9.54933 88.9634 8.904C88.3474 8.25867 87.5994 7.936 86.7194 7.936C85.8394 7.936 85.0914 8.25867 84.4754 8.904C83.8594 9.54933 83.5514 10.3413 83.5514 11.28C83.5514 12.204 83.8594 12.9887 84.4754 13.634C85.0914 14.2793 85.8394 14.602 86.7194 14.602ZM94.688 17V5.538H97.702V6.396C98.1127 6.044 98.5673 5.78 99.066 5.604C99.5647 5.41333 100.107 5.318 100.694 5.318C101.427 5.318 102.087 5.472 102.674 5.78C103.275 6.07333 103.767 6.49133 104.148 7.034C104.603 6.47667 105.153 6.05133 105.798 5.758C106.443 5.46467 107.155 5.318 107.932 5.318C109.208 5.318 110.257 5.74333 111.078 6.594C111.899 7.44467 112.31 8.53733 112.31 9.872V17H109.296V10.312C109.296 9.59333 109.098 9.014 108.702 8.574C108.321 8.134 107.8 7.914 107.14 7.914C106.685 7.914 106.267 8.01667 105.886 8.222C105.519 8.41267 105.204 8.69133 104.94 9.058C104.955 9.19 104.969 9.322 104.984 9.454C104.999 9.586 105.006 9.72533 105.006 9.872V17H101.992V10.312C101.992 9.59333 101.794 9.014 101.398 8.574C101.017 8.134 100.496 7.914 99.836 7.914C99.3813 7.914 98.978 8.002 98.626 8.178C98.274 8.354 97.966 8.61067 97.702 8.948V17H94.688ZM118.256 17.198C117.024 17.198 116.019 16.8753 115.242 16.23C114.464 15.57 114.076 14.7193 114.076 13.678C114.076 12.5927 114.494 11.742 115.33 11.126C116.166 10.51 117.317 10.202 118.784 10.202C119.253 10.202 119.722 10.2387 120.192 10.312C120.661 10.3853 121.123 10.4953 121.578 10.642V9.828C121.578 9.168 121.372 8.66933 120.962 8.332C120.551 7.99467 119.95 7.826 119.158 7.826C118.674 7.826 118.146 7.90667 117.574 8.068C117.016 8.21467 116.378 8.44933 115.66 8.772L114.56 6.55C115.454 6.13933 116.32 5.83133 117.156 5.626C118.006 5.42067 118.842 5.318 119.664 5.318C121.204 5.318 122.399 5.692 123.25 6.44C124.115 7.17333 124.547 8.21467 124.547 9.564V17H121.578V16.208C121.094 16.5453 120.58 16.7947 120.038 16.956C119.51 17.1173 118.916 17.198 118.256 17.198ZM116.958 13.612C116.958 14.052 117.148 14.404 117.53 14.668C117.911 14.9173 118.417 15.042 119.048 15.042C119.546 15.042 120.001 14.9833 120.412 14.866C120.837 14.734 121.226 14.5507 121.578 14.316V12.6C121.211 12.4533 120.822 12.3507 120.412 12.292C120.016 12.2187 119.598 12.182 119.158 12.182C118.468 12.182 117.926 12.314 117.53 12.578C117.148 12.8273 116.958 13.172 116.958 13.612ZM144.564 15.306L142.76 17.44C142.408 17.176 142.049 16.9047 141.682 16.626C141.33 16.3327 140.971 16.0393 140.604 15.746C139.974 16.23 139.27 16.5967 138.492 16.846C137.73 17.0953 136.908 17.22 136.028 17.22C134.415 17.22 133.102 16.8167 132.09 16.01C131.093 15.2033 130.594 14.1473 130.594 12.842C130.594 11.8887 130.822 11.0893 131.276 10.444C131.746 9.79867 132.516 9.18267 133.586 8.596C133.132 7.99467 132.802 7.43 132.596 6.902C132.406 6.374 132.31 5.81667 132.31 5.23C132.31 4.13 132.721 3.206 133.542 2.458C134.364 1.71 135.39 1.336 136.622 1.336C137.81 1.336 138.8 1.68067 139.592 2.37C140.384 3.05933 140.78 3.92467 140.78 4.966C140.78 5.64067 140.597 6.25667 140.23 6.814C139.878 7.37133 139.336 7.87 138.602 8.31L137.48 8.992C137.906 9.44667 138.368 9.92333 138.866 10.422C139.365 10.906 139.878 11.39 140.406 11.874C140.685 11.39 140.927 10.862 141.132 10.29C141.338 9.70333 141.506 9.07267 141.638 8.398L144.234 8.816C144.014 9.784 143.75 10.664 143.442 11.456C143.134 12.248 142.782 12.952 142.386 13.568C142.753 13.8907 143.12 14.1987 143.486 14.492C143.868 14.7853 144.227 15.0567 144.564 15.306ZM135.016 5.164C135.016 5.48667 135.09 5.80933 135.236 6.132C135.383 6.44 135.647 6.82867 136.028 7.298L136.93 6.748C137.326 6.51333 137.612 6.264 137.788 6C137.964 5.72133 138.052 5.406 138.052 5.054C138.052 4.64333 137.906 4.29867 137.612 4.02C137.319 3.72667 136.96 3.58 136.534 3.58C136.094 3.58 135.728 3.734 135.434 4.042C135.156 4.33533 135.016 4.70933 135.016 5.164ZM133.388 12.622C133.388 13.2967 133.645 13.8393 134.158 14.25C134.672 14.646 135.368 14.844 136.248 14.844C136.703 14.844 137.136 14.7853 137.546 14.668C137.957 14.536 138.346 14.3453 138.712 14.096C138.052 13.4947 137.407 12.8787 136.776 12.248C136.16 11.6173 135.581 10.994 135.038 10.378C134.452 10.7153 134.026 11.06 133.762 11.412C133.513 11.764 133.388 12.1673 133.388 12.622ZM150.917 17V1.6H162.753V4.372H154.107V7.892H159.805V10.576H154.107V14.228H162.841V17H150.917ZM164.899 17V5.538H167.913V6.44C168.353 6.07333 168.837 5.79467 169.365 5.604C169.908 5.41333 170.494 5.318 171.125 5.318C172.445 5.318 173.53 5.74333 174.381 6.594C175.232 7.44467 175.657 8.53733 175.657 9.872V17H172.643V10.312C172.643 9.59333 172.423 9.014 171.983 8.574C171.558 8.134 170.986 7.914 170.267 7.914C169.768 7.914 169.314 8.01667 168.903 8.222C168.507 8.41267 168.177 8.69133 167.913 9.058V17H164.899ZM183.22 17.066C182.413 17.066 181.651 16.912 180.932 16.604C180.228 16.296 179.612 15.878 179.084 15.35C178.571 14.822 178.16 14.206 177.852 13.502C177.559 12.7833 177.412 12.0133 177.412 11.192C177.412 10.3853 177.566 9.63 177.874 8.926C178.182 8.20733 178.6 7.584 179.128 7.056C179.656 6.528 180.279 6.11733 180.998 5.824C181.717 5.516 182.487 5.362 183.308 5.362C183.88 5.362 184.423 5.44267 184.936 5.604C185.464 5.76533 185.955 5.99267 186.41 6.286V5.538H189.38V17C189.38 18.5107 188.889 19.6767 187.906 20.498C186.938 21.3193 185.537 21.73 183.704 21.73C182.824 21.73 181.973 21.642 181.152 21.466C180.345 21.29 179.605 21.0333 178.93 20.696L179.986 18.342C180.617 18.65 181.233 18.8773 181.834 19.024C182.435 19.1853 183.037 19.266 183.638 19.266C184.533 19.266 185.207 19.068 185.662 18.672C186.131 18.2907 186.366 17.726 186.366 16.978V16.032C185.911 16.3693 185.413 16.626 184.87 16.802C184.342 16.978 183.792 17.066 183.22 17.066ZM180.382 11.192C180.382 12.116 180.697 12.9007 181.328 13.546C181.973 14.1913 182.758 14.514 183.682 14.514C184.225 14.514 184.723 14.426 185.178 14.25C185.633 14.0593 186.029 13.8027 186.366 13.48V8.97C186.043 8.64733 185.647 8.398 185.178 8.222C184.709 8.03133 184.217 7.936 183.704 7.936C182.78 7.936 181.995 8.25133 181.35 8.882C180.705 9.51267 180.382 10.2827 180.382 11.192ZM193.25 4.174C192.781 4.174 192.378 4.00533 192.04 3.668C191.703 3.33067 191.534 2.92733 191.534 2.458C191.534 1.98867 191.703 1.58533 192.04 1.248C192.378 0.910666 192.781 0.742 193.25 0.742C193.72 0.742 194.123 0.910666 194.46 1.248C194.798 1.58533 194.966 1.98867 194.966 2.458C194.966 2.92733 194.798 3.33067 194.46 3.668C194.123 4.00533 193.72 4.174 193.25 4.174ZM194.768 5.538V17H191.754V5.538H194.768ZM197.126 17V5.538H200.14V6.44C200.58 6.07333 201.064 5.79467 201.591 5.604C202.134 5.41333 202.721 5.318 203.352 5.318C204.672 5.318 205.757 5.74333 206.608 6.594C207.458 7.44467 207.884 8.53733 207.884 9.872V17H204.87V10.312C204.87 9.59333 204.65 9.014 204.21 8.574C203.784 8.134 203.212 7.914 202.494 7.914C201.995 7.914 201.54 8.01667 201.13 8.222C200.734 8.41267 200.404 8.69133 200.14 9.058V17H197.126ZM220.441 15.57C219.737 16.142 219.011 16.56 218.263 16.824C217.529 17.088 216.708 17.22 215.799 17.22C214.933 17.22 214.119 17.066 213.357 16.758C212.609 16.45 211.956 16.032 211.399 15.504C210.856 14.976 210.423 14.3527 210.101 13.634C209.793 12.9007 209.639 12.116 209.639 11.28C209.639 10.4587 209.785 9.68867 210.079 8.97C210.387 8.23667 210.805 7.606 211.333 7.078C211.861 6.53533 212.484 6.11 213.203 5.802C213.936 5.494 214.713 5.34 215.535 5.34C216.341 5.34 217.089 5.50133 217.779 5.824C218.483 6.132 219.084 6.55733 219.583 7.1C220.096 7.64267 220.492 8.29533 220.771 9.058C221.064 9.806 221.211 10.62 221.211 11.5V12.292H212.675C212.88 13.0107 213.276 13.59 213.863 14.03C214.449 14.47 215.139 14.69 215.931 14.69C216.429 14.69 216.899 14.6093 217.339 14.448C217.779 14.2867 218.153 14.0593 218.461 13.766L220.441 15.57ZM215.469 7.826C214.779 7.826 214.185 8.03867 213.687 8.464C213.188 8.87467 212.843 9.432 212.653 10.136H218.263C218.072 9.46133 217.72 8.91133 217.207 8.486C216.708 8.046 216.129 7.826 215.469 7.826ZM233.417 15.57C232.713 16.142 231.987 16.56 231.239 16.824C230.506 17.088 229.684 17.22 228.775 17.22C227.91 17.22 227.096 17.066 226.333 16.758C225.585 16.45 224.932 16.032 224.375 15.504C223.832 14.976 223.4 14.3527 223.077 13.634C222.769 12.9007 222.615 12.116 222.615 11.28C222.615 10.4587 222.762 9.68867 223.055 8.97C223.363 8.23667 223.781 7.606 224.309 7.078C224.837 6.53533 225.46 6.11 226.179 5.802C226.912 5.494 227.69 5.34 228.511 5.34C229.318 5.34 230.066 5.50133 230.755 5.824C231.459 6.132 232.06 6.55733 232.559 7.1C233.072 7.64267 233.468 8.29533 233.747 9.058C234.04 9.806 234.187 10.62 234.187 11.5V12.292H225.651C225.856 13.0107 226.252 13.59 226.839 14.03C227.426 14.47 228.115 14.69 228.907 14.69C229.406 14.69 229.875 14.6093 230.315 14.448C230.755 14.2867 231.129 14.0593 231.437 13.766L233.417 15.57ZM228.445 7.826C227.756 7.826 227.162 8.03867 226.663 8.464C226.164 8.87467 225.82 9.432 225.629 10.136H231.239C231.048 9.46133 230.696 8.91133 230.183 8.486C229.684 8.046 229.105 7.826 228.445 7.826ZM236.034 17V5.538H239.048V6.792C239.414 6.29333 239.854 5.91933 240.368 5.67C240.896 5.406 241.475 5.274 242.106 5.274C242.399 5.28867 242.641 5.318 242.832 5.362C243.037 5.39133 243.213 5.45 243.36 5.538V8.178C243.14 8.07533 242.898 8.002 242.634 7.958C242.37 7.89933 242.098 7.87 241.82 7.87C241.233 7.87 240.69 8.01667 240.192 8.31C239.708 8.60333 239.326 9.02867 239.048 9.586V17H236.034ZM246.489 4.174C246.019 4.174 245.616 4.00533 245.279 3.668C244.941 3.33067 244.773 2.92733 244.773 2.458C244.773 1.98867 244.941 1.58533 245.279 1.248C245.616 0.910666 246.019 0.742 246.489 0.742C246.958 0.742 247.361 0.910666 247.699 1.248C248.036 1.58533 248.205 1.98867 248.205 2.458C248.205 2.92733 248.036 3.33067 247.699 3.668C247.361 4.00533 246.958 4.174 246.489 4.174ZM248.007 5.538V17H244.993V5.538H248.007ZM250.364 17V5.538H253.378V6.44C253.818 6.07333 254.302 5.79467 254.83 5.604C255.372 5.41333 255.959 5.318 256.59 5.318C257.91 5.318 258.995 5.74333 259.846 6.594C260.696 7.44467 261.122 8.53733 261.122 9.872V17H258.108V10.312C258.108 9.59333 257.888 9.014 257.448 8.574C257.022 8.134 256.45 7.914 255.732 7.914C255.233 7.914 254.778 8.01667 254.368 8.222C253.972 8.41267 253.642 8.69133 253.378 9.058V17H250.364ZM268.685 17.066C267.878 17.066 267.115 16.912 266.397 16.604C265.693 16.296 265.077 15.878 264.549 15.35C264.035 14.822 263.625 14.206 263.317 13.502C263.023 12.7833 262.877 12.0133 262.877 11.192C262.877 10.3853 263.031 9.63 263.339 8.926C263.647 8.20733 264.065 7.584 264.593 7.056C265.121 6.528 265.744 6.11733 266.463 5.824C267.181 5.516 267.951 5.362 268.773 5.362C269.345 5.362 269.887 5.44267 270.401 5.604C270.929 5.76533 271.42 5.99267 271.875 6.286V5.538H274.845V17C274.845 18.5107 274.353 19.6767 273.371 20.498C272.403 21.3193 271.002 21.73 269.169 21.73C268.289 21.73 267.438 21.642 266.617 21.466C265.81 21.29 265.069 21.0333 264.395 20.696L265.451 18.342C266.081 18.65 266.697 18.8773 267.299 19.024C267.9 19.1853 268.501 19.266 269.103 19.266C269.997 19.266 270.672 19.068 271.127 18.672C271.596 18.2907 271.831 17.726 271.831 16.978V16.032C271.376 16.3693 270.877 16.626 270.335 16.802C269.807 16.978 269.257 17.066 268.685 17.066ZM265.847 11.192C265.847 12.116 266.162 12.9007 266.793 13.546C267.438 14.1913 268.223 14.514 269.147 14.514C269.689 14.514 270.188 14.426 270.643 14.25C271.097 14.0593 271.493 13.8027 271.831 13.48V8.97C271.508 8.64733 271.112 8.398 270.643 8.222C270.173 8.03133 269.682 7.936 269.169 7.936C268.245 7.936 267.46 8.25133 266.815 8.882C266.169 9.51267 265.847 10.2827 265.847 11.192ZM280.523 14.558L282.349 12.27C283.244 13.0473 284.102 13.6193 284.923 13.986C285.759 14.338 286.639 14.514 287.563 14.514C288.516 14.514 289.279 14.338 289.851 13.986C290.423 13.634 290.709 13.1647 290.709 12.578C290.709 12.05 290.511 11.6393 290.115 11.346C289.734 11.0527 289.088 10.8327 288.179 10.686L285.121 10.158C283.801 9.938 282.796 9.476 282.107 8.772C281.432 8.068 281.095 7.15867 281.095 6.044C281.095 4.60667 281.638 3.47 282.723 2.634C283.823 1.798 285.304 1.38 287.167 1.38C288.282 1.38 289.404 1.57067 290.533 1.952C291.677 2.33333 292.674 2.86133 293.525 3.536L291.809 5.912C290.988 5.28133 290.181 4.81933 289.389 4.526C288.597 4.218 287.783 4.064 286.947 4.064C286.096 4.064 285.414 4.22533 284.901 4.548C284.388 4.856 284.131 5.274 284.131 5.802C284.131 6.27133 284.3 6.638 284.637 6.902C284.974 7.166 285.539 7.35667 286.331 7.474L289.235 7.958C290.76 8.20733 291.904 8.69867 292.667 9.432C293.444 10.1507 293.833 11.104 293.833 12.292C293.833 13.788 293.239 14.9833 292.051 15.878C290.878 16.7727 289.308 17.22 287.343 17.22C286.111 17.22 284.894 16.9853 283.691 16.516C282.503 16.0467 281.447 15.394 280.523 14.558ZM296.678 13.766V8.068H294.324V5.538H296.678V2.612L299.692 1.93V5.538H302.948V8.068H299.692V13.15C299.692 13.6927 299.809 14.074 300.044 14.294C300.278 14.514 300.689 14.624 301.276 14.624C301.554 14.624 301.818 14.6093 302.068 14.58C302.317 14.536 302.588 14.4627 302.882 14.36V16.824C302.559 16.9267 302.17 17.0073 301.716 17.066C301.261 17.1393 300.872 17.176 300.55 17.176C299.274 17.176 298.306 16.89 297.646 16.318C297 15.7313 296.678 14.8807 296.678 13.766ZM307.366 5.538V12.204C307.366 12.9373 307.579 13.524 308.004 13.964C308.444 14.404 309.023 14.624 309.742 14.624C310.255 14.624 310.71 14.5287 311.106 14.338C311.517 14.1327 311.854 13.8467 312.118 13.48V5.538H315.132V17H312.118V16.076C311.678 16.4427 311.187 16.7287 310.644 16.934C310.101 17.1247 309.515 17.22 308.884 17.22C307.564 17.22 306.479 16.7947 305.628 15.944C304.777 15.0787 304.352 13.9787 304.352 12.644V5.538H307.366ZM326.039 17V16.054C325.584 16.4207 325.078 16.6993 324.521 16.89C323.964 17.066 323.384 17.154 322.783 17.154C321.976 17.154 321.214 17 320.495 16.692C319.791 16.384 319.175 15.966 318.647 15.438C318.119 14.91 317.701 14.2867 317.393 13.568C317.1 12.8493 316.953 12.0793 316.953 11.258C316.953 10.4367 317.107 9.66667 317.415 8.948C317.723 8.22933 318.141 7.606 318.669 7.078C319.197 6.55 319.82 6.13933 320.539 5.846C321.272 5.538 322.05 5.384 322.871 5.384C323.428 5.384 323.971 5.46467 324.499 5.626C325.042 5.77267 325.54 5.99267 325.995 6.286V1.6L329.009 0.94V17H326.039ZM319.923 11.258C319.923 12.182 320.246 12.9667 320.891 13.612C321.536 14.2573 322.328 14.58 323.267 14.58C323.824 14.58 324.33 14.4847 324.785 14.294C325.254 14.1033 325.658 13.832 325.995 13.48V9.014C325.672 8.67667 325.269 8.41267 324.785 8.222C324.316 8.03133 323.81 7.936 323.267 7.936C322.314 7.936 321.514 8.25867 320.869 8.904C320.238 9.53467 319.923 10.3193 319.923 11.258ZM341.655 15.57C340.951 16.142 340.225 16.56 339.477 16.824C338.744 17.088 337.923 17.22 337.013 17.22C336.148 17.22 335.334 17.066 334.571 16.758C333.823 16.45 333.171 16.032 332.613 15.504C332.071 14.976 331.638 14.3527 331.315 13.634C331.007 12.9007 330.853 12.116 330.853 11.28C330.853 10.4587 331 9.68867 331.293 8.97C331.601 8.23667 332.019 7.606 332.547 7.078C333.075 6.53533 333.699 6.11 334.417 5.802C335.151 5.494 335.928 5.34 336.749 5.34C337.556 5.34 338.304 5.50133 338.993 5.824C339.697 6.132 340.299 6.55733 340.797 7.1C341.311 7.64267 341.707 8.29533 341.985 9.058C342.279 9.806 342.425 10.62 342.425 11.5V12.292H333.889C334.095 13.0107 334.491 13.59 335.077 14.03C335.664 14.47 336.353 14.69 337.145 14.69C337.644 14.69 338.113 14.6093 338.553 14.448C338.993 14.2867 339.367 14.0593 339.675 13.766L341.655 15.57ZM336.683 7.826C335.994 7.826 335.4 8.03867 334.901 8.464C334.403 8.87467 334.058 9.432 333.867 10.136H339.477C339.287 9.46133 338.935 8.91133 338.421 8.486C337.923 8.046 337.343 7.826 336.683 7.826ZM344.272 17V5.538H347.286V6.44C347.726 6.07333 348.21 5.79467 348.738 5.604C349.281 5.41333 349.867 5.318 350.498 5.318C351.818 5.318 352.903 5.74333 353.754 6.594C354.605 7.44467 355.03 8.53733 355.03 9.872V17H352.016V10.312C352.016 9.59333 351.796 9.014 351.356 8.574C350.931 8.134 350.359 7.914 349.64 7.914C349.141 7.914 348.687 8.01667 348.276 8.222C347.88 8.41267 347.55 8.69133 347.286 9.058V17H344.272ZM358.445 13.766V8.068H356.091V5.538H358.445V2.612L361.459 1.93V5.538H364.715V8.068H361.459V13.15C361.459 13.6927 361.577 14.074 361.811 14.294C362.046 14.514 362.457 14.624 363.043 14.624C363.322 14.624 363.586 14.6093 363.835 14.58C364.085 14.536 364.356 14.4627 364.649 14.36V16.824C364.327 16.9267 363.938 17.0073 363.483 17.066C363.029 17.1393 362.64 17.176 362.317 17.176C361.041 17.176 360.073 16.89 359.413 16.318C358.768 15.7313 358.445 14.8807 358.445 13.766ZM365.454 15.636L366.95 13.634C367.625 14.074 368.263 14.404 368.864 14.624C369.466 14.8293 370.067 14.932 370.668 14.932C371.343 14.932 371.878 14.822 372.274 14.602C372.685 14.382 372.89 14.0887 372.89 13.722C372.89 13.4287 372.773 13.194 372.538 13.018C372.318 12.842 371.959 12.7173 371.46 12.644L369.26 12.314C368.131 12.138 367.266 11.7713 366.664 11.214C366.078 10.6567 365.784 9.916 365.784 8.992C365.784 7.892 366.217 7.012 367.082 6.352C367.948 5.692 369.106 5.362 370.558 5.362C371.394 5.362 372.208 5.48667 373 5.736C373.792 5.97067 374.548 6.32267 375.266 6.792L373.814 8.728C373.184 8.36133 372.582 8.09 372.01 7.914C371.438 7.72333 370.859 7.628 370.272 7.628C369.73 7.628 369.29 7.73067 368.952 7.936C368.63 8.14133 368.468 8.41267 368.468 8.75C368.468 9.058 368.586 9.3 368.82 9.476C369.07 9.63733 369.473 9.75467 370.03 9.828L372.23 10.158C373.345 10.3193 374.203 10.686 374.804 11.258C375.42 11.83 375.728 12.556 375.728 13.436C375.728 13.9787 375.596 14.4847 375.332 14.954C375.083 15.4087 374.738 15.8047 374.298 16.142C373.858 16.4793 373.33 16.7433 372.714 16.934C372.098 17.1247 371.431 17.22 370.712 17.22C369.671 17.22 368.696 17.088 367.786 16.824C366.877 16.5453 366.1 16.1493 365.454 15.636ZM4.818 46.198C3.586 46.198 2.58133 45.8753 1.804 45.23C1.02667 44.57 0.638 43.7193 0.638 42.678C0.638 41.5927 1.056 40.742 1.892 40.126C2.728 39.51 3.87933 39.202 5.346 39.202C5.81533 39.202 6.28467 39.2387 6.754 39.312C7.22333 39.3853 7.68533 39.4953 8.14 39.642V38.828C8.14 38.168 7.93467 37.6693 7.524 37.332C7.11333 36.9947 6.512 36.826 5.72 36.826C5.236 36.826 4.708 36.9067 4.136 37.068C3.57867 37.2147 2.94067 37.4493 2.222 37.772L1.122 35.55C2.01667 35.1393 2.882 34.8313 3.718 34.626C4.56867 34.4207 5.40467 34.318 6.226 34.318C7.766 34.318 8.96133 34.692 9.812 35.44C10.6773 36.1733 11.11 37.2147 11.11 38.564V46H8.14V45.208C7.656 45.5453 7.14267 45.7947 6.6 45.956C6.072 46.1173 5.478 46.198 4.818 46.198ZM3.52 42.612C3.52 43.052 3.71067 43.404 4.092 43.668C4.47333 43.9173 4.97933 44.042 5.61 44.042C6.10867 44.042 6.56333 43.9833 6.974 43.866C7.39933 43.734 7.788 43.5507 8.14 43.316V41.6C7.77333 41.4533 7.38467 41.3507 6.974 41.292C6.578 41.2187 6.16 41.182 5.72 41.182C5.03067 41.182 4.488 41.314 4.092 41.578C3.71067 41.8273 3.52 42.172 3.52 42.612ZM13.3911 46V34.538H16.4051V35.44C16.8451 35.0733 17.3291 34.7947 17.8571 34.604C18.3998 34.4133 18.9865 34.318 19.6171 34.318C20.9371 34.318 22.0225 34.7433 22.8731 35.594C23.7238 36.4447 24.1491 37.5373 24.1491 38.872V46H21.1351V39.312C21.1351 38.5933 20.9151 38.014 20.4751 37.574C20.0498 37.134 19.4778 36.914 18.7591 36.914C18.2605 36.914 17.8058 37.0167 17.3951 37.222C16.9991 37.4127 16.6691 37.6913 16.4051 38.058V46H13.3911ZM34.9901 46V45.054C34.5355 45.4207 34.0295 45.6993 33.4721 45.89C32.9148 46.066 32.3355 46.154 31.7341 46.154C30.9275 46.154 30.1648 46 29.4461 45.692C28.7421 45.384 28.1261 44.966 27.5981 44.438C27.0701 43.91 26.6521 43.2867 26.3441 42.568C26.0508 41.8493 25.9041 41.0793 25.9041 40.258C25.9041 39.4367 26.0581 38.6667 26.3661 37.948C26.6741 37.2293 27.0921 36.606 27.6201 36.078C28.1481 35.55 28.7715 35.1393 29.4901 34.846C30.2235 34.538 31.0008 34.384 31.8221 34.384C32.3795 34.384 32.9221 34.4647 33.4501 34.626C33.9928 34.7727 34.4915 34.9927 34.9461 35.286V30.6L37.9601 29.94V46H34.9901ZM28.8741 40.258C28.8741 41.182 29.1968 41.9667 29.8421 42.612C30.4875 43.2573 31.2795 43.58 32.2181 43.58C32.7755 43.58 33.2815 43.4847 33.7361 43.294C34.2055 43.1033 34.6088 42.832 34.9461 42.48V38.014C34.6235 37.6767 34.2201 37.4127 33.7361 37.222C33.2668 37.0313 32.7608 36.936 32.2181 36.936C31.2648 36.936 30.4655 37.2587 29.8201 37.904C29.1895 38.5347 28.8741 39.3193 28.8741 40.258ZM48.3883 46.198C47.1563 46.198 46.1516 45.8753 45.3743 45.23C44.597 44.57 44.2083 43.7193 44.2083 42.678C44.2083 41.5927 44.6263 40.742 45.4623 40.126C46.2983 39.51 47.4496 39.202 48.9163 39.202C49.3856 39.202 49.855 39.2387 50.3243 39.312C50.7936 39.3853 51.2556 39.4953 51.7103 39.642V38.828C51.7103 38.168 51.505 37.6693 51.0943 37.332C50.6836 36.9947 50.0823 36.826 49.2903 36.826C48.8063 36.826 48.2783 36.9067 47.7063 37.068C47.149 37.2147 46.511 37.4493 45.7923 37.772L44.6923 35.55C45.587 35.1393 46.4523 34.8313 47.2883 34.626C48.139 34.4207 48.975 34.318 49.7963 34.318C51.3363 34.318 52.5316 34.692 53.3823 35.44C54.2476 36.1733 54.6803 37.2147 54.6803 38.564V46H51.7103V45.208C51.2263 45.5453 50.713 45.7947 50.1703 45.956C49.6423 46.1173 49.0483 46.198 48.3883 46.198ZM47.0903 42.612C47.0903 43.052 47.281 43.404 47.6623 43.668C48.0436 43.9173 48.5496 44.042 49.1803 44.042C49.679 44.042 50.1336 43.9833 50.5443 43.866C50.9696 43.734 51.3583 43.5507 51.7103 43.316V41.6C51.3436 41.4533 50.955 41.3507 50.5443 41.292C50.1483 41.2187 49.7303 41.182 49.2903 41.182C48.601 41.182 48.0583 41.314 47.6623 41.578C47.281 41.8273 47.0903 42.172 47.0903 42.612ZM59.9754 29.94V46H56.9614V30.6L59.9754 29.94ZM61.3645 44.636L62.8605 42.634C63.5352 43.074 64.1732 43.404 64.7745 43.624C65.3759 43.8293 65.9772 43.932 66.5785 43.932C67.2532 43.932 67.7885 43.822 68.1845 43.602C68.5952 43.382 68.8005 43.0887 68.8005 42.722C68.8005 42.4287 68.6832 42.194 68.4485 42.018C68.2285 41.842 67.8692 41.7173 67.3705 41.644L65.1705 41.314C64.0412 41.138 63.1759 40.7713 62.5745 40.214C61.9879 39.6567 61.6945 38.916 61.6945 37.992C61.6945 36.892 62.1272 36.012 62.9925 35.352C63.8579 34.692 65.0165 34.362 66.4685 34.362C67.3045 34.362 68.1185 34.4867 68.9105 34.736C69.7025 34.9707 70.4579 35.3227 71.1765 35.792L69.7245 37.728C69.0939 37.3613 68.4925 37.09 67.9205 36.914C67.3485 36.7233 66.7692 36.628 66.1825 36.628C65.6399 36.628 65.1999 36.7307 64.8625 36.936C64.5399 37.1413 64.3785 37.4127 64.3785 37.75C64.3785 38.058 64.4959 38.3 64.7305 38.476C64.9799 38.6373 65.3832 38.7547 65.9405 38.828L68.1405 39.158C69.2552 39.3193 70.1132 39.686 70.7145 40.258C71.3305 40.83 71.6385 41.556 71.6385 42.436C71.6385 42.9787 71.5065 43.4847 71.2425 43.954C70.9932 44.4087 70.6485 44.8047 70.2085 45.142C69.7685 45.4793 69.2405 45.7433 68.6245 45.934C68.0085 46.1247 67.3412 46.22 66.6225 46.22C65.5812 46.22 64.6059 46.088 63.6965 45.824C62.7872 45.5453 62.0099 45.1493 61.3645 44.636ZM72.7186 40.28C72.7186 39.444 72.8726 38.6667 73.1806 37.948C73.5033 37.2147 73.9359 36.584 74.4786 36.056C75.0359 35.5133 75.6886 35.088 76.4366 34.78C77.1846 34.472 77.9839 34.318 78.8346 34.318C79.6853 34.318 80.4846 34.472 81.2326 34.78C81.9806 35.088 82.6259 35.5133 83.1686 36.056C83.7259 36.584 84.1586 37.2147 84.4666 37.948C84.7893 38.6667 84.9506 39.444 84.9506 40.28C84.9506 41.116 84.7893 41.9007 84.4666 42.634C84.1586 43.3527 83.7259 43.976 83.1686 44.504C82.6259 45.032 81.9806 45.45 81.2326 45.758C80.4846 46.066 79.6853 46.22 78.8346 46.22C77.9839 46.22 77.1846 46.066 76.4366 45.758C75.6886 45.45 75.0359 45.032 74.4786 44.504C73.9359 43.976 73.5033 43.3527 73.1806 42.634C72.8726 41.9007 72.7186 41.116 72.7186 40.28ZM78.8346 43.602C79.7146 43.602 80.4626 43.2793 81.0786 42.634C81.6946 41.9887 82.0026 41.204 82.0026 40.28C82.0026 39.3413 81.6946 38.5493 81.0786 37.904C80.4626 37.2587 79.7146 36.936 78.8346 36.936C77.9546 36.936 77.2066 37.2587 76.5906 37.904C75.9746 38.5493 75.6666 39.3413 75.6666 40.28C75.6666 41.204 75.9746 41.9887 76.5906 42.634C77.2066 43.2793 77.9546 43.602 78.8346 43.602ZM90.437 34.538H92.989V33.438C92.989 32.162 93.363 31.1793 94.111 30.49C94.859 29.8007 95.937 29.456 97.345 29.456C97.653 29.456 97.9683 29.478 98.291 29.522C98.6137 29.5513 98.8923 29.5953 99.127 29.654V32.184C98.8483 32.1253 98.599 32.0813 98.379 32.052C98.1737 32.0227 97.9537 32.008 97.719 32.008C97.147 32.008 96.7143 32.1327 96.421 32.382C96.1423 32.6313 96.003 33.0053 96.003 33.504V34.538H99.127V37.068H96.003V46H92.989V37.068H90.437V34.538ZM99.8534 40.28C99.8534 39.444 100.007 38.6667 100.315 37.948C100.638 37.2147 101.071 36.584 101.613 36.056C102.171 35.5133 102.823 35.088 103.571 34.78C104.319 34.472 105.119 34.318 105.969 34.318C106.82 34.318 107.619 34.472 108.367 34.78C109.115 35.088 109.761 35.5133 110.303 36.056C110.861 36.584 111.293 37.2147 111.601 37.948C111.924 38.6667 112.085 39.444 112.085 40.28C112.085 41.116 111.924 41.9007 111.601 42.634C111.293 43.3527 110.861 43.976 110.303 44.504C109.761 45.032 109.115 45.45 108.367 45.758C107.619 46.066 106.82 46.22 105.969 46.22C105.119 46.22 104.319 46.066 103.571 45.758C102.823 45.45 102.171 45.032 101.613 44.504C101.071 43.976 100.638 43.3527 100.315 42.634C100.007 41.9007 99.8534 41.116 99.8534 40.28ZM105.969 43.602C106.849 43.602 107.597 43.2793 108.213 42.634C108.829 41.9887 109.137 41.204 109.137 40.28C109.137 39.3413 108.829 38.5493 108.213 37.904C107.597 37.2587 106.849 36.936 105.969 36.936C105.089 36.936 104.341 37.2587 103.725 37.904C103.109 38.5493 102.801 39.3413 102.801 40.28C102.801 41.204 103.109 41.9887 103.725 42.634C104.341 43.2793 105.089 43.602 105.969 43.602ZM113.938 46V34.538H116.952V35.792C117.319 35.2933 117.759 34.9193 118.272 34.67C118.8 34.406 119.379 34.274 120.01 34.274C120.303 34.2887 120.545 34.318 120.736 34.362C120.941 34.3913 121.117 34.45 121.264 34.538V37.178C121.044 37.0753 120.802 37.002 120.538 36.958C120.274 36.8993 120.003 36.87 119.724 36.87C119.137 36.87 118.595 37.0167 118.096 37.31C117.612 37.6033 117.231 38.0287 116.952 38.586V46H113.938ZM128.885 42.766V37.068H126.531V34.538H128.885V31.612L131.899 30.93V34.538H135.155V37.068H131.899V42.15C131.899 42.6927 132.016 43.074 132.251 43.294C132.485 43.514 132.896 43.624 133.483 43.624C133.761 43.624 134.025 43.6093 134.275 43.58C134.524 43.536 134.795 43.4627 135.089 43.36V45.824C134.766 45.9267 134.377 46.0073 133.923 46.066C133.468 46.1393 133.079 46.176 132.757 46.176C131.481 46.176 130.513 45.89 129.853 45.318C129.207 44.7313 128.885 43.8807 128.885 42.766ZM136.647 46V30.6L139.661 29.94V35.44C140.101 35.0733 140.585 34.7947 141.113 34.604C141.656 34.4133 142.242 34.318 142.873 34.318C144.193 34.318 145.278 34.7433 146.129 35.594C146.98 36.4447 147.405 37.5373 147.405 38.872V46H144.391V39.312C144.391 38.5933 144.171 38.014 143.731 37.574C143.306 37.134 142.734 36.914 142.015 36.914C141.516 36.914 141.062 37.0167 140.651 37.222C140.255 37.4127 139.925 37.6913 139.661 38.058V46H136.647ZM159.962 44.57C159.258 45.142 158.532 45.56 157.784 45.824C157.051 46.088 156.229 46.22 155.32 46.22C154.455 46.22 153.641 46.066 152.878 45.758C152.13 45.45 151.477 45.032 150.92 44.504C150.377 43.976 149.945 43.3527 149.622 42.634C149.314 41.9007 149.16 41.116 149.16 40.28C149.16 39.4587 149.307 38.6887 149.6 37.97C149.908 37.2367 150.326 36.606 150.854 36.078C151.382 35.5353 152.005 35.11 152.724 34.802C153.457 34.494 154.235 34.34 155.056 34.34C155.863 34.34 156.611 34.5013 157.3 34.824C158.004 35.132 158.605 35.5573 159.104 36.1C159.617 36.6427 160.013 37.2953 160.292 38.058C160.585 38.806 160.732 39.62 160.732 40.5V41.292H152.196C152.401 42.0107 152.797 42.59 153.384 43.03C153.971 43.47 154.66 43.69 155.452 43.69C155.951 43.69 156.42 43.6093 156.86 43.448C157.3 43.2867 157.674 43.0593 157.982 42.766L159.962 44.57ZM154.99 36.826C154.301 36.826 153.707 37.0387 153.208 37.464C152.709 37.8747 152.365 38.432 152.174 39.136H157.784C157.593 38.4613 157.241 37.9113 156.728 37.486C156.229 37.046 155.65 36.826 154.99 36.826ZM165.882 43.558L167.708 41.27C168.603 42.0473 169.461 42.6193 170.282 42.986C171.118 43.338 171.998 43.514 172.922 43.514C173.876 43.514 174.638 43.338 175.21 42.986C175.782 42.634 176.068 42.1647 176.068 41.578C176.068 41.05 175.87 40.6393 175.474 40.346C175.093 40.0527 174.448 39.8327 173.538 39.686L170.48 39.158C169.16 38.938 168.156 38.476 167.466 37.772C166.792 37.068 166.454 36.1587 166.454 35.044C166.454 33.6067 166.997 32.47 168.082 31.634C169.182 30.798 170.664 30.38 172.526 30.38C173.641 30.38 174.763 30.5707 175.892 30.952C177.036 31.3333 178.034 31.8613 178.884 32.536L177.168 34.912C176.347 34.2813 175.54 33.8193 174.748 33.526C173.956 33.218 173.142 33.064 172.306 33.064C171.456 33.064 170.774 33.2253 170.26 33.548C169.747 33.856 169.49 34.274 169.49 34.802C169.49 35.2713 169.659 35.638 169.996 35.902C170.334 36.166 170.898 36.3567 171.69 36.474L174.594 36.958C176.12 37.2073 177.264 37.6987 178.026 38.432C178.804 39.1507 179.192 40.104 179.192 41.292C179.192 42.788 178.598 43.9833 177.41 44.878C176.237 45.7727 174.668 46.22 172.702 46.22C171.47 46.22 170.253 45.9853 169.05 45.516C167.862 45.0467 166.806 44.394 165.882 43.558ZM191.394 44.57C190.69 45.142 189.964 45.56 189.216 45.824C188.482 46.088 187.661 46.22 186.752 46.22C185.886 46.22 185.072 46.066 184.31 45.758C183.562 45.45 182.909 45.032 182.352 44.504C181.809 43.976 181.376 43.3527 181.054 42.634C180.746 41.9007 180.592 41.116 180.592 40.28C180.592 39.4587 180.738 38.6887 181.032 37.97C181.34 37.2367 181.758 36.606 182.286 36.078C182.814 35.5353 183.437 35.11 184.156 34.802C184.889 34.494 185.666 34.34 186.488 34.34C187.294 34.34 188.042 34.5013 188.732 34.824C189.436 35.132 190.037 35.5573 190.536 36.1C191.049 36.6427 191.445 37.2953 191.724 38.058C192.017 38.806 192.164 39.62 192.164 40.5V41.292H183.628C183.833 42.0107 184.229 42.59 184.816 43.03C185.402 43.47 186.092 43.69 186.884 43.69C187.382 43.69 187.852 43.6093 188.292 43.448C188.732 43.2867 189.106 43.0593 189.414 42.766L191.394 44.57ZM186.422 36.826C185.732 36.826 185.138 37.0387 184.64 37.464C184.141 37.8747 183.796 38.432 183.606 39.136H189.216C189.025 38.4613 188.673 37.9113 188.16 37.486C187.661 37.046 187.082 36.826 186.422 36.826ZM204.37 44.57C203.666 45.142 202.94 45.56 202.192 45.824C201.459 46.088 200.638 46.22 199.728 46.22C198.863 46.22 198.049 46.066 197.286 45.758C196.538 45.45 195.886 45.032 195.328 44.504C194.786 43.976 194.353 43.3527 194.03 42.634C193.722 41.9007 193.568 41.116 193.568 40.28C193.568 39.4587 193.715 38.6887 194.008 37.97C194.316 37.2367 194.734 36.606 195.262 36.078C195.79 35.5353 196.414 35.11 197.132 34.802C197.866 34.494 198.643 34.34 199.464 34.34C200.271 34.34 201.019 34.5013 201.708 34.824C202.412 35.132 203.014 35.5573 203.512 36.1C204.026 36.6427 204.422 37.2953 204.7 38.058C204.994 38.806 205.14 39.62 205.14 40.5V41.292H196.604C196.81 42.0107 197.206 42.59 197.792 43.03C198.379 43.47 199.068 43.69 199.86 43.69C200.359 43.69 200.828 43.6093 201.268 43.448C201.708 43.2867 202.082 43.0593 202.39 42.766L204.37 44.57ZM199.398 36.826C198.709 36.826 198.115 37.0387 197.616 37.464C197.118 37.8747 196.773 38.432 196.582 39.136H202.192C202.002 38.4613 201.65 37.9113 201.136 37.486C200.638 37.046 200.058 36.826 199.398 36.826ZM206.987 46V30.6L210.001 29.94V39.378L214.951 34.538H218.361L212.993 39.796L218.691 46H214.841L210.001 40.764V46H206.987ZM220.987 33.174C220.517 33.174 220.114 33.0053 219.777 32.668C219.439 32.3307 219.271 31.9273 219.271 31.458C219.271 30.9887 219.439 30.5853 219.777 30.248C220.114 29.9107 220.517 29.742 220.987 29.742C221.456 29.742 221.859 29.9107 222.197 30.248C222.534 30.5853 222.703 30.9887 222.703 31.458C222.703 31.9273 222.534 32.3307 222.197 32.668C221.859 33.0053 221.456 33.174 220.987 33.174ZM222.505 34.538V46H219.491V34.538H222.505ZM224.862 46V34.538H227.876V35.44C228.316 35.0733 228.8 34.7947 229.328 34.604C229.87 34.4133 230.457 34.318 231.088 34.318C232.408 34.318 233.493 34.7433 234.344 35.594C235.194 36.4447 235.62 37.5373 235.62 38.872V46H232.606V39.312C232.606 38.5933 232.386 38.014 231.946 37.574C231.52 37.134 230.948 36.914 230.23 36.914C229.731 36.914 229.276 37.0167 228.866 37.222C228.47 37.4127 228.14 37.6913 227.876 38.058V46H224.862ZM243.183 46.066C242.376 46.066 241.614 45.912 240.895 45.604C240.191 45.296 239.575 44.878 239.047 44.35C238.534 43.822 238.123 43.206 237.815 42.502C237.522 41.7833 237.375 41.0133 237.375 40.192C237.375 39.3853 237.529 38.63 237.837 37.926C238.145 37.2073 238.563 36.584 239.091 36.056C239.619 35.528 240.242 35.1173 240.961 34.824C241.68 34.516 242.45 34.362 243.271 34.362C243.843 34.362 244.386 34.4427 244.899 34.604C245.427 34.7653 245.918 34.9927 246.373 35.286V34.538H249.343V46C249.343 47.5107 248.852 48.6767 247.869 49.498C246.901 50.3193 245.5 50.73 243.667 50.73C242.787 50.73 241.936 50.642 241.115 50.466C240.308 50.29 239.568 50.0333 238.893 49.696L239.949 47.342C240.58 47.65 241.196 47.8773 241.797 48.024C242.398 48.1853 243 48.266 243.601 48.266C244.496 48.266 245.17 48.068 245.625 47.672C246.094 47.2907 246.329 46.726 246.329 45.978V45.032C245.874 45.3693 245.376 45.626 244.833 45.802C244.305 45.978 243.755 46.066 243.183 46.066ZM240.345 40.192C240.345 41.116 240.66 41.9007 241.291 42.546C241.936 43.1913 242.721 43.514 243.645 43.514C244.188 43.514 244.686 43.426 245.141 43.25C245.596 43.0593 245.992 42.8027 246.329 42.48V37.97C246.006 37.6473 245.61 37.398 245.141 37.222C244.672 37.0313 244.18 36.936 243.667 36.936C242.743 36.936 241.958 37.2513 241.313 37.882C240.668 38.5127 240.345 39.2827 240.345 40.192ZM256.341 46V30.6H259.531V43.184H267.957V46H256.341ZM279.737 44.57C279.033 45.142 278.307 45.56 277.559 45.824C276.826 46.088 276.005 46.22 275.095 46.22C274.23 46.22 273.416 46.066 272.653 45.758C271.905 45.45 271.253 45.032 270.695 44.504C270.153 43.976 269.72 43.3527 269.397 42.634C269.089 41.9007 268.935 41.116 268.935 40.28C268.935 39.4587 269.082 38.6887 269.375 37.97C269.683 37.2367 270.101 36.606 270.629 36.078C271.157 35.5353 271.781 35.11 272.499 34.802C273.233 34.494 274.01 34.34 274.831 34.34C275.638 34.34 276.386 34.5013 277.075 34.824C277.779 35.132 278.381 35.5573 278.879 36.1C279.393 36.6427 279.789 37.2953 280.067 38.058C280.361 38.806 280.507 39.62 280.507 40.5V41.292H271.971C272.177 42.0107 272.573 42.59 273.159 43.03C273.746 43.47 274.435 43.69 275.227 43.69C275.726 43.69 276.195 43.6093 276.635 43.448C277.075 43.2867 277.449 43.0593 277.757 42.766L279.737 44.57ZM274.765 36.826C274.076 36.826 273.482 37.0387 272.983 37.464C272.485 37.8747 272.14 38.432 271.949 39.136H277.559C277.369 38.4613 277.017 37.9113 276.503 37.486C276.005 37.046 275.425 36.826 274.765 36.826ZM285.941 46.198C284.709 46.198 283.704 45.8753 282.927 45.23C282.15 44.57 281.761 43.7193 281.761 42.678C281.761 41.5927 282.179 40.742 283.015 40.126C283.851 39.51 285.002 39.202 286.469 39.202C286.938 39.202 287.408 39.2387 287.877 39.312C288.346 39.3853 288.808 39.4953 289.263 39.642V38.828C289.263 38.168 289.058 37.6693 288.647 37.332C288.236 36.9947 287.635 36.826 286.843 36.826C286.359 36.826 285.831 36.9067 285.259 37.068C284.702 37.2147 284.064 37.4493 283.345 37.772L282.245 35.55C283.14 35.1393 284.005 34.8313 284.841 34.626C285.692 34.4207 286.528 34.318 287.349 34.318C288.889 34.318 290.084 34.692 290.935 35.44C291.8 36.1733 292.233 37.2147 292.233 38.564V46H289.263V45.208C288.779 45.5453 288.266 45.7947 287.723 45.956C287.195 46.1173 286.601 46.198 285.941 46.198ZM284.643 42.612C284.643 43.052 284.834 43.404 285.215 43.668C285.596 43.9173 286.102 44.042 286.733 44.042C287.232 44.042 287.686 43.9833 288.097 43.866C288.522 43.734 288.911 43.5507 289.263 43.316V41.6C288.896 41.4533 288.508 41.3507 288.097 41.292C287.701 41.2187 287.283 41.182 286.843 41.182C286.154 41.182 285.611 41.314 285.215 41.578C284.834 41.8273 284.643 42.172 284.643 42.612ZM294.514 46V34.538H297.528V35.792C297.895 35.2933 298.335 34.9193 298.848 34.67C299.376 34.406 299.956 34.274 300.586 34.274C300.88 34.2887 301.122 34.318 301.312 34.362C301.518 34.3913 301.694 34.45 301.84 34.538V37.178C301.62 37.0753 301.378 37.002 301.114 36.958C300.85 36.8993 300.579 36.87 300.3 36.87C299.714 36.87 299.171 37.0167 298.672 37.31C298.188 37.6033 297.807 38.0287 297.528 38.586V46H294.514ZM303.473 46V34.538H306.487V35.44C306.927 35.0733 307.411 34.7947 307.939 34.604C308.482 34.4133 309.068 34.318 309.699 34.318C311.019 34.318 312.104 34.7433 312.955 35.594C313.806 36.4447 314.231 37.5373 314.231 38.872V46H311.217V39.312C311.217 38.5933 310.997 38.014 310.557 37.574C310.132 37.134 309.56 36.914 308.841 36.914C308.342 36.914 307.888 37.0167 307.477 37.222C307.081 37.4127 306.751 37.6913 306.487 38.058V46H303.473ZM326.788 44.57C326.084 45.142 325.358 45.56 324.61 45.824C323.877 46.088 323.056 46.22 322.146 46.22C321.281 46.22 320.467 46.066 319.704 45.758C318.956 45.45 318.304 45.032 317.746 44.504C317.204 43.976 316.771 43.3527 316.448 42.634C316.14 41.9007 315.986 41.116 315.986 40.28C315.986 39.4587 316.133 38.6887 316.426 37.97C316.734 37.2367 317.152 36.606 317.68 36.078C318.208 35.5353 318.832 35.11 319.55 34.802C320.284 34.494 321.061 34.34 321.882 34.34C322.689 34.34 323.437 34.5013 324.126 34.824C324.83 35.132 325.432 35.5573 325.93 36.1C326.444 36.6427 326.84 37.2953 327.118 38.058C327.412 38.806 327.558 39.62 327.558 40.5V41.292H319.022C319.228 42.0107 319.624 42.59 320.21 43.03C320.797 43.47 321.486 43.69 322.278 43.69C322.777 43.69 323.246 43.6093 323.686 43.448C324.126 43.2867 324.5 43.0593 324.808 42.766L326.788 44.57ZM321.816 36.826C321.127 36.826 320.533 37.0387 320.034 37.464C319.536 37.8747 319.191 38.432 319 39.136H324.61C324.42 38.4613 324.068 37.9113 323.554 37.486C323.056 37.046 322.476 36.826 321.816 36.826ZM329.405 46V34.538H332.419V35.792C332.785 35.2933 333.225 34.9193 333.739 34.67C334.267 34.406 334.846 34.274 335.477 34.274C335.77 34.2887 336.012 34.318 336.203 34.362C336.408 34.3913 336.584 34.45 336.731 34.538V37.178C336.511 37.0753 336.269 37.002 336.005 36.958C335.741 36.8993 335.469 36.87 335.191 36.87C334.604 36.87 334.061 37.0167 333.563 37.31C333.079 37.6033 332.697 38.0287 332.419 38.586V46H329.405ZM337.525 44.636L339.021 42.634C339.695 43.074 340.333 43.404 340.935 43.624C341.536 43.8293 342.137 43.932 342.739 43.932C343.413 43.932 343.949 43.822 344.345 43.602C344.755 43.382 344.961 43.0887 344.961 42.722C344.961 42.4287 344.843 42.194 344.609 42.018C344.389 41.842 344.029 41.7173 343.531 41.644L341.331 41.314C340.201 41.138 339.336 40.7713 338.735 40.214C338.148 39.6567 337.855 38.916 337.855 37.992C337.855 36.892 338.287 36.012 339.153 35.352C340.018 34.692 341.177 34.362 342.629 34.362C343.465 34.362 344.279 34.4867 345.071 34.736C345.863 34.9707 346.618 35.3227 347.337 35.792L345.885 37.728C345.254 37.3613 344.653 37.09 344.081 36.914C343.509 36.7233 342.929 36.628 342.343 36.628C341.8 36.628 341.36 36.7307 341.023 36.936C340.7 37.1413 340.539 37.4127 340.539 37.75C340.539 38.058 340.656 38.3 340.891 38.476C341.14 38.6373 341.543 38.7547 342.101 38.828L344.301 39.158C345.415 39.3193 346.273 39.686 346.875 40.258C347.491 40.83 347.799 41.556 347.799 42.436C347.799 42.9787 347.667 43.4847 347.403 43.954C347.153 44.4087 346.809 44.8047 346.369 45.142C345.929 45.4793 345.401 45.7433 344.785 45.934C344.169 46.1247 343.501 46.22 342.783 46.22C341.741 46.22 340.766 46.088 339.857 45.824C338.947 45.5453 338.17 45.1493 337.525 44.636ZM353.439 38.454H361.711V41.006H353.439V38.454ZM123.25 73.8C124.117 73.8 124.944 73.6333 125.73 73.3C126.517 72.9533 127.177 72.48 127.71 71.88L128.71 72.92C128.017 73.64 127.19 74.2067 126.23 74.62C125.27 75.02 124.264 75.22 123.21 75.22C122.197 75.22 121.244 75.0333 120.35 74.66C119.47 74.2867 118.704 73.78 118.05 73.14C117.397 72.4867 116.884 71.72 116.51 70.84C116.137 69.9467 115.95 69 115.95 68C115.95 67 116.137 66.06 116.51 65.18C116.884 64.2867 117.397 63.52 118.05 62.88C118.704 62.2267 119.47 61.7133 120.35 61.34C121.244 60.9667 122.197 60.78 123.21 60.78C124.29 60.78 125.31 60.9867 126.27 61.4C127.244 61.8 128.07 62.36 128.75 63.08L127.73 64.16C127.184 63.5467 126.504 63.0667 125.69 62.72C124.89 62.3733 124.064 62.2 123.21 62.2C122.41 62.2 121.657 62.3533 120.95 62.66C120.257 62.9533 119.657 63.36 119.15 63.88C118.644 64.3867 118.244 65 117.95 65.72C117.657 66.4267 117.51 67.1867 117.51 68C117.51 68.8133 117.657 69.58 117.95 70.3C118.244 71.0067 118.644 71.62 119.15 72.14C119.67 72.6467 120.277 73.0533 120.97 73.36C121.677 73.6533 122.437 73.8 123.25 73.8ZM130.711 73.52H132.311L130.711 77.74H129.551L130.711 73.52ZM140.379 73.8C141.246 73.8 142.073 73.6333 142.859 73.3C143.646 72.9533 144.306 72.48 144.839 71.88L145.839 72.92C145.146 73.64 144.319 74.2067 143.359 74.62C142.399 75.02 141.393 75.22 140.339 75.22C139.326 75.22 138.373 75.0333 137.479 74.66C136.599 74.2867 135.833 73.78 135.179 73.14C134.526 72.4867 134.013 71.72 133.639 70.84C133.266 69.9467 133.079 69 133.079 68C133.079 67 133.266 66.06 133.639 65.18C134.013 64.2867 134.526 63.52 135.179 62.88C135.833 62.2267 136.599 61.7133 137.479 61.34C138.373 60.9667 139.326 60.78 140.339 60.78C141.419 60.78 142.439 60.9867 143.399 61.4C144.373 61.8 145.199 62.36 145.879 63.08L144.859 64.16C144.313 63.5467 143.633 63.0667 142.819 62.72C142.019 62.3733 141.193 62.2 140.339 62.2C139.539 62.2 138.786 62.3533 138.079 62.66C137.386 62.9533 136.786 63.36 136.279 63.88C135.773 64.3867 135.373 65 135.079 65.72C134.786 66.4267 134.639 67.1867 134.639 68C134.639 68.8133 134.786 69.58 135.079 70.3C135.373 71.0067 135.773 71.62 136.279 72.14C136.799 72.6467 137.406 73.0533 138.099 73.36C138.806 73.6533 139.566 73.8 140.379 73.8ZM152.513 72.1H151.253V68.46H147.733V67.22H151.253V63.66H152.513V67.22H156.033V68.46H152.513V72.1ZM163.021 72.1H161.761V68.46H158.241V67.22H161.761V63.66H163.021V67.22H166.541V68.46H163.021V72.1ZM169.168 73.52H170.768L169.168 77.74H168.008L169.168 73.52ZM182.041 69.72C182.041 71.3867 181.561 72.72 180.601 73.72C179.641 74.72 178.347 75.22 176.721 75.22C175.521 75.22 174.474 74.9067 173.581 74.28C172.701 73.6533 172.054 72.7733 171.641 71.64L173.041 71.06C173.401 71.98 173.887 72.6667 174.501 73.12C175.127 73.5733 175.874 73.8 176.741 73.8C177.874 73.8 178.781 73.4267 179.461 72.68C180.154 71.9333 180.501 70.94 180.501 69.7V61H182.041V69.72ZM187.713 75.18C186.62 75.18 185.726 74.9 185.033 74.34C184.353 73.78 184.013 73.0533 184.013 72.16C184.013 71.2267 184.373 70.4867 185.093 69.94C185.813 69.38 186.786 69.1 188.013 69.1C188.546 69.1 189.06 69.16 189.553 69.28C190.06 69.4 190.526 69.5667 190.953 69.78V68.46C190.953 67.66 190.726 67.06 190.273 66.66C189.82 66.2467 189.16 66.04 188.293 66.04C187.8 66.04 187.3 66.1133 186.793 66.26C186.3 66.3933 185.753 66.6133 185.153 66.92L184.593 65.78C185.313 65.4333 185.98 65.18 186.593 65.02C187.206 64.86 187.82 64.78 188.433 64.78C189.7 64.78 190.673 65.08 191.353 65.68C192.046 66.28 192.393 67.14 192.393 68.26V75H190.953V74.02C190.5 74.4067 190 74.7 189.453 74.9C188.92 75.0867 188.34 75.18 187.713 75.18ZM185.433 72.12C185.433 72.68 185.666 73.14 186.133 73.5C186.613 73.8467 187.226 74.02 187.973 74.02C188.573 74.02 189.12 73.9267 189.613 73.74C190.106 73.5533 190.553 73.26 190.953 72.86V70.98C190.54 70.7 190.093 70.5 189.613 70.38C189.146 70.2467 188.626 70.18 188.053 70.18C187.253 70.18 186.613 70.36 186.133 70.72C185.666 71.0667 185.433 71.5333 185.433 72.12ZM197.518 75L193.178 64.98H194.818L198.238 73.08L201.658 64.98H203.238L198.918 75H197.518ZM207.752 75.18C206.659 75.18 205.765 74.9 205.072 74.34C204.392 73.78 204.052 73.0533 204.052 72.16C204.052 71.2267 204.412 70.4867 205.132 69.94C205.852 69.38 206.825 69.1 208.052 69.1C208.585 69.1 209.099 69.16 209.592 69.28C210.099 69.4 210.565 69.5667 210.992 69.78V68.46C210.992 67.66 210.765 67.06 210.312 66.66C209.859 66.2467 209.199 66.04 208.332 66.04C207.839 66.04 207.339 66.1133 206.832 66.26C206.339 66.3933 205.792 66.6133 205.192 66.92L204.632 65.78C205.352 65.4333 206.019 65.18 206.632 65.02C207.245 64.86 207.859 64.78 208.472 64.78C209.739 64.78 210.712 65.08 211.392 65.68C212.085 66.28 212.432 67.14 212.432 68.26V75H210.992V74.02C210.539 74.4067 210.039 74.7 209.492 74.9C208.959 75.0867 208.379 75.18 207.752 75.18ZM205.472 72.12C205.472 72.68 205.705 73.14 206.172 73.5C206.652 73.8467 207.265 74.02 208.012 74.02C208.612 74.02 209.159 73.9267 209.652 73.74C210.145 73.5533 210.592 73.26 210.992 72.86V70.98C210.579 70.7 210.132 70.5 209.652 70.38C209.185 70.2467 208.665 70.18 208.092 70.18C207.292 70.18 206.652 70.36 206.172 70.72C205.705 71.0667 205.472 71.5333 205.472 72.12ZM215.165 73.52H216.765L215.165 77.74H214.005L215.165 73.52ZM219.149 75V61H225.229C226.589 61 227.683 61.3733 228.509 62.12C229.336 62.8533 229.749 63.8267 229.749 65.04C229.749 66.2533 229.329 67.2333 228.489 67.98C227.663 68.7267 226.576 69.1 225.229 69.1H220.689V75H219.149ZM225.109 62.38H220.689V67.76H225.109C226.056 67.76 226.809 67.52 227.369 67.04C227.929 66.5467 228.209 65.8867 228.209 65.06C228.209 64.2333 227.929 63.58 227.369 63.1C226.809 62.62 226.056 62.38 225.109 62.38ZM234.354 76.3L234.934 74.98L230.854 64.98H232.494L235.734 73.2L239.234 64.98H240.834L235.854 76.5C235.427 77.46 234.954 78.1533 234.434 78.58C233.914 79.0067 233.254 79.22 232.454 79.22C232.267 79.22 232.087 79.2067 231.914 79.18C231.754 79.1667 231.621 79.1467 231.514 79.12V77.78C231.647 77.8067 231.774 77.8267 231.894 77.84C232.027 77.8533 232.181 77.86 232.354 77.86C232.807 77.86 233.194 77.7333 233.514 77.48C233.834 77.2267 234.114 76.8333 234.354 76.3ZM243.84 72.76V66.24H241.68V64.98H243.84V62.44L245.3 62.06V64.98H248.32V66.24H245.3V72.38C245.3 72.9133 245.42 73.3 245.66 73.54C245.9 73.7667 246.293 73.88 246.84 73.88C247.12 73.88 247.367 73.86 247.58 73.82C247.807 73.78 248.047 73.7133 248.3 73.62V74.92C248.047 75.0133 247.76 75.08 247.44 75.12C247.133 75.16 246.833 75.18 246.54 75.18C245.673 75.18 245.007 74.9733 244.54 74.56C244.073 74.1467 243.84 73.5467 243.84 72.76ZM249.905 75V61L251.385 60.66V66.16C251.771 65.7067 252.231 65.3667 252.765 65.14C253.298 64.9 253.891 64.78 254.545 64.78C255.678 64.78 256.605 65.14 257.325 65.86C258.045 66.58 258.405 67.5133 258.405 68.66V75H256.945V68.96C256.945 68.08 256.691 67.38 256.185 66.86C255.678 66.34 254.998 66.08 254.145 66.08C253.545 66.08 253.005 66.2133 252.525 66.48C252.058 66.7467 251.678 67.1267 251.385 67.62V75H249.905ZM260.421 69.98C260.421 69.26 260.554 68.58 260.821 67.94C261.088 67.3 261.448 66.7467 261.901 66.28C262.368 65.8133 262.914 65.4467 263.541 65.18C264.168 64.9133 264.834 64.78 265.541 64.78C266.248 64.78 266.908 64.9133 267.521 65.18C268.148 65.4467 268.688 65.8133 269.141 66.28C269.608 66.7467 269.974 67.3 270.241 67.94C270.508 68.58 270.641 69.26 270.641 69.98C270.641 70.7133 270.508 71.4 270.241 72.04C269.974 72.68 269.608 73.2333 269.141 73.7C268.688 74.1667 268.148 74.5333 267.521 74.8C266.908 75.0667 266.248 75.2 265.541 75.2C264.834 75.2 264.168 75.0667 263.541 74.8C262.914 74.5333 262.368 74.1667 261.901 73.7C261.448 73.2333 261.088 72.68 260.821 72.04C260.554 71.4 260.421 70.7133 260.421 69.98ZM265.541 73.88C266.048 73.88 266.521 73.78 266.961 73.58C267.414 73.38 267.801 73.1067 268.121 72.76C268.454 72.4 268.714 71.9867 268.901 71.52C269.088 71.04 269.181 70.5267 269.181 69.98C269.181 69.4333 269.088 68.9267 268.901 68.46C268.714 67.98 268.454 67.5667 268.121 67.22C267.801 66.8733 267.414 66.6 266.961 66.4C266.521 66.2 266.048 66.1 265.541 66.1C265.034 66.1 264.554 66.2 264.101 66.4C263.661 66.6 263.274 66.8733 262.941 67.22C262.621 67.5667 262.361 67.98 262.161 68.46C261.974 68.9267 261.881 69.4333 261.881 69.98C261.881 70.5267 261.974 71.04 262.161 71.52C262.348 71.9867 262.601 72.4 262.921 72.76C263.254 73.1067 263.648 73.38 264.101 73.58C264.554 73.78 265.034 73.88 265.541 73.88ZM272.698 75V64.98H274.178V66.16C274.564 65.7067 275.024 65.3667 275.558 65.14C276.091 64.9 276.684 64.78 277.338 64.78C278.471 64.78 279.398 65.14 280.118 65.86C280.838 66.58 281.198 67.5133 281.198 68.66V75H279.738V68.96C279.738 68.08 279.484 67.38 278.978 66.86C278.471 66.34 277.791 66.08 276.938 66.08C276.338 66.08 275.798 66.2133 275.318 66.48C274.851 66.7467 274.471 67.1267 274.178 67.62V75H272.698ZM283.934 73.52H285.534L283.934 77.74H282.774L283.934 73.52ZM287.919 75V61H293.919C295.279 61 296.379 61.3733 297.219 62.12C298.059 62.8533 298.479 63.82 298.479 65.02C298.479 65.94 298.206 66.7333 297.659 67.4C297.126 68.0667 296.406 68.5267 295.499 68.78L298.639 75H296.939L293.939 68.98H289.459V75H287.919ZM293.819 62.38H289.459V67.68H293.819C294.752 67.68 295.506 67.44 296.079 66.96C296.652 66.4667 296.939 65.82 296.939 65.02C296.939 64.22 296.652 63.58 296.079 63.1C295.506 62.62 294.752 62.38 293.819 62.38ZM117.556 101V87H119.096V93.26H127.236V87H128.776V101H127.236V94.64H119.096V101H117.556ZM130.653 88.38V87H142.313V88.38H137.253V101H135.713V88.38H130.653ZM151.116 100L145.636 88.78V101H144.196V87H146.356L151.136 96.94L155.896 87H158.056V101H156.596V88.76L151.116 100ZM161.13 101V87H162.67V99.62H171.01V101H161.13ZM176.739 98.1H175.479V94.46H171.959V93.22H175.479V89.66H176.739V93.22H180.259V94.46H176.739V98.1ZM189.743 99.8C190.609 99.8 191.436 99.6333 192.223 99.3C193.009 98.9533 193.669 98.48 194.203 97.88L195.203 98.92C194.509 99.64 193.683 100.207 192.723 100.62C191.763 101.02 190.756 101.22 189.703 101.22C188.689 101.22 187.736 101.033 186.842 100.66C185.963 100.287 185.196 99.78 184.543 99.14C183.889 98.4867 183.376 97.72 183.003 96.84C182.629 95.9467 182.443 95 182.443 94C182.443 93 182.629 92.06 183.003 91.18C183.376 90.2867 183.889 89.52 184.543 88.88C185.196 88.2267 185.963 87.7133 186.842 87.34C187.736 86.9667 188.689 86.78 189.703 86.78C190.783 86.78 191.803 86.9867 192.763 87.4C193.736 87.8 194.563 88.36 195.243 89.08L194.223 90.16C193.676 89.5467 192.996 89.0667 192.183 88.72C191.383 88.3733 190.556 88.2 189.703 88.2C188.903 88.2 188.149 88.3533 187.442 88.66C186.749 88.9533 186.149 89.36 185.643 89.88C185.136 90.3867 184.736 91 184.443 91.72C184.149 92.4267 184.003 93.1867 184.003 94C184.003 94.8133 184.149 95.58 184.443 96.3C184.736 97.0067 185.136 97.62 185.643 98.14C186.163 98.6467 186.769 99.0533 187.463 99.36C188.169 99.6533 188.929 99.8 189.743 99.8ZM196.411 98.6L197.431 97.54C198.151 98.3 198.918 98.88 199.731 99.28C200.558 99.6667 201.425 99.86 202.331 99.86C203.425 99.86 204.325 99.6 205.031 99.08C205.738 98.56 206.091 97.9 206.091 97.1C206.091 96.38 205.838 95.8267 205.331 95.44C204.838 95.0533 204.018 94.7667 202.871 94.58L200.851 94.26C199.505 94.0467 198.511 93.6533 197.871 93.08C197.231 92.4933 196.911 91.7067 196.911 90.72C196.911 89.56 197.365 88.62 198.271 87.9C199.178 87.18 200.365 86.82 201.831 86.82C202.805 86.82 203.771 86.98 204.731 87.3C205.691 87.62 206.565 88.08 207.351 88.68L206.471 89.88C205.711 89.3067 204.938 88.8733 204.151 88.58C203.365 88.2867 202.571 88.14 201.771 88.14C200.771 88.14 199.958 88.3733 199.331 88.84C198.718 89.2933 198.411 89.88 198.411 90.6C198.411 91.2533 198.631 91.7533 199.071 92.1C199.511 92.4467 200.238 92.7 201.251 92.86L203.251 93.18C204.771 93.4333 205.878 93.8667 206.571 94.48C207.278 95.0933 207.631 95.94 207.631 97.02C207.631 97.6333 207.498 98.2 207.231 98.72C206.978 99.2267 206.611 99.6667 206.131 100.04C205.665 100.4 205.098 100.687 204.431 100.9C203.778 101.1 203.058 101.2 202.271 101.2C201.165 101.2 200.098 100.98 199.071 100.54C198.058 100.087 197.171 99.44 196.411 98.6ZM208.599 98.6L209.619 97.54C210.339 98.3 211.106 98.88 211.919 99.28C212.746 99.6667 213.612 99.86 214.519 99.86C215.612 99.86 216.512 99.6 217.219 99.08C217.926 98.56 218.279 97.9 218.279 97.1C218.279 96.38 218.026 95.8267 217.519 95.44C217.026 95.0533 216.206 94.7667 215.059 94.58L213.039 94.26C211.692 94.0467 210.699 93.6533 210.059 93.08C209.419 92.4933 209.099 91.7067 209.099 90.72C209.099 89.56 209.552 88.62 210.459 87.9C211.366 87.18 212.552 86.82 214.019 86.82C214.992 86.82 215.959 86.98 216.919 87.3C217.879 87.62 218.752 88.08 219.539 88.68L218.659 89.88C217.899 89.3067 217.126 88.8733 216.339 88.58C215.552 88.2867 214.759 88.14 213.959 88.14C212.959 88.14 212.146 88.3733 211.519 88.84C210.906 89.2933 210.599 89.88 210.599 90.6C210.599 91.2533 210.819 91.7533 211.259 92.1C211.699 92.4467 212.426 92.7 213.439 92.86L215.439 93.18C216.959 93.4333 218.066 93.8667 218.759 94.48C219.466 95.0933 219.819 95.94 219.819 97.02C219.819 97.6333 219.686 98.2 219.419 98.72C219.166 99.2267 218.799 99.6667 218.319 100.04C217.852 100.4 217.286 100.687 216.619 100.9C215.966 101.1 215.246 101.2 214.459 101.2C213.352 101.2 212.286 100.98 211.259 100.54C210.246 100.087 209.359 99.44 208.599 98.6ZM221.735 99.52H223.335L221.735 103.74H220.575L221.735 99.52ZM228.62 101H227.06L224.04 87H225.6L227.98 98.56L231.44 87H232.94L236.4 98.52L238.8 87H240.3L237.28 101H235.72L232.18 89.14L228.62 101ZM249.759 99.94C249.199 100.353 248.612 100.667 247.999 100.88C247.399 101.08 246.739 101.18 246.019 101.18C245.299 101.18 244.619 101.047 243.979 100.78C243.352 100.513 242.805 100.147 242.339 99.68C241.885 99.2133 241.525 98.6667 241.259 98.04C240.992 97.4 240.859 96.7133 240.859 95.98C240.859 95.26 240.985 94.5867 241.239 93.96C241.505 93.3333 241.859 92.7867 242.299 92.32C242.739 91.8533 243.259 91.4867 243.859 91.22C244.472 90.9533 245.119 90.82 245.799 90.82C246.465 90.82 247.085 90.9533 247.659 91.22C248.245 91.4867 248.745 91.8533 249.159 92.32C249.585 92.7867 249.919 93.3333 250.159 93.96C250.412 94.5867 250.539 95.26 250.539 95.98V96.44H242.319C242.425 97.4267 242.832 98.2467 243.539 98.9C244.245 99.5533 245.092 99.88 246.079 99.88C246.599 99.88 247.105 99.8 247.599 99.64C248.092 99.48 248.505 99.2533 248.839 98.96L249.759 99.94ZM245.759 92.12C244.892 92.12 244.139 92.4133 243.499 93C242.872 93.5867 242.492 94.34 242.359 95.26H249.059C248.925 94.38 248.545 93.64 247.919 93.04C247.305 92.4267 246.585 92.12 245.759 92.12ZM262.348 95.98C262.348 96.7 262.214 97.38 261.948 98.02C261.694 98.66 261.341 99.2133 260.888 99.68C260.434 100.133 259.894 100.493 259.268 100.76C258.654 101.027 257.994 101.16 257.288 101.16C256.701 101.16 256.128 101.06 255.568 100.86C255.021 100.66 254.521 100.373 254.068 100V101H252.608V87L254.088 86.66V92.04C254.501 91.64 254.981 91.34 255.528 91.14C256.088 90.9267 256.681 90.82 257.308 90.82C258.014 90.82 258.674 90.9533 259.288 91.22C259.901 91.4867 260.434 91.8533 260.888 92.32C261.341 92.7733 261.694 93.32 261.948 93.96C262.214 94.5867 262.348 95.26 262.348 95.98ZM257.168 92.12C256.541 92.12 255.954 92.2467 255.408 92.5C254.874 92.74 254.434 93.08 254.088 93.52V98.48C254.434 98.9067 254.881 99.2467 255.428 99.5C255.974 99.74 256.554 99.86 257.168 99.86C258.221 99.86 259.101 99.4933 259.808 98.76C260.528 98.0133 260.888 97.0933 260.888 96C260.888 95.4533 260.788 94.9467 260.588 94.48C260.401 94 260.141 93.5867 259.808 93.24C259.474 92.8933 259.081 92.62 258.628 92.42C258.174 92.22 257.688 92.12 257.168 92.12ZM268.981 101V87H273.601C274.655 87 275.635 87.18 276.541 87.54C277.448 87.8867 278.228 88.3667 278.881 88.98C279.535 89.5933 280.041 90.3333 280.401 91.2C280.775 92.0533 280.961 92.9867 280.961 94C280.961 95.0133 280.775 95.9533 280.401 96.82C280.041 97.6733 279.535 98.4067 278.881 99.02C278.241 99.6333 277.468 100.12 276.561 100.48C275.655 100.827 274.668 101 273.601 101H268.981ZM273.681 88.4H270.521V99.6H273.681C274.481 99.6 275.235 99.46 275.941 99.18C276.648 98.8867 277.255 98.4933 277.761 98C278.268 97.4933 278.668 96.9 278.961 96.22C279.255 95.5267 279.401 94.7867 279.401 94C279.401 93.2133 279.255 92.48 278.961 91.8C278.668 91.1067 278.268 90.5133 277.761 90.02C277.255 89.5133 276.648 89.12 275.941 88.84C275.235 88.5467 274.481 88.4 273.681 88.4ZM291.536 99.94C290.976 100.353 290.389 100.667 289.776 100.88C289.176 101.08 288.516 101.18 287.796 101.18C287.076 101.18 286.396 101.047 285.756 100.78C285.129 100.513 284.583 100.147 284.116 99.68C283.663 99.2133 283.303 98.6667 283.036 98.04C282.769 97.4 282.636 96.7133 282.636 95.98C282.636 95.26 282.763 94.5867 283.016 93.96C283.283 93.3333 283.636 92.7867 284.076 92.32C284.516 91.8533 285.036 91.4867 285.636 91.22C286.249 90.9533 286.896 90.82 287.576 90.82C288.243 90.82 288.863 90.9533 289.436 91.22C290.023 91.4867 290.523 91.8533 290.936 92.32C291.363 92.7867 291.696 93.3333 291.936 93.96C292.189 94.5867 292.316 95.26 292.316 95.98V96.44H284.096C284.203 97.4267 284.609 98.2467 285.316 98.9C286.023 99.5533 286.869 99.88 287.856 99.88C288.376 99.88 288.883 99.8 289.376 99.64C289.869 99.48 290.283 99.2533 290.616 98.96L291.536 99.94ZM287.536 92.12C286.669 92.12 285.916 92.4133 285.276 93C284.649 93.5867 284.269 94.34 284.136 95.26H290.836C290.703 94.38 290.323 93.64 289.696 93.04C289.083 92.4267 288.363 92.12 287.536 92.12ZM297.174 101L292.834 90.98H294.474L297.894 99.08L301.314 90.98H302.894L298.574 101H297.174ZM312.298 99.94C311.738 100.353 311.151 100.667 310.538 100.88C309.938 101.08 309.278 101.18 308.558 101.18C307.838 101.18 307.158 101.047 306.518 100.78C305.891 100.513 305.344 100.147 304.878 99.68C304.424 99.2133 304.064 98.6667 303.798 98.04C303.531 97.4 303.398 96.7133 303.398 95.98C303.398 95.26 303.524 94.5867 303.778 93.96C304.044 93.3333 304.398 92.7867 304.838 92.32C305.278 91.8533 305.798 91.4867 306.398 91.22C307.011 90.9533 307.658 90.82 308.338 90.82C309.004 90.82 309.624 90.9533 310.198 91.22C310.784 91.4867 311.284 91.8533 311.698 92.32C312.124 92.7867 312.458 93.3333 312.698 93.96C312.951 94.5867 313.078 95.26 313.078 95.98V96.44H304.858C304.964 97.4267 305.371 98.2467 306.078 98.9C306.784 99.5533 307.631 99.88 308.618 99.88C309.138 99.88 309.644 99.8 310.138 99.64C310.631 99.48 311.044 99.2533 311.378 98.96L312.298 99.94ZM308.298 92.12C307.431 92.12 306.678 92.4133 306.038 93C305.411 93.5867 305.031 94.34 304.898 95.26H311.598C311.464 94.38 311.084 93.64 310.458 93.04C309.844 92.4267 309.124 92.12 308.298 92.12ZM316.627 86.66V101H315.147V87L316.627 86.66ZM318.691 95.98C318.691 95.26 318.824 94.58 319.091 93.94C319.357 93.3 319.717 92.7467 320.171 92.28C320.637 91.8133 321.184 91.4467 321.811 91.18C322.437 90.9133 323.104 90.78 323.811 90.78C324.517 90.78 325.177 90.9133 325.791 91.18C326.417 91.4467 326.957 91.8133 327.411 92.28C327.877 92.7467 328.244 93.3 328.511 93.94C328.777 94.58 328.911 95.26 328.911 95.98C328.911 96.7133 328.777 97.4 328.511 98.04C328.244 98.68 327.877 99.2333 327.411 99.7C326.957 100.167 326.417 100.533 325.791 100.8C325.177 101.067 324.517 101.2 323.811 101.2C323.104 101.2 322.437 101.067 321.811 100.8C321.184 100.533 320.637 100.167 320.171 99.7C319.717 99.2333 319.357 98.68 319.091 98.04C318.824 97.4 318.691 96.7133 318.691 95.98ZM323.811 99.88C324.317 99.88 324.791 99.78 325.231 99.58C325.684 99.38 326.071 99.1067 326.391 98.76C326.724 98.4 326.984 97.9867 327.171 97.52C327.357 97.04 327.451 96.5267 327.451 95.98C327.451 95.4333 327.357 94.9267 327.171 94.46C326.984 93.98 326.724 93.5667 326.391 93.22C326.071 92.8733 325.684 92.6 325.231 92.4C324.791 92.2 324.317 92.1 323.811 92.1C323.304 92.1 322.824 92.2 322.371 92.4C321.931 92.6 321.544 92.8733 321.211 93.22C320.891 93.5667 320.631 93.98 320.431 94.46C320.244 94.9267 320.151 95.4333 320.151 95.98C320.151 96.5267 320.244 97.04 320.431 97.52C320.617 97.9867 320.871 98.4 321.191 98.76C321.524 99.1067 321.917 99.38 322.371 99.58C322.824 99.78 323.304 99.88 323.811 99.88ZM330.967 105.1V90.98H332.427V92.06C332.854 91.6467 333.34 91.34 333.887 91.14C334.447 90.9267 335.04 90.82 335.667 90.82C336.374 90.82 337.034 90.9533 337.647 91.22C338.26 91.4867 338.794 91.8533 339.247 92.32C339.7 92.7733 340.054 93.32 340.307 93.96C340.574 94.5867 340.707 95.26 340.707 95.98C340.707 96.7 340.574 97.38 340.307 98.02C340.054 98.66 339.7 99.2133 339.247 99.68C338.794 100.133 338.254 100.493 337.627 100.76C337.014 101.027 336.354 101.16 335.647 101.16C335.06 101.16 334.494 101.06 333.947 100.86C333.4 100.66 332.9 100.373 332.447 100V105.1H330.967ZM335.527 92.12C334.9 92.12 334.314 92.2467 333.767 92.5C333.234 92.74 332.794 93.08 332.447 93.52V98.48C332.794 98.9067 333.24 99.2467 333.787 99.5C334.334 99.74 334.914 99.86 335.527 99.86C336.58 99.86 337.46 99.4933 338.167 98.76C338.887 98.0133 339.247 97.0933 339.247 96C339.247 95.4533 339.147 94.9467 338.947 94.48C338.76 94 338.5 93.5867 338.167 93.24C337.834 92.8933 337.44 92.62 336.987 92.42C336.534 92.22 336.047 92.12 335.527 92.12ZM342.764 101V90.98H344.244V92.08C344.617 91.6533 345.051 91.3333 345.544 91.12C346.037 90.8933 346.584 90.78 347.184 90.78C347.877 90.78 348.497 90.9467 349.044 91.28C349.604 91.6 350.037 92.04 350.344 92.6C350.757 91.9867 351.251 91.5333 351.824 91.24C352.411 90.9333 353.064 90.78 353.784 90.78C354.864 90.78 355.744 91.14 356.424 91.86C357.117 92.58 357.464 93.5133 357.464 94.66V101H356.004V94.96C356.004 94.08 355.771 93.38 355.304 92.86C354.837 92.34 354.204 92.08 353.404 92.08C352.857 92.08 352.357 92.22 351.904 92.5C351.451 92.78 351.064 93.1867 350.744 93.72C350.771 93.8667 350.791 94.02 350.804 94.18C350.831 94.3267 350.844 94.4867 350.844 94.66V101H349.384V94.96C349.384 94.08 349.151 93.38 348.684 92.86C348.217 92.34 347.591 92.08 346.804 92.08C346.271 92.08 345.784 92.2067 345.344 92.46C344.917 92.7 344.551 93.06 344.244 93.54V101H342.764ZM368.391 99.94C367.831 100.353 367.245 100.667 366.631 100.88C366.031 101.08 365.371 101.18 364.651 101.18C363.931 101.18 363.251 101.047 362.611 100.78C361.985 100.513 361.438 100.147 360.971 99.68C360.518 99.2133 360.158 98.6667 359.891 98.04C359.625 97.4 359.491 96.7133 359.491 95.98C359.491 95.26 359.618 94.5867 359.871 93.96C360.138 93.3333 360.491 92.7867 360.931 92.32C361.371 91.8533 361.891 91.4867 362.491 91.22C363.105 90.9533 363.751 90.82 364.431 90.82C365.098 90.82 365.718 90.9533 366.291 91.22C366.878 91.4867 367.378 91.8533 367.791 92.32C368.218 92.7867 368.551 93.3333 368.791 93.96C369.045 94.5867 369.171 95.26 369.171 95.98V96.44H360.951C361.058 97.4267 361.465 98.2467 362.171 98.9C362.878 99.5533 363.725 99.88 364.711 99.88C365.231 99.88 365.738 99.8 366.231 99.64C366.725 99.48 367.138 99.2533 367.471 98.96L368.391 99.94ZM364.391 92.12C363.525 92.12 362.771 92.4133 362.131 93C361.505 93.5867 361.125 94.34 360.991 95.26H367.691C367.558 94.38 367.178 93.64 366.551 93.04C365.938 92.4267 365.218 92.12 364.391 92.12ZM371.24 101V90.98H372.72V92.16C373.107 91.7067 373.567 91.3667 374.1 91.14C374.634 90.9 375.227 90.78 375.88 90.78C377.014 90.78 377.94 91.14 378.66 91.86C379.38 92.58 379.74 93.5133 379.74 94.66V101H378.28V94.96C378.28 94.08 378.027 93.38 377.52 92.86C377.014 92.34 376.334 92.08 375.48 92.08C374.88 92.08 374.34 92.2133 373.86 92.48C373.394 92.7467 373.014 93.1267 372.72 93.62V101H371.24ZM383.066 98.76V92.24H380.906V90.98H383.066V88.44L384.526 88.06V90.98H387.546V92.24H384.526V98.38C384.526 98.9133 384.646 99.3 384.886 99.54C385.126 99.7667 385.52 99.88 386.066 99.88C386.346 99.88 386.593 99.86 386.806 99.82C387.033 99.78 387.273 99.7133 387.526 99.62V100.92C387.273 101.013 386.986 101.08 386.666 101.12C386.36 101.16 386.06 101.18 385.766 101.18C384.9 101.18 384.233 100.973 383.766 100.56C383.3 100.147 383.066 99.5467 383.066 98.76Z" fill="black"/>
</svg>
