<svg width="450" height="107" viewBox="0 0 450 107" fill="none" xmlns="http://www.w3.org/2000/svg">
<path d="M15.168 7.316V9.736H13.056V21H10.152V16.996C9.50667 16.2333 8.81733 15.5953 8.084 15.082C7.35067 14.5687 6.63933 14.312 5.95 14.312C5.58333 14.312 5.268 14.4 5.004 14.576C4.75467 14.7373 4.63 15.0013 4.63 15.368C4.63 15.6907 4.74733 15.962 4.982 16.182C5.21667 16.402 5.59067 16.6147 6.104 16.82L4.806 19.24C3.82333 18.8587 3.046 18.316 2.474 17.612C1.91667 16.8933 1.638 16.1087 1.638 15.258C1.638 14.466 1.82133 13.8207 2.188 13.322C2.55467 12.8087 3.024 12.4347 3.596 12.2C4.168 11.9507 4.76933 11.826 5.4 11.826C6.30933 11.826 7.15267 12.0093 7.93 12.376C8.70733 12.7427 9.45533 13.256 10.174 13.916C10.1593 13.6667 10.152 13.4173 10.152 13.168C10.152 12.9187 10.152 12.684 10.152 12.464V9.736H0.78V7.316H15.168ZM29.0014 7.316V9.736H26.8894V21H23.9854C23.164 19.812 22.1007 18.844 20.7954 18.096C19.5047 17.3333 18.038 16.8127 16.3954 16.534L15.2954 13.938C16.586 13.2193 17.994 12.5227 19.5194 11.848C21.0447 11.1733 22.5627 10.6307 24.0734 10.22V9.736H14.7234V7.316H29.0014ZM18.9914 14.884C19.8127 15.0453 20.6707 15.3607 21.5654 15.83C22.46 16.2993 23.274 16.9153 24.0074 17.678C23.9927 17.2527 23.9854 16.8347 23.9854 16.424V12.838C23.12 13.1167 22.284 13.4247 21.4774 13.762C20.6854 14.0993 19.8567 14.4733 18.9914 14.884ZM43.1893 7.316V9.736H41.0773V21H38.1733V17.656C37.4693 16.8347 36.758 16.182 36.0393 15.698C35.3353 15.1993 34.646 14.95 33.9713 14.95C33.6046 14.95 33.2893 15.038 33.0253 15.214C32.776 15.39 32.6513 15.654 32.6513 16.006C32.6513 16.3287 32.7686 16.6073 33.0033 16.842C33.238 17.062 33.6193 17.2673 34.1473 17.458L32.8493 19.9C31.8666 19.5187 31.0893 18.9687 30.5173 18.25C29.9453 17.5313 29.6593 16.754 29.6593 15.918C29.6593 15.214 29.806 14.6273 30.0993 14.158C30.4073 13.6887 30.8033 13.3293 31.2873 13.08C31.786 12.816 32.314 12.6473 32.8713 12.574C32.7246 12.2367 32.5046 11.9727 32.2113 11.782C31.918 11.5767 31.522 11.4153 31.0233 11.298C30.5393 11.1807 29.9013 11.0707 29.1093 10.968L29.4173 9.736H28.5593V7.316H43.1893ZM38.1733 9.736H33.4653C34.14 10.044 34.668 10.4547 35.0493 10.968C35.4306 11.4813 35.6726 12.1487 35.7753 12.97C36.582 13.2927 37.3886 13.8427 38.1953 14.62C38.1806 14.3707 38.1733 14.1213 38.1733 13.872C38.1733 13.6227 38.1733 13.3807 38.1733 13.146V9.736ZM63.4668 16.248C63.4668 17.4947 62.9754 18.5067 61.9928 19.284C61.0248 20.0467 59.6974 20.428 58.0108 20.428C56.8521 20.428 55.7668 20.274 54.7548 19.966C53.7428 19.6433 52.8041 19.1153 51.9388 18.382C51.0881 17.6487 50.3108 16.6513 49.6068 15.39C48.9174 14.114 48.2941 12.5227 47.7368 10.616L50.4868 9.846C51.0881 11.8407 51.7334 13.432 52.4228 14.62C53.1268 15.7933 53.9114 16.6367 54.7768 17.15C55.6421 17.6487 56.6321 17.898 57.7468 17.898C58.5094 17.898 59.1621 17.7293 59.7048 17.392C60.2474 17.0547 60.5188 16.5707 60.5188 15.94C60.5188 15.5 60.3574 15.1113 60.0348 14.774C59.6094 14.994 59.1474 15.192 58.6488 15.368L57.6368 12.992C58.3701 12.7427 58.9934 12.4347 59.5068 12.068C60.0348 11.7013 60.2988 11.2173 60.2988 10.616C60.2988 10.2787 60.1888 10.0147 59.9688 9.824C59.7488 9.63333 59.4188 9.538 58.9788 9.538C58.4508 9.538 57.9521 9.648 57.4828 9.868C57.0134 10.088 56.6248 10.352 56.3168 10.66C56.0234 10.9533 55.8768 11.2247 55.8768 11.474C55.8768 11.6353 55.9354 11.782 56.0528 11.914C56.1701 12.0313 56.4341 12.1193 56.8448 12.178L56.2508 14.62C55.1361 14.5027 54.3001 14.1653 53.7428 13.608C53.1854 13.0507 52.9068 12.4053 52.9068 11.672C52.9068 11.056 53.0754 10.4767 53.4128 9.934C53.7501 9.37667 54.2121 8.89267 54.7988 8.482C55.3854 8.07133 56.0454 7.74867 56.7788 7.514C57.5121 7.27933 58.2748 7.162 59.0668 7.162C60.4161 7.162 61.4501 7.46267 62.1688 8.064C62.9021 8.66533 63.2688 9.494 63.2688 10.55C63.2688 11.0927 63.1588 11.5987 62.9388 12.068C62.7188 12.5373 62.4181 12.97 62.0368 13.366C62.4621 13.7473 62.8068 14.18 63.0708 14.664C63.3348 15.1333 63.4668 15.6613 63.4668 16.248ZM83.2546 7.316V9.736H73.5306V14.752C74.3079 14.0333 75.2319 13.344 76.3026 12.684C77.3732 12.024 78.5539 11.43 79.8446 10.902L81.8466 12.574C81.5239 13.1313 81.2892 13.74 81.1426 14.4C80.9959 15.06 80.9226 15.7713 80.9226 16.534C80.9226 17.106 80.9812 17.7513 81.0986 18.47C81.2159 19.174 81.3992 19.9 81.6486 20.648L78.8106 21.242C78.5466 20.4647 78.3412 19.7093 78.1946 18.976C78.0626 18.2427 77.9966 17.4433 77.9966 16.578C77.9966 16.1967 78.0186 15.8227 78.0626 15.456C78.1212 15.0893 78.2019 14.7373 78.3046 14.4C77.3219 14.9573 76.3832 15.5953 75.4886 16.314C74.5939 17.018 73.7726 17.722 73.0246 18.426L70.6266 16.864V9.736H68.7566V7.316H83.2546ZM84.8313 7.162C85.4767 7.162 86.078 7.294 86.6353 7.558C87.2073 7.80733 87.662 8.21067 87.9993 8.768C88.278 8.22533 88.652 7.822 89.1213 7.558C89.5907 7.294 90.0967 7.162 90.6393 7.162C91.3727 7.162 92.0107 7.316 92.5533 7.624C93.096 7.932 93.5727 8.36467 93.9833 8.922C93.9687 8.71667 93.954 8.51133 93.9393 8.306C93.9393 8.10067 93.9393 7.90267 93.9393 7.712V5.864H96.3153L96.8213 7.316H98.9553V9.736H96.8433V21H93.9393V11.672C93.5433 11.0413 93.1033 10.5353 92.6193 10.154C92.15 9.77267 91.6367 9.582 91.0793 9.582C90.6687 9.582 90.3093 9.69933 90.0013 9.934C89.708 10.154 89.5613 10.4987 89.5613 10.968C89.5613 11.9653 90.4267 12.4933 92.1573 12.552L91.8493 15.192C90.8667 15.1333 90.0673 14.9427 89.4513 14.62C88.85 14.2827 88.3953 13.8427 88.0873 13.3C87.7793 13.8427 87.31 14.2973 86.6793 14.664C86.0633 15.016 85.2493 15.192 84.2373 15.192L83.9513 12.574C84.9487 12.5153 85.6233 12.3393 85.9753 12.046C86.342 11.7527 86.5253 11.4007 86.5253 10.99C86.5253 10.5207 86.3567 10.1687 86.0193 9.934C85.6967 9.69933 85.264 9.582 84.7213 9.582C84.4133 9.582 84.1273 9.59667 83.8633 9.626C83.614 9.65533 83.3353 9.714 83.0273 9.802L82.7633 7.36C83.1447 7.28667 83.4967 7.23533 83.8193 7.206C84.1567 7.17667 84.494 7.162 84.8313 7.162ZM113.142 7.316V9.736H111.03V21H108.126V17.656C107.422 16.8347 106.711 16.182 105.992 15.698C105.288 15.1993 104.599 14.95 103.924 14.95C103.558 14.95 103.242 15.038 102.978 15.214C102.729 15.39 102.604 15.654 102.604 16.006C102.604 16.3287 102.722 16.6073 102.956 16.842C103.191 17.062 103.572 17.2673 104.1 17.458L102.802 19.9C101.82 19.5187 101.042 18.9687 100.47 18.25C99.8984 17.5313 99.6124 16.754 99.6124 15.918C99.6124 15.214 99.7591 14.6273 100.052 14.158C100.36 13.6887 100.756 13.3293 101.24 13.08C101.739 12.816 102.267 12.6473 102.824 12.574C102.678 12.2367 102.458 11.9727 102.164 11.782C101.871 11.5767 101.475 11.4153 100.976 11.298C100.492 11.1807 99.8544 11.0707 99.0624 10.968L99.3704 9.736H98.5124V7.316H113.142ZM108.126 9.736H103.418C104.093 10.044 104.621 10.4547 105.002 10.968C105.384 11.4813 105.626 12.1487 105.728 12.97C106.535 13.2927 107.342 13.8427 108.148 14.62C108.134 14.3707 108.126 14.1213 108.126 13.872C108.126 13.6227 108.126 13.3807 108.126 13.146V9.736ZM126.336 7.316V9.736H125.082C124.422 10.0587 123.799 10.484 123.212 11.012C122.625 11.54 122.149 12.156 121.782 12.86C121.415 13.564 121.232 14.3487 121.232 15.214C121.232 16.094 121.364 16.7833 121.628 17.282C121.892 17.7807 122.222 18.1327 122.618 18.338C123.014 18.5287 123.41 18.624 123.806 18.624C124.07 18.624 124.327 18.602 124.576 18.558C124.825 18.4993 125.111 18.3893 125.434 18.228L126.534 20.406C126.05 20.6847 125.573 20.8753 125.104 20.978C124.635 21.066 124.143 21.11 123.63 21.11C121.987 21.11 120.682 20.6113 119.714 19.614C118.761 18.602 118.284 17.1573 118.284 15.28C118.284 14.0773 118.526 12.9627 119.01 11.936C119.494 10.8947 120.147 9.978 120.968 9.186C121.789 8.37933 122.706 7.756 123.718 7.316H126.336ZM128.369 7.162C129.014 7.162 129.616 7.28667 130.173 7.536C130.745 7.78533 131.2 8.174 131.537 8.702C131.816 8.18867 132.19 7.80733 132.659 7.558C133.128 7.294 133.634 7.162 134.177 7.162C134.91 7.162 135.548 7.316 136.091 7.624C136.634 7.932 137.11 8.36467 137.521 8.922C137.506 8.71667 137.492 8.51133 137.477 8.306C137.477 8.10067 137.477 7.90267 137.477 7.712V5.864H139.853L140.359 7.316H142.493V9.736H140.381V21.946H137.521C137.33 21.506 137.037 21.1907 136.641 21C136.245 20.7947 135.695 20.692 134.991 20.692C134.448 20.692 133.832 20.758 133.143 20.89C132.454 21.0073 131.742 21.066 131.009 21.066C130.554 21.066 130.085 21.022 129.601 20.934C129.117 20.846 128.662 20.67 128.237 20.406C127.826 20.1273 127.489 19.7313 127.225 19.218C126.976 18.69 126.851 18.0007 126.851 17.15C126.851 16.9007 126.858 16.6733 126.873 16.468C126.902 16.2627 126.939 16.0427 126.983 15.808L129.733 16.094C129.689 16.358 129.667 16.644 129.667 16.952C129.667 17.6267 129.85 18.074 130.217 18.294C130.584 18.514 131.046 18.624 131.603 18.624C132.19 18.624 132.747 18.5653 133.275 18.448C133.803 18.316 134.309 18.25 134.793 18.25C135.996 18.25 136.89 18.646 137.477 19.438V11.672C137.081 11.0413 136.641 10.5353 136.157 10.154C135.688 9.77267 135.174 9.582 134.617 9.582C134.206 9.582 133.847 9.68467 133.539 9.89C133.246 10.0953 133.099 10.4107 133.099 10.836C133.099 11.716 133.964 12.1853 135.695 12.244L135.387 14.884C134.404 14.8253 133.605 14.6347 132.989 14.312C132.388 13.9893 131.933 13.5713 131.625 13.058C131.317 13.586 130.848 14.026 130.217 14.378C129.601 14.7153 128.787 14.884 127.775 14.884L127.489 12.244C128.486 12.2 129.161 12.046 129.513 11.782C129.88 11.518 130.063 11.2027 130.063 10.836C130.063 10.4107 129.894 10.0953 129.557 9.89C129.234 9.68467 128.802 9.582 128.259 9.582C127.863 9.582 127.511 9.604 127.203 9.648C126.91 9.692 126.616 9.75067 126.323 9.824L126.037 7.404C126.404 7.33067 126.77 7.272 127.137 7.228C127.504 7.184 127.914 7.162 128.369 7.162ZM156.647 7.316V9.736H154.535V21H151.631V12.376C150.986 11.6133 150.304 10.968 149.585 10.44C148.881 9.912 148.163 9.648 147.429 9.648C146.989 9.648 146.63 9.77267 146.351 10.022C146.087 10.2713 145.955 10.6233 145.955 11.078C145.955 11.386 146.029 11.672 146.175 11.936C146.337 12.1853 146.615 12.3907 147.011 12.552C147.407 12.6987 147.979 12.7867 148.727 12.816L148.397 15.676C146.491 15.456 145.105 14.9353 144.239 14.114C143.389 13.2927 142.963 12.2587 142.963 11.012C142.963 10.2347 143.139 9.56 143.491 8.988C143.843 8.40133 144.32 7.954 144.921 7.646C145.523 7.32333 146.205 7.162 146.967 7.162C147.979 7.162 148.859 7.38933 149.607 7.844C150.355 8.29867 151.045 8.82667 151.675 9.428C151.646 8.87067 151.631 8.328 151.631 7.8V5.864H154.007L154.513 7.316H156.647ZM163.326 9.736H161.214V21H158.31V9.736H156.198V7.316H158.31C158.031 5.79067 157.21 4.698 155.846 4.038C154.482 3.36333 152.619 3.026 150.258 3.026C149.173 3.026 148.366 3.09933 147.838 3.246C147.295 3.39267 147.024 3.59067 147.024 3.84C147.024 3.98667 147.105 4.08933 147.266 4.148C147.413 4.192 147.706 4.214 148.146 4.214H150.368C151.219 4.214 151.901 4.28 152.414 4.412C152.913 4.544 153.323 4.75667 153.646 5.05C153.939 5.314 154.152 5.63667 154.284 6.018C154.416 6.39933 154.482 6.88333 154.482 7.47H151.71C151.71 6.95667 151.563 6.612 151.27 6.436C151.138 6.36267 150.991 6.31133 150.83 6.282C150.669 6.238 150.456 6.216 150.192 6.216H148.586C147.706 6.216 147.017 6.172 146.518 6.084C146.019 5.98133 145.616 5.842 145.308 5.666C144.941 5.46067 144.685 5.204 144.538 4.896C144.391 4.57333 144.318 4.236 144.318 3.884C144.318 2.97467 144.846 2.24133 145.902 1.684C146.943 1.112 148.542 0.825999 150.698 0.825999C153.895 0.825999 156.396 1.354 158.2 2.41C160.004 3.45133 161.023 5.08667 161.258 7.316H163.326V9.736ZM177.158 7.316V9.736H175.046V21H172.142C171.32 19.812 170.257 18.844 168.952 18.096C167.661 17.3333 166.194 16.8127 164.552 16.534L163.452 13.938C164.742 13.2193 166.15 12.5227 167.676 11.848C169.201 11.1733 170.719 10.6307 172.23 10.22V9.736H162.88V7.316H177.158ZM167.148 14.884C167.969 15.0453 168.827 15.3607 169.722 15.83C170.616 16.2993 171.43 16.9153 172.164 17.678C172.149 17.2527 172.142 16.8347 172.142 16.424V12.838C171.276 13.1167 170.44 13.4247 169.634 13.762C168.842 14.0993 168.013 14.4733 167.148 14.884ZM166.84 21.264C166.385 21.264 166.004 21.11 165.696 20.802C165.388 20.4793 165.234 20.0833 165.234 19.614C165.234 19.1447 165.388 18.756 165.696 18.448C166.004 18.1253 166.385 17.964 166.84 17.964C167.309 17.964 167.69 18.1253 167.984 18.448C168.292 18.756 168.446 19.1447 168.446 19.614C168.446 20.0833 168.292 20.4793 167.984 20.802C167.69 21.11 167.309 21.264 166.84 21.264ZM191.041 20.34C189.648 20.34 188.357 20.0833 187.169 19.57C185.996 19.042 184.947 18.14 184.023 16.864C183.114 15.588 182.344 13.828 181.713 11.584L184.463 10.814C184.977 12.5887 185.534 13.9893 186.135 15.016C186.751 16.028 187.448 16.7467 188.225 17.172C189.003 17.5973 189.89 17.81 190.887 17.81C191.929 17.81 192.669 17.6267 193.109 17.26C193.564 16.8787 193.791 16.3947 193.791 15.808C193.791 15.5587 193.777 15.324 193.747 15.104C193.307 15.3827 192.831 15.6027 192.317 15.764C191.819 15.9107 191.232 15.984 190.557 15.984C189.604 15.984 188.812 15.7493 188.181 15.28C187.565 14.8107 187.257 14.07 187.257 13.058C187.257 12.4713 187.419 11.8993 187.741 11.342C188.064 10.77 188.665 10.2273 189.545 9.714C189.267 9.72867 189.01 9.736 188.775 9.736C188.555 9.736 188.299 9.736 188.005 9.736H181.141V7.316H203.515V9.736H197.003C196.813 9.736 196.607 9.736 196.387 9.736C196.167 9.72133 195.94 9.714 195.705 9.714C195.999 10.0807 196.446 10.4033 197.047 10.682C197.663 10.9607 198.521 11.1 199.621 11.1C199.783 11.1 199.937 11.0927 200.083 11.078C200.245 11.0633 200.443 11.0487 200.677 11.034L202.019 13.212C201.741 13.7107 201.521 14.2387 201.359 14.796C201.213 15.3533 201.139 15.9767 201.139 16.666C201.139 17.2527 201.198 17.8833 201.315 18.558C201.447 19.2327 201.631 19.9293 201.865 20.648L199.027 21.242C198.749 20.45 198.543 19.6873 198.411 18.954C198.279 18.2207 198.213 17.4067 198.213 16.512C198.213 15.9693 198.25 15.4413 198.323 14.928C198.411 14.4 198.536 13.9087 198.697 13.454C197.172 13.234 195.94 12.8453 195.001 12.288C194.077 11.7307 193.344 11.0487 192.801 10.242C191.951 10.6233 191.298 11.034 190.843 11.474C190.389 11.8993 190.161 12.31 190.161 12.706C190.161 12.9993 190.242 13.2193 190.403 13.366C190.565 13.498 190.755 13.564 190.975 13.564C191.371 13.564 191.723 13.4833 192.031 13.322C192.339 13.1607 192.691 12.9333 193.087 12.64L196.299 13.586C196.402 13.8793 196.483 14.2167 196.541 14.598C196.615 14.9793 196.651 15.3827 196.651 15.808C196.651 16.5413 196.468 17.26 196.101 17.964C195.735 18.6533 195.141 19.2253 194.319 19.68C193.498 20.12 192.405 20.34 191.041 20.34ZM217.465 7.316V9.736H215.353V21H212.449V16.996C211.804 16.2333 211.114 15.5953 210.381 15.082C209.648 14.5687 208.936 14.312 208.247 14.312C207.88 14.312 207.565 14.4 207.301 14.576C207.052 14.7373 206.927 15.0013 206.927 15.368C206.927 15.6907 207.044 15.962 207.279 16.182C207.514 16.402 207.888 16.6147 208.401 16.82L207.103 19.24C206.12 18.8587 205.343 18.316 204.771 17.612C204.214 16.8933 203.935 16.1087 203.935 15.258C203.935 14.466 204.118 13.8207 204.485 13.322C204.852 12.8087 205.321 12.4347 205.893 12.2C206.465 11.9507 207.066 11.826 207.697 11.826C208.606 11.826 209.45 12.0093 210.227 12.376C211.004 12.7427 211.752 13.256 212.471 13.916C212.456 13.6667 212.449 13.4173 212.449 13.168C212.449 12.9187 212.449 12.684 212.449 12.464V9.736H203.077V7.316H217.465ZM223.73 7.316V9.736H222.828C222.388 10.1907 222.073 10.6233 221.882 11.034C221.706 11.43 221.618 11.8847 221.618 12.398C221.618 12.882 221.677 13.388 221.794 13.916C221.926 14.4293 222.051 14.9573 222.168 15.5C222.3 16.028 222.366 16.556 222.366 17.084C222.366 17.8907 222.234 18.6167 221.97 19.262C221.706 19.8927 221.208 20.45 220.474 20.934C219.756 21.418 218.692 21.8213 217.284 22.144L216.646 19.768C217.468 19.5627 218.076 19.328 218.472 19.064C218.868 18.8 219.125 18.4993 219.242 18.162C219.374 17.8247 219.44 17.458 219.44 17.062C219.44 16.5047 219.374 15.9693 219.242 15.456C219.125 14.9427 219 14.4367 218.868 13.938C218.751 13.4393 218.692 12.926 218.692 12.398C218.692 11.8407 218.78 11.364 218.956 10.968C219.132 10.5573 219.389 10.1467 219.726 9.736H217.02V7.316H223.73ZM228.841 13.454H237.113V16.006H228.841V13.454ZM159.411 45.74C158.371 45.74 157.384 45.4867 156.451 44.98C155.531 44.4733 154.691 43.6333 153.931 42.46C153.171 41.2867 152.517 39.7 151.971 37.7L153.491 37.3C153.944 38.94 154.451 40.2733 155.011 41.3C155.571 42.3133 156.217 43.0533 156.951 43.52C157.684 43.9867 158.524 44.22 159.471 44.22C161.471 44.22 162.471 43.36 162.471 41.64C162.471 41.4533 162.457 41.28 162.431 41.12C162.404 40.9467 162.371 40.7867 162.331 40.64C161.877 41.0133 161.397 41.3133 160.891 41.54C160.384 41.7533 159.824 41.86 159.211 41.86C158.424 41.86 157.784 41.64 157.291 41.2C156.797 40.76 156.551 40.1333 156.551 39.32C156.551 38.7333 156.757 38.14 157.171 37.54C157.584 36.9267 158.284 36.3933 159.271 35.94C159.004 35.9533 158.697 35.9667 158.351 35.98C158.017 35.98 157.684 35.98 157.351 35.98H151.191V34.56H169.931V35.98H163.671C163.444 35.98 163.231 35.98 163.031 35.98C162.831 35.9667 162.644 35.9533 162.471 35.94C162.791 36.4867 163.251 36.94 163.851 37.3C164.451 37.6467 165.304 37.82 166.411 37.82C166.744 37.82 167.111 37.8 167.511 37.76L168.291 39.16C167.971 39.76 167.744 40.3467 167.611 40.92C167.477 41.4933 167.411 42.1533 167.411 42.9C167.411 43.5533 167.464 44.18 167.571 44.78C167.677 45.38 167.857 46.0533 168.111 46.8L166.611 47.14C166.371 46.3667 166.184 45.6133 166.051 44.88C165.917 44.1333 165.851 43.36 165.851 42.56C165.851 41.8533 165.911 41.22 166.031 40.66C166.164 40.1 166.317 39.6267 166.491 39.24C165.051 39.2267 163.904 38.9733 163.051 38.48C162.211 37.9867 161.544 37.3 161.051 36.42C160.224 36.8333 159.597 37.22 159.171 37.58C158.757 37.9267 158.471 38.2533 158.311 38.56C158.164 38.8533 158.091 39.1333 158.091 39.4C158.091 39.7733 158.197 40.04 158.411 40.2C158.624 40.36 158.864 40.44 159.131 40.44C159.637 40.44 160.091 40.3267 160.491 40.1C160.891 39.86 161.344 39.52 161.851 39.08L163.571 39.7C163.691 39.9667 163.791 40.3 163.871 40.7C163.951 41.0867 163.991 41.4933 163.991 41.92C163.991 42.5867 163.837 43.2133 163.531 43.8C163.237 44.3733 162.751 44.84 162.071 45.2C161.404 45.56 160.517 45.74 159.411 45.74ZM175.25 35.98H173.15V47H171.61V35.98H169.53V34.56H171.61C171.557 33.6933 171.33 32.9667 170.93 32.38C170.544 31.7933 170.037 31.3333 169.41 31C168.77 30.6533 168.05 30.4067 167.25 30.26C166.437 30.1133 165.584 30.04 164.69 30.04C163.517 30.04 162.59 30.1333 161.91 30.32C161.23 30.5067 160.89 30.7867 160.89 31.16C160.89 31.4133 161.05 31.5733 161.37 31.64C161.69 31.7067 162.044 31.74 162.43 31.74H164.35C165.057 31.74 165.617 31.8 166.03 31.92C166.444 32.04 166.777 32.2333 167.03 32.5C167.497 32.9667 167.73 33.7 167.73 34.7H166.39C166.377 34.0733 166.23 33.6533 165.95 33.44C165.817 33.3333 165.657 33.26 165.47 33.22C165.27 33.18 164.997 33.16 164.65 33.16H162.67C161.577 33.16 160.757 33.02 160.21 32.74C159.877 32.5533 159.644 32.3267 159.51 32.06C159.377 31.7933 159.31 31.5133 159.31 31.22C159.31 30.4467 159.744 29.8267 160.61 29.36C161.477 28.8933 162.797 28.66 164.57 28.66C167.277 28.66 169.357 29.14 170.81 30.1C172.277 31.0467 173.077 32.5333 173.21 34.56H175.25V35.98ZM187.163 34.56V35.98H185.063V47H183.523C183.123 46.2 182.57 45.4667 181.863 44.8C181.17 44.12 180.37 43.5467 179.463 43.08C178.556 42.6133 177.59 42.3 176.563 42.14L175.783 40.22C176.996 39.4867 178.243 38.82 179.523 38.22C180.816 37.62 182.15 37.1 183.523 36.66V35.98H174.843V34.56H187.163ZM177.643 40.92C178.323 41.0667 179.043 41.32 179.803 41.68C180.563 42.0267 181.276 42.4667 181.943 43C182.623 43.5333 183.17 44.1467 183.583 44.84C183.57 44.6 183.556 44.3533 183.543 44.1C183.53 43.8467 183.523 43.5533 183.523 43.22V38.22C182.563 38.5533 181.563 38.9533 180.523 39.42C179.483 39.8733 178.523 40.3733 177.643 40.92ZM199.237 34.56V35.98H197.137V47H195.597V42.84C194.957 42.0267 194.257 41.3467 193.497 40.8C192.737 40.2533 191.997 39.98 191.277 39.98C190.784 39.98 190.364 40.1133 190.017 40.38C189.684 40.6333 189.517 41.0133 189.517 41.52C189.517 42.2667 190.09 42.8667 191.237 43.32L190.477 44.74C189.664 44.4067 189.024 43.96 188.557 43.4C188.104 42.8267 187.877 42.18 187.877 41.46C187.877 40.8067 188.03 40.2667 188.337 39.84C188.657 39.4 189.057 39.0733 189.537 38.86C190.03 38.6467 190.53 38.54 191.037 38.54C191.984 38.54 192.824 38.7667 193.557 39.22C194.304 39.66 195.004 40.2333 195.657 40.94C195.63 40.7133 195.61 40.4867 195.597 40.26C195.597 40.0333 195.597 39.8067 195.597 39.58V35.98H186.757V34.56H199.237ZM204.547 34.56V35.98H202.447V47H200.907V35.98H198.827V34.56H200.667C200.454 34.3067 200.234 34.04 200.007 33.76C199.794 33.48 199.601 33.2 199.427 32.92C199.881 32.1333 200.367 31.42 200.887 30.78C201.407 30.1267 202.021 29.6133 202.727 29.24C203.434 28.8533 204.287 28.66 205.287 28.66C206.234 28.66 207.127 28.8133 207.967 29.12C208.807 29.4267 209.647 29.86 210.487 30.42C211.327 30.9667 212.207 31.62 213.127 32.38L212.287 33.46C211.367 32.7133 210.534 32.0933 209.787 31.6C209.054 31.1067 208.347 30.74 207.667 30.5C207.001 30.2467 206.287 30.12 205.527 30.12C204.421 30.12 203.534 30.4 202.867 30.96C202.201 31.52 201.627 32.2467 201.147 33.14C201.254 33.34 201.401 33.56 201.587 33.8C201.774 34.04 201.987 34.2933 202.227 34.56H204.547ZM216.46 34.56V35.98H214.36V47H212.82C212.42 46.2 211.867 45.4667 211.16 44.8C210.467 44.12 209.667 43.5467 208.76 43.08C207.853 42.6133 206.887 42.3 205.86 42.14L205.08 40.22C206.293 39.4867 207.54 38.82 208.82 38.22C210.113 37.62 211.447 37.1 212.82 36.66V35.98H204.14V34.56H216.46ZM206.94 40.92C207.62 41.0667 208.34 41.32 209.1 41.68C209.86 42.0267 210.573 42.4667 211.24 43C211.92 43.5333 212.467 44.1467 212.88 44.84C212.867 44.6 212.853 44.3533 212.84 44.1C212.827 43.8467 212.82 43.5533 212.82 43.22V38.22C211.86 38.5533 210.86 38.9533 209.82 39.42C208.78 39.8733 207.82 40.3733 206.94 40.92ZM231.854 45.42C231.014 45.42 230.321 45.2467 229.774 44.9C229.241 44.5533 228.794 44.08 228.434 43.48C228.181 44.1467 227.721 44.6933 227.054 45.12C226.387 45.5333 225.461 45.74 224.274 45.74C223.234 45.74 222.247 45.4867 221.314 44.98C220.394 44.4733 219.554 43.6333 218.794 42.46C218.034 41.2867 217.381 39.7 216.834 37.7L218.354 37.3C218.807 38.94 219.314 40.2733 219.874 41.3C220.434 42.3133 221.081 43.0533 221.814 43.52C222.547 43.9867 223.387 44.22 224.334 44.22C226.334 44.22 227.334 43.36 227.334 41.64C227.334 41.4267 227.314 41.2267 227.274 41.04C227.247 40.8533 227.207 40.6867 227.154 40.54C226.634 40.9933 226.127 41.3267 225.634 41.54C225.154 41.7533 224.634 41.86 224.074 41.86C223.287 41.86 222.647 41.64 222.154 41.2C221.661 40.76 221.414 40.1333 221.414 39.32C221.414 38.7333 221.621 38.14 222.034 37.54C222.447 36.9267 223.147 36.3933 224.134 35.94C223.867 35.9533 223.561 35.9667 223.214 35.98C222.881 35.98 222.547 35.98 222.214 35.98H216.054V34.56H235.934V35.98H226.774C226.667 36.0333 226.561 36.08 226.454 36.12C226.707 37.2667 227.174 38.24 227.854 39.04C228.454 38.24 229.067 37.64 229.694 37.24C230.321 36.8267 231.021 36.62 231.794 36.62C232.687 36.62 233.374 36.8333 233.854 37.26C234.334 37.6867 234.574 38.2333 234.574 38.9C234.574 39.2067 234.514 39.5467 234.394 39.92C234.274 40.28 234.027 40.62 233.654 40.94C233.934 41.14 234.174 41.4067 234.374 41.74C234.587 42.0733 234.694 42.4733 234.694 42.94C234.694 43.5933 234.454 44.1733 233.974 44.68C233.494 45.1733 232.787 45.42 231.854 45.42ZM222.954 39.4C222.954 39.7733 223.061 40.04 223.274 40.2C223.487 40.36 223.727 40.44 223.994 40.44C224.461 40.44 224.861 40.3533 225.194 40.18C225.527 40.0067 225.901 39.76 226.314 39.44C226.021 39.04 225.767 38.6133 225.554 38.16C225.341 37.7067 225.181 37.2667 225.074 36.84C224.207 37.3467 223.634 37.8133 223.354 38.24C223.087 38.6533 222.954 39.04 222.954 39.4ZM231.774 38C230.627 38 229.567 38.84 228.594 40.52C228.621 40.6133 228.641 40.7067 228.654 40.8C228.934 41.8667 229.347 42.6733 229.894 43.22C230.454 43.7667 231.087 44.04 231.794 44.04C232.154 44.04 232.474 43.9467 232.754 43.76C233.034 43.56 233.174 43.2667 233.174 42.88C233.174 42.3467 232.921 41.92 232.414 41.6C232.121 41.7067 231.794 41.8 231.434 41.88L231.094 40.52C231.801 40.4133 232.301 40.2267 232.594 39.96C232.901 39.6933 233.054 39.3933 233.054 39.06C233.054 38.6867 232.927 38.42 232.674 38.26C232.421 38.0867 232.121 38 231.774 38ZM241.247 34.56V35.98H239.147V47H237.607V37.62C237.447 37.1667 237.207 36.78 236.887 36.46C236.58 36.14 236.18 35.98 235.687 35.98H235.527V34.56H235.827C236.147 34.56 236.48 34.6667 236.827 34.88C237.173 35.08 237.453 35.3933 237.667 35.82C237.653 35.7533 237.64 35.6 237.627 35.36C237.613 35.12 237.607 34.9133 237.607 34.74V33.24H238.687L239.127 34.56H241.247ZM253.319 34.56V35.98H251.219V47H249.679V42.84C249.039 42.0267 248.339 41.3467 247.579 40.8C246.819 40.2533 246.079 39.98 245.359 39.98C244.866 39.98 244.446 40.1133 244.099 40.38C243.766 40.6333 243.599 41.0133 243.599 41.52C243.599 42.2667 244.172 42.8667 245.319 43.32L244.559 44.74C243.746 44.4067 243.106 43.96 242.639 43.4C242.186 42.8267 241.959 42.18 241.959 41.46C241.959 40.8067 242.112 40.2667 242.419 39.84C242.739 39.4 243.139 39.0733 243.619 38.86C244.112 38.6467 244.612 38.54 245.119 38.54C246.066 38.54 246.906 38.7667 247.639 39.22C248.386 39.66 249.086 40.2333 249.739 40.94C249.712 40.7133 249.692 40.4867 249.679 40.26C249.679 40.0333 249.679 39.8067 249.679 39.58V35.98H240.839V34.56H253.319ZM254.629 45.52H256.229L254.629 49.74H253.469L254.629 45.52ZM264.194 34.56V35.98H263.794C263.381 36.0733 262.934 36.28 262.454 36.6C261.974 36.9067 261.521 37.3133 261.094 37.82C260.668 38.3133 260.314 38.8933 260.034 39.56C259.768 40.2267 259.634 40.96 259.634 41.76C259.634 42.72 259.774 43.4867 260.054 44.06C260.348 44.62 260.708 45.02 261.134 45.26C261.561 45.5 261.988 45.62 262.414 45.62C262.748 45.62 263.028 45.5867 263.254 45.52C263.481 45.4533 263.741 45.3333 264.034 45.16L264.734 46.38C264.388 46.6467 264.008 46.8333 263.594 46.94C263.181 47.0467 262.761 47.1 262.334 47.1C261.494 47.1 260.754 46.88 260.114 46.44C259.474 46 258.968 45.3867 258.594 44.6C258.234 43.8 258.054 42.8667 258.054 41.8C258.054 40.7733 258.214 39.86 258.534 39.06C258.868 38.2467 259.294 37.54 259.814 36.94C260.348 36.34 260.921 35.8467 261.534 35.46C262.148 35.06 262.741 34.76 263.314 34.56H264.194ZM278.608 34.56V35.98H263.788V34.56H278.608ZM272.428 46.14C271.282 46.14 270.222 45.88 269.248 45.36C268.275 44.84 267.395 43.9667 266.608 42.74C265.835 41.5133 265.155 39.8333 264.568 37.7L266.088 37.3C266.568 39.06 267.108 40.48 267.708 41.56C268.322 42.6267 269.008 43.4067 269.768 43.9C270.542 44.38 271.415 44.62 272.388 44.62C273.455 44.62 274.282 44.3467 274.868 43.8C275.455 43.24 275.748 42.5267 275.748 41.66C275.748 41.18 275.688 40.7467 275.568 40.36C275.448 39.9733 275.288 39.6467 275.088 39.38C274.622 40.0067 274.115 40.4867 273.568 40.82C273.022 41.1533 272.388 41.32 271.668 41.32C270.828 41.32 270.168 41.1133 269.688 40.7C269.208 40.2733 268.968 39.6933 268.968 38.96C268.968 38.6533 269.015 38.3533 269.108 38.06C269.202 37.7533 269.302 37.4933 269.408 37.28L271.008 37.76C270.915 37.8933 270.828 38.06 270.748 38.26C270.668 38.46 270.628 38.6667 270.628 38.88C270.628 39.24 270.728 39.5 270.928 39.66C271.128 39.82 271.388 39.9 271.708 39.9C271.988 39.9 272.268 39.8467 272.548 39.74C272.828 39.6333 273.128 39.4267 273.448 39.12C273.782 38.8 274.142 38.32 274.528 37.68L275.788 37.48C276.775 38.9467 277.268 40.3467 277.268 41.68C277.268 42.52 277.082 43.28 276.708 43.96C276.335 44.6267 275.788 45.16 275.068 45.56C274.362 45.9467 273.482 46.14 272.428 46.14ZM281.822 47H280.282V35.98H278.202V34.56H280.382C280.369 34.0133 280.236 33.62 279.982 33.38C279.742 33.14 279.349 33.02 278.802 33.02H275.422C274.556 33.02 273.889 32.96 273.422 32.84C272.942 32.72 272.536 32.5333 272.202 32.28C271.482 31.7333 271.122 30.9133 271.122 29.82C271.122 29.6467 271.136 29.4733 271.162 29.3C271.176 29.1267 271.196 28.9467 271.222 28.76L272.702 28.86C272.676 29.02 272.656 29.16 272.642 29.28C272.629 29.4 272.622 29.5133 272.622 29.62C272.622 29.9133 272.656 30.1733 272.722 30.4C272.776 30.6267 272.869 30.8133 273.002 30.96C273.189 31.1733 273.456 31.3333 273.802 31.44C274.149 31.5333 274.656 31.58 275.322 31.58H278.362C279.069 31.58 279.629 31.6333 280.042 31.74C280.456 31.8467 280.809 32.04 281.102 32.32C281.542 32.7467 281.782 33.4933 281.822 34.56H283.922V35.98H281.822V47ZM298.055 34.56V35.98H283.515V34.56H298.055ZM291.855 46C290.762 46 289.742 45.7333 288.795 45.2C287.848 44.6533 286.995 43.7733 286.235 42.56C285.488 41.3467 284.842 39.72 284.295 37.68L285.815 37.28C286.282 38.9333 286.788 40.2933 287.335 41.36C287.895 42.4267 288.535 43.2133 289.255 43.72C289.988 44.2267 290.842 44.48 291.815 44.48C292.642 44.48 293.302 44.3467 293.795 44.08C294.288 43.8 294.642 43.4333 294.855 42.98C295.068 42.5133 295.175 42 295.175 41.44C295.175 40.88 295.068 40.3733 294.855 39.92C294.642 39.4533 294.342 39.0867 293.955 38.82C293.568 38.5533 293.115 38.42 292.595 38.42C292.062 38.42 291.675 38.5333 291.435 38.76C291.208 38.9867 291.095 39.2867 291.095 39.66C291.095 39.7933 291.108 39.9333 291.135 40.08C291.162 40.2267 291.208 40.3933 291.275 40.58L289.735 40.88C289.655 40.6267 289.588 40.38 289.535 40.14C289.495 39.9 289.475 39.6533 289.475 39.4C289.475 38.6267 289.755 38.0333 290.315 37.62C290.888 37.2067 291.622 37 292.515 37C293.342 37 294.068 37.1933 294.695 37.58C295.322 37.9533 295.815 38.48 296.175 39.16C296.535 39.84 296.715 40.6267 296.715 41.52C296.715 42.36 296.535 43.12 296.175 43.8C295.828 44.4667 295.295 45 294.575 45.4C293.855 45.8 292.948 46 291.855 46ZM303.375 34.56V35.98H301.275V47H299.735V35.98H297.655V34.56H299.495C299.282 34.3067 299.062 34.04 298.835 33.76C298.622 33.48 298.429 33.2 298.255 32.92C298.709 32.1333 299.195 31.42 299.715 30.78C300.235 30.1267 300.849 29.6133 301.555 29.24C302.262 28.8533 303.115 28.66 304.115 28.66C305.062 28.66 305.955 28.8133 306.795 29.12C307.635 29.4267 308.475 29.86 309.315 30.42C310.155 30.9667 311.035 31.62 311.955 32.38L311.115 33.46C310.195 32.7133 309.362 32.0933 308.615 31.6C307.882 31.1067 307.175 30.74 306.495 30.5C305.829 30.2467 305.115 30.12 304.355 30.12C303.249 30.12 302.362 30.4 301.695 30.96C301.029 31.52 300.455 32.2467 299.975 33.14C300.082 33.34 300.229 33.56 300.415 33.8C300.602 34.04 300.815 34.2933 301.055 34.56H303.375ZM315.288 34.56V35.98H313.188V47H311.648C311.248 46.2 310.695 45.4667 309.988 44.8C309.295 44.12 308.495 43.5467 307.588 43.08C306.681 42.6133 305.715 42.3 304.688 42.14L303.908 40.22C305.121 39.4867 306.368 38.82 307.648 38.22C308.941 37.62 310.275 37.1 311.648 36.66V35.98H302.968V34.56H315.288ZM305.768 40.92C306.448 41.0667 307.168 41.32 307.928 41.68C308.688 42.0267 309.401 42.4667 310.068 43C310.748 43.5333 311.295 44.1467 311.708 44.84C311.695 44.6 311.681 44.3533 311.668 44.1C311.655 43.8467 311.648 43.5533 311.648 43.22V38.22C310.688 38.5533 309.688 38.9533 308.648 39.42C307.608 39.8733 306.648 40.3733 305.768 40.92ZM330.682 45.42C329.842 45.42 329.149 45.2467 328.602 44.9C328.069 44.5533 327.622 44.08 327.262 43.48C327.009 44.1467 326.549 44.6933 325.882 45.12C325.215 45.5333 324.289 45.74 323.102 45.74C322.062 45.74 321.075 45.4867 320.142 44.98C319.222 44.4733 318.382 43.6333 317.622 42.46C316.862 41.2867 316.209 39.7 315.662 37.7L317.182 37.3C317.635 38.94 318.142 40.2733 318.702 41.3C319.262 42.3133 319.909 43.0533 320.642 43.52C321.375 43.9867 322.215 44.22 323.162 44.22C325.162 44.22 326.162 43.36 326.162 41.64C326.162 41.4267 326.142 41.2267 326.102 41.04C326.075 40.8533 326.035 40.6867 325.982 40.54C325.462 40.9933 324.955 41.3267 324.462 41.54C323.982 41.7533 323.462 41.86 322.902 41.86C322.115 41.86 321.475 41.64 320.982 41.2C320.489 40.76 320.242 40.1333 320.242 39.32C320.242 38.7333 320.449 38.14 320.862 37.54C321.275 36.9267 321.975 36.3933 322.962 35.94C322.695 35.9533 322.389 35.9667 322.042 35.98C321.709 35.98 321.375 35.98 321.042 35.98H314.882V34.56H334.762V35.98H325.602C325.495 36.0333 325.389 36.08 325.282 36.12C325.535 37.2667 326.002 38.24 326.682 39.04C327.282 38.24 327.895 37.64 328.522 37.24C329.149 36.8267 329.849 36.62 330.622 36.62C331.515 36.62 332.202 36.8333 332.682 37.26C333.162 37.6867 333.402 38.2333 333.402 38.9C333.402 39.2067 333.342 39.5467 333.222 39.92C333.102 40.28 332.855 40.62 332.482 40.94C332.762 41.14 333.002 41.4067 333.202 41.74C333.415 42.0733 333.522 42.4733 333.522 42.94C333.522 43.5933 333.282 44.1733 332.802 44.68C332.322 45.1733 331.615 45.42 330.682 45.42ZM321.782 39.4C321.782 39.7733 321.889 40.04 322.102 40.2C322.315 40.36 322.555 40.44 322.822 40.44C323.289 40.44 323.689 40.3533 324.022 40.18C324.355 40.0067 324.729 39.76 325.142 39.44C324.849 39.04 324.595 38.6133 324.382 38.16C324.169 37.7067 324.009 37.2667 323.902 36.84C323.035 37.3467 322.462 37.8133 322.182 38.24C321.915 38.6533 321.782 39.04 321.782 39.4ZM330.602 38C329.455 38 328.395 38.84 327.422 40.52C327.449 40.6133 327.469 40.7067 327.482 40.8C327.762 41.8667 328.175 42.6733 328.722 43.22C329.282 43.7667 329.915 44.04 330.622 44.04C330.982 44.04 331.302 43.9467 331.582 43.76C331.862 43.56 332.002 43.2667 332.002 42.88C332.002 42.3467 331.749 41.92 331.242 41.6C330.949 41.7067 330.622 41.8 330.262 41.88L329.922 40.52C330.629 40.4133 331.129 40.2267 331.422 39.96C331.729 39.6933 331.882 39.3933 331.882 39.06C331.882 38.6867 331.755 38.42 331.502 38.26C331.249 38.0867 330.949 38 330.602 38ZM340.075 34.56V35.98H337.975V47H336.435V37.62C336.275 37.1667 336.035 36.78 335.715 36.46C335.408 36.14 335.008 35.98 334.515 35.98H334.355V34.56H334.655C334.975 34.56 335.308 34.6667 335.655 34.88C336.001 35.08 336.281 35.3933 336.495 35.82C336.481 35.7533 336.468 35.6 336.455 35.36C336.441 35.12 336.435 34.9133 336.435 34.74V33.24H337.515L337.955 34.56H340.075ZM352.147 34.56V35.98H350.047V47H348.507V42.84C347.867 42.0267 347.167 41.3467 346.407 40.8C345.647 40.2533 344.907 39.98 344.187 39.98C343.694 39.98 343.274 40.1133 342.927 40.38C342.594 40.6333 342.427 41.0133 342.427 41.52C342.427 42.2667 343.001 42.8667 344.147 43.32L343.387 44.74C342.574 44.4067 341.934 43.96 341.467 43.4C341.014 42.8267 340.787 42.18 340.787 41.46C340.787 40.8067 340.941 40.2667 341.247 39.84C341.567 39.4 341.967 39.0733 342.447 38.86C342.941 38.6467 343.441 38.54 343.947 38.54C344.894 38.54 345.734 38.7667 346.467 39.22C347.214 39.66 347.914 40.2333 348.567 40.94C348.541 40.7133 348.521 40.4867 348.507 40.26C348.507 40.0333 348.507 39.8067 348.507 39.58V35.98H339.667V34.56H352.147ZM353.458 45.52H355.058L353.458 49.74H352.298L353.458 45.52ZM365.582 47V39.18C364.769 38.0467 364.022 37.2133 363.342 36.68C362.676 36.1467 361.949 35.88 361.162 35.88C360.456 35.88 359.882 36.06 359.442 36.42C359.016 36.78 358.649 37.1867 358.342 37.64C358.556 37.52 358.822 37.4267 359.142 37.36C359.476 37.2933 359.836 37.26 360.222 37.26C360.836 37.26 361.329 37.38 361.702 37.62C362.089 37.86 362.369 38.1667 362.542 38.54C362.729 38.9 362.822 39.26 362.822 39.62C362.822 40.4067 362.556 41.1133 362.022 41.74C361.489 42.3533 360.662 42.96 359.542 43.56L358.522 42.1C359.256 41.7933 359.889 41.4533 360.422 41.08C360.956 40.6933 361.222 40.2333 361.222 39.7C361.222 39.4067 361.109 39.16 360.882 38.96C360.656 38.76 360.329 38.66 359.902 38.66C359.556 38.66 359.229 38.7 358.922 38.78C358.629 38.86 358.309 38.9867 357.962 39.16L356.342 37.84C356.956 36.8 357.636 35.9733 358.382 35.36C359.142 34.7333 360.016 34.42 361.002 34.42C361.909 34.42 362.722 34.6467 363.442 35.1C364.176 35.54 364.909 36.2 365.642 37.08C365.629 36.8533 365.616 36.58 365.602 36.26C365.589 35.94 365.582 35.62 365.582 35.3V33.24H366.642L367.102 34.56H369.222V35.98H367.122V47H365.582ZM374.547 34.56V35.98H372.447V47H370.907V35.98H368.827V34.56H370.667C370.454 34.3067 370.234 34.04 370.007 33.76C369.794 33.48 369.601 33.2 369.427 32.92C369.881 32.1333 370.367 31.42 370.887 30.78C371.407 30.1267 372.021 29.6133 372.727 29.24C373.434 28.8533 374.287 28.66 375.287 28.66C376.234 28.66 377.127 28.8133 377.967 29.12C378.807 29.4267 379.647 29.86 380.487 30.42C381.327 30.9667 382.207 31.62 383.127 32.38L382.287 33.46C381.367 32.7133 380.534 32.0933 379.787 31.6C379.054 31.1067 378.347 30.74 377.667 30.5C377.001 30.2467 376.287 30.12 375.527 30.12C374.421 30.12 373.534 30.4 372.867 30.96C372.201 31.52 371.627 32.2467 371.147 33.14C371.254 33.34 371.401 33.56 371.587 33.8C371.774 34.04 371.987 34.2933 372.227 34.56H374.547ZM386.94 34.56V35.98H384.84V47H383.3V39.18C382.473 38.0467 381.7 37.2133 380.98 36.68C380.26 36.1467 379.527 35.88 378.78 35.88C378.153 35.88 377.66 36.0533 377.3 36.4C376.953 36.7467 376.78 37.1933 376.78 37.74C376.78 38.3933 377.013 38.8933 377.48 39.24C377.96 39.5733 378.747 39.7933 379.84 39.9L379.72 41.56C378.84 41.48 378.053 41.2933 377.36 41C376.68 40.6933 376.14 40.2733 375.74 39.74C375.34 39.1933 375.14 38.5333 375.14 37.76C375.14 37.04 375.3 36.4333 375.62 35.94C375.94 35.4333 376.36 35.0533 376.88 34.8C377.4 34.5467 377.96 34.42 378.56 34.42C379.52 34.42 380.367 34.6533 381.1 35.12C381.847 35.5733 382.607 36.24 383.38 37.12C383.353 36.88 383.333 36.6133 383.32 36.32C383.307 36.0133 383.3 35.7333 383.3 35.48V33.24H384.36L384.82 34.56H386.94ZM401.082 34.56V35.98H386.542V34.56H401.082ZM394.882 46C393.789 46 392.769 45.7333 391.822 45.2C390.876 44.6533 390.022 43.7733 389.262 42.56C388.516 41.3467 387.869 39.72 387.322 37.68L388.842 37.28C389.309 38.9333 389.816 40.2933 390.362 41.36C390.922 42.4267 391.562 43.2133 392.282 43.72C393.016 44.2267 393.869 44.48 394.842 44.48C395.669 44.48 396.329 44.3467 396.822 44.08C397.316 43.8 397.669 43.4333 397.882 42.98C398.096 42.5133 398.202 42 398.202 41.44C398.202 40.88 398.096 40.3733 397.882 39.92C397.669 39.4533 397.369 39.0867 396.982 38.82C396.596 38.5533 396.142 38.42 395.622 38.42C395.089 38.42 394.702 38.5333 394.462 38.76C394.236 38.9867 394.122 39.2867 394.122 39.66C394.122 39.7933 394.136 39.9333 394.162 40.08C394.189 40.2267 394.236 40.3933 394.302 40.58L392.762 40.88C392.682 40.6267 392.616 40.38 392.562 40.14C392.522 39.9 392.502 39.6533 392.502 39.4C392.502 38.6267 392.782 38.0333 393.342 37.62C393.916 37.2067 394.649 37 395.542 37C396.369 37 397.096 37.1933 397.722 37.58C398.349 37.9533 398.842 38.48 399.202 39.16C399.562 39.84 399.742 40.6267 399.742 41.52C399.742 42.36 399.562 43.12 399.202 43.8C398.856 44.4667 398.322 45 397.602 45.4C396.882 45.8 395.976 46 394.882 46ZM2.386 76V60.6H14.288V63.372H5.576V67.002H11.362V69.686H5.576V76H2.386ZM13.7772 70.28C13.7772 69.444 13.9312 68.6667 14.2392 67.948C14.5619 67.2147 14.9945 66.584 15.5372 66.056C16.0945 65.5133 16.7472 65.088 17.4952 64.78C18.2432 64.472 19.0425 64.318 19.8932 64.318C20.7439 64.318 21.5432 64.472 22.2912 64.78C23.0392 65.088 23.6845 65.5133 24.2272 66.056C24.7845 66.584 25.2172 67.2147 25.5252 67.948C25.8479 68.6667 26.0092 69.444 26.0092 70.28C26.0092 71.116 25.8479 71.9007 25.5252 72.634C25.2172 73.3527 24.7845 73.976 24.2272 74.504C23.6845 75.032 23.0392 75.45 22.2912 75.758C21.5432 76.066 20.7439 76.22 19.8932 76.22C19.0425 76.22 18.2432 76.066 17.4952 75.758C16.7472 75.45 16.0945 75.032 15.5372 74.504C14.9945 73.976 14.5619 73.3527 14.2392 72.634C13.9312 71.9007 13.7772 71.116 13.7772 70.28ZM19.8932 73.602C20.7732 73.602 21.5212 73.2793 22.1372 72.634C22.7532 71.9887 23.0612 71.204 23.0612 70.28C23.0612 69.3413 22.7532 68.5493 22.1372 67.904C21.5212 67.2587 20.7732 66.936 19.8932 66.936C19.0132 66.936 18.2652 67.2587 17.6492 67.904C17.0332 68.5493 16.7252 69.3413 16.7252 70.28C16.7252 71.204 17.0332 71.9887 17.6492 72.634C18.2652 73.2793 19.0132 73.602 19.8932 73.602ZM27.8618 76V64.538H30.8758V65.792C31.2425 65.2933 31.6825 64.9193 32.1958 64.67C32.7238 64.406 33.3032 64.274 33.9338 64.274C34.2272 64.2887 34.4692 64.318 34.6598 64.362C34.8652 64.3913 35.0412 64.45 35.1878 64.538V67.178C34.9678 67.0753 34.7258 67.002 34.4618 66.958C34.1978 66.8993 33.9265 66.87 33.6478 66.87C33.0612 66.87 32.5185 67.0167 32.0198 67.31C31.5358 67.6033 31.1545 68.0287 30.8758 68.586V76H27.8618ZM49.1446 73.272C49.9513 73.272 50.7066 73.1033 51.4106 72.766C52.1146 72.4287 52.7379 71.9447 53.2806 71.314L55.3706 73.382C54.6373 74.2473 53.6986 74.9367 52.5546 75.45C51.4253 75.9633 50.2593 76.22 49.0566 76.22C47.8979 76.22 46.8126 76.0147 45.8006 75.604C44.8033 75.1933 43.9379 74.636 43.2046 73.932C42.4713 73.228 41.8919 72.392 41.4666 71.424C41.0559 70.456 40.8506 69.4147 40.8506 68.3C40.8506 67.1853 41.0633 66.144 41.4886 65.176C41.9139 64.1933 42.4933 63.35 43.2266 62.646C43.9599 61.942 44.8253 61.3847 45.8226 60.974C46.8346 60.5633 47.9126 60.358 49.0566 60.358C50.2886 60.358 51.4839 60.622 52.6426 61.15C53.8013 61.6633 54.7399 62.36 55.4586 63.24L53.3026 65.374C52.7599 64.6993 52.1219 64.186 51.3886 63.834C50.6553 63.4673 49.8779 63.284 49.0566 63.284C48.3673 63.284 47.7146 63.416 47.0986 63.68C46.4973 63.9293 45.9766 64.2813 45.5366 64.736C45.0966 65.176 44.7519 65.704 44.5026 66.32C44.2533 66.9213 44.1286 67.5813 44.1286 68.3C44.1286 69.004 44.2533 69.664 44.5026 70.28C44.7666 70.8813 45.1186 71.402 45.5586 71.842C46.0133 72.282 46.5413 72.634 47.1426 72.898C47.7586 73.1473 48.4259 73.272 49.1446 73.272ZM60.0516 59.94V76H57.0376V60.6L60.0516 59.94ZM66.0387 76.198C64.8067 76.198 63.802 75.8753 63.0247 75.23C62.2474 74.57 61.8587 73.7193 61.8587 72.678C61.8587 71.5927 62.2767 70.742 63.1127 70.126C63.9487 69.51 65.1 69.202 66.5667 69.202C67.036 69.202 67.5054 69.2387 67.9747 69.312C68.444 69.3853 68.906 69.4953 69.3607 69.642V68.828C69.3607 68.168 69.1554 67.6693 68.7447 67.332C68.334 66.9947 67.7327 66.826 66.9407 66.826C66.4567 66.826 65.9287 66.9067 65.3567 67.068C64.7994 67.2147 64.1614 67.4493 63.4427 67.772L62.3427 65.55C63.2374 65.1393 64.1027 64.8313 64.9387 64.626C65.7894 64.4207 66.6254 64.318 67.4467 64.318C68.9867 64.318 70.182 64.692 71.0327 65.44C71.898 66.1733 72.3307 67.2147 72.3307 68.564V76H69.3607V75.208C68.8767 75.5453 68.3634 75.7947 67.8207 75.956C67.2927 76.1173 66.6987 76.198 66.0387 76.198ZM64.7407 72.612C64.7407 73.052 64.9314 73.404 65.3127 73.668C65.694 73.9173 66.2 74.042 66.8307 74.042C67.3294 74.042 67.784 73.9833 68.1947 73.866C68.62 73.734 69.0087 73.5507 69.3607 73.316V71.6C68.994 71.4533 68.6054 71.3507 68.1947 71.292C67.7987 71.2187 67.3807 71.182 66.9407 71.182C66.2514 71.182 65.7087 71.314 65.3127 71.578C64.9314 71.8273 64.7407 72.172 64.7407 72.612ZM73.6438 74.636L75.1398 72.634C75.8145 73.074 76.4525 73.404 77.0538 73.624C77.6552 73.8293 78.2565 73.932 78.8578 73.932C79.5325 73.932 80.0678 73.822 80.4638 73.602C80.8745 73.382 81.0798 73.0887 81.0798 72.722C81.0798 72.4287 80.9625 72.194 80.7278 72.018C80.5078 71.842 80.1485 71.7173 79.6498 71.644L77.4498 71.314C76.3205 71.138 75.4552 70.7713 74.8538 70.214C74.2672 69.6567 73.9738 68.916 73.9738 67.992C73.9738 66.892 74.4065 66.012 75.2718 65.352C76.1372 64.692 77.2958 64.362 78.7478 64.362C79.5838 64.362 80.3978 64.4867 81.1898 64.736C81.9818 64.9707 82.7372 65.3227 83.4558 65.792L82.0038 67.728C81.3732 67.3613 80.7718 67.09 80.1998 66.914C79.6278 66.7233 79.0485 66.628 78.4618 66.628C77.9192 66.628 77.4792 66.7307 77.1418 66.936C76.8192 67.1413 76.6578 67.4127 76.6578 67.75C76.6578 68.058 76.7752 68.3 77.0098 68.476C77.2592 68.6373 77.6625 68.7547 78.2198 68.828L80.4198 69.158C81.5345 69.3193 82.3925 69.686 82.9938 70.258C83.6098 70.83 83.9178 71.556 83.9178 72.436C83.9178 72.9787 83.7858 73.4847 83.5218 73.954C83.2725 74.4087 82.9278 74.8047 82.4878 75.142C82.0478 75.4793 81.5198 75.7433 80.9038 75.934C80.2878 76.1247 79.6205 76.22 78.9018 76.22C77.8605 76.22 76.8852 76.088 75.9758 75.824C75.0665 75.5453 74.2892 75.1493 73.6438 74.636ZM84.4934 74.636L85.9894 72.634C86.6641 73.074 87.3021 73.404 87.9034 73.624C88.5048 73.8293 89.1061 73.932 89.7074 73.932C90.3821 73.932 90.9174 73.822 91.3134 73.602C91.7241 73.382 91.9294 73.0887 91.9294 72.722C91.9294 72.4287 91.8121 72.194 91.5774 72.018C91.3574 71.842 90.9981 71.7173 90.4994 71.644L88.2994 71.314C87.1701 71.138 86.3048 70.7713 85.7034 70.214C85.1168 69.6567 84.8234 68.916 84.8234 67.992C84.8234 66.892 85.2561 66.012 86.1214 65.352C86.9868 64.692 88.1454 64.362 89.5974 64.362C90.4334 64.362 91.2474 64.4867 92.0394 64.736C92.8314 64.9707 93.5868 65.3227 94.3054 65.792L92.8534 67.728C92.2228 67.3613 91.6214 67.09 91.0494 66.914C90.4774 66.7233 89.8981 66.628 89.3114 66.628C88.7688 66.628 88.3288 66.7307 87.9914 66.936C87.6688 67.1413 87.5074 67.4127 87.5074 67.75C87.5074 68.058 87.6248 68.3 87.8594 68.476C88.1088 68.6373 88.5121 68.7547 89.0694 68.828L91.2694 69.158C92.3841 69.3193 93.2421 69.686 93.8434 70.258C94.4594 70.83 94.7674 71.556 94.7674 72.436C94.7674 72.9787 94.6354 73.4847 94.3714 73.954C94.1221 74.4087 93.7774 74.8047 93.3374 75.142C92.8974 75.4793 92.3694 75.7433 91.7534 75.934C91.1374 76.1247 90.4701 76.22 89.7514 76.22C88.7101 76.22 87.7348 76.088 86.8254 75.824C85.9161 75.5453 85.1388 75.1493 84.4934 74.636ZM105.318 76V60.6H108.508V76H105.318ZM113.534 76H109.86L115.712 68.036L110.168 60.6H113.974L117.626 65.66L121.256 60.6H124.93L119.452 68.036L125.392 76H121.586L117.56 70.39L113.534 76ZM148.658 74.306L146.854 76.44C146.502 76.176 146.143 75.9047 145.776 75.626C145.424 75.3327 145.065 75.0393 144.698 74.746C144.067 75.23 143.363 75.5967 142.586 75.846C141.823 76.0953 141.002 76.22 140.122 76.22C138.509 76.22 137.196 75.8167 136.184 75.01C135.187 74.2033 134.688 73.1473 134.688 71.842C134.688 70.8887 134.915 70.0893 135.37 69.444C135.839 68.7987 136.609 68.1827 137.68 67.596C137.225 66.9947 136.895 66.43 136.69 65.902C136.499 65.374 136.404 64.8167 136.404 64.23C136.404 63.13 136.815 62.206 137.636 61.458C138.457 60.71 139.484 60.336 140.716 60.336C141.904 60.336 142.894 60.6807 143.686 61.37C144.478 62.0593 144.874 62.9247 144.874 63.966C144.874 64.6407 144.691 65.2567 144.324 65.814C143.972 66.3713 143.429 66.87 142.696 67.31L141.574 67.992C141.999 68.4467 142.461 68.9233 142.96 69.422C143.459 69.906 143.972 70.39 144.5 70.874C144.779 70.39 145.021 69.862 145.226 69.29C145.431 68.7033 145.6 68.0727 145.732 67.398L148.328 67.816C148.108 68.784 147.844 69.664 147.536 70.456C147.228 71.248 146.876 71.952 146.48 72.568C146.847 72.8907 147.213 73.1987 147.58 73.492C147.961 73.7853 148.321 74.0567 148.658 74.306ZM139.11 64.164C139.11 64.4867 139.183 64.8093 139.33 65.132C139.477 65.44 139.741 65.8287 140.122 66.298L141.024 65.748C141.42 65.5133 141.706 65.264 141.882 65C142.058 64.7213 142.146 64.406 142.146 64.054C142.146 63.6433 141.999 63.2987 141.706 63.02C141.413 62.7267 141.053 62.58 140.628 62.58C140.188 62.58 139.821 62.734 139.528 63.042C139.249 63.3353 139.11 63.7093 139.11 64.164ZM137.482 71.622C137.482 72.2967 137.739 72.8393 138.252 73.25C138.765 73.646 139.462 73.844 140.342 73.844C140.797 73.844 141.229 73.7853 141.64 73.668C142.051 73.536 142.439 73.3453 142.806 73.096C142.146 72.4947 141.501 71.8787 140.87 71.248C140.254 70.6173 139.675 69.994 139.132 69.378C138.545 69.7153 138.12 70.06 137.856 70.412C137.607 70.764 137.482 71.1673 137.482 71.622ZM161.659 76H157.985L163.837 68.036L158.293 60.6H162.099L165.751 65.66L169.381 60.6H173.055L167.577 68.036L173.517 76H169.711L165.685 70.39L161.659 76ZM183.187 68.454H191.459V71.006H183.187V68.454ZM58.3994 102V88H59.9394V100.62H68.2794V102H58.3994ZM70.9297 90.06C70.663 90.06 70.4297 89.96 70.2297 89.76C70.0297 89.56 69.9297 89.3267 69.9297 89.06C69.9297 88.78 70.0297 88.5467 70.2297 88.36C70.4297 88.16 70.663 88.06 70.9297 88.06C71.2097 88.06 71.443 88.16 71.6297 88.36C71.8297 88.5467 71.9297 88.78 71.9297 89.06C71.9297 89.3267 71.8297 89.56 71.6297 89.76C71.443 89.96 71.2097 90.06 70.9297 90.06ZM71.6697 91.98V102H70.1897V91.98H71.6697ZM73.2736 91.98H75.6336V90.08C75.6336 89.1067 75.9003 88.36 76.4336 87.84C76.9669 87.3067 77.7336 87.04 78.7336 87.04C79.0003 87.04 79.2403 87.0533 79.4536 87.08C79.6669 87.1067 79.8736 87.1533 80.0736 87.22V88.54C79.8469 88.4733 79.6403 88.4267 79.4536 88.4C79.2669 88.36 79.0603 88.34 78.8336 88.34C78.2469 88.34 77.8069 88.4867 77.5136 88.78C77.2336 89.06 77.0936 89.5067 77.0936 90.12V91.98H80.0736V93.24H77.0936V102H75.6336V93.24H73.2736V91.98ZM89.5867 100.94C89.0267 101.353 88.4401 101.667 87.8267 101.88C87.2267 102.08 86.5667 102.18 85.8467 102.18C85.1267 102.18 84.4467 102.047 83.8067 101.78C83.1801 101.513 82.6334 101.147 82.1667 100.68C81.7134 100.213 81.3534 99.6667 81.0867 99.04C80.8201 98.4 80.6867 97.7133 80.6867 96.98C80.6867 96.26 80.8134 95.5867 81.0667 94.96C81.3334 94.3333 81.6867 93.7867 82.1267 93.32C82.5667 92.8533 83.0867 92.4867 83.6867 92.22C84.3001 91.9533 84.9467 91.82 85.6267 91.82C86.2934 91.82 86.9134 91.9533 87.4867 92.22C88.0734 92.4867 88.5734 92.8533 88.9867 93.32C89.4134 93.7867 89.7467 94.3333 89.9867 94.96C90.2401 95.5867 90.3667 96.26 90.3667 96.98V97.44H82.1467C82.2534 98.4267 82.6601 99.2467 83.3667 99.9C84.0734 100.553 84.9201 100.88 85.9067 100.88C86.4267 100.88 86.9334 100.8 87.4267 100.64C87.9201 100.48 88.3334 100.253 88.6667 99.96L89.5867 100.94ZM85.5867 93.12C84.7201 93.12 83.9667 93.4133 83.3267 94C82.7001 94.5867 82.3201 95.34 82.1867 96.26H88.8867C88.7534 95.38 88.3734 94.64 87.7467 94.04C87.1334 93.4267 86.4134 93.12 85.5867 93.12ZM95.6927 99.6L96.7127 98.54C97.4327 99.3 98.1993 99.88 99.0127 100.28C99.8393 100.667 100.706 100.86 101.613 100.86C102.706 100.86 103.606 100.6 104.313 100.08C105.019 99.56 105.373 98.9 105.373 98.1C105.373 97.38 105.119 96.8267 104.613 96.44C104.119 96.0533 103.299 95.7667 102.153 95.58L100.133 95.26C98.786 95.0467 97.7927 94.6533 97.1527 94.08C96.5127 93.4933 96.1927 92.7067 96.1927 91.72C96.1927 90.56 96.646 89.62 97.5527 88.9C98.4593 88.18 99.646 87.82 101.113 87.82C102.086 87.82 103.053 87.98 104.013 88.3C104.973 88.62 105.846 89.08 106.633 89.68L105.753 90.88C104.993 90.3067 104.219 89.8733 103.433 89.58C102.646 89.2867 101.853 89.14 101.053 89.14C100.053 89.14 99.2393 89.3733 98.6127 89.84C97.9993 90.2933 97.6927 90.88 97.6927 91.6C97.6927 92.2533 97.9127 92.7533 98.3527 93.1C98.7927 93.4467 99.5193 93.7 100.533 93.86L102.533 94.18C104.053 94.4333 105.159 94.8667 105.853 95.48C106.559 96.0933 106.913 96.94 106.913 98.02C106.913 98.6333 106.779 99.2 106.513 99.72C106.259 100.227 105.893 100.667 105.413 101.04C104.946 101.4 104.379 101.687 103.713 101.9C103.059 102.1 102.339 102.2 101.553 102.2C100.446 102.2 99.3793 101.98 98.3527 101.54C97.3393 101.087 96.4527 100.44 95.6927 99.6ZM113.6 100.84C114.133 100.84 114.647 100.733 115.14 100.52C115.633 100.307 116.093 99.9933 116.52 99.58L117.44 100.58C116.907 101.087 116.307 101.48 115.64 101.76C114.973 102.04 114.28 102.18 113.56 102.18C112.853 102.18 112.187 102.047 111.56 101.78C110.933 101.513 110.393 101.147 109.94 100.68C109.487 100.213 109.127 99.66 108.86 99.02C108.593 98.38 108.46 97.7 108.46 96.98C108.46 96.26 108.593 95.5867 108.86 94.96C109.127 94.32 109.487 93.7667 109.94 93.3C110.393 92.8333 110.933 92.4667 111.56 92.2C112.187 91.92 112.853 91.78 113.56 91.78C114.28 91.78 114.98 91.92 115.66 92.2C116.353 92.48 116.96 92.8667 117.48 93.36L116.54 94.44C116.14 94.0267 115.68 93.7067 115.16 93.48C114.64 93.2533 114.113 93.14 113.58 93.14C113.073 93.14 112.593 93.24 112.14 93.44C111.687 93.64 111.293 93.9133 110.96 94.26C110.64 94.6067 110.387 95.0133 110.2 95.48C110.013 95.9467 109.92 96.4467 109.92 96.98C109.92 97.5267 110.013 98.04 110.2 98.52C110.4 98.9867 110.66 99.3933 110.98 99.74C111.313 100.073 111.707 100.34 112.16 100.54C112.613 100.74 113.093 100.84 113.6 100.84ZM119.914 90.06C119.647 90.06 119.414 89.96 119.214 89.76C119.014 89.56 118.914 89.3267 118.914 89.06C118.914 88.78 119.014 88.5467 119.214 88.36C119.414 88.16 119.647 88.06 119.914 88.06C120.194 88.06 120.427 88.16 120.614 88.36C120.814 88.5467 120.914 88.78 120.914 89.06C120.914 89.3267 120.814 89.56 120.614 89.76C120.427 89.96 120.194 90.06 119.914 90.06ZM120.654 91.98V102H119.174V91.98H120.654ZM131.618 100.94C131.058 101.353 130.471 101.667 129.858 101.88C129.258 102.08 128.598 102.18 127.878 102.18C127.158 102.18 126.478 102.047 125.838 101.78C125.211 101.513 124.665 101.147 124.198 100.68C123.745 100.213 123.385 99.6667 123.118 99.04C122.851 98.4 122.718 97.7133 122.718 96.98C122.718 96.26 122.845 95.5867 123.098 94.96C123.365 94.3333 123.718 93.7867 124.158 93.32C124.598 92.8533 125.118 92.4867 125.718 92.22C126.331 91.9533 126.978 91.82 127.658 91.82C128.325 91.82 128.945 91.9533 129.518 92.22C130.105 92.4867 130.605 92.8533 131.018 93.32C131.445 93.7867 131.778 94.3333 132.018 94.96C132.271 95.5867 132.398 96.26 132.398 96.98V97.44H124.178C124.285 98.4267 124.691 99.2467 125.398 99.9C126.105 100.553 126.951 100.88 127.938 100.88C128.458 100.88 128.965 100.8 129.458 100.64C129.951 100.48 130.365 100.253 130.698 99.96L131.618 100.94ZM127.618 93.12C126.751 93.12 125.998 93.4133 125.358 94C124.731 94.5867 124.351 95.34 124.218 96.26H130.918C130.785 95.38 130.405 94.64 129.778 94.04C129.165 93.4267 128.445 93.12 127.618 93.12ZM134.467 102V91.98H135.947V93.16C136.334 92.7067 136.794 92.3667 137.327 92.14C137.86 91.9 138.454 91.78 139.107 91.78C140.24 91.78 141.167 92.14 141.887 92.86C142.607 93.58 142.967 94.5133 142.967 95.66V102H141.507V95.96C141.507 95.08 141.254 94.38 140.747 93.86C140.24 93.34 139.56 93.08 138.707 93.08C138.107 93.08 137.567 93.2133 137.087 93.48C136.62 93.7467 136.24 94.1267 135.947 94.62V102H134.467ZM150.124 100.84C150.657 100.84 151.17 100.733 151.664 100.52C152.157 100.307 152.617 99.9933 153.044 99.58L153.964 100.58C153.43 101.087 152.83 101.48 152.164 101.76C151.497 102.04 150.804 102.18 150.084 102.18C149.377 102.18 148.71 102.047 148.084 101.78C147.457 101.513 146.917 101.147 146.464 100.68C146.01 100.213 145.65 99.66 145.384 99.02C145.117 98.38 144.984 97.7 144.984 96.98C144.984 96.26 145.117 95.5867 145.384 94.96C145.65 94.32 146.01 93.7667 146.464 93.3C146.917 92.8333 147.457 92.4667 148.084 92.2C148.71 91.92 149.377 91.78 150.084 91.78C150.804 91.78 151.504 91.92 152.184 92.2C152.877 92.48 153.484 92.8667 154.004 93.36L153.064 94.44C152.664 94.0267 152.204 93.7067 151.684 93.48C151.164 93.2533 150.637 93.14 150.104 93.14C149.597 93.14 149.117 93.24 148.664 93.44C148.21 93.64 147.817 93.9133 147.484 94.26C147.164 94.6067 146.91 95.0133 146.724 95.48C146.537 95.9467 146.444 96.4467 146.444 96.98C146.444 97.5267 146.537 98.04 146.724 98.52C146.924 98.9867 147.184 99.3933 147.504 99.74C147.837 100.073 148.23 100.34 148.684 100.54C149.137 100.74 149.617 100.84 150.124 100.84ZM163.747 100.94C163.187 101.353 162.6 101.667 161.987 101.88C161.387 102.08 160.727 102.18 160.007 102.18C159.287 102.18 158.607 102.047 157.967 101.78C157.34 101.513 156.794 101.147 156.327 100.68C155.874 100.213 155.514 99.6667 155.247 99.04C154.98 98.4 154.847 97.7133 154.847 96.98C154.847 96.26 154.974 95.5867 155.227 94.96C155.494 94.3333 155.847 93.7867 156.287 93.32C156.727 92.8533 157.247 92.4867 157.847 92.22C158.46 91.9533 159.107 91.82 159.787 91.82C160.454 91.82 161.074 91.9533 161.647 92.22C162.234 92.4867 162.734 92.8533 163.147 93.32C163.574 93.7867 163.907 94.3333 164.147 94.96C164.4 95.5867 164.527 96.26 164.527 96.98V97.44H156.307C156.414 98.4267 156.82 99.2467 157.527 99.9C158.234 100.553 159.08 100.88 160.067 100.88C160.587 100.88 161.094 100.8 161.587 100.64C162.08 100.48 162.494 100.253 162.827 99.96L163.747 100.94ZM159.747 93.12C158.88 93.12 158.127 93.4133 157.487 94C156.86 94.5867 156.48 95.34 156.347 96.26H163.047C162.914 95.38 162.534 94.64 161.907 94.04C161.294 93.4267 160.574 93.12 159.747 93.12ZM166.25 100.52H167.85L166.25 104.74H165.09L166.25 100.52ZM170.235 102V88H176.315C177.675 88 178.769 88.3733 179.595 89.12C180.422 89.8533 180.835 90.8267 180.835 92.04C180.835 93.2533 180.415 94.2333 179.575 94.98C178.749 95.7267 177.662 96.1 176.315 96.1H171.775V102H170.235ZM176.195 89.38H171.775V94.76H176.195C177.142 94.76 177.895 94.52 178.455 94.04C179.015 93.5467 179.295 92.8867 179.295 92.06C179.295 91.2333 179.015 90.58 178.455 90.1C177.895 89.62 177.142 89.38 176.195 89.38ZM182.905 102V88L184.385 87.66V93.16C184.771 92.7067 185.231 92.3667 185.765 92.14C186.298 91.9 186.891 91.78 187.545 91.78C188.678 91.78 189.605 92.14 190.325 92.86C191.045 93.58 191.405 94.5133 191.405 95.66V102H189.945V95.96C189.945 95.08 189.691 94.38 189.185 93.86C188.678 93.34 187.998 93.08 187.145 93.08C186.545 93.08 186.005 93.2133 185.525 93.48C185.058 93.7467 184.678 94.1267 184.385 94.62V102H182.905ZM196.026 103.3L196.606 101.98L192.526 91.98H194.166L197.406 100.2L200.906 91.98H202.506L197.526 103.5C197.099 104.46 196.626 105.153 196.106 105.58C195.586 106.007 194.926 106.22 194.126 106.22C193.939 106.22 193.759 106.207 193.586 106.18C193.426 106.167 193.292 106.147 193.186 106.12V104.78C193.319 104.807 193.446 104.827 193.566 104.84C193.699 104.853 193.852 104.86 194.026 104.86C194.479 104.86 194.866 104.733 195.186 104.48C195.506 104.227 195.786 103.833 196.026 103.3ZM202.861 100.62L203.761 99.66C204.214 100.087 204.721 100.42 205.281 100.66C205.854 100.887 206.434 101 207.021 101C207.821 101 208.474 100.833 208.981 100.5C209.488 100.167 209.741 99.7333 209.741 99.2C209.741 98.7733 209.588 98.44 209.281 98.2C208.988 97.9467 208.521 97.7733 207.881 97.68L206.141 97.44C205.141 97.2933 204.394 97 203.901 96.56C203.421 96.1067 203.181 95.5 203.181 94.74C203.181 93.9 203.534 93.2067 204.241 92.66C204.948 92.1 205.848 91.82 206.941 91.82C207.661 91.82 208.341 91.9267 208.981 92.14C209.634 92.3533 210.268 92.6867 210.881 93.14L210.101 94.14C209.541 93.7667 208.994 93.4867 208.461 93.3C207.941 93.1133 207.408 93.02 206.861 93.02C206.181 93.02 205.621 93.1733 205.181 93.48C204.754 93.7867 204.541 94.1867 204.541 94.68C204.541 95.1067 204.688 95.44 204.981 95.68C205.274 95.9067 205.748 96.0667 206.401 96.16L208.141 96.4C209.141 96.5333 209.888 96.8333 210.381 97.3C210.888 97.7533 211.141 98.36 211.141 99.12C211.141 99.5467 211.034 99.9533 210.821 100.34C210.621 100.713 210.334 101.04 209.961 101.32C209.601 101.587 209.174 101.8 208.681 101.96C208.188 102.107 207.654 102.18 207.081 102.18C206.254 102.18 205.474 102.047 204.741 101.78C204.021 101.5 203.394 101.113 202.861 100.62ZM213.547 90.06C213.28 90.06 213.047 89.96 212.847 89.76C212.647 89.56 212.547 89.3267 212.547 89.06C212.547 88.78 212.647 88.5467 212.847 88.36C213.047 88.16 213.28 88.06 213.547 88.06C213.827 88.06 214.06 88.16 214.247 88.36C214.447 88.5467 214.547 88.78 214.547 89.06C214.547 89.3267 214.447 89.56 214.247 89.76C214.06 89.96 213.827 90.06 213.547 90.06ZM214.287 91.98V102H212.807V91.98H214.287ZM221.491 100.84C222.024 100.84 222.537 100.733 223.031 100.52C223.524 100.307 223.984 99.9933 224.411 99.58L225.331 100.58C224.797 101.087 224.197 101.48 223.531 101.76C222.864 102.04 222.171 102.18 221.451 102.18C220.744 102.18 220.077 102.047 219.451 101.78C218.824 101.513 218.284 101.147 217.831 100.68C217.377 100.213 217.017 99.66 216.751 99.02C216.484 98.38 216.351 97.7 216.351 96.98C216.351 96.26 216.484 95.5867 216.751 94.96C217.017 94.32 217.377 93.7667 217.831 93.3C218.284 92.8333 218.824 92.4667 219.451 92.2C220.077 91.92 220.744 91.78 221.451 91.78C222.171 91.78 222.871 91.92 223.551 92.2C224.244 92.48 224.851 92.8667 225.371 93.36L224.431 94.44C224.031 94.0267 223.571 93.7067 223.051 93.48C222.531 93.2533 222.004 93.14 221.471 93.14C220.964 93.14 220.484 93.24 220.031 93.44C219.577 93.64 219.184 93.9133 218.851 94.26C218.531 94.6067 218.277 95.0133 218.091 95.48C217.904 95.9467 217.811 96.4467 217.811 96.98C217.811 97.5267 217.904 98.04 218.091 98.52C218.291 98.9867 218.551 99.3933 218.871 99.74C219.204 100.073 219.597 100.34 220.051 100.54C220.504 100.74 220.984 100.84 221.491 100.84ZM230.225 102.18C229.131 102.18 228.238 101.9 227.545 101.34C226.865 100.78 226.525 100.053 226.525 99.16C226.525 98.2267 226.885 97.4867 227.605 96.94C228.325 96.38 229.298 96.1 230.525 96.1C231.058 96.1 231.571 96.16 232.065 96.28C232.571 96.4 233.038 96.5667 233.465 96.78V95.46C233.465 94.66 233.238 94.06 232.785 93.66C232.331 93.2467 231.671 93.04 230.805 93.04C230.311 93.04 229.811 93.1133 229.305 93.26C228.811 93.3933 228.265 93.6133 227.665 93.92L227.105 92.78C227.825 92.4333 228.491 92.18 229.105 92.02C229.718 91.86 230.331 91.78 230.945 91.78C232.211 91.78 233.185 92.08 233.865 92.68C234.558 93.28 234.905 94.14 234.905 95.26V102H233.465V101.02C233.011 101.407 232.511 101.7 231.965 101.9C231.431 102.087 230.851 102.18 230.225 102.18ZM227.945 99.12C227.945 99.68 228.178 100.14 228.645 100.5C229.125 100.847 229.738 101.02 230.485 101.02C231.085 101.02 231.631 100.927 232.125 100.74C232.618 100.553 233.065 100.26 233.465 99.86V97.98C233.051 97.7 232.605 97.5 232.125 97.38C231.658 97.2467 231.138 97.18 230.565 97.18C229.765 97.18 229.125 97.36 228.645 97.72C228.178 98.0667 227.945 98.5333 227.945 99.12ZM238.857 87.66V102H237.377V88L238.857 87.66ZM244.638 99.6L245.658 98.54C246.378 99.3 247.145 99.88 247.958 100.28C248.785 100.667 249.651 100.86 250.558 100.86C251.651 100.86 252.551 100.6 253.258 100.08C253.965 99.56 254.318 98.9 254.318 98.1C254.318 97.38 254.065 96.8267 253.558 96.44C253.065 96.0533 252.245 95.7667 251.098 95.58L249.078 95.26C247.731 95.0467 246.738 94.6533 246.098 94.08C245.458 93.4933 245.138 92.7067 245.138 91.72C245.138 90.56 245.591 89.62 246.498 88.9C247.405 88.18 248.591 87.82 250.058 87.82C251.031 87.82 251.998 87.98 252.958 88.3C253.918 88.62 254.791 89.08 255.578 89.68L254.698 90.88C253.938 90.3067 253.165 89.8733 252.378 89.58C251.591 89.2867 250.798 89.14 249.998 89.14C248.998 89.14 248.185 89.3733 247.558 89.84C246.945 90.2933 246.638 90.88 246.638 91.6C246.638 92.2533 246.858 92.7533 247.298 93.1C247.738 93.4467 248.465 93.7 249.478 93.86L251.478 94.18C252.998 94.4333 254.105 94.8667 254.798 95.48C255.505 96.0933 255.858 96.94 255.858 98.02C255.858 98.6333 255.725 99.2 255.458 99.72C255.205 100.227 254.838 100.667 254.358 101.04C253.891 101.4 253.325 101.687 252.658 101.9C252.005 102.1 251.285 102.2 250.498 102.2C249.391 102.2 248.325 101.98 247.298 101.54C246.285 101.087 245.398 100.44 244.638 99.6ZM262.545 100.84C263.079 100.84 263.592 100.733 264.085 100.52C264.579 100.307 265.039 99.9933 265.465 99.58L266.385 100.58C265.852 101.087 265.252 101.48 264.585 101.76C263.919 102.04 263.225 102.18 262.505 102.18C261.799 102.18 261.132 102.047 260.505 101.78C259.879 101.513 259.339 101.147 258.885 100.68C258.432 100.213 258.072 99.66 257.805 99.02C257.539 98.38 257.405 97.7 257.405 96.98C257.405 96.26 257.539 95.5867 257.805 94.96C258.072 94.32 258.432 93.7667 258.885 93.3C259.339 92.8333 259.879 92.4667 260.505 92.2C261.132 91.92 261.799 91.78 262.505 91.78C263.225 91.78 263.925 91.92 264.605 92.2C265.299 92.48 265.905 92.8667 266.425 93.36L265.485 94.44C265.085 94.0267 264.625 93.7067 264.105 93.48C263.585 93.2533 263.059 93.14 262.525 93.14C262.019 93.14 261.539 93.24 261.085 93.44C260.632 93.64 260.239 93.9133 259.905 94.26C259.585 94.6067 259.332 95.0133 259.145 95.48C258.959 95.9467 258.865 96.4467 258.865 96.98C258.865 97.5267 258.959 98.04 259.145 98.52C259.345 98.9867 259.605 99.3933 259.925 99.74C260.259 100.073 260.652 100.34 261.105 100.54C261.559 100.74 262.039 100.84 262.545 100.84ZM268.859 90.06C268.593 90.06 268.359 89.96 268.159 89.76C267.959 89.56 267.859 89.3267 267.859 89.06C267.859 88.78 267.959 88.5467 268.159 88.36C268.359 88.16 268.593 88.06 268.859 88.06C269.139 88.06 269.373 88.16 269.559 88.36C269.759 88.5467 269.859 88.78 269.859 89.06C269.859 89.3267 269.759 89.56 269.559 89.76C269.373 89.96 269.139 90.06 268.859 90.06ZM269.599 91.98V102H268.119V91.98H269.599ZM280.563 100.94C280.003 101.353 279.417 101.667 278.803 101.88C278.203 102.08 277.543 102.18 276.823 102.18C276.103 102.18 275.423 102.047 274.783 101.78C274.157 101.513 273.61 101.147 273.143 100.68C272.69 100.213 272.33 99.6667 272.063 99.04C271.797 98.4 271.663 97.7133 271.663 96.98C271.663 96.26 271.79 95.5867 272.043 94.96C272.31 94.3333 272.663 93.7867 273.103 93.32C273.543 92.8533 274.063 92.4867 274.663 92.22C275.277 91.9533 275.923 91.82 276.603 91.82C277.27 91.82 277.89 91.9533 278.463 92.22C279.05 92.4867 279.55 92.8533 279.963 93.32C280.39 93.7867 280.723 94.3333 280.963 94.96C281.217 95.5867 281.343 96.26 281.343 96.98V97.44H273.123C273.23 98.4267 273.637 99.2467 274.343 99.9C275.05 100.553 275.897 100.88 276.883 100.88C277.403 100.88 277.91 100.8 278.403 100.64C278.897 100.48 279.31 100.253 279.643 99.96L280.563 100.94ZM276.563 93.12C275.697 93.12 274.943 93.4133 274.303 94C273.677 94.5867 273.297 95.34 273.163 96.26H279.863C279.73 95.38 279.35 94.64 278.723 94.04C278.11 93.4267 277.39 93.12 276.563 93.12ZM283.412 102V91.98H284.892V93.16C285.279 92.7067 285.739 92.3667 286.272 92.14C286.806 91.9 287.399 91.78 288.052 91.78C289.186 91.78 290.112 92.14 290.832 92.86C291.552 93.58 291.912 94.5133 291.912 95.66V102H290.452V95.96C290.452 95.08 290.199 94.38 289.692 93.86C289.186 93.34 288.506 93.08 287.652 93.08C287.052 93.08 286.512 93.2133 286.032 93.48C285.566 93.7467 285.186 94.1267 284.892 94.62V102H283.412ZM299.069 100.84C299.602 100.84 300.116 100.733 300.609 100.52C301.102 100.307 301.562 99.9933 301.989 99.58L302.909 100.58C302.376 101.087 301.776 101.48 301.109 101.76C300.442 102.04 299.749 102.18 299.029 102.18C298.322 102.18 297.656 102.047 297.029 101.78C296.402 101.513 295.862 101.147 295.409 100.68C294.956 100.213 294.596 99.66 294.329 99.02C294.062 98.38 293.929 97.7 293.929 96.98C293.929 96.26 294.062 95.5867 294.329 94.96C294.596 94.32 294.956 93.7667 295.409 93.3C295.862 92.8333 296.402 92.4667 297.029 92.2C297.656 91.92 298.322 91.78 299.029 91.78C299.749 91.78 300.449 91.92 301.129 92.2C301.822 92.48 302.429 92.8667 302.949 93.36L302.009 94.44C301.609 94.0267 301.149 93.7067 300.629 93.48C300.109 93.2533 299.582 93.14 299.049 93.14C298.542 93.14 298.062 93.24 297.609 93.44C297.156 93.64 296.762 93.9133 296.429 94.26C296.109 94.6067 295.856 95.0133 295.669 95.48C295.482 95.9467 295.389 96.4467 295.389 96.98C295.389 97.5267 295.482 98.04 295.669 98.52C295.869 98.9867 296.129 99.3933 296.449 99.74C296.782 100.073 297.176 100.34 297.629 100.54C298.082 100.74 298.562 100.84 299.069 100.84ZM312.692 100.94C312.132 101.353 311.546 101.667 310.932 101.88C310.332 102.08 309.672 102.18 308.952 102.18C308.232 102.18 307.552 102.047 306.912 101.78C306.286 101.513 305.739 101.147 305.272 100.68C304.819 100.213 304.459 99.6667 304.192 99.04C303.926 98.4 303.792 97.7133 303.792 96.98C303.792 96.26 303.919 95.5867 304.172 94.96C304.439 94.3333 304.792 93.7867 305.232 93.32C305.672 92.8533 306.192 92.4867 306.792 92.22C307.406 91.9533 308.052 91.82 308.732 91.82C309.399 91.82 310.019 91.9533 310.592 92.22C311.179 92.4867 311.679 92.8533 312.092 93.32C312.519 93.7867 312.852 94.3333 313.092 94.96C313.346 95.5867 313.472 96.26 313.472 96.98V97.44H305.252C305.359 98.4267 305.766 99.2467 306.472 99.9C307.179 100.553 308.026 100.88 309.012 100.88C309.532 100.88 310.039 100.8 310.532 100.64C311.026 100.48 311.439 100.253 311.772 99.96L312.692 100.94ZM308.692 93.12C307.826 93.12 307.072 93.4133 306.432 94C305.806 94.5867 305.426 95.34 305.292 96.26H311.992C311.859 95.38 311.479 94.64 310.852 94.04C310.239 93.4267 309.519 93.12 308.692 93.12ZM331.498 101.2L330.598 102.26C330.225 101.967 329.831 101.66 329.418 101.34C329.018 101.007 328.611 100.667 328.198 100.32C327.625 100.933 326.951 101.4 326.178 101.72C325.418 102.04 324.598 102.2 323.718 102.2C322.331 102.2 321.211 101.84 320.358 101.12C319.518 100.387 319.098 99.4267 319.098 98.24C319.098 97.44 319.305 96.74 319.718 96.14C320.145 95.54 320.845 94.9733 321.818 94.44L322.198 94.22C321.731 93.6333 321.398 93.1 321.198 92.62C321.011 92.1267 320.918 91.6133 320.918 91.08C320.918 90.1467 321.238 89.3667 321.878 88.74C322.531 88.1133 323.338 87.8 324.298 87.8C325.218 87.8 325.971 88.0733 326.558 88.62C327.158 89.1533 327.458 89.84 327.458 90.68C327.458 91.3333 327.271 91.92 326.898 92.44C326.538 92.96 325.978 93.4467 325.218 93.9L324.218 94.5C324.765 95.1133 325.365 95.7467 326.018 96.4C326.671 97.04 327.338 97.6667 328.018 98.28C328.351 97.7467 328.625 97.16 328.838 96.52C329.065 95.88 329.245 95.2133 329.378 94.52L330.738 94.74C330.565 95.5933 330.338 96.3933 330.058 97.14C329.778 97.8867 329.431 98.5667 329.018 99.18C329.445 99.5533 329.871 99.9133 330.298 100.26C330.725 100.593 331.125 100.907 331.498 101.2ZM322.318 91.06C322.318 91.4733 322.398 91.8733 322.558 92.26C322.731 92.6333 323.025 93.0733 323.438 93.58L324.578 92.92C325.071 92.6267 325.438 92.3 325.678 91.94C325.931 91.58 326.058 91.1733 326.058 90.72C326.058 90.2267 325.878 89.82 325.518 89.5C325.171 89.1667 324.751 89 324.258 89C323.698 89 323.231 89.1933 322.858 89.58C322.498 89.9533 322.318 90.4467 322.318 91.06ZM320.498 98.2C320.498 99.0267 320.798 99.6933 321.398 100.2C322.011 100.693 322.811 100.94 323.798 100.94C324.451 100.94 325.071 100.813 325.658 100.56C326.245 100.307 326.765 99.9333 327.218 99.44C326.458 98.7467 325.705 98.0333 324.958 97.3C324.225 96.5667 323.565 95.86 322.978 95.18L322.518 95.44C321.798 95.8533 321.278 96.2733 320.958 96.7C320.651 97.1267 320.498 97.6267 320.498 98.2ZM344.401 101L338.921 89.78V102H337.481V88H339.641L344.421 97.94L349.181 88H351.341V102H349.881V89.76L344.401 101ZM357.1 102.18C356.006 102.18 355.113 101.9 354.42 101.34C353.74 100.78 353.4 100.053 353.4 99.16C353.4 98.2267 353.76 97.4867 354.48 96.94C355.2 96.38 356.173 96.1 357.4 96.1C357.933 96.1 358.446 96.16 358.94 96.28C359.446 96.4 359.913 96.5667 360.34 96.78V95.46C360.34 94.66 360.113 94.06 359.66 93.66C359.206 93.2467 358.546 93.04 357.68 93.04C357.186 93.04 356.686 93.1133 356.18 93.26C355.686 93.3933 355.14 93.6133 354.54 93.92L353.98 92.78C354.7 92.4333 355.366 92.18 355.98 92.02C356.593 91.86 357.206 91.78 357.82 91.78C359.086 91.78 360.06 92.08 360.74 92.68C361.433 93.28 361.78 94.14 361.78 95.26V102H360.34V101.02C359.886 101.407 359.386 101.7 358.84 101.9C358.306 102.087 357.726 102.18 357.1 102.18ZM354.82 99.12C354.82 99.68 355.053 100.14 355.52 100.5C356 100.847 356.613 101.02 357.36 101.02C357.96 101.02 358.506 100.927 359 100.74C359.493 100.553 359.94 100.26 360.34 99.86V97.98C359.926 97.7 359.48 97.5 359 97.38C358.533 97.2467 358.013 97.18 357.44 97.18C356.64 97.18 356 97.36 355.52 97.72C355.053 98.0667 354.82 98.5333 354.82 99.12ZM365.102 99.76V93.24H362.942V91.98H365.102V89.44L366.562 89.06V91.98H369.582V93.24H366.562V99.38C366.562 99.9133 366.682 100.3 366.922 100.54C367.162 100.767 367.555 100.88 368.102 100.88C368.382 100.88 368.628 100.86 368.842 100.82C369.068 100.78 369.308 100.713 369.562 100.62V101.92C369.308 102.013 369.022 102.08 368.702 102.12C368.395 102.16 368.095 102.18 367.802 102.18C366.935 102.18 366.268 101.973 365.802 101.56C365.335 101.147 365.102 100.547 365.102 99.76ZM371.166 102V88L372.646 87.66V93.16C373.033 92.7067 373.493 92.3667 374.026 92.14C374.56 91.9 375.153 91.78 375.806 91.78C376.94 91.78 377.866 92.14 378.586 92.86C379.306 93.58 379.666 94.5133 379.666 95.66V102H378.206V95.96C378.206 95.08 377.953 94.38 377.446 93.86C376.94 93.34 376.26 93.08 375.406 93.08C374.806 93.08 374.266 93.2133 373.786 93.48C373.32 93.7467 372.94 94.1267 372.646 94.62V102H371.166ZM390.583 100.94C390.023 101.353 389.436 101.667 388.823 101.88C388.223 102.08 387.563 102.18 386.843 102.18C386.123 102.18 385.443 102.047 384.803 101.78C384.176 101.513 383.629 101.147 383.163 100.68C382.709 100.213 382.349 99.6667 382.083 99.04C381.816 98.4 381.683 97.7133 381.683 96.98C381.683 96.26 381.809 95.5867 382.063 94.96C382.329 94.3333 382.683 93.7867 383.123 93.32C383.563 92.8533 384.083 92.4867 384.683 92.22C385.296 91.9533 385.943 91.82 386.623 91.82C387.289 91.82 387.909 91.9533 388.483 92.22C389.069 92.4867 389.569 92.8533 389.983 93.32C390.409 93.7867 390.743 94.3333 390.983 94.96C391.236 95.5867 391.363 96.26 391.363 96.98V97.44H383.143C383.249 98.4267 383.656 99.2467 384.363 99.9C385.069 100.553 385.916 100.88 386.903 100.88C387.423 100.88 387.929 100.8 388.423 100.64C388.916 100.48 389.329 100.253 389.663 99.96L390.583 100.94ZM386.583 93.12C385.716 93.12 384.963 93.4133 384.323 94C383.696 94.5867 383.316 95.34 383.183 96.26H389.883C389.749 95.38 389.369 94.64 388.743 94.04C388.129 93.4267 387.409 93.12 386.583 93.12ZM393.432 102V91.98H394.912V93.08C395.285 92.6533 395.719 92.3333 396.212 92.12C396.705 91.8933 397.252 91.78 397.852 91.78C398.545 91.78 399.165 91.9467 399.712 92.28C400.272 92.6 400.705 93.04 401.012 93.6C401.425 92.9867 401.919 92.5333 402.492 92.24C403.079 91.9333 403.732 91.78 404.452 91.78C405.532 91.78 406.412 92.14 407.092 92.86C407.785 93.58 408.132 94.5133 408.132 95.66V102H406.672V95.96C406.672 95.08 406.439 94.38 405.972 93.86C405.505 93.34 404.872 93.08 404.072 93.08C403.525 93.08 403.025 93.22 402.572 93.5C402.119 93.78 401.732 94.1867 401.412 94.72C401.439 94.8667 401.459 95.02 401.472 95.18C401.499 95.3267 401.512 95.4867 401.512 95.66V102H400.052V95.96C400.052 95.08 399.819 94.38 399.352 93.86C398.885 93.34 398.259 93.08 397.472 93.08C396.939 93.08 396.452 93.2067 396.012 93.46C395.585 93.7 395.219 94.06 394.912 94.54V102H393.432ZM413.779 102.18C412.686 102.18 411.793 101.9 411.099 101.34C410.419 100.78 410.079 100.053 410.079 99.16C410.079 98.2267 410.439 97.4867 411.159 96.94C411.879 96.38 412.853 96.1 414.079 96.1C414.613 96.1 415.126 96.16 415.619 96.28C416.126 96.4 416.593 96.5667 417.019 96.78V95.46C417.019 94.66 416.793 94.06 416.339 93.66C415.886 93.2467 415.226 93.04 414.359 93.04C413.866 93.04 413.366 93.1133 412.859 93.26C412.366 93.3933 411.819 93.6133 411.219 93.92L410.659 92.78C411.379 92.4333 412.046 92.18 412.659 92.02C413.273 91.86 413.886 91.78 414.499 91.78C415.766 91.78 416.739 92.08 417.419 92.68C418.113 93.28 418.459 94.14 418.459 95.26V102H417.019V101.02C416.566 101.407 416.066 101.7 415.519 101.9C414.986 102.087 414.406 102.18 413.779 102.18ZM411.499 99.12C411.499 99.68 411.733 100.14 412.199 100.5C412.679 100.847 413.293 101.02 414.039 101.02C414.639 101.02 415.186 100.927 415.679 100.74C416.173 100.553 416.619 100.26 417.019 99.86V97.98C416.606 97.7 416.159 97.5 415.679 97.38C415.213 97.2467 414.693 97.18 414.119 97.18C413.319 97.18 412.679 97.36 412.199 97.72C411.733 98.0667 411.499 98.5333 411.499 99.12ZM421.781 99.76V93.24H419.621V91.98H421.781V89.44L423.241 89.06V91.98H426.261V93.24H423.241V99.38C423.241 99.9133 423.361 100.3 423.601 100.54C423.841 100.767 424.235 100.88 424.781 100.88C425.061 100.88 425.308 100.86 425.521 100.82C425.748 100.78 425.988 100.713 426.241 100.62V101.92C425.988 102.013 425.701 102.08 425.381 102.12C425.075 102.16 424.775 102.18 424.481 102.18C423.615 102.18 422.948 101.973 422.481 101.56C422.015 101.147 421.781 100.547 421.781 99.76ZM428.586 90.06C428.319 90.06 428.086 89.96 427.886 89.76C427.686 89.56 427.586 89.3267 427.586 89.06C427.586 88.78 427.686 88.5467 427.886 88.36C428.086 88.16 428.319 88.06 428.586 88.06C428.866 88.06 429.099 88.16 429.286 88.36C429.486 88.5467 429.586 88.78 429.586 89.06C429.586 89.3267 429.486 89.56 429.286 89.76C429.099 89.96 428.866 90.06 428.586 90.06ZM429.326 91.98V102H427.846V91.98H429.326ZM436.53 100.84C437.063 100.84 437.577 100.733 438.07 100.52C438.563 100.307 439.023 99.9933 439.45 99.58L440.37 100.58C439.837 101.087 439.237 101.48 438.57 101.76C437.903 102.04 437.21 102.18 436.49 102.18C435.783 102.18 435.117 102.047 434.49 101.78C433.863 101.513 433.323 101.147 432.87 100.68C432.417 100.213 432.057 99.66 431.79 99.02C431.523 98.38 431.39 97.7 431.39 96.98C431.39 96.26 431.523 95.5867 431.79 94.96C432.057 94.32 432.417 93.7667 432.87 93.3C433.323 92.8333 433.863 92.4667 434.49 92.2C435.117 91.92 435.783 91.78 436.49 91.78C437.21 91.78 437.91 91.92 438.59 92.2C439.283 92.48 439.89 92.8667 440.41 93.36L439.47 94.44C439.07 94.0267 438.61 93.7067 438.09 93.48C437.57 93.2533 437.043 93.14 436.51 93.14C436.003 93.14 435.523 93.24 435.07 93.44C434.617 93.64 434.223 93.9133 433.89 94.26C433.57 94.6067 433.317 95.0133 433.13 95.48C432.943 95.9467 432.85 96.4467 432.85 96.98C432.85 97.5267 432.943 98.04 433.13 98.52C433.33 98.9867 433.59 99.3933 433.91 99.74C434.243 100.073 434.637 100.34 435.09 100.54C435.543 100.74 436.023 100.84 436.53 100.84ZM441.181 100.62L442.081 99.66C442.535 100.087 443.041 100.42 443.601 100.66C444.175 100.887 444.755 101 445.341 101C446.141 101 446.795 100.833 447.301 100.5C447.808 100.167 448.061 99.7333 448.061 99.2C448.061 98.7733 447.908 98.44 447.601 98.2C447.308 97.9467 446.841 97.7733 446.201 97.68L444.461 97.44C443.461 97.2933 442.715 97 442.221 96.56C441.741 96.1067 441.501 95.5 441.501 94.74C441.501 93.9 441.855 93.2067 442.561 92.66C443.268 92.1 444.168 91.82 445.261 91.82C445.981 91.82 446.661 91.9267 447.301 92.14C447.955 92.3533 448.588 92.6867 449.201 93.14L448.421 94.14C447.861 93.7667 447.315 93.4867 446.781 93.3C446.261 93.1133 445.728 93.02 445.181 93.02C444.501 93.02 443.941 93.1733 443.501 93.48C443.075 93.7867 442.861 94.1867 442.861 94.68C442.861 95.1067 443.008 95.44 443.301 95.68C443.595 95.9067 444.068 96.0667 444.721 96.16L446.461 96.4C447.461 96.5333 448.208 96.8333 448.701 97.3C449.208 97.7533 449.461 98.36 449.461 99.12C449.461 99.5467 449.355 99.9533 449.141 100.34C448.941 100.713 448.655 101.04 448.281 101.32C447.921 101.587 447.495 101.8 447.001 101.96C446.508 102.107 445.975 102.18 445.401 102.18C444.575 102.18 443.795 102.047 443.061 101.78C442.341 101.5 441.715 101.113 441.181 100.62Z" fill="black"/>
</svg>
