<svg width="527" height="176" viewBox="0 0 527 176" fill="none" xmlns="http://www.w3.org/2000/svg">
<path d="M144.868 32.536C146.188 32.536 147.424 32.26 148.576 31.708C149.728 31.156 150.748 30.364 151.636 29.332L155.056 32.716C153.856 34.132 152.32 35.26 150.448 36.1C148.6 36.94 146.692 37.36 144.724 37.36C142.828 37.36 141.052 37.024 139.396 36.352C137.764 35.68 136.348 34.768 135.148 33.616C133.948 32.464 133 31.096 132.304 29.512C131.632 27.928 131.296 26.224 131.296 24.4C131.296 22.576 131.644 20.872 132.34 19.288C133.036 17.68 133.984 16.3 135.184 15.148C136.384 13.996 137.8 13.084 139.432 12.412C141.088 11.74 142.852 11.404 144.724 11.404C146.74 11.404 148.696 11.836 150.592 12.7C152.488 13.54 154.024 14.68 155.2 16.12L151.672 19.612C150.784 18.508 149.74 17.668 148.54 17.092C147.34 16.492 146.068 16.192 144.724 16.192C143.596 16.192 142.528 16.408 141.52 16.84C140.536 17.248 139.684 17.824 138.964 18.568C138.244 19.288 137.68 20.152 137.272 21.16C136.864 22.144 136.66 23.224 136.66 24.4C136.66 25.552 136.864 26.632 137.272 27.64C137.704 28.624 138.28 29.476 139 30.196C139.744 30.916 140.608 31.492 141.592 31.924C142.6 32.332 143.692 32.536 144.868 32.536ZM156.217 27.64C156.217 26.272 156.469 25 156.973 23.824C157.501 22.624 158.209 21.592 159.097 20.728C160.009 19.84 161.077 19.144 162.301 18.64C163.525 18.136 164.833 17.884 166.225 17.884C167.617 17.884 168.925 18.136 170.149 18.64C171.373 19.144 172.429 19.84 173.317 20.728C174.229 21.592 174.937 22.624 175.441 23.824C175.969 25 176.233 26.272 176.233 27.64C176.233 29.008 175.969 30.292 175.441 31.492C174.937 32.668 174.229 33.688 173.317 34.552C172.429 35.416 171.373 36.1 170.149 36.604C168.925 37.108 167.617 37.36 166.225 37.36C164.833 37.36 163.525 37.108 162.301 36.604C161.077 36.1 160.009 35.416 159.097 34.552C158.209 33.688 157.501 32.668 156.973 31.492C156.469 30.292 156.217 29.008 156.217 27.64ZM166.225 33.076C167.665 33.076 168.889 32.548 169.897 31.492C170.905 30.436 171.409 29.152 171.409 27.64C171.409 26.104 170.905 24.808 169.897 23.752C168.889 22.696 167.665 22.168 166.225 22.168C164.785 22.168 163.561 22.696 162.553 23.752C161.545 24.808 161.041 26.104 161.041 27.64C161.041 29.152 161.545 30.436 162.553 31.492C163.561 32.548 164.785 33.076 166.225 33.076ZM179.264 37V18.244H184.196V19.72C184.916 19.12 185.708 18.664 186.572 18.352C187.46 18.04 188.42 17.884 189.452 17.884C191.612 17.884 193.388 18.58 194.78 19.972C196.172 21.364 196.868 23.152 196.868 25.336V37H191.936V26.056C191.936 24.88 191.576 23.932 190.856 23.212C190.16 22.492 189.224 22.132 188.048 22.132C187.232 22.132 186.488 22.3 185.816 22.636C185.168 22.948 184.628 23.404 184.196 24.004V37H179.264ZM202.457 31.708V22.384H198.605V18.244H202.457V13.456L207.389 12.34V18.244H212.717V22.384H207.389V30.7C207.389 31.588 207.581 32.212 207.965 32.572C208.349 32.932 209.021 33.112 209.981 33.112C210.437 33.112 210.869 33.088 211.277 33.04C211.685 32.968 212.129 32.848 212.609 32.68V36.712C212.081 36.88 211.445 37.012 210.701 37.108C209.957 37.228 209.321 37.288 208.793 37.288C206.705 37.288 205.121 36.82 204.041 35.884C202.985 34.924 202.457 33.532 202.457 31.708ZM221.099 37.324C219.083 37.324 217.439 36.796 216.167 35.74C214.895 34.66 214.259 33.268 214.259 31.564C214.259 29.788 214.943 28.396 216.311 27.388C217.679 26.38 219.563 25.876 221.963 25.876C222.731 25.876 223.499 25.936 224.267 26.056C225.035 26.176 225.791 26.356 226.535 26.596V25.264C226.535 24.184 226.199 23.368 225.527 22.816C224.855 22.264 223.871 21.988 222.575 21.988C221.783 21.988 220.919 22.12 219.983 22.384C219.071 22.624 218.027 23.008 216.851 23.536L215.051 19.9C216.515 19.228 217.931 18.724 219.299 18.388C220.691 18.052 222.059 17.884 223.403 17.884C225.923 17.884 227.879 18.496 229.271 19.72C230.687 20.92 231.395 22.624 231.395 24.832V37H226.535V35.704C225.743 36.256 224.903 36.664 224.015 36.928C223.151 37.192 222.179 37.324 221.099 37.324ZM218.975 31.456C218.975 32.176 219.287 32.752 219.911 33.184C220.535 33.592 221.363 33.796 222.395 33.796C223.211 33.796 223.955 33.7 224.627 33.508C225.323 33.292 225.959 32.992 226.535 32.608V29.8C225.935 29.56 225.299 29.392 224.627 29.296C223.979 29.176 223.295 29.116 222.575 29.116C221.447 29.116 220.559 29.332 219.911 29.764C219.287 30.172 218.975 30.736 218.975 31.456ZM244.308 33.04C245.148 33.04 245.928 32.872 246.648 32.536C247.392 32.2 248.1 31.672 248.772 30.952L251.724 34.012C250.764 35.068 249.612 35.896 248.268 36.496C246.924 37.072 245.532 37.36 244.092 37.36C242.724 37.36 241.428 37.108 240.204 36.604C239.004 36.1 237.96 35.416 237.072 34.552C236.208 33.688 235.524 32.668 235.02 31.492C234.516 30.292 234.264 29.008 234.264 27.64C234.264 26.272 234.516 25 235.02 23.824C235.524 22.624 236.208 21.592 237.072 20.728C237.96 19.84 239.004 19.144 240.204 18.64C241.428 18.136 242.724 17.884 244.092 17.884C245.58 17.884 247.008 18.184 248.376 18.784C249.744 19.36 250.908 20.176 251.868 21.232L248.844 24.436C248.172 23.692 247.452 23.128 246.684 22.744C245.916 22.36 245.088 22.168 244.2 22.168C242.784 22.168 241.584 22.696 240.6 23.752C239.64 24.808 239.16 26.104 239.16 27.64C239.16 29.176 239.652 30.46 240.636 31.492C241.644 32.524 242.868 33.04 244.308 33.04ZM257.195 31.708V22.384H253.343V18.244H257.195V13.456L262.127 12.34V18.244H267.455V22.384H262.127V30.7C262.127 31.588 262.319 32.212 262.703 32.572C263.087 32.932 263.759 33.112 264.719 33.112C265.175 33.112 265.607 33.088 266.015 33.04C266.423 32.968 266.867 32.848 267.347 32.68V36.712C266.819 36.88 266.183 37.012 265.439 37.108C264.695 37.228 264.059 37.288 263.531 37.288C261.443 37.288 259.859 36.82 258.779 35.884C257.723 34.924 257.195 33.532 257.195 31.708ZM277.463 37V11.8H287.147C289.019 11.8 290.771 12.124 292.403 12.772C294.035 13.42 295.439 14.308 296.615 15.436C297.815 16.564 298.751 17.908 299.423 19.468C300.119 21.028 300.467 22.696 300.467 24.472C300.467 26.224 300.119 27.868 299.423 29.404C298.751 30.94 297.815 32.272 296.615 33.4C295.439 34.504 294.035 35.38 292.403 36.028C290.771 36.676 289.019 37 287.147 37H277.463ZM287.111 16.444H282.683V32.356H287.111C288.215 32.356 289.247 32.152 290.207 31.744C291.191 31.336 292.043 30.784 292.763 30.088C293.483 29.368 294.047 28.528 294.455 27.568C294.863 26.608 295.067 25.576 295.067 24.472C295.067 23.344 294.863 22.288 294.455 21.304C294.047 20.32 293.483 19.468 292.763 18.748C292.043 18.028 291.191 17.464 290.207 17.056C289.247 16.648 288.215 16.444 287.111 16.444ZM320.529 34.66C319.377 35.596 318.189 36.28 316.965 36.712C315.765 37.144 314.421 37.36 312.933 37.36C311.517 37.36 310.185 37.108 308.937 36.604C307.713 36.1 306.645 35.416 305.733 34.552C304.845 33.688 304.137 32.668 303.609 31.492C303.105 30.292 302.853 29.008 302.853 27.64C302.853 26.296 303.093 25.036 303.573 23.86C304.077 22.66 304.761 21.628 305.625 20.764C306.489 19.876 307.509 19.18 308.685 18.676C309.885 18.172 311.157 17.92 312.501 17.92C313.821 17.92 315.045 18.184 316.173 18.712C317.325 19.216 318.309 19.912 319.125 20.8C319.965 21.688 320.613 22.756 321.069 24.004C321.549 25.228 321.789 26.56 321.789 28V29.296H307.821C308.157 30.472 308.805 31.42 309.765 32.14C310.725 32.86 311.853 33.22 313.149 33.22C313.965 33.22 314.733 33.088 315.453 32.824C316.173 32.56 316.785 32.188 317.289 31.708L320.529 34.66ZM312.393 21.988C311.265 21.988 310.293 22.336 309.477 23.032C308.661 23.704 308.097 24.616 307.785 25.768H316.965C316.653 24.664 316.077 23.764 315.237 23.068C314.421 22.348 313.473 21.988 312.393 21.988ZM326.664 31.708V22.384H322.812V18.244H326.664V13.456L331.596 12.34V18.244H336.924V22.384H331.596V30.7C331.596 31.588 331.788 32.212 332.172 32.572C332.556 32.932 333.228 33.112 334.188 33.112C334.644 33.112 335.076 33.088 335.484 33.04C335.892 32.968 336.336 32.848 336.816 32.68V36.712C336.288 36.88 335.652 37.012 334.908 37.108C334.164 37.228 333.528 37.288 333 37.288C330.912 37.288 329.328 36.82 328.248 35.884C327.192 34.924 326.664 33.532 326.664 31.708ZM345.306 37.324C343.29 37.324 341.646 36.796 340.374 35.74C339.102 34.66 338.466 33.268 338.466 31.564C338.466 29.788 339.15 28.396 340.518 27.388C341.886 26.38 343.77 25.876 346.17 25.876C346.938 25.876 347.706 25.936 348.474 26.056C349.242 26.176 349.998 26.356 350.742 26.596V25.264C350.742 24.184 350.406 23.368 349.734 22.816C349.062 22.264 348.078 21.988 346.782 21.988C345.99 21.988 345.126 22.12 344.19 22.384C343.278 22.624 342.234 23.008 341.058 23.536L339.258 19.9C340.722 19.228 342.138 18.724 343.506 18.388C344.898 18.052 346.266 17.884 347.61 17.884C350.13 17.884 352.086 18.496 353.478 19.72C354.894 20.92 355.602 22.624 355.602 24.832V37H350.742V35.704C349.95 36.256 349.11 36.664 348.222 36.928C347.358 37.192 346.386 37.324 345.306 37.324ZM343.182 31.456C343.182 32.176 343.494 32.752 344.118 33.184C344.742 33.592 345.57 33.796 346.602 33.796C347.418 33.796 348.162 33.7 348.834 33.508C349.53 33.292 350.166 32.992 350.742 32.608V29.8C350.142 29.56 349.506 29.392 348.834 29.296C348.186 29.176 347.502 29.116 346.782 29.116C345.654 29.116 344.766 29.332 344.118 29.764C343.494 30.172 343.182 30.736 343.182 31.456ZM361.783 16.012C361.015 16.012 360.355 15.736 359.803 15.184C359.251 14.632 358.975 13.972 358.975 13.204C358.975 12.436 359.251 11.776 359.803 11.224C360.355 10.672 361.015 10.396 361.783 10.396C362.551 10.396 363.211 10.672 363.763 11.224C364.315 11.776 364.591 12.436 364.591 13.204C364.591 13.972 364.315 14.632 363.763 15.184C363.211 15.736 362.551 16.012 361.783 16.012ZM364.267 18.244V37H359.335V18.244H364.267ZM373.056 10.72V37H368.124V11.8L373.056 10.72ZM375.329 34.768L377.777 31.492C378.881 32.212 379.925 32.752 380.909 33.112C381.893 33.448 382.877 33.616 383.861 33.616C384.965 33.616 385.841 33.436 386.489 33.076C387.161 32.716 387.497 32.236 387.497 31.636C387.497 31.156 387.305 30.772 386.921 30.484C386.561 30.196 385.973 29.992 385.157 29.872L381.557 29.332C379.709 29.044 378.293 28.444 377.309 27.532C376.349 26.62 375.869 25.408 375.869 23.896C375.869 22.096 376.577 20.656 377.993 19.576C379.409 18.496 381.305 17.956 383.681 17.956C385.049 17.956 386.381 18.16 387.677 18.568C388.973 18.952 390.209 19.528 391.385 20.296L389.009 23.464C387.977 22.864 386.993 22.42 386.057 22.132C385.121 21.82 384.173 21.664 383.213 21.664C382.325 21.664 381.605 21.832 381.053 22.168C380.525 22.504 380.261 22.948 380.261 23.5C380.261 24.004 380.453 24.4 380.837 24.688C381.245 24.952 381.905 25.144 382.817 25.264L386.417 25.804C388.241 26.068 389.645 26.668 390.629 27.604C391.637 28.54 392.141 29.728 392.141 31.168C392.141 32.056 391.925 32.884 391.493 33.652C391.085 34.396 390.521 35.044 389.801 35.596C389.081 36.148 388.217 36.58 387.209 36.892C386.201 37.204 385.109 37.36 383.933 37.36C382.229 37.36 380.633 37.144 379.145 36.712C377.657 36.256 376.385 35.608 375.329 34.768Z" fill="black"/>
<path d="M39.9226 92H38.3626L35.3426 78H36.9026L39.2826 89.56L42.7426 78H44.2426L47.7026 89.52L50.1026 78H51.6026L48.5826 92H47.0226L43.4826 80.14L39.9226 92ZM61.0613 90.94C60.5013 91.3533 59.9147 91.6667 59.3013 91.88C58.7013 92.08 58.0413 92.18 57.3213 92.18C56.6013 92.18 55.9213 92.0467 55.2813 91.78C54.6547 91.5133 54.108 91.1467 53.6413 90.68C53.188 90.2133 52.828 89.6667 52.5613 89.04C52.2947 88.4 52.1613 87.7133 52.1613 86.98C52.1613 86.26 52.288 85.5867 52.5413 84.96C52.808 84.3333 53.1613 83.7867 53.6013 83.32C54.0413 82.8533 54.5613 82.4867 55.1613 82.22C55.7747 81.9533 56.4213 81.82 57.1013 81.82C57.768 81.82 58.388 81.9533 58.9613 82.22C59.548 82.4867 60.048 82.8533 60.4613 83.32C60.888 83.7867 61.2213 84.3333 61.4613 84.96C61.7147 85.5867 61.8413 86.26 61.8413 86.98V87.44H53.6213C53.728 88.4267 54.1347 89.2467 54.8413 89.9C55.548 90.5533 56.3947 90.88 57.3813 90.88C57.9013 90.88 58.408 90.8 58.9013 90.64C59.3947 90.48 59.808 90.2533 60.1413 89.96L61.0613 90.94ZM57.0613 83.12C56.1947 83.12 55.4413 83.4133 54.8013 84C54.1747 84.5867 53.7947 85.34 53.6613 86.26H60.3613C60.228 85.38 59.848 84.64 59.2213 84.04C58.608 83.4267 57.888 83.12 57.0613 83.12ZM71.3673 92.18C70.2739 92.18 69.3806 91.9 68.6873 91.34C68.0073 90.78 67.6673 90.0533 67.6673 89.16C67.6673 88.2267 68.0273 87.4867 68.7473 86.94C69.4673 86.38 70.4406 86.1 71.6673 86.1C72.2006 86.1 72.7139 86.16 73.2073 86.28C73.7139 86.4 74.1806 86.5667 74.6073 86.78V85.46C74.6073 84.66 74.3806 84.06 73.9273 83.66C73.4739 83.2467 72.8139 83.04 71.9473 83.04C71.4539 83.04 70.9539 83.1133 70.4473 83.26C69.9539 83.3933 69.4073 83.6133 68.8073 83.92L68.2473 82.78C68.9673 82.4333 69.6339 82.18 70.2473 82.02C70.8606 81.86 71.4739 81.78 72.0873 81.78C73.3539 81.78 74.3273 82.08 75.0073 82.68C75.7006 83.28 76.0473 84.14 76.0473 85.26V92H74.6073V91.02C74.1539 91.4067 73.6539 91.7 73.1073 91.9C72.5739 92.0867 71.9939 92.18 71.3673 92.18ZM69.0873 89.12C69.0873 89.68 69.3206 90.14 69.7873 90.5C70.2673 90.8467 70.8806 91.02 71.6273 91.02C72.2273 91.02 72.7739 90.9267 73.2673 90.74C73.7606 90.5533 74.2073 90.26 74.6073 89.86V87.98C74.1939 87.7 73.7473 87.5 73.2673 87.38C72.8006 87.2467 72.2806 87.18 71.7073 87.18C70.9073 87.18 70.2673 87.36 69.7873 87.72C69.3206 88.0667 69.0873 88.5333 69.0873 89.12ZM78.5198 92V81.98H79.9998V83.4C80.2931 82.88 80.6798 82.48 81.1598 82.2C81.6398 81.9067 82.1864 81.76 82.7998 81.76C82.9864 81.76 83.1531 81.7733 83.2998 81.8C83.4464 81.8133 83.5931 81.8467 83.7398 81.9V83.26C83.5664 83.2067 83.3931 83.1667 83.2198 83.14C83.0464 83.1 82.8731 83.08 82.6998 83.08C82.0864 83.08 81.5464 83.26 81.0798 83.62C80.6131 83.9667 80.2531 84.4733 79.9998 85.14V92H78.5198ZM93.1512 90.94C92.5912 91.3533 92.0045 91.6667 91.3912 91.88C90.7912 92.08 90.1312 92.18 89.4112 92.18C88.6912 92.18 88.0112 92.0467 87.3712 91.78C86.7445 91.5133 86.1978 91.1467 85.7312 90.68C85.2778 90.2133 84.9178 89.6667 84.6512 89.04C84.3845 88.4 84.2512 87.7133 84.2512 86.98C84.2512 86.26 84.3778 85.5867 84.6312 84.96C84.8978 84.3333 85.2512 83.7867 85.6912 83.32C86.1312 82.8533 86.6512 82.4867 87.2512 82.22C87.8645 81.9533 88.5112 81.82 89.1912 81.82C89.8578 81.82 90.4778 81.9533 91.0512 82.22C91.6378 82.4867 92.1378 82.8533 92.5512 83.32C92.9778 83.7867 93.3112 84.3333 93.5512 84.96C93.8045 85.5867 93.9312 86.26 93.9312 86.98V87.44H85.7112C85.8178 88.4267 86.2245 89.2467 86.9312 89.9C87.6378 90.5533 88.4845 90.88 89.4712 90.88C89.9912 90.88 90.4978 90.8 90.9912 90.64C91.4845 90.48 91.8978 90.2533 92.2312 89.96L93.1512 90.94ZM89.1512 83.12C88.2845 83.12 87.5312 83.4133 86.8912 84C86.2645 84.5867 85.8845 85.34 85.7512 86.26H92.4512C92.3178 85.38 91.9378 84.64 91.3112 84.04C90.6978 83.4267 89.9778 83.12 89.1512 83.12ZM103.457 92.18C102.364 92.18 101.47 91.9 100.777 91.34C100.097 90.78 99.7571 90.0533 99.7571 89.16C99.7571 88.2267 100.117 87.4867 100.837 86.94C101.557 86.38 102.53 86.1 103.757 86.1C104.29 86.1 104.804 86.16 105.297 86.28C105.804 86.4 106.27 86.5667 106.697 86.78V85.46C106.697 84.66 106.47 84.06 106.017 83.66C105.564 83.2467 104.904 83.04 104.037 83.04C103.544 83.04 103.044 83.1133 102.537 83.26C102.044 83.3933 101.497 83.6133 100.897 83.92L100.337 82.78C101.057 82.4333 101.724 82.18 102.337 82.02C102.95 81.86 103.564 81.78 104.177 81.78C105.444 81.78 106.417 82.08 107.097 82.68C107.79 83.28 108.137 84.14 108.137 85.26V92H106.697V91.02C106.244 91.4067 105.744 91.7 105.197 91.9C104.664 92.0867 104.084 92.18 103.457 92.18ZM101.177 89.12C101.177 89.68 101.41 90.14 101.877 90.5C102.357 90.8467 102.97 91.02 103.717 91.02C104.317 91.02 104.864 90.9267 105.357 90.74C105.85 90.5533 106.297 90.26 106.697 89.86V87.98C106.284 87.7 105.837 87.5 105.357 87.38C104.89 87.2467 104.37 87.18 103.797 87.18C102.997 87.18 102.357 87.36 101.877 87.72C101.41 88.0667 101.177 88.5333 101.177 89.12ZM113.262 92L108.922 81.98H110.562L113.982 90.08L117.402 81.98H118.982L114.662 92H113.262ZM123.496 92.18C122.403 92.18 121.51 91.9 120.816 91.34C120.136 90.78 119.796 90.0533 119.796 89.16C119.796 88.2267 120.156 87.4867 120.876 86.94C121.596 86.38 122.57 86.1 123.796 86.1C124.33 86.1 124.843 86.16 125.336 86.28C125.843 86.4 126.31 86.5667 126.736 86.78V85.46C126.736 84.66 126.51 84.06 126.056 83.66C125.603 83.2467 124.943 83.04 124.076 83.04C123.583 83.04 123.083 83.1133 122.576 83.26C122.083 83.3933 121.536 83.6133 120.936 83.92L120.376 82.78C121.096 82.4333 121.763 82.18 122.376 82.02C122.99 81.86 123.603 81.78 124.216 81.78C125.483 81.78 126.456 82.08 127.136 82.68C127.83 83.28 128.176 84.14 128.176 85.26V92H126.736V91.02C126.283 91.4067 125.783 91.7 125.236 91.9C124.703 92.0867 124.123 92.18 123.496 92.18ZM121.216 89.12C121.216 89.68 121.45 90.14 121.916 90.5C122.396 90.8467 123.01 91.02 123.756 91.02C124.356 91.02 124.903 90.9267 125.396 90.74C125.89 90.5533 126.336 90.26 126.736 89.86V87.98C126.323 87.7 125.876 87.5 125.396 87.38C124.93 87.2467 124.41 87.18 123.836 87.18C123.036 87.18 122.396 87.36 121.916 87.72C121.45 88.0667 121.216 88.5333 121.216 89.12ZM131.389 80.06C131.122 80.06 130.889 79.96 130.689 79.76C130.489 79.56 130.389 79.3267 130.389 79.06C130.389 78.78 130.489 78.5467 130.689 78.36C130.889 78.16 131.122 78.06 131.389 78.06C131.669 78.06 131.902 78.16 132.089 78.36C132.289 78.5467 132.389 78.78 132.389 79.06C132.389 79.3267 132.289 79.56 132.089 79.76C131.902 79.96 131.669 80.06 131.389 80.06ZM132.129 81.98V92H130.649V81.98H132.129ZM136.133 77.66V92H134.653V78L136.133 77.66ZM141.816 92.18C140.723 92.18 139.83 91.9 139.136 91.34C138.456 90.78 138.116 90.0533 138.116 89.16C138.116 88.2267 138.476 87.4867 139.196 86.94C139.916 86.38 140.89 86.1 142.116 86.1C142.65 86.1 143.163 86.16 143.656 86.28C144.163 86.4 144.63 86.5667 145.056 86.78V85.46C145.056 84.66 144.83 84.06 144.376 83.66C143.923 83.2467 143.263 83.04 142.396 83.04C141.903 83.04 141.403 83.1133 140.896 83.26C140.403 83.3933 139.856 83.6133 139.256 83.92L138.696 82.78C139.416 82.4333 140.083 82.18 140.696 82.02C141.31 81.86 141.923 81.78 142.536 81.78C143.803 81.78 144.776 82.08 145.456 82.68C146.15 83.28 146.496 84.14 146.496 85.26V92H145.056V91.02C144.603 91.4067 144.103 91.7 143.556 91.9C143.023 92.0867 142.443 92.18 141.816 92.18ZM139.536 89.12C139.536 89.68 139.77 90.14 140.236 90.5C140.716 90.8467 141.33 91.02 142.076 91.02C142.676 91.02 143.223 90.9267 143.716 90.74C144.21 90.5533 144.656 90.26 145.056 89.86V87.98C144.643 87.7 144.196 87.5 143.716 87.38C143.25 87.2467 142.73 87.18 142.156 87.18C141.356 87.18 140.716 87.36 140.236 87.72C139.77 88.0667 139.536 88.5333 139.536 89.12ZM158.709 86.98C158.709 87.7 158.576 88.38 158.309 89.02C158.056 89.66 157.702 90.2133 157.249 90.68C156.796 91.1333 156.256 91.4933 155.629 91.76C155.016 92.0267 154.356 92.16 153.649 92.16C153.062 92.16 152.489 92.06 151.929 91.86C151.382 91.66 150.882 91.3733 150.429 91V92H148.969V78L150.449 77.66V83.04C150.862 82.64 151.342 82.34 151.889 82.14C152.449 81.9267 153.042 81.82 153.669 81.82C154.376 81.82 155.036 81.9533 155.649 82.22C156.262 82.4867 156.796 82.8533 157.249 83.32C157.702 83.7733 158.056 84.32 158.309 84.96C158.576 85.5867 158.709 86.26 158.709 86.98ZM153.529 83.12C152.902 83.12 152.316 83.2467 151.769 83.5C151.236 83.74 150.796 84.08 150.449 84.52V89.48C150.796 89.9067 151.242 90.2467 151.789 90.5C152.336 90.74 152.916 90.86 153.529 90.86C154.582 90.86 155.462 90.4933 156.169 89.76C156.889 89.0133 157.249 88.0933 157.249 87C157.249 86.4533 157.149 85.9467 156.949 85.48C156.762 85 156.502 84.5867 156.169 84.24C155.836 83.8933 155.442 83.62 154.989 83.42C154.536 83.22 154.049 83.12 153.529 83.12ZM162.246 77.66V92H160.766V78L162.246 77.66ZM173.21 90.94C172.65 91.3533 172.063 91.6667 171.45 91.88C170.85 92.08 170.19 92.18 169.47 92.18C168.75 92.18 168.07 92.0467 167.43 91.78C166.803 91.5133 166.256 91.1467 165.79 90.68C165.336 90.2133 164.976 89.6667 164.71 89.04C164.443 88.4 164.31 87.7133 164.31 86.98C164.31 86.26 164.436 85.5867 164.69 84.96C164.956 84.3333 165.31 83.7867 165.75 83.32C166.19 82.8533 166.71 82.4867 167.31 82.22C167.923 81.9533 168.57 81.82 169.25 81.82C169.916 81.82 170.536 81.9533 171.11 82.22C171.696 82.4867 172.196 82.8533 172.61 83.32C173.036 83.7867 173.37 84.3333 173.61 84.96C173.863 85.5867 173.99 86.26 173.99 86.98V87.44H165.77C165.876 88.4267 166.283 89.2467 166.99 89.9C167.696 90.5533 168.543 90.88 169.53 90.88C170.05 90.88 170.556 90.8 171.05 90.64C171.543 90.48 171.956 90.2533 172.29 89.96L173.21 90.94ZM169.21 83.12C168.343 83.12 167.59 83.4133 166.95 84C166.323 84.5867 165.943 85.34 165.81 86.26H172.51C172.376 85.38 171.996 84.64 171.37 84.04C170.756 83.4267 170.036 83.12 169.21 83.12ZM179.436 81.98H181.796V80.08C181.796 79.1067 182.062 78.36 182.596 77.84C183.129 77.3067 183.896 77.04 184.896 77.04C185.162 77.04 185.402 77.0533 185.616 77.08C185.829 77.1067 186.036 77.1533 186.236 77.22V78.54C186.009 78.4733 185.802 78.4267 185.616 78.4C185.429 78.36 185.222 78.34 184.996 78.34C184.409 78.34 183.969 78.4867 183.676 78.78C183.396 79.06 183.256 79.5067 183.256 80.12V81.98H186.236V83.24H183.256V92H181.796V83.24H179.436V81.98ZM186.849 86.98C186.849 86.26 186.982 85.58 187.249 84.94C187.515 84.3 187.875 83.7467 188.329 83.28C188.795 82.8133 189.342 82.4467 189.969 82.18C190.595 81.9133 191.262 81.78 191.969 81.78C192.675 81.78 193.335 81.9133 193.949 82.18C194.575 82.4467 195.115 82.8133 195.569 83.28C196.035 83.7467 196.402 84.3 196.669 84.94C196.935 85.58 197.069 86.26 197.069 86.98C197.069 87.7133 196.935 88.4 196.669 89.04C196.402 89.68 196.035 90.2333 195.569 90.7C195.115 91.1667 194.575 91.5333 193.949 91.8C193.335 92.0667 192.675 92.2 191.969 92.2C191.262 92.2 190.595 92.0667 189.969 91.8C189.342 91.5333 188.795 91.1667 188.329 90.7C187.875 90.2333 187.515 89.68 187.249 89.04C186.982 88.4 186.849 87.7133 186.849 86.98ZM191.969 90.88C192.475 90.88 192.949 90.78 193.389 90.58C193.842 90.38 194.229 90.1067 194.549 89.76C194.882 89.4 195.142 88.9867 195.329 88.52C195.515 88.04 195.609 87.5267 195.609 86.98C195.609 86.4333 195.515 85.9267 195.329 85.46C195.142 84.98 194.882 84.5667 194.549 84.22C194.229 83.8733 193.842 83.6 193.389 83.4C192.949 83.2 192.475 83.1 191.969 83.1C191.462 83.1 190.982 83.2 190.529 83.4C190.089 83.6 189.702 83.8733 189.369 84.22C189.049 84.5667 188.789 84.98 188.589 85.46C188.402 85.9267 188.309 86.4333 188.309 86.98C188.309 87.5267 188.402 88.04 188.589 88.52C188.775 88.9867 189.029 89.4 189.349 89.76C189.682 90.1067 190.075 90.38 190.529 90.58C190.982 90.78 191.462 90.88 191.969 90.88ZM199.125 92V81.98H200.605V83.4C200.899 82.88 201.285 82.48 201.765 82.2C202.245 81.9067 202.792 81.76 203.405 81.76C203.592 81.76 203.759 81.7733 203.905 81.8C204.052 81.8133 204.199 81.8467 204.345 81.9V83.26C204.172 83.2067 203.999 83.1667 203.825 83.14C203.652 83.1 203.479 83.08 203.305 83.08C202.692 83.08 202.152 83.26 201.685 83.62C201.219 83.9667 200.859 84.4733 200.605 85.14V92H199.125ZM220.076 86.98C220.076 87.7 219.943 88.38 219.676 89.02C219.423 89.66 219.07 90.2133 218.616 90.68C218.163 91.1333 217.623 91.4933 216.996 91.76C216.383 92.0267 215.723 92.16 215.016 92.16C214.43 92.16 213.856 92.06 213.296 91.86C212.75 91.66 212.25 91.3733 211.796 91V92H210.336V78L211.816 77.66V83.04C212.23 82.64 212.71 82.34 213.256 82.14C213.816 81.9267 214.41 81.82 215.036 81.82C215.743 81.82 216.403 81.9533 217.016 82.22C217.63 82.4867 218.163 82.8533 218.616 83.32C219.07 83.7733 219.423 84.32 219.676 84.96C219.943 85.5867 220.076 86.26 220.076 86.98ZM214.896 83.12C214.27 83.12 213.683 83.2467 213.136 83.5C212.603 83.74 212.163 84.08 211.816 84.52V89.48C212.163 89.9067 212.61 90.2467 213.156 90.5C213.703 90.74 214.283 90.86 214.896 90.86C215.95 90.86 216.83 90.4933 217.536 89.76C218.256 89.0133 218.616 88.0933 218.616 87C218.616 86.4533 218.516 85.9467 218.316 85.48C218.13 85 217.87 84.5867 217.536 84.24C217.203 83.8933 216.81 83.62 216.356 83.42C215.903 83.22 215.416 83.12 214.896 83.12ZM221.693 86.98C221.693 86.26 221.826 85.58 222.093 84.94C222.359 84.3 222.719 83.7467 223.173 83.28C223.639 82.8133 224.186 82.4467 224.813 82.18C225.439 81.9133 226.106 81.78 226.813 81.78C227.519 81.78 228.179 81.9133 228.793 82.18C229.419 82.4467 229.959 82.8133 230.413 83.28C230.879 83.7467 231.246 84.3 231.513 84.94C231.779 85.58 231.913 86.26 231.913 86.98C231.913 87.7133 231.779 88.4 231.513 89.04C231.246 89.68 230.879 90.2333 230.413 90.7C229.959 91.1667 229.419 91.5333 228.793 91.8C228.179 92.0667 227.519 92.2 226.813 92.2C226.106 92.2 225.439 92.0667 224.813 91.8C224.186 91.5333 223.639 91.1667 223.173 90.7C222.719 90.2333 222.359 89.68 222.093 89.04C221.826 88.4 221.693 87.7133 221.693 86.98ZM226.813 90.88C227.319 90.88 227.793 90.78 228.233 90.58C228.686 90.38 229.073 90.1067 229.393 89.76C229.726 89.4 229.986 88.9867 230.173 88.52C230.359 88.04 230.453 87.5267 230.453 86.98C230.453 86.4333 230.359 85.9267 230.173 85.46C229.986 84.98 229.726 84.5667 229.393 84.22C229.073 83.8733 228.686 83.6 228.233 83.4C227.793 83.2 227.319 83.1 226.813 83.1C226.306 83.1 225.826 83.2 225.373 83.4C224.933 83.6 224.546 83.8733 224.213 84.22C223.893 84.5667 223.633 84.98 223.433 85.46C223.246 85.9267 223.153 86.4333 223.153 86.98C223.153 87.5267 223.246 88.04 223.433 88.52C223.619 88.9867 223.873 89.4 224.193 89.76C224.526 90.1067 224.919 90.38 225.373 90.58C225.826 90.78 226.306 90.88 226.813 90.88ZM234.486 89.76V83.24H232.326V81.98H234.486V79.44L235.946 79.06V81.98H238.966V83.24H235.946V89.38C235.946 89.9133 236.066 90.3 236.306 90.54C236.546 90.7667 236.94 90.88 237.486 90.88C237.766 90.88 238.013 90.86 238.226 90.82C238.453 90.78 238.693 90.7133 238.946 90.62V91.92C238.693 92.0133 238.406 92.08 238.086 92.12C237.78 92.16 237.48 92.18 237.186 92.18C236.32 92.18 235.653 91.9733 235.186 91.56C234.72 91.1467 234.486 90.5467 234.486 89.76ZM240.551 92V78L242.031 77.66V83.16C242.418 82.7067 242.878 82.3667 243.411 82.14C243.944 81.9 244.538 81.78 245.191 81.78C246.324 81.78 247.251 82.14 247.971 82.86C248.691 83.58 249.051 84.5133 249.051 85.66V92H247.591V85.96C247.591 85.08 247.338 84.38 246.831 83.86C246.324 83.34 245.644 83.08 244.791 83.08C244.191 83.08 243.651 83.2133 243.171 83.48C242.704 83.7467 242.324 84.1267 242.031 84.62V92H240.551ZM269.864 85C269.864 86 269.678 86.9467 269.304 87.84C268.931 88.72 268.418 89.4867 267.764 90.14C267.124 90.78 266.364 91.2867 265.484 91.66C264.604 92.0333 263.664 92.22 262.664 92.22C261.664 92.22 260.718 92.0333 259.824 91.66C258.944 91.2867 258.178 90.78 257.524 90.14C256.884 89.4867 256.378 88.72 256.004 87.84C255.631 86.9467 255.444 86 255.444 85C255.444 84 255.631 83.06 256.004 82.18C256.378 81.2867 256.884 80.52 257.524 79.88C258.178 79.2267 258.944 78.7133 259.824 78.34C260.718 77.9667 261.664 77.78 262.664 77.78C263.664 77.78 264.604 77.9667 265.484 78.34C266.364 78.7133 267.124 79.2267 267.764 79.88C268.418 80.52 268.931 81.2867 269.304 82.18C269.678 83.06 269.864 84 269.864 85ZM268.304 85C268.304 84.1867 268.158 83.4267 267.864 82.72C267.571 82 267.171 81.3867 266.664 80.88C266.171 80.36 265.578 79.9533 264.884 79.66C264.191 79.3533 263.451 79.2 262.664 79.2C261.864 79.2 261.118 79.3533 260.424 79.66C259.731 79.9533 259.131 80.36 258.624 80.88C258.131 81.3867 257.738 82 257.444 82.72C257.151 83.4267 257.004 84.1867 257.004 85C257.004 85.8133 257.151 86.5733 257.444 87.28C257.738 87.9867 258.131 88.6 258.624 89.12C259.131 89.64 259.731 90.0533 260.424 90.36C261.118 90.6533 261.864 90.8 262.664 90.8C263.451 90.8 264.191 90.6533 264.884 90.36C265.578 90.0533 266.171 89.64 266.664 89.12C267.171 88.6 267.571 87.9867 267.864 87.28C268.158 86.5733 268.304 85.8133 268.304 85ZM271.076 81.98H273.436V80.08C273.436 79.1067 273.703 78.36 274.236 77.84C274.77 77.3067 275.536 77.04 276.536 77.04C276.803 77.04 277.043 77.0533 277.256 77.08C277.47 77.1067 277.676 77.1533 277.876 77.22V78.54C277.65 78.4733 277.443 78.4267 277.256 78.4C277.07 78.36 276.863 78.34 276.636 78.34C276.05 78.34 275.61 78.4867 275.316 78.78C275.036 79.06 274.896 79.5067 274.896 80.12V81.98H277.876V83.24H274.896V92H273.436V83.24H271.076V81.98ZM278.752 81.98H281.112V80.08C281.112 79.1067 281.379 78.36 281.912 77.84C282.445 77.3067 283.212 77.04 284.212 77.04C284.479 77.04 284.719 77.0533 284.932 77.08C285.145 77.1067 285.352 77.1533 285.552 77.22V78.54C285.325 78.4733 285.119 78.4267 284.932 78.4C284.745 78.36 284.539 78.34 284.312 78.34C283.725 78.34 283.285 78.4867 282.992 78.78C282.712 79.06 282.572 79.5067 282.572 80.12V81.98H285.552V83.24H282.572V92H281.112V83.24H278.752V81.98ZM288.633 77.66V92H287.153V78L288.633 77.66ZM291.896 80.06C291.63 80.06 291.396 79.96 291.196 79.76C290.996 79.56 290.896 79.3267 290.896 79.06C290.896 78.78 290.996 78.5467 291.196 78.36C291.396 78.16 291.63 78.06 291.896 78.06C292.176 78.06 292.41 78.16 292.596 78.36C292.796 78.5467 292.896 78.78 292.896 79.06C292.896 79.3267 292.796 79.56 292.596 79.76C292.41 79.96 292.176 80.06 291.896 80.06ZM292.636 81.98V92H291.156V81.98H292.636ZM295.16 92V81.98H296.64V83.16C297.027 82.7067 297.487 82.3667 298.02 82.14C298.554 81.9 299.147 81.78 299.8 81.78C300.934 81.78 301.86 82.14 302.58 82.86C303.3 83.58 303.66 84.5133 303.66 85.66V92H302.2V85.96C302.2 85.08 301.947 84.38 301.44 83.86C300.934 83.34 300.254 83.08 299.4 83.08C298.8 83.08 298.26 83.2133 297.78 83.48C297.314 83.7467 296.934 84.1267 296.64 84.62V92H295.16ZM314.577 90.94C314.017 91.3533 313.43 91.6667 312.817 91.88C312.217 92.08 311.557 92.18 310.837 92.18C310.117 92.18 309.437 92.0467 308.797 91.78C308.17 91.5133 307.624 91.1467 307.157 90.68C306.704 90.2133 306.344 89.6667 306.077 89.04C305.81 88.4 305.677 87.7133 305.677 86.98C305.677 86.26 305.804 85.5867 306.057 84.96C306.324 84.3333 306.677 83.7867 307.117 83.32C307.557 82.8533 308.077 82.4867 308.677 82.22C309.29 81.9533 309.937 81.82 310.617 81.82C311.284 81.82 311.904 81.9533 312.477 82.22C313.064 82.4867 313.564 82.8533 313.977 83.32C314.404 83.7867 314.737 84.3333 314.977 84.96C315.23 85.5867 315.357 86.26 315.357 86.98V87.44H307.137C307.244 88.4267 307.65 89.2467 308.357 89.9C309.064 90.5533 309.91 90.88 310.897 90.88C311.417 90.88 311.924 90.8 312.417 90.64C312.91 90.48 313.324 90.2533 313.657 89.96L314.577 90.94ZM310.577 83.12C309.71 83.12 308.957 83.4133 308.317 84C307.69 84.5867 307.31 85.34 307.177 86.26H313.877C313.744 85.38 313.364 84.64 312.737 84.04C312.124 83.4267 311.404 83.12 310.577 83.12ZM333.383 91.2L332.483 92.26C332.11 91.9667 331.716 91.66 331.303 91.34C330.903 91.0067 330.496 90.6667 330.083 90.32C329.51 90.9333 328.836 91.4 328.063 91.72C327.303 92.04 326.483 92.2 325.603 92.2C324.216 92.2 323.096 91.84 322.243 91.12C321.403 90.3867 320.983 89.4267 320.983 88.24C320.983 87.44 321.19 86.74 321.603 86.14C322.03 85.54 322.73 84.9733 323.703 84.44L324.083 84.22C323.616 83.6333 323.283 83.1 323.083 82.62C322.896 82.1267 322.803 81.6133 322.803 81.08C322.803 80.1467 323.123 79.3667 323.763 78.74C324.416 78.1133 325.223 77.8 326.183 77.8C327.103 77.8 327.856 78.0733 328.443 78.62C329.043 79.1533 329.343 79.84 329.343 80.68C329.343 81.3333 329.156 81.92 328.783 82.44C328.423 82.96 327.863 83.4467 327.103 83.9L326.103 84.5C326.65 85.1133 327.25 85.7467 327.903 86.4C328.556 87.04 329.223 87.6667 329.903 88.28C330.236 87.7467 330.51 87.16 330.723 86.52C330.95 85.88 331.13 85.2133 331.263 84.52L332.623 84.74C332.45 85.5933 332.223 86.3933 331.943 87.14C331.663 87.8867 331.316 88.5667 330.903 89.18C331.33 89.5533 331.756 89.9133 332.183 90.26C332.61 90.5933 333.01 90.9067 333.383 91.2ZM324.203 81.06C324.203 81.4733 324.283 81.8733 324.443 82.26C324.616 82.6333 324.91 83.0733 325.323 83.58L326.463 82.92C326.956 82.6267 327.323 82.3 327.563 81.94C327.816 81.58 327.943 81.1733 327.943 80.72C327.943 80.2267 327.763 79.82 327.403 79.5C327.056 79.1667 326.636 79 326.143 79C325.583 79 325.116 79.1933 324.743 79.58C324.383 79.9533 324.203 80.4467 324.203 81.06ZM322.383 88.2C322.383 89.0267 322.683 89.6933 323.283 90.2C323.896 90.6933 324.696 90.94 325.683 90.94C326.336 90.94 326.956 90.8133 327.543 90.56C328.13 90.3067 328.65 89.9333 329.103 89.44C328.343 88.7467 327.59 88.0333 326.843 87.3C326.11 86.5667 325.45 85.86 324.863 85.18L324.403 85.44C323.683 85.8533 323.163 86.2733 322.843 86.7C322.536 87.1267 322.383 87.6267 322.383 88.2ZM353.126 85C353.126 86 352.94 86.9467 352.566 87.84C352.193 88.72 351.68 89.4867 351.026 90.14C350.386 90.78 349.626 91.2867 348.746 91.66C347.866 92.0333 346.926 92.22 345.926 92.22C344.926 92.22 343.98 92.0333 343.086 91.66C342.206 91.2867 341.44 90.78 340.786 90.14C340.146 89.4867 339.64 88.72 339.266 87.84C338.893 86.9467 338.706 86 338.706 85C338.706 84 338.893 83.06 339.266 82.18C339.64 81.2867 340.146 80.52 340.786 79.88C341.44 79.2267 342.206 78.7133 343.086 78.34C343.98 77.9667 344.926 77.78 345.926 77.78C346.926 77.78 347.866 77.9667 348.746 78.34C349.626 78.7133 350.386 79.2267 351.026 79.88C351.68 80.52 352.193 81.2867 352.566 82.18C352.94 83.06 353.126 84 353.126 85ZM351.566 85C351.566 84.1867 351.42 83.4267 351.126 82.72C350.833 82 350.433 81.3867 349.926 80.88C349.433 80.36 348.84 79.9533 348.146 79.66C347.453 79.3533 346.713 79.2 345.926 79.2C345.126 79.2 344.38 79.3533 343.686 79.66C342.993 79.9533 342.393 80.36 341.886 80.88C341.393 81.3867 341 82 340.706 82.72C340.413 83.4267 340.266 84.1867 340.266 85C340.266 85.8133 340.413 86.5733 340.706 87.28C341 87.9867 341.393 88.6 341.886 89.12C342.393 89.64 342.993 90.0533 343.686 90.36C344.38 90.6533 345.126 90.8 345.926 90.8C346.713 90.8 347.453 90.6533 348.146 90.36C348.84 90.0533 349.433 89.64 349.926 89.12C350.433 88.6 350.833 87.9867 351.126 87.28C351.42 86.5733 351.566 85.8133 351.566 85ZM355.258 92V81.98H356.738V83.16C357.125 82.7067 357.585 82.3667 358.118 82.14C358.651 81.9 359.245 81.78 359.898 81.78C361.031 81.78 361.958 82.14 362.678 82.86C363.398 83.58 363.758 84.5133 363.758 85.66V92H362.298V85.96C362.298 85.08 362.045 84.38 361.538 83.86C361.031 83.34 360.351 83.08 359.498 83.08C358.898 83.08 358.358 83.2133 357.878 83.48C357.411 83.7467 357.031 84.1267 356.738 84.62V92H355.258ZM367.715 77.66V92H366.235V78L367.715 77.66ZM370.979 80.06C370.712 80.06 370.479 79.96 370.279 79.76C370.079 79.56 369.979 79.3267 369.979 79.06C369.979 78.78 370.079 78.5467 370.279 78.36C370.479 78.16 370.712 78.06 370.979 78.06C371.259 78.06 371.492 78.16 371.679 78.36C371.879 78.5467 371.979 78.78 371.979 79.06C371.979 79.3267 371.879 79.56 371.679 79.76C371.492 79.96 371.259 80.06 370.979 80.06ZM371.719 81.98V92H370.239V81.98H371.719ZM374.242 92V81.98H375.722V83.16C376.109 82.7067 376.569 82.3667 377.102 82.14C377.636 81.9 378.229 81.78 378.882 81.78C380.016 81.78 380.942 82.14 381.662 82.86C382.382 83.58 382.742 84.5133 382.742 85.66V92H381.282V85.96C381.282 85.08 381.029 84.38 380.522 83.86C380.016 83.34 379.336 83.08 378.482 83.08C377.882 83.08 377.342 83.2133 376.862 83.48C376.396 83.7467 376.016 84.1267 375.722 84.62V92H374.242ZM393.659 90.94C393.099 91.3533 392.512 91.6667 391.899 91.88C391.299 92.08 390.639 92.18 389.919 92.18C389.199 92.18 388.519 92.0467 387.879 91.78C387.252 91.5133 386.706 91.1467 386.239 90.68C385.786 90.2133 385.426 89.6667 385.159 89.04C384.892 88.4 384.759 87.7133 384.759 86.98C384.759 86.26 384.886 85.5867 385.139 84.96C385.406 84.3333 385.759 83.7867 386.199 83.32C386.639 82.8533 387.159 82.4867 387.759 82.22C388.372 81.9533 389.019 81.82 389.699 81.82C390.366 81.82 390.986 81.9533 391.559 82.22C392.146 82.4867 392.646 82.8533 393.059 83.32C393.486 83.7867 393.819 84.3333 394.059 84.96C394.312 85.5867 394.439 86.26 394.439 86.98V87.44H386.219C386.326 88.4267 386.732 89.2467 387.439 89.9C388.146 90.5533 388.992 90.88 389.979 90.88C390.499 90.88 391.006 90.8 391.499 90.64C391.992 90.48 392.406 90.2533 392.739 89.96L393.659 90.94ZM389.659 83.12C388.792 83.12 388.039 83.4133 387.399 84C386.772 84.5867 386.392 85.34 386.259 86.26H392.959C392.826 85.38 392.446 84.64 391.819 84.04C391.206 83.4267 390.486 83.12 389.659 83.12ZM401.085 92V78H411.105V79.36H402.625V84.26H408.165V85.6H402.625V90.64H411.185V92H401.085ZM420.422 92V90.94C419.995 91.34 419.502 91.6467 418.942 91.86C418.395 92.06 417.808 92.16 417.182 92.16C416.475 92.16 415.815 92.0267 415.202 91.76C414.588 91.4933 414.055 91.1333 413.602 90.68C413.148 90.2133 412.788 89.66 412.522 89.02C412.268 88.38 412.142 87.7 412.142 86.98C412.142 86.26 412.268 85.5867 412.522 84.96C412.788 84.32 413.148 83.7733 413.602 83.32C414.055 82.8533 414.588 82.4867 415.202 82.22C415.828 81.9533 416.495 81.82 417.202 81.82C417.775 81.82 418.335 81.92 418.882 82.12C419.442 82.3067 419.948 82.5867 420.402 82.96V78L421.882 77.66V92H420.422ZM413.602 86.96C413.602 87.5067 413.695 88.02 413.882 88.5C414.082 88.98 414.348 89.3933 414.682 89.74C415.015 90.0867 415.408 90.36 415.862 90.56C416.315 90.76 416.802 90.86 417.322 90.86C417.948 90.86 418.528 90.74 419.062 90.5C419.608 90.2467 420.055 89.9 420.402 89.46V84.5C420.055 84.0733 419.608 83.74 419.062 83.5C418.515 83.2467 417.935 83.12 417.322 83.12C416.282 83.12 415.402 83.4867 414.682 84.22C413.962 84.9533 413.602 85.8667 413.602 86.96ZM425.819 81.98V88.02C425.819 88.9 426.072 89.6 426.579 90.12C427.085 90.64 427.765 90.9 428.619 90.9C429.219 90.9 429.752 90.7667 430.219 90.5C430.699 90.22 431.085 89.8333 431.379 89.34V81.98H432.859V92H431.379V90.84C430.992 91.2933 430.532 91.6333 429.999 91.86C429.479 92.0867 428.892 92.2 428.239 92.2C427.092 92.2 426.159 91.84 425.439 91.12C424.719 90.4 424.359 89.4667 424.359 88.32V81.98H425.819ZM440.055 90.84C440.589 90.84 441.102 90.7333 441.595 90.52C442.089 90.3067 442.549 89.9933 442.975 89.58L443.895 90.58C443.362 91.0867 442.762 91.48 442.095 91.76C441.429 92.04 440.735 92.18 440.015 92.18C439.309 92.18 438.642 92.0467 438.015 91.78C437.389 91.5133 436.849 91.1467 436.395 90.68C435.942 90.2133 435.582 89.66 435.315 89.02C435.049 88.38 434.915 87.7 434.915 86.98C434.915 86.26 435.049 85.5867 435.315 84.96C435.582 84.32 435.942 83.7667 436.395 83.3C436.849 82.8333 437.389 82.4667 438.015 82.2C438.642 81.92 439.309 81.78 440.015 81.78C440.735 81.78 441.435 81.92 442.115 82.2C442.809 82.48 443.415 82.8667 443.935 83.36L442.995 84.44C442.595 84.0267 442.135 83.7067 441.615 83.48C441.095 83.2533 440.569 83.14 440.035 83.14C439.529 83.14 439.049 83.24 438.595 83.44C438.142 83.64 437.749 83.9133 437.415 84.26C437.095 84.6067 436.842 85.0133 436.655 85.48C436.469 85.9467 436.375 86.4467 436.375 86.98C436.375 87.5267 436.469 88.04 436.655 88.52C436.855 88.9867 437.115 89.3933 437.435 89.74C437.769 90.0733 438.162 90.34 438.615 90.54C439.069 90.74 439.549 90.84 440.055 90.84ZM448.789 92.18C447.696 92.18 446.802 91.9 446.109 91.34C445.429 90.78 445.089 90.0533 445.089 89.16C445.089 88.2267 445.449 87.4867 446.169 86.94C446.889 86.38 447.862 86.1 449.089 86.1C449.622 86.1 450.136 86.16 450.629 86.28C451.136 86.4 451.602 86.5667 452.029 86.78V85.46C452.029 84.66 451.802 84.06 451.349 83.66C450.896 83.2467 450.236 83.04 449.369 83.04C448.876 83.04 448.376 83.1133 447.869 83.26C447.376 83.3933 446.829 83.6133 446.229 83.92L445.669 82.78C446.389 82.4333 447.056 82.18 447.669 82.02C448.282 81.86 448.896 81.78 449.509 81.78C450.776 81.78 451.749 82.08 452.429 82.68C453.122 83.28 453.469 84.14 453.469 85.26V92H452.029V91.02C451.576 91.4067 451.076 91.7 450.529 91.9C449.996 92.0867 449.416 92.18 448.789 92.18ZM446.509 89.12C446.509 89.68 446.742 90.14 447.209 90.5C447.689 90.8467 448.302 91.02 449.049 91.02C449.649 91.02 450.196 90.9267 450.689 90.74C451.182 90.5533 451.629 90.26 452.029 89.86V87.98C451.616 87.7 451.169 87.5 450.689 87.38C450.222 87.2467 449.702 87.18 449.129 87.18C448.329 87.18 447.689 87.36 447.209 87.72C446.742 88.0667 446.509 88.5333 446.509 89.12ZM456.791 89.76V83.24H454.631V81.98H456.791V79.44L458.251 79.06V81.98H461.271V83.24H458.251V89.38C458.251 89.9133 458.371 90.3 458.611 90.54C458.851 90.7667 459.244 90.88 459.791 90.88C460.071 90.88 460.318 90.86 460.531 90.82C460.758 90.78 460.998 90.7133 461.251 90.62V91.92C460.998 92.0133 460.711 92.08 460.391 92.12C460.084 92.16 459.784 92.18 459.491 92.18C458.624 92.18 457.958 91.9733 457.491 91.56C457.024 91.1467 456.791 90.5467 456.791 89.76ZM463.596 80.06C463.329 80.06 463.096 79.96 462.896 79.76C462.696 79.56 462.596 79.3267 462.596 79.06C462.596 78.78 462.696 78.5467 462.896 78.36C463.096 78.16 463.329 78.06 463.596 78.06C463.876 78.06 464.109 78.16 464.296 78.36C464.496 78.5467 464.596 78.78 464.596 79.06C464.596 79.3267 464.496 79.56 464.296 79.76C464.109 79.96 463.876 80.06 463.596 80.06ZM464.336 81.98V92H462.856V81.98H464.336ZM466.4 86.98C466.4 86.26 466.533 85.58 466.8 84.94C467.066 84.3 467.426 83.7467 467.88 83.28C468.346 82.8133 468.893 82.4467 469.52 82.18C470.146 81.9133 470.813 81.78 471.52 81.78C472.226 81.78 472.886 81.9133 473.5 82.18C474.126 82.4467 474.666 82.8133 475.12 83.28C475.586 83.7467 475.953 84.3 476.22 84.94C476.486 85.58 476.62 86.26 476.62 86.98C476.62 87.7133 476.486 88.4 476.22 89.04C475.953 89.68 475.586 90.2333 475.12 90.7C474.666 91.1667 474.126 91.5333 473.5 91.8C472.886 92.0667 472.226 92.2 471.52 92.2C470.813 92.2 470.146 92.0667 469.52 91.8C468.893 91.5333 468.346 91.1667 467.88 90.7C467.426 90.2333 467.066 89.68 466.8 89.04C466.533 88.4 466.4 87.7133 466.4 86.98ZM471.52 90.88C472.026 90.88 472.5 90.78 472.94 90.58C473.393 90.38 473.78 90.1067 474.1 89.76C474.433 89.4 474.693 88.9867 474.88 88.52C475.066 88.04 475.16 87.5267 475.16 86.98C475.16 86.4333 475.066 85.9267 474.88 85.46C474.693 84.98 474.433 84.5667 474.1 84.22C473.78 83.8733 473.393 83.6 472.94 83.4C472.5 83.2 472.026 83.1 471.52 83.1C471.013 83.1 470.533 83.2 470.08 83.4C469.64 83.6 469.253 83.8733 468.92 84.22C468.6 84.5667 468.34 84.98 468.14 85.46C467.953 85.9267 467.86 86.4333 467.86 86.98C467.86 87.5267 467.953 88.04 468.14 88.52C468.326 88.9867 468.58 89.4 468.9 89.76C469.233 90.1067 469.626 90.38 470.08 90.58C470.533 90.78 471.013 90.88 471.52 90.88ZM478.676 92V81.98H480.156V83.16C480.543 82.7067 481.003 82.3667 481.536 82.14C482.069 81.9 482.663 81.78 483.316 81.78C484.449 81.78 485.376 82.14 486.096 82.86C486.816 83.58 487.176 84.5133 487.176 85.66V92H485.716V85.96C485.716 85.08 485.463 84.38 484.956 83.86C484.449 83.34 483.769 83.08 482.916 83.08C482.316 83.08 481.776 83.2133 481.296 83.48C480.829 83.7467 480.449 84.1267 480.156 84.62V92H478.676ZM490.373 90.08C490.653 90.08 490.893 90.18 491.093 90.38C491.293 90.58 491.393 90.82 491.393 91.1C491.393 91.38 491.293 91.62 491.093 91.82C490.893 92.02 490.653 92.12 490.373 92.12C490.093 92.12 489.853 92.02 489.653 91.82C489.453 91.62 489.353 91.38 489.353 91.1C489.353 90.82 489.453 90.58 489.653 90.38C489.853 90.18 490.093 90.08 490.373 90.08ZM0.724766 131.38V130H12.3848V131.38H7.32477V144H5.78477V131.38H0.724766ZM11.1652 138.98C11.1652 138.26 11.2986 137.58 11.5652 136.94C11.8319 136.3 12.1919 135.747 12.6452 135.28C13.1119 134.813 13.6586 134.447 14.2852 134.18C14.9119 133.913 15.5786 133.78 16.2852 133.78C16.9919 133.78 17.6519 133.913 18.2652 134.18C18.8919 134.447 19.4319 134.813 19.8852 135.28C20.3519 135.747 20.7186 136.3 20.9852 136.94C21.2519 137.58 21.3852 138.26 21.3852 138.98C21.3852 139.713 21.2519 140.4 20.9852 141.04C20.7186 141.68 20.3519 142.233 19.8852 142.7C19.4319 143.167 18.8919 143.533 18.2652 143.8C17.6519 144.067 16.9919 144.2 16.2852 144.2C15.5786 144.2 14.9119 144.067 14.2852 143.8C13.6586 143.533 13.1119 143.167 12.6452 142.7C12.1919 142.233 11.8319 141.68 11.5652 141.04C11.2986 140.4 11.1652 139.713 11.1652 138.98ZM16.2852 142.88C16.7919 142.88 17.2652 142.78 17.7052 142.58C18.1586 142.38 18.5452 142.107 18.8652 141.76C19.1986 141.4 19.4586 140.987 19.6452 140.52C19.8319 140.04 19.9252 139.527 19.9252 138.98C19.9252 138.433 19.8319 137.927 19.6452 137.46C19.4586 136.98 19.1986 136.567 18.8652 136.22C18.5452 135.873 18.1586 135.6 17.7052 135.4C17.2652 135.2 16.7919 135.1 16.2852 135.1C15.7786 135.1 15.2986 135.2 14.8452 135.4C14.4052 135.6 14.0186 135.873 13.6852 136.22C13.3652 136.567 13.1052 136.98 12.9052 137.46C12.7186 137.927 12.6252 138.433 12.6252 138.98C12.6252 139.527 12.7186 140.04 12.9052 140.52C13.0919 140.987 13.3452 141.4 13.6652 141.76C13.9986 142.107 14.3919 142.38 14.8452 142.58C15.2986 142.78 15.7786 142.88 16.2852 142.88ZM30.8985 144.18C29.8052 144.18 28.9118 143.9 28.2185 143.34C27.5385 142.78 27.1985 142.053 27.1985 141.16C27.1985 140.227 27.5585 139.487 28.2785 138.94C28.9985 138.38 29.9718 138.1 31.1985 138.1C31.7318 138.1 32.2452 138.16 32.7385 138.28C33.2452 138.4 33.7118 138.567 34.1385 138.78V137.46C34.1385 136.66 33.9118 136.06 33.4585 135.66C33.0052 135.247 32.3452 135.04 31.4785 135.04C30.9852 135.04 30.4852 135.113 29.9785 135.26C29.4852 135.393 28.9385 135.613 28.3385 135.92L27.7785 134.78C28.4985 134.433 29.1652 134.18 29.7785 134.02C30.3918 133.86 31.0052 133.78 31.6185 133.78C32.8852 133.78 33.8585 134.08 34.5385 134.68C35.2318 135.28 35.5785 136.14 35.5785 137.26V144H34.1385V143.02C33.6852 143.407 33.1852 143.7 32.6385 143.9C32.1052 144.087 31.5252 144.18 30.8985 144.18ZM28.6185 141.12C28.6185 141.68 28.8518 142.14 29.3185 142.5C29.7985 142.847 30.4118 143.02 31.1585 143.02C31.7585 143.02 32.3052 142.927 32.7985 142.74C33.2918 142.553 33.7385 142.26 34.1385 141.86V139.98C33.7252 139.7 33.2785 139.5 32.7985 139.38C32.3318 139.247 31.8118 139.18 31.2385 139.18C30.4385 139.18 29.7985 139.36 29.3185 139.72C28.8518 140.067 28.6185 140.533 28.6185 141.12ZM37.031 142.62L37.931 141.66C38.3843 142.087 38.891 142.42 39.451 142.66C40.0243 142.887 40.6043 143 41.191 143C41.991 143 42.6443 142.833 43.151 142.5C43.6577 142.167 43.911 141.733 43.911 141.2C43.911 140.773 43.7577 140.44 43.451 140.2C43.1577 139.947 42.691 139.773 42.051 139.68L40.311 139.44C39.311 139.293 38.5643 139 38.071 138.56C37.591 138.107 37.351 137.5 37.351 136.74C37.351 135.9 37.7043 135.207 38.411 134.66C39.1177 134.1 40.0177 133.82 41.111 133.82C41.831 133.82 42.511 133.927 43.151 134.14C43.8043 134.353 44.4377 134.687 45.051 135.14L44.271 136.14C43.711 135.767 43.1643 135.487 42.631 135.3C42.111 135.113 41.5777 135.02 41.031 135.02C40.351 135.02 39.791 135.173 39.351 135.48C38.9243 135.787 38.711 136.187 38.711 136.68C38.711 137.107 38.8577 137.44 39.151 137.68C39.4443 137.907 39.9177 138.067 40.571 138.16L42.311 138.4C43.311 138.533 44.0577 138.833 44.551 139.3C45.0577 139.753 45.311 140.36 45.311 141.12C45.311 141.547 45.2043 141.953 44.991 142.34C44.791 142.713 44.5043 143.04 44.131 143.32C43.771 143.587 43.3443 143.8 42.851 143.96C42.3577 144.107 41.8243 144.18 41.251 144.18C40.4243 144.18 39.6443 144.047 38.911 143.78C38.191 143.5 37.5643 143.113 37.031 142.62ZM46.9768 144V130L48.4568 129.66V138.5L53.6968 133.98H55.4968L49.9968 138.74L55.7568 144H53.7368L48.4568 139.2V144H46.9768ZM64.3165 144.18C63.2232 144.18 62.3298 143.9 61.6365 143.34C60.9565 142.78 60.6165 142.053 60.6165 141.16C60.6165 140.227 60.9765 139.487 61.6965 138.94C62.4165 138.38 63.3898 138.1 64.6165 138.1C65.1498 138.1 65.6632 138.16 66.1565 138.28C66.6632 138.4 67.1298 138.567 67.5565 138.78V137.46C67.5565 136.66 67.3298 136.06 66.8765 135.66C66.4232 135.247 65.7632 135.04 64.8965 135.04C64.4032 135.04 63.9032 135.113 63.3965 135.26C62.9032 135.393 62.3565 135.613 61.7565 135.92L61.1965 134.78C61.9165 134.433 62.5832 134.18 63.1965 134.02C63.8098 133.86 64.4232 133.78 65.0365 133.78C66.3032 133.78 67.2765 134.08 67.9565 134.68C68.6498 135.28 68.9965 136.14 68.9965 137.26V144H67.5565V143.02C67.1032 143.407 66.6032 143.7 66.0565 143.9C65.5232 144.087 64.9432 144.18 64.3165 144.18ZM62.0365 141.12C62.0365 141.68 62.2698 142.14 62.7365 142.5C63.2165 142.847 63.8298 143.02 64.5765 143.02C65.1765 143.02 65.7232 142.927 66.2165 142.74C66.7098 142.553 67.1565 142.26 67.5565 141.86V139.98C67.1432 139.7 66.6965 139.5 66.2165 139.38C65.7498 139.247 65.2298 139.18 64.6565 139.18C63.8565 139.18 63.2165 139.36 62.7365 139.72C62.2698 140.067 62.0365 140.533 62.0365 141.12ZM71.469 144V133.98H72.949V135.16C73.3357 134.707 73.7957 134.367 74.329 134.14C74.8623 133.9 75.4557 133.78 76.109 133.78C77.2423 133.78 78.169 134.14 78.889 134.86C79.609 135.58 79.969 136.513 79.969 137.66V144H78.509V137.96C78.509 137.08 78.2557 136.38 77.749 135.86C77.2423 135.34 76.5623 135.08 75.709 135.08C75.109 135.08 74.569 135.213 74.089 135.48C73.6223 135.747 73.2423 136.127 72.949 136.62V144H71.469ZM84.5902 145.3L85.1702 143.98L81.0902 133.98H82.7302L85.9702 142.2L89.4702 133.98H91.0702L86.0902 145.5C85.6636 146.46 85.1902 147.153 84.6702 147.58C84.1502 148.007 83.4902 148.22 82.6902 148.22C82.5036 148.22 82.3236 148.207 82.1502 148.18C81.9902 148.167 81.8569 148.147 81.7502 148.12V146.78C81.8836 146.807 82.0102 146.827 82.1302 146.84C82.2636 146.853 82.4169 146.86 82.5902 146.86C83.0436 146.86 83.4302 146.733 83.7502 146.48C84.0702 146.227 84.3502 145.833 84.5902 145.3ZM101.322 144.16C100.616 144.16 99.9558 144.027 99.3424 143.76C98.7291 143.493 98.1958 143.133 97.7424 142.68C97.2891 142.213 96.9291 141.66 96.6624 141.02C96.4091 140.38 96.2824 139.7 96.2824 138.98C96.2824 138.26 96.4091 137.587 96.6624 136.96C96.9291 136.32 97.2891 135.773 97.7424 135.32C98.1958 134.853 98.7291 134.487 99.3424 134.22C99.9691 133.953 100.636 133.82 101.342 133.82C101.942 133.82 102.516 133.92 103.062 134.12C103.622 134.32 104.122 134.6 104.562 134.96V133.98H106.022V148.1H104.542V142.96C104.116 143.347 103.622 143.647 103.062 143.86C102.516 144.06 101.936 144.16 101.322 144.16ZM97.7424 138.96C97.7424 139.507 97.8358 140.02 98.0224 140.5C98.2224 140.98 98.4891 141.393 98.8224 141.74C99.1558 142.087 99.5491 142.36 100.002 142.56C100.456 142.76 100.942 142.86 101.462 142.86C102.089 142.86 102.669 142.74 103.202 142.5C103.749 142.247 104.196 141.9 104.542 141.46V136.5C104.196 136.073 103.749 135.74 103.202 135.5C102.656 135.247 102.076 135.12 101.462 135.12C100.422 135.12 99.5424 135.487 98.8224 136.22C98.1024 136.953 97.7424 137.867 97.7424 138.96ZM109.959 133.98V140.02C109.959 140.9 110.213 141.6 110.719 142.12C111.226 142.64 111.906 142.9 112.759 142.9C113.359 142.9 113.893 142.767 114.359 142.5C114.839 142.22 115.226 141.833 115.519 141.34V133.98H116.999V144H115.519V142.84C115.133 143.293 114.673 143.633 114.139 143.86C113.619 144.087 113.033 144.2 112.379 144.2C111.233 144.2 110.299 143.84 109.579 143.12C108.859 142.4 108.499 141.467 108.499 140.32V133.98H109.959ZM127.956 142.94C127.396 143.353 126.809 143.667 126.196 143.88C125.596 144.08 124.936 144.18 124.216 144.18C123.496 144.18 122.816 144.047 122.176 143.78C121.549 143.513 121.003 143.147 120.536 142.68C120.083 142.213 119.723 141.667 119.456 141.04C119.189 140.4 119.056 139.713 119.056 138.98C119.056 138.26 119.183 137.587 119.436 136.96C119.703 136.333 120.056 135.787 120.496 135.32C120.936 134.853 121.456 134.487 122.056 134.22C122.669 133.953 123.316 133.82 123.996 133.82C124.663 133.82 125.283 133.953 125.856 134.22C126.443 134.487 126.943 134.853 127.356 135.32C127.783 135.787 128.116 136.333 128.356 136.96C128.609 137.587 128.736 138.26 128.736 138.98V139.44H120.516C120.623 140.427 121.029 141.247 121.736 141.9C122.443 142.553 123.289 142.88 124.276 142.88C124.796 142.88 125.303 142.8 125.796 142.64C126.289 142.48 126.703 142.253 127.036 141.96L127.956 142.94ZM123.956 135.12C123.089 135.12 122.336 135.413 121.696 136C121.069 136.587 120.689 137.34 120.556 138.26H127.256C127.123 137.38 126.743 136.64 126.116 136.04C125.503 135.427 124.783 135.12 123.956 135.12ZM130.805 144V133.98H132.285V135.4C132.578 134.88 132.965 134.48 133.445 134.2C133.925 133.907 134.472 133.76 135.085 133.76C135.272 133.76 135.438 133.773 135.585 133.8C135.732 133.813 135.878 133.847 136.025 133.9V135.26C135.852 135.207 135.678 135.167 135.505 135.14C135.332 135.1 135.158 135.08 134.985 135.08C134.372 135.08 133.832 135.26 133.365 135.62C132.898 135.967 132.538 136.473 132.285 137.14V144H130.805ZM138.459 132.06C138.192 132.06 137.959 131.96 137.759 131.76C137.559 131.56 137.459 131.327 137.459 131.06C137.459 130.78 137.559 130.547 137.759 130.36C137.959 130.16 138.192 130.06 138.459 130.06C138.739 130.06 138.972 130.16 139.159 130.36C139.359 130.547 139.459 130.78 139.459 131.06C139.459 131.327 139.359 131.56 139.159 131.76C138.972 131.96 138.739 132.06 138.459 132.06ZM139.199 133.98V144H137.719V133.98H139.199ZM150.163 142.94C149.603 143.353 149.016 143.667 148.403 143.88C147.803 144.08 147.143 144.18 146.423 144.18C145.703 144.18 145.023 144.047 144.383 143.78C143.756 143.513 143.21 143.147 142.743 142.68C142.29 142.213 141.93 141.667 141.663 141.04C141.396 140.4 141.263 139.713 141.263 138.98C141.263 138.26 141.39 137.587 141.643 136.96C141.91 136.333 142.263 135.787 142.703 135.32C143.143 134.853 143.663 134.487 144.263 134.22C144.876 133.953 145.523 133.82 146.203 133.82C146.87 133.82 147.49 133.953 148.063 134.22C148.65 134.487 149.15 134.853 149.563 135.32C149.99 135.787 150.323 136.333 150.563 136.96C150.816 137.587 150.943 138.26 150.943 138.98V139.44H142.723C142.83 140.427 143.236 141.247 143.943 141.9C144.65 142.553 145.496 142.88 146.483 142.88C147.003 142.88 147.51 142.8 148.003 142.64C148.496 142.48 148.91 142.253 149.243 141.96L150.163 142.94ZM146.163 135.12C145.296 135.12 144.543 135.413 143.903 136C143.276 136.587 142.896 137.34 142.763 138.26H149.463C149.33 137.38 148.95 136.64 148.323 136.04C147.71 135.427 146.99 135.12 146.163 135.12ZM152.09 142.62L152.99 141.66C153.443 142.087 153.95 142.42 154.51 142.66C155.083 142.887 155.663 143 156.25 143C157.05 143 157.703 142.833 158.21 142.5C158.716 142.167 158.97 141.733 158.97 141.2C158.97 140.773 158.816 140.44 158.51 140.2C158.216 139.947 157.75 139.773 157.11 139.68L155.37 139.44C154.37 139.293 153.623 139 153.13 138.56C152.65 138.107 152.41 137.5 152.41 136.74C152.41 135.9 152.763 135.207 153.47 134.66C154.176 134.1 155.076 133.82 156.17 133.82C156.89 133.82 157.57 133.927 158.21 134.14C158.863 134.353 159.496 134.687 160.11 135.14L159.33 136.14C158.77 135.767 158.223 135.487 157.69 135.3C157.17 135.113 156.636 135.02 156.09 135.02C155.41 135.02 154.85 135.173 154.41 135.48C153.983 135.787 153.77 136.187 153.77 136.68C153.77 137.107 153.916 137.44 154.21 137.68C154.503 137.907 154.976 138.067 155.63 138.16L157.37 138.4C158.37 138.533 159.116 138.833 159.61 139.3C160.116 139.753 160.37 140.36 160.37 141.12C160.37 141.547 160.263 141.953 160.05 142.34C159.85 142.713 159.563 143.04 159.19 143.32C158.83 143.587 158.403 143.8 157.91 143.96C157.416 144.107 156.883 144.18 156.31 144.18C155.483 144.18 154.703 144.047 153.97 143.78C153.25 143.5 152.623 143.113 152.09 142.62ZM171.012 142.84C171.546 142.84 172.059 142.733 172.552 142.52C173.046 142.307 173.506 141.993 173.932 141.58L174.852 142.58C174.319 143.087 173.719 143.48 173.052 143.76C172.386 144.04 171.692 144.18 170.972 144.18C170.266 144.18 169.599 144.047 168.972 143.78C168.346 143.513 167.806 143.147 167.352 142.68C166.899 142.213 166.539 141.66 166.272 141.02C166.006 140.38 165.872 139.7 165.872 138.98C165.872 138.26 166.006 137.587 166.272 136.96C166.539 136.32 166.899 135.767 167.352 135.3C167.806 134.833 168.346 134.467 168.972 134.2C169.599 133.92 170.266 133.78 170.972 133.78C171.692 133.78 172.392 133.92 173.072 134.2C173.766 134.48 174.372 134.867 174.892 135.36L173.952 136.44C173.552 136.027 173.092 135.707 172.572 135.48C172.052 135.253 171.526 135.14 170.992 135.14C170.486 135.14 170.006 135.24 169.552 135.44C169.099 135.64 168.706 135.913 168.372 136.26C168.052 136.607 167.799 137.013 167.612 137.48C167.426 137.947 167.332 138.447 167.332 138.98C167.332 139.527 167.426 140.04 167.612 140.52C167.812 140.987 168.072 141.393 168.392 141.74C168.726 142.073 169.119 142.34 169.572 142.54C170.026 142.74 170.506 142.84 171.012 142.84ZM175.736 138.98C175.736 138.26 175.869 137.58 176.136 136.94C176.402 136.3 176.762 135.747 177.216 135.28C177.682 134.813 178.229 134.447 178.856 134.18C179.482 133.913 180.149 133.78 180.856 133.78C181.562 133.78 182.222 133.913 182.836 134.18C183.462 134.447 184.002 134.813 184.456 135.28C184.922 135.747 185.289 136.3 185.556 136.94C185.822 137.58 185.956 138.26 185.956 138.98C185.956 139.713 185.822 140.4 185.556 141.04C185.289 141.68 184.922 142.233 184.456 142.7C184.002 143.167 183.462 143.533 182.836 143.8C182.222 144.067 181.562 144.2 180.856 144.2C180.149 144.2 179.482 144.067 178.856 143.8C178.229 143.533 177.682 143.167 177.216 142.7C176.762 142.233 176.402 141.68 176.136 141.04C175.869 140.4 175.736 139.713 175.736 138.98ZM180.856 142.88C181.362 142.88 181.836 142.78 182.276 142.58C182.729 142.38 183.116 142.107 183.436 141.76C183.769 141.4 184.029 140.987 184.216 140.52C184.402 140.04 184.496 139.527 184.496 138.98C184.496 138.433 184.402 137.927 184.216 137.46C184.029 136.98 183.769 136.567 183.436 136.22C183.116 135.873 182.729 135.6 182.276 135.4C181.836 135.2 181.362 135.1 180.856 135.1C180.349 135.1 179.869 135.2 179.416 135.4C178.976 135.6 178.589 135.873 178.256 136.22C177.936 136.567 177.676 136.98 177.476 137.46C177.289 137.927 177.196 138.433 177.196 138.98C177.196 139.527 177.289 140.04 177.476 140.52C177.662 140.987 177.916 141.4 178.236 141.76C178.569 142.107 178.962 142.38 179.416 142.58C179.869 142.78 180.349 142.88 180.856 142.88ZM188.012 144V133.98H189.492V135.16C189.879 134.707 190.339 134.367 190.872 134.14C191.405 133.9 191.999 133.78 192.652 133.78C193.785 133.78 194.712 134.14 195.432 134.86C196.152 135.58 196.512 136.513 196.512 137.66V144H195.052V137.96C195.052 137.08 194.799 136.38 194.292 135.86C193.785 135.34 193.105 135.08 192.252 135.08C191.652 135.08 191.112 135.213 190.632 135.48C190.165 135.747 189.785 136.127 189.492 136.62V144H188.012ZM199.838 141.76V135.24H197.678V133.98H199.838V131.44L201.298 131.06V133.98H204.318V135.24H201.298V141.38C201.298 141.913 201.418 142.3 201.658 142.54C201.898 142.767 202.291 142.88 202.838 142.88C203.118 142.88 203.365 142.86 203.578 142.82C203.805 142.78 204.045 142.713 204.298 142.62V143.92C204.045 144.013 203.758 144.08 203.438 144.12C203.131 144.16 202.831 144.18 202.538 144.18C201.671 144.18 201.005 143.973 200.538 143.56C200.071 143.147 199.838 142.547 199.838 141.76ZM209.063 144.18C207.969 144.18 207.076 143.9 206.383 143.34C205.703 142.78 205.363 142.053 205.363 141.16C205.363 140.227 205.723 139.487 206.443 138.94C207.163 138.38 208.136 138.1 209.363 138.1C209.896 138.1 210.409 138.16 210.903 138.28C211.409 138.4 211.876 138.567 212.303 138.78V137.46C212.303 136.66 212.076 136.06 211.623 135.66C211.169 135.247 210.509 135.04 209.643 135.04C209.149 135.04 208.649 135.113 208.143 135.26C207.649 135.393 207.103 135.613 206.503 135.92L205.943 134.78C206.663 134.433 207.329 134.18 207.943 134.02C208.556 133.86 209.169 133.78 209.783 133.78C211.049 133.78 212.023 134.08 212.703 134.68C213.396 135.28 213.743 136.14 213.743 137.26V144H212.303V143.02C211.849 143.407 211.349 143.7 210.803 143.9C210.269 144.087 209.689 144.18 209.063 144.18ZM206.783 141.12C206.783 141.68 207.016 142.14 207.483 142.5C207.963 142.847 208.576 143.02 209.323 143.02C209.923 143.02 210.469 142.927 210.963 142.74C211.456 142.553 211.903 142.26 212.303 141.86V139.98C211.889 139.7 211.443 139.5 210.963 139.38C210.496 139.247 209.976 139.18 209.403 139.18C208.603 139.18 207.963 139.36 207.483 139.72C207.016 140.067 206.783 140.533 206.783 141.12ZM220.895 142.84C221.428 142.84 221.942 142.733 222.435 142.52C222.928 142.307 223.388 141.993 223.815 141.58L224.735 142.58C224.202 143.087 223.602 143.48 222.935 143.76C222.268 144.04 221.575 144.18 220.855 144.18C220.148 144.18 219.482 144.047 218.855 143.78C218.228 143.513 217.688 143.147 217.235 142.68C216.782 142.213 216.422 141.66 216.155 141.02C215.888 140.38 215.755 139.7 215.755 138.98C215.755 138.26 215.888 137.587 216.155 136.96C216.422 136.32 216.782 135.767 217.235 135.3C217.688 134.833 218.228 134.467 218.855 134.2C219.482 133.92 220.148 133.78 220.855 133.78C221.575 133.78 222.275 133.92 222.955 134.2C223.648 134.48 224.255 134.867 224.775 135.36L223.835 136.44C223.435 136.027 222.975 135.707 222.455 135.48C221.935 135.253 221.408 135.14 220.875 135.14C220.368 135.14 219.888 135.24 219.435 135.44C218.982 135.64 218.588 135.913 218.255 136.26C217.935 136.607 217.682 137.013 217.495 137.48C217.308 137.947 217.215 138.447 217.215 138.98C217.215 139.527 217.308 140.04 217.495 140.52C217.695 140.987 217.955 141.393 218.275 141.74C218.608 142.073 219.002 142.34 219.455 142.54C219.908 142.74 220.388 142.84 220.895 142.84ZM227.904 141.76V135.24H225.744V133.98H227.904V131.44L229.364 131.06V133.98H232.384V135.24H229.364V141.38C229.364 141.913 229.484 142.3 229.724 142.54C229.964 142.767 230.358 142.88 230.904 142.88C231.184 142.88 231.431 142.86 231.644 142.82C231.871 142.78 232.111 142.713 232.364 142.62V143.92C232.111 144.013 231.824 144.08 231.504 144.12C231.198 144.16 230.898 144.18 230.604 144.18C229.738 144.18 229.071 143.973 228.604 143.56C228.138 143.147 227.904 142.547 227.904 141.76ZM241.546 144H240.106L237.286 133.98H238.746L240.906 141.98L243.406 133.98H244.726L247.206 141.98L249.386 133.98H250.786L247.946 144H246.526L244.046 135.98L241.546 144ZM253.068 132.06C252.802 132.06 252.568 131.96 252.368 131.76C252.168 131.56 252.068 131.327 252.068 131.06C252.068 130.78 252.168 130.547 252.368 130.36C252.568 130.16 252.802 130.06 253.068 130.06C253.348 130.06 253.582 130.16 253.768 130.36C253.968 130.547 254.068 130.78 254.068 131.06C254.068 131.327 253.968 131.56 253.768 131.76C253.582 131.96 253.348 132.06 253.068 132.06ZM253.808 133.98V144H252.328V133.98H253.808ZM257.572 141.76V135.24H255.412V133.98H257.572V131.44L259.032 131.06V133.98H262.052V135.24H259.032V141.38C259.032 141.913 259.152 142.3 259.392 142.54C259.632 142.767 260.026 142.88 260.572 142.88C260.852 142.88 261.099 142.86 261.312 142.82C261.539 142.78 261.779 142.713 262.032 142.62V143.92C261.779 144.013 261.492 144.08 261.172 144.12C260.866 144.16 260.566 144.18 260.272 144.18C259.406 144.18 258.739 143.973 258.272 143.56C257.806 143.147 257.572 142.547 257.572 141.76ZM263.637 144V130L265.117 129.66V135.16C265.504 134.707 265.964 134.367 266.497 134.14C267.03 133.9 267.624 133.78 268.277 133.78C269.41 133.78 270.337 134.14 271.057 134.86C271.777 135.58 272.137 136.513 272.137 137.66V144H270.677V137.96C270.677 137.08 270.424 136.38 269.917 135.86C269.41 135.34 268.73 135.08 267.877 135.08C267.277 135.08 266.737 135.213 266.257 135.48C265.79 135.747 265.41 136.127 265.117 136.62V144H263.637ZM279.63 142.08C279.91 142.08 280.15 142.18 280.35 142.38C280.55 142.58 280.65 142.82 280.65 143.1C280.65 143.38 280.55 143.62 280.35 143.82C280.15 144.02 279.91 144.12 279.63 144.12C279.35 144.12 279.11 144.02 278.91 143.82C278.71 143.62 278.61 143.38 278.61 143.1C278.61 142.82 278.71 142.58 278.91 142.38C279.11 142.18 279.35 142.08 279.63 142.08ZM279.63 133.76C279.91 133.76 280.15 133.86 280.35 134.06C280.55 134.26 280.65 134.5 280.65 134.78C280.65 135.06 280.55 135.3 280.35 135.5C280.15 135.7 279.91 135.8 279.63 135.8C279.35 135.8 279.11 135.7 278.91 135.5C278.71 135.3 278.61 135.06 278.61 134.78C278.61 134.5 278.71 134.26 278.91 134.06C279.11 133.86 279.35 133.76 279.63 133.76ZM291.792 141.1H290.532V137.46H287.012V136.22H290.532V132.66H291.792V136.22H295.312V137.46H291.792V141.1ZM301.534 129.82C302.36 129.82 303.12 129.987 303.814 130.32C304.507 130.64 305.1 131.093 305.594 131.68C306.1 132.267 306.494 132.973 306.774 133.8C307.054 134.613 307.194 135.513 307.194 136.5C307.194 137.66 307.034 138.72 306.714 139.68C306.407 140.627 305.967 141.433 305.394 142.1C304.834 142.767 304.154 143.287 303.354 143.66C302.554 144.02 301.667 144.2 300.694 144.2C300.08 144.2 299.48 144.12 298.894 143.96C298.307 143.8 297.787 143.573 297.334 143.28L298.054 142.14C298.467 142.38 298.907 142.567 299.374 142.7C299.84 142.82 300.3 142.88 300.754 142.88C302.26 142.88 303.454 142.34 304.334 141.26C305.214 140.167 305.68 138.667 305.734 136.76C305.214 137.373 304.574 137.86 303.814 138.22C303.054 138.58 302.274 138.76 301.474 138.76C300.78 138.76 300.134 138.653 299.534 138.44C298.947 138.213 298.434 137.907 297.994 137.52C297.567 137.133 297.234 136.673 296.994 136.14C296.754 135.593 296.634 135.007 296.634 134.38C296.634 133.727 296.754 133.12 296.994 132.56C297.247 132 297.587 131.52 298.014 131.12C298.454 130.707 298.974 130.387 299.574 130.16C300.174 129.933 300.827 129.82 301.534 129.82ZM301.734 137.54C302.467 137.54 303.18 137.36 303.874 137C304.567 136.627 305.167 136.113 305.674 135.46C305.514 134.153 305.06 133.1 304.314 132.3C303.567 131.5 302.647 131.1 301.554 131.1C300.567 131.1 299.747 131.413 299.094 132.04C298.44 132.653 298.114 133.42 298.114 134.34C298.114 135.287 298.447 136.06 299.114 136.66C299.794 137.247 300.667 137.54 301.734 137.54ZM312.323 130V144H310.863V131.54L308.503 132.58V131.24L311.383 130H312.323ZM320.285 144.18C319.458 144.18 318.698 144.02 318.005 143.7C317.311 143.367 316.711 142.907 316.205 142.32C315.711 141.733 315.325 141.033 315.045 140.22C314.765 139.393 314.625 138.487 314.625 137.5C314.625 136.34 314.778 135.287 315.085 134.34C315.405 133.38 315.845 132.567 316.405 131.9C316.978 131.233 317.665 130.72 318.465 130.36C319.265 129.987 320.151 129.8 321.125 129.8C321.738 129.8 322.338 129.88 322.925 130.04C323.511 130.2 324.031 130.427 324.485 130.72L323.765 131.86C323.351 131.62 322.911 131.44 322.445 131.32C321.978 131.187 321.518 131.12 321.065 131.12C319.558 131.12 318.365 131.667 317.485 132.76C316.605 133.84 316.138 135.333 316.085 137.24C316.605 136.627 317.245 136.14 318.005 135.78C318.765 135.42 319.545 135.24 320.345 135.24C321.038 135.24 321.678 135.353 322.265 135.58C322.865 135.793 323.378 136.093 323.805 136.48C324.245 136.867 324.585 137.333 324.825 137.88C325.065 138.413 325.185 138.993 325.185 139.62C325.185 140.273 325.058 140.88 324.805 141.44C324.565 142 324.225 142.487 323.785 142.9C323.358 143.3 322.845 143.613 322.245 143.84C321.645 144.067 320.991 144.18 320.285 144.18ZM320.085 136.46C319.351 136.46 318.638 136.647 317.945 137.02C317.251 137.38 316.651 137.887 316.145 138.54C316.305 139.847 316.758 140.9 317.505 141.7C318.251 142.5 319.171 142.9 320.265 142.9C321.251 142.9 322.071 142.593 322.725 141.98C323.378 141.353 323.705 140.58 323.705 139.66C323.705 138.713 323.365 137.947 322.685 137.36C322.018 136.76 321.151 136.46 320.085 136.46ZM326.222 144V142.92L331.522 137.82C332.442 136.913 333.076 136.187 333.422 135.64C333.769 135.08 333.942 134.487 333.942 133.86C333.942 133.06 333.636 132.4 333.022 131.88C332.422 131.36 331.662 131.1 330.742 131.1C330.062 131.1 329.422 131.233 328.822 131.5C328.236 131.767 327.582 132.207 326.862 132.82L326.002 131.8C326.762 131.133 327.536 130.64 328.322 130.32C329.109 129.987 329.922 129.82 330.762 129.82C331.429 129.82 332.049 129.92 332.622 130.12C333.196 130.32 333.682 130.593 334.082 130.94C334.496 131.287 334.816 131.707 335.042 132.2C335.269 132.68 335.382 133.207 335.382 133.78C335.382 134.193 335.336 134.58 335.242 134.94C335.162 135.3 335.009 135.667 334.782 136.04C334.569 136.4 334.276 136.793 333.902 137.22C333.529 137.633 333.056 138.113 332.482 138.66L328.222 142.72H335.642V144H326.222ZM342.002 129.82C342.829 129.82 343.589 129.987 344.282 130.32C344.976 130.64 345.569 131.093 346.062 131.68C346.569 132.267 346.962 132.973 347.242 133.8C347.522 134.613 347.662 135.513 347.662 136.5C347.662 137.66 347.502 138.72 347.182 139.68C346.876 140.627 346.436 141.433 345.862 142.1C345.302 142.767 344.622 143.287 343.822 143.66C343.022 144.02 342.136 144.2 341.162 144.2C340.549 144.2 339.949 144.12 339.362 143.96C338.776 143.8 338.256 143.573 337.802 143.28L338.522 142.14C338.936 142.38 339.376 142.567 339.842 142.7C340.309 142.82 340.769 142.88 341.222 142.88C342.729 142.88 343.922 142.34 344.802 141.26C345.682 140.167 346.149 138.667 346.202 136.76C345.682 137.373 345.042 137.86 344.282 138.22C343.522 138.58 342.742 138.76 341.942 138.76C341.249 138.76 340.602 138.653 340.002 138.44C339.416 138.213 338.902 137.907 338.462 137.52C338.036 137.133 337.702 136.673 337.462 136.14C337.222 135.593 337.102 135.007 337.102 134.38C337.102 133.727 337.222 133.12 337.462 132.56C337.716 132 338.056 131.52 338.482 131.12C338.922 130.707 339.442 130.387 340.042 130.16C340.642 129.933 341.296 129.82 342.002 129.82ZM342.202 137.54C342.936 137.54 343.649 137.36 344.342 137C345.036 136.627 345.636 136.113 346.142 135.46C345.982 134.153 345.529 133.1 344.782 132.3C344.036 131.5 343.116 131.1 342.022 131.1C341.036 131.1 340.216 131.413 339.562 132.04C338.909 132.653 338.582 133.42 338.582 134.34C338.582 135.287 338.916 136.06 339.582 136.66C340.262 137.247 341.136 137.54 342.202 137.54ZM355.168 144.2C354.328 144.2 353.555 144.027 352.848 143.68C352.155 143.32 351.555 142.827 351.048 142.2C350.555 141.56 350.168 140.8 349.888 139.92C349.608 139.027 349.468 138.053 349.468 137C349.468 135.947 349.608 134.98 349.888 134.1C350.168 133.207 350.555 132.447 351.048 131.82C351.555 131.18 352.162 130.687 352.868 130.34C353.575 129.98 354.342 129.8 355.168 129.8C356.008 129.8 356.775 129.98 357.468 130.34C358.175 130.687 358.782 131.18 359.288 131.82C359.795 132.447 360.188 133.207 360.468 134.1C360.748 134.98 360.888 135.947 360.888 137C360.888 138.053 360.748 139.027 360.468 139.92C360.188 140.8 359.795 141.56 359.288 142.2C358.782 142.827 358.175 143.32 357.468 143.68C356.775 144.027 356.008 144.2 355.168 144.2ZM355.168 142.88C356.462 142.88 357.495 142.347 358.268 141.28C359.042 140.213 359.428 138.787 359.428 137C359.428 135.213 359.042 133.787 358.268 132.72C357.495 131.64 356.462 131.1 355.168 131.1C353.888 131.1 352.862 131.64 352.088 132.72C351.315 133.787 350.928 135.213 350.928 137C350.928 138.787 351.315 140.213 352.088 141.28C352.862 142.347 353.888 142.88 355.168 142.88ZM367.931 144.2C367.184 144.2 366.484 144.1 365.831 143.9C365.191 143.7 364.638 143.427 364.171 143.08C363.718 142.72 363.358 142.3 363.091 141.82C362.838 141.327 362.711 140.793 362.711 140.22C362.711 139.407 362.991 138.68 363.551 138.04C364.111 137.387 364.838 136.92 365.731 136.64C364.998 136.36 364.404 135.933 363.951 135.36C363.498 134.787 363.271 134.14 363.271 133.42C363.271 132.9 363.391 132.42 363.631 131.98C363.871 131.527 364.198 131.14 364.611 130.82C365.024 130.5 365.511 130.247 366.071 130.06C366.644 129.873 367.264 129.78 367.931 129.78C368.598 129.78 369.218 129.873 369.791 130.06C370.364 130.247 370.858 130.5 371.271 130.82C371.684 131.14 372.011 131.527 372.251 131.98C372.491 132.42 372.611 132.9 372.611 133.42C372.611 134.14 372.384 134.787 371.931 135.36C371.478 135.933 370.884 136.36 370.151 136.64C371.044 136.92 371.771 137.387 372.331 138.04C372.891 138.68 373.171 139.407 373.171 140.22C373.171 140.793 373.038 141.327 372.771 141.82C372.518 142.3 372.158 142.72 371.691 143.08C371.224 143.427 370.671 143.7 370.031 143.9C369.391 144.1 368.691 144.2 367.931 144.2ZM367.931 136C368.838 136 369.604 135.76 370.231 135.28C370.858 134.787 371.171 134.187 371.171 133.48C371.171 132.773 370.858 132.173 370.231 131.68C369.618 131.187 368.851 130.94 367.931 130.94C367.024 130.94 366.258 131.187 365.631 131.68C365.018 132.173 364.711 132.773 364.711 133.48C364.711 134.187 365.018 134.787 365.631 135.28C366.258 135.76 367.024 136 367.931 136ZM367.931 143C368.998 143 369.891 142.727 370.611 142.18C371.344 141.62 371.711 140.933 371.711 140.12C371.711 139.32 371.344 138.647 370.611 138.1C369.891 137.553 368.998 137.28 367.931 137.28C366.864 137.28 365.964 137.553 365.231 138.1C364.511 138.647 364.151 139.32 364.151 140.12C364.151 140.933 364.511 141.62 365.231 142.18C365.964 142.727 366.864 143 367.931 143ZM378.163 130V144H376.703V131.54L374.343 132.58V131.24L377.223 130H378.163ZM385.244 129.82C386.071 129.82 386.831 129.987 387.524 130.32C388.218 130.64 388.811 131.093 389.304 131.68C389.811 132.267 390.204 132.973 390.484 133.8C390.764 134.613 390.904 135.513 390.904 136.5C390.904 137.66 390.744 138.72 390.424 139.68C390.118 140.627 389.678 141.433 389.104 142.1C388.544 142.767 387.864 143.287 387.064 143.66C386.264 144.02 385.378 144.2 384.404 144.2C383.791 144.2 383.191 144.12 382.604 143.96C382.018 143.8 381.498 143.573 381.044 143.28L381.764 142.14C382.178 142.38 382.618 142.567 383.084 142.7C383.551 142.82 384.011 142.88 384.464 142.88C385.971 142.88 387.164 142.34 388.044 141.26C388.924 140.167 389.391 138.667 389.444 136.76C388.924 137.373 388.284 137.86 387.524 138.22C386.764 138.58 385.984 138.76 385.184 138.76C384.491 138.76 383.844 138.653 383.244 138.44C382.658 138.213 382.144 137.907 381.704 137.52C381.278 137.133 380.944 136.673 380.704 136.14C380.464 135.593 380.344 135.007 380.344 134.38C380.344 133.727 380.464 133.12 380.704 132.56C380.958 132 381.298 131.52 381.724 131.12C382.164 130.707 382.684 130.387 383.284 130.16C383.884 129.933 384.538 129.82 385.244 129.82ZM385.444 137.54C386.178 137.54 386.891 137.36 387.584 137C388.278 136.627 388.878 136.113 389.384 135.46C389.224 134.153 388.771 133.1 388.024 132.3C387.278 131.5 386.358 131.1 385.264 131.1C384.278 131.1 383.458 131.413 382.804 132.04C382.151 132.653 381.824 133.42 381.824 134.34C381.824 135.287 382.158 136.06 382.824 136.66C383.504 137.247 384.378 137.54 385.444 137.54ZM402.451 140.18C402.451 140.753 402.324 141.287 402.071 141.78C401.817 142.273 401.464 142.7 401.011 143.06C400.571 143.42 400.037 143.7 399.411 143.9C398.784 144.1 398.104 144.2 397.371 144.2C396.371 144.2 395.437 144.033 394.571 143.7C393.704 143.367 392.931 142.873 392.251 142.22L393.231 141.26C393.844 141.833 394.477 142.253 395.131 142.52C395.797 142.787 396.544 142.92 397.371 142.92C398.424 142.92 399.284 142.66 399.951 142.14C400.631 141.62 400.971 140.953 400.971 140.14C400.971 139.38 400.637 138.76 399.971 138.28C399.317 137.8 398.464 137.56 397.411 137.56H396.231V136.34H397.331C398.211 136.34 398.944 136.08 399.531 135.56C400.131 135.027 400.431 134.373 400.431 133.6C400.431 132.88 400.124 132.28 399.511 131.8C398.911 131.32 398.164 131.08 397.271 131.08C396.524 131.08 395.851 131.213 395.251 131.48C394.651 131.733 394.037 132.167 393.411 132.78L392.431 131.8C393.111 131.133 393.857 130.633 394.671 130.3C395.497 129.953 396.377 129.78 397.311 129.78C397.964 129.78 398.571 129.88 399.131 130.08C399.704 130.267 400.191 130.527 400.591 130.86C400.991 131.193 401.304 131.593 401.531 132.06C401.771 132.513 401.891 133.013 401.891 133.56C401.891 134.267 401.677 134.907 401.251 135.48C400.824 136.053 400.237 136.493 399.491 136.8C400.371 137.053 401.084 137.48 401.631 138.08C402.177 138.68 402.451 139.38 402.451 140.18ZM409.895 144.2C409.055 144.2 408.282 144.027 407.575 143.68C406.882 143.32 406.282 142.827 405.775 142.2C405.282 141.56 404.895 140.8 404.615 139.92C404.335 139.027 404.195 138.053 404.195 137C404.195 135.947 404.335 134.98 404.615 134.1C404.895 133.207 405.282 132.447 405.775 131.82C406.282 131.18 406.888 130.687 407.595 130.34C408.302 129.98 409.068 129.8 409.895 129.8C410.735 129.8 411.502 129.98 412.195 130.34C412.902 130.687 413.508 131.18 414.015 131.82C414.522 132.447 414.915 133.207 415.195 134.1C415.475 134.98 415.615 135.947 415.615 137C415.615 138.053 415.475 139.027 415.195 139.92C414.915 140.8 414.522 141.56 414.015 142.2C413.508 142.827 412.902 143.32 412.195 143.68C411.502 144.027 410.735 144.2 409.895 144.2ZM409.895 142.88C411.188 142.88 412.222 142.347 412.995 141.28C413.768 140.213 414.155 138.787 414.155 137C414.155 135.213 413.768 133.787 412.995 132.72C412.222 131.64 411.188 131.1 409.895 131.1C408.615 131.1 407.588 131.64 406.815 132.72C406.042 133.787 405.655 135.213 405.655 137C405.655 138.787 406.042 140.213 406.815 141.28C407.588 142.347 408.615 142.88 409.895 142.88ZM420.741 130V144H419.281V131.54L416.921 132.58V131.24L419.801 130H420.741ZM423.423 139.02C423.423 136.993 423.849 135.187 424.703 133.6C425.569 132.013 426.803 130.747 428.403 129.8L429.183 130.8C427.796 131.6 426.723 132.72 425.963 134.16C425.216 135.6 424.843 137.22 424.843 139.02C424.843 140.833 425.216 142.46 425.963 143.9C426.723 145.327 427.796 146.44 429.183 147.24L428.403 148.26C426.803 147.3 425.569 146.027 424.703 144.44C423.849 142.853 423.423 141.047 423.423 139.02ZM435.196 144H433.636L430.616 130H432.176L434.556 141.56L438.016 130H439.516L442.976 141.52L445.376 130H446.876L443.856 144H442.296L438.756 132.14L435.196 144ZM448.813 144V130L450.293 129.66V135.16C450.679 134.707 451.139 134.367 451.673 134.14C452.206 133.9 452.799 133.78 453.453 133.78C454.586 133.78 455.513 134.14 456.233 134.86C456.953 135.58 457.313 136.513 457.313 137.66V144H455.853V137.96C455.853 137.08 455.599 136.38 455.093 135.86C454.586 135.34 453.906 135.08 453.053 135.08C452.453 135.08 451.913 135.213 451.433 135.48C450.966 135.747 450.586 136.127 450.293 136.62V144H448.813ZM462.949 144.18C461.856 144.18 460.963 143.9 460.269 143.34C459.589 142.78 459.249 142.053 459.249 141.16C459.249 140.227 459.609 139.487 460.329 138.94C461.049 138.38 462.023 138.1 463.249 138.1C463.783 138.1 464.296 138.16 464.789 138.28C465.296 138.4 465.763 138.567 466.189 138.78V137.46C466.189 136.66 465.963 136.06 465.509 135.66C465.056 135.247 464.396 135.04 463.529 135.04C463.036 135.04 462.536 135.113 462.029 135.26C461.536 135.393 460.989 135.613 460.389 135.92L459.829 134.78C460.549 134.433 461.216 134.18 461.829 134.02C462.443 133.86 463.056 133.78 463.669 133.78C464.936 133.78 465.909 134.08 466.589 134.68C467.283 135.28 467.629 136.14 467.629 137.26V144H466.189V143.02C465.736 143.407 465.236 143.7 464.689 143.9C464.156 144.087 463.576 144.18 462.949 144.18ZM460.669 141.12C460.669 141.68 460.903 142.14 461.369 142.5C461.849 142.847 462.463 143.02 463.209 143.02C463.809 143.02 464.356 142.927 464.849 142.74C465.343 142.553 465.789 142.26 466.189 141.86V139.98C465.776 139.7 465.329 139.5 464.849 139.38C464.383 139.247 463.863 139.18 463.289 139.18C462.489 139.18 461.849 139.36 461.369 139.72C460.903 140.067 460.669 140.533 460.669 141.12ZM470.951 141.76V135.24H468.791V133.98H470.951V131.44L472.411 131.06V133.98H475.431V135.24H472.411V141.38C472.411 141.913 472.531 142.3 472.771 142.54C473.011 142.767 473.405 142.88 473.951 142.88C474.231 142.88 474.478 142.86 474.691 142.82C474.918 142.78 475.158 142.713 475.411 142.62V143.92C475.158 144.013 474.871 144.08 474.551 144.12C474.245 144.16 473.945 144.18 473.651 144.18C472.785 144.18 472.118 143.973 471.651 143.56C471.185 143.147 470.951 142.547 470.951 141.76ZM476.191 142.62L477.091 141.66C477.545 142.087 478.051 142.42 478.611 142.66C479.185 142.887 479.765 143 480.351 143C481.151 143 481.805 142.833 482.311 142.5C482.818 142.167 483.071 141.733 483.071 141.2C483.071 140.773 482.918 140.44 482.611 140.2C482.318 139.947 481.851 139.773 481.211 139.68L479.471 139.44C478.471 139.293 477.725 139 477.231 138.56C476.751 138.107 476.511 137.5 476.511 136.74C476.511 135.9 476.865 135.207 477.571 134.66C478.278 134.1 479.178 133.82 480.271 133.82C480.991 133.82 481.671 133.927 482.311 134.14C482.965 134.353 483.598 134.687 484.211 135.14L483.431 136.14C482.871 135.767 482.325 135.487 481.791 135.3C481.271 135.113 480.738 135.02 480.191 135.02C479.511 135.02 478.951 135.173 478.511 135.48C478.085 135.787 477.871 136.187 477.871 136.68C477.871 137.107 478.018 137.44 478.311 137.68C478.605 137.907 479.078 138.067 479.731 138.16L481.471 138.4C482.471 138.533 483.218 138.833 483.711 139.3C484.218 139.753 484.471 140.36 484.471 141.12C484.471 141.547 484.365 141.953 484.151 142.34C483.951 142.713 483.665 143.04 483.291 143.32C482.931 143.587 482.505 143.8 482.011 143.96C481.518 144.107 480.985 144.18 480.411 144.18C479.585 144.18 478.805 144.047 478.071 143.78C477.351 143.5 476.725 143.113 476.191 142.62ZM489.395 144.18C488.301 144.18 487.408 143.9 486.715 143.34C486.035 142.78 485.695 142.053 485.695 141.16C485.695 140.227 486.055 139.487 486.775 138.94C487.495 138.38 488.468 138.1 489.695 138.1C490.228 138.1 490.741 138.16 491.235 138.28C491.741 138.4 492.208 138.567 492.635 138.78V137.46C492.635 136.66 492.408 136.06 491.955 135.66C491.501 135.247 490.841 135.04 489.975 135.04C489.481 135.04 488.981 135.113 488.475 135.26C487.981 135.393 487.435 135.613 486.835 135.92L486.275 134.78C486.995 134.433 487.661 134.18 488.275 134.02C488.888 133.86 489.501 133.78 490.115 133.78C491.381 133.78 492.355 134.08 493.035 134.68C493.728 135.28 494.075 136.14 494.075 137.26V144H492.635V143.02C492.181 143.407 491.681 143.7 491.135 143.9C490.601 144.087 490.021 144.18 489.395 144.18ZM487.115 141.12C487.115 141.68 487.348 142.14 487.815 142.5C488.295 142.847 488.908 143.02 489.655 143.02C490.255 143.02 490.801 142.927 491.295 142.74C491.788 142.553 492.235 142.26 492.635 141.86V139.98C492.221 139.7 491.775 139.5 491.295 139.38C490.828 139.247 490.308 139.18 489.735 139.18C488.935 139.18 488.295 139.36 487.815 139.72C487.348 140.067 487.115 140.533 487.115 141.12ZM496.547 148.1V133.98H498.007V135.06C498.434 134.647 498.92 134.34 499.467 134.14C500.027 133.927 500.62 133.82 501.247 133.82C501.954 133.82 502.614 133.953 503.227 134.22C503.84 134.487 504.374 134.853 504.827 135.32C505.28 135.773 505.634 136.32 505.887 136.96C506.154 137.587 506.287 138.26 506.287 138.98C506.287 139.7 506.154 140.38 505.887 141.02C505.634 141.66 505.28 142.213 504.827 142.68C504.374 143.133 503.834 143.493 503.207 143.76C502.594 144.027 501.934 144.16 501.227 144.16C500.64 144.16 500.074 144.06 499.527 143.86C498.98 143.66 498.48 143.373 498.027 143V148.1H496.547ZM501.107 135.12C500.48 135.12 499.894 135.247 499.347 135.5C498.814 135.74 498.374 136.08 498.027 136.52V141.48C498.374 141.907 498.82 142.247 499.367 142.5C499.914 142.74 500.494 142.86 501.107 142.86C502.16 142.86 503.04 142.493 503.747 141.76C504.467 141.013 504.827 140.093 504.827 139C504.827 138.453 504.727 137.947 504.527 137.48C504.34 137 504.08 136.587 503.747 136.24C503.414 135.893 503.02 135.62 502.567 135.42C502.114 135.22 501.627 135.12 501.107 135.12ZM508.344 148.1V133.98H509.804V135.06C510.231 134.647 510.717 134.34 511.264 134.14C511.824 133.927 512.417 133.82 513.044 133.82C513.751 133.82 514.411 133.953 515.024 134.22C515.637 134.487 516.171 134.853 516.624 135.32C517.077 135.773 517.431 136.32 517.684 136.96C517.951 137.587 518.084 138.26 518.084 138.98C518.084 139.7 517.951 140.38 517.684 141.02C517.431 141.66 517.077 142.213 516.624 142.68C516.171 143.133 515.631 143.493 515.004 143.76C514.391 144.027 513.731 144.16 513.024 144.16C512.437 144.16 511.871 144.06 511.324 143.86C510.777 143.66 510.277 143.373 509.824 143V148.1H508.344ZM512.904 135.12C512.277 135.12 511.691 135.247 511.144 135.5C510.611 135.74 510.171 136.08 509.824 136.52V141.48C510.171 141.907 510.617 142.247 511.164 142.5C511.711 142.74 512.291 142.86 512.904 142.86C513.957 142.86 514.837 142.493 515.544 141.76C516.264 141.013 516.624 140.093 516.624 139C516.624 138.453 516.524 137.947 516.324 137.48C516.137 137 515.877 136.587 515.544 136.24C515.211 135.893 514.817 135.62 514.364 135.42C513.911 135.22 513.424 135.12 512.904 135.12ZM525.342 138.92C525.342 140.947 524.908 142.753 524.042 144.34C523.188 145.927 521.962 147.193 520.362 148.14L519.582 147.14C520.968 146.34 522.035 145.22 522.782 143.78C523.542 142.34 523.922 140.72 523.922 138.92C523.922 137.107 523.542 135.487 522.782 134.06C522.035 132.62 520.968 131.5 519.582 130.7L520.362 129.68C521.962 130.64 523.188 131.913 524.042 133.5C524.908 135.087 525.342 136.893 525.342 138.92Z" fill="black"/>
</svg>
