<svg width="847" height="48" viewBox="0 0 847 48" fill="none" xmlns="http://www.w3.org/2000/svg">
<path d="M334.648 16.408V11.8H356.824V16.408H348.364V37H343.144V16.408H334.648ZM359.428 37V11.8L364.36 10.72V19.72C365.08 19.12 365.872 18.664 366.736 18.352C367.624 18.04 368.584 17.884 369.616 17.884C371.776 17.884 373.552 18.58 374.944 19.972C376.336 21.364 377.032 23.152 377.032 25.336V37H372.1V26.056C372.1 24.88 371.74 23.932 371.02 23.212C370.324 22.492 369.388 22.132 368.212 22.132C367.396 22.132 366.652 22.3 365.98 22.636C365.332 22.948 364.792 23.404 364.36 24.004V37H359.428ZM386.708 37.324C384.692 37.324 383.048 36.796 381.776 35.74C380.504 34.66 379.868 33.268 379.868 31.564C379.868 29.788 380.552 28.396 381.92 27.388C383.288 26.38 385.172 25.876 387.572 25.876C388.34 25.876 389.108 25.936 389.876 26.056C390.644 26.176 391.4 26.356 392.144 26.596V25.264C392.144 24.184 391.808 23.368 391.136 22.816C390.464 22.264 389.48 21.988 388.184 21.988C387.392 21.988 386.528 22.12 385.592 22.384C384.68 22.624 383.636 23.008 382.46 23.536L380.66 19.9C382.124 19.228 383.54 18.724 384.908 18.388C386.3 18.052 387.668 17.884 389.012 17.884C391.532 17.884 393.488 18.496 394.88 19.72C396.296 20.92 397.004 22.624 397.004 24.832V37H392.144V35.704C391.352 36.256 390.512 36.664 389.624 36.928C388.76 37.192 387.788 37.324 386.708 37.324ZM384.584 31.456C384.584 32.176 384.896 32.752 385.52 33.184C386.144 33.592 386.972 33.796 388.004 33.796C388.82 33.796 389.564 33.7 390.236 33.508C390.932 33.292 391.568 32.992 392.144 32.608V29.8C391.544 29.56 390.908 29.392 390.236 29.296C389.588 29.176 388.904 29.116 388.184 29.116C387.056 29.116 386.168 29.332 385.52 29.764C384.896 30.172 384.584 30.736 384.584 31.456ZM400.737 37V18.244H405.669V19.72C406.389 19.12 407.181 18.664 408.045 18.352C408.933 18.04 409.893 17.884 410.925 17.884C413.085 17.884 414.861 18.58 416.253 19.972C417.645 21.364 418.341 23.152 418.341 25.336V37H413.409V26.056C413.409 24.88 413.049 23.932 412.329 23.212C411.633 22.492 410.697 22.132 409.521 22.132C408.705 22.132 407.961 22.3 407.289 22.636C406.641 22.948 406.101 23.404 405.669 24.004V37H400.737ZM422.077 37V11.8L427.009 10.72V26.164L435.109 18.244H440.689L431.905 26.848L441.229 37H434.929L427.009 28.432V37H422.077ZM457.916 37V27.352L447.62 11.8H453.632L460.688 22.744L467.78 11.8H473.468L463.136 27.388V37H457.916ZM469.236 27.64C469.236 26.272 469.488 25 469.992 23.824C470.52 22.624 471.228 21.592 472.116 20.728C473.028 19.84 474.096 19.144 475.32 18.64C476.544 18.136 477.852 17.884 479.244 17.884C480.636 17.884 481.944 18.136 483.168 18.64C484.392 19.144 485.448 19.84 486.336 20.728C487.248 21.592 487.956 22.624 488.46 23.824C488.988 25 489.252 26.272 489.252 27.64C489.252 29.008 488.988 30.292 488.46 31.492C487.956 32.668 487.248 33.688 486.336 34.552C485.448 35.416 484.392 36.1 483.168 36.604C481.944 37.108 480.636 37.36 479.244 37.36C477.852 37.36 476.544 37.108 475.32 36.604C474.096 36.1 473.028 35.416 472.116 34.552C471.228 33.688 470.52 32.668 469.992 31.492C469.488 30.292 469.236 29.008 469.236 27.64ZM479.244 33.076C480.684 33.076 481.908 32.548 482.916 31.492C483.924 30.436 484.428 29.152 484.428 27.64C484.428 26.104 483.924 24.808 482.916 23.752C481.908 22.696 480.684 22.168 479.244 22.168C477.804 22.168 476.58 22.696 475.572 23.752C474.564 24.808 474.06 26.104 474.06 27.64C474.06 29.152 474.564 30.436 475.572 31.492C476.58 32.548 477.804 33.076 479.244 33.076ZM497.072 18.244V29.152C497.072 30.352 497.42 31.312 498.116 32.032C498.836 32.752 499.784 33.112 500.96 33.112C501.8 33.112 502.544 32.956 503.192 32.644C503.864 32.308 504.416 31.84 504.848 31.24V18.244H509.78V37H504.848V35.488C504.128 36.088 503.324 36.556 502.436 36.892C501.548 37.204 500.588 37.36 499.556 37.36C497.396 37.36 495.62 36.664 494.228 35.272C492.836 33.856 492.14 32.056 492.14 29.872V18.244H497.072Z" fill="black"/>
<path d="M0 27L298.002 27" stroke="black"/>
<line x1="548" y1="26.5" x2="846.002" y2="26.5" stroke="black"/>
</svg>
