<svg width="345" height="36" viewBox="0 0 345 36" fill="none" xmlns="http://www.w3.org/2000/svg">
<path d="M10.936 11.608V14.164H7.156V34H4.384V14.164H0.64V11.608H3.952C3.568 11.152 3.172 10.672 2.764 10.168C2.38 9.664 2.032 9.16 1.72 8.656C2.536 7.24 3.412 5.956 4.348 4.804C5.284 3.628 6.388 2.704 7.66 2.032C8.932 1.336 10.468 0.987998 12.268 0.987998C13.972 0.987998 15.58 1.264 17.092 1.816C18.604 2.368 20.116 3.148 21.628 4.156C23.14 5.14 24.724 6.316 26.38 7.684L24.868 9.628C23.212 8.284 21.712 7.168 20.368 6.28C19.048 5.392 17.776 4.732 16.552 4.3C15.352 3.844 14.068 3.616 12.7 3.616C10.708 3.616 9.112 4.12 7.912 5.128C6.712 6.136 5.68 7.444 4.816 9.052C5.008 9.412 5.272 9.808 5.608 10.24C5.944 10.672 6.328 11.128 6.76 11.608H10.936ZM13.3345 11.356C14.4385 11.356 15.4825 11.608 16.4665 12.112C17.4745 12.616 18.2185 13.42 18.6985 14.524C19.1305 13.444 19.7905 12.652 20.6785 12.148C21.5665 11.62 22.5265 11.356 23.5585 11.356C24.6385 11.356 25.6225 11.596 26.5105 12.076C27.4225 12.556 28.1905 13.216 28.8145 14.056C28.7905 13.768 28.7665 13.468 28.7425 13.156C28.7425 12.844 28.7425 12.508 28.7425 12.148V9.232H30.6505L31.5145 11.608H35.2945V14.164H31.5145V34H28.7425V17.656C28.0465 16.48 27.2665 15.58 26.4025 14.956C25.5625 14.308 24.6385 13.984 23.6305 13.984C22.6945 13.984 21.9385 14.248 21.3625 14.776C20.7865 15.28 20.4985 16.036 20.4985 17.044C20.4985 18.004 20.8825 18.796 21.6505 19.42C22.4425 20.02 23.7025 20.356 25.4305 20.428L25.1785 23.2C23.4745 23.104 22.0945 22.744 21.0385 22.12C20.0065 21.496 19.2745 20.68 18.8425 19.672C18.4105 20.68 17.6785 21.52 16.6465 22.192C15.6145 22.864 14.2345 23.2 12.5065 23.2L12.2905 20.428C13.5145 20.404 14.4745 20.236 15.1705 19.924C15.8665 19.588 16.3585 19.168 16.6465 18.664C16.9345 18.16 17.0785 17.656 17.0785 17.152C17.0785 16.168 16.7665 15.4 16.1425 14.848C15.5185 14.272 14.5705 13.984 13.2985 13.984C12.5065 13.984 11.5825 14.116 10.5265 14.38L10.2385 11.68C10.8385 11.56 11.3665 11.476 11.8225 11.428C12.2785 11.38 12.7825 11.356 13.3345 11.356ZM67.5778 24.244C67.5778 24.964 67.4218 25.672 67.1098 26.368C66.8218 27.04 66.3298 27.592 65.6338 28.024C64.9618 28.456 64.0378 28.672 62.8618 28.672C62.5258 28.672 62.1778 28.66 61.8178 28.636C61.4818 28.612 61.1578 28.564 60.8458 28.492L61.0618 25.9C61.3978 25.948 61.7938 25.972 62.2498 25.972C63.3058 25.972 63.9898 25.78 64.3018 25.396C64.6378 24.988 64.8058 24.544 64.8058 24.064C64.8058 23.2 64.4818 22.504 63.8338 21.976C62.7538 21.136 60.8578 20.68 58.1458 20.608V34H55.3738V31.048C54.3418 29.56 53.2498 28.3 52.0978 27.268C50.9698 26.236 49.7098 25.72 48.3178 25.72C47.5018 25.72 46.8778 25.912 46.4458 26.296C46.0138 26.656 45.7978 27.16 45.7978 27.808C45.7978 28.456 46.0018 29.068 46.4098 29.644L43.7458 30.724C43.4578 30.244 43.2298 29.74 43.0618 29.212C42.9178 28.66 42.8458 28.084 42.8458 27.484C42.8458 26.548 43.0738 25.78 43.5298 25.18C44.0098 24.58 44.5978 24.124 45.2938 23.812C45.9898 23.5 46.6978 23.308 47.4178 23.236C47.0578 22.036 46.4098 21.04 45.4738 20.248C44.5618 19.432 43.4218 19.024 42.0538 19.024C41.2378 19.024 40.6138 19.216 40.1818 19.6C39.7498 19.96 39.5338 20.464 39.5338 21.112C39.5338 21.76 39.7378 22.372 40.1458 22.948L37.4818 24.028C36.8818 23.02 36.5818 21.94 36.5818 20.788C36.5818 19.828 36.8338 19.048 37.3378 18.448C37.8418 17.824 38.4538 17.368 39.1738 17.08C39.9178 16.768 40.6378 16.588 41.3338 16.54C41.1898 16.06 40.9978 15.628 40.7578 15.244C40.5178 14.836 40.2298 14.476 39.8938 14.164H34.5658V11.608H69.4858V14.164H58.1458V18.088C60.2338 18.136 61.8778 18.352 63.0778 18.736C64.2778 19.12 65.2378 19.648 65.9578 20.32C66.5578 20.848 66.9778 21.448 67.2178 22.12C67.4578 22.768 67.5778 23.476 67.5778 24.244ZM48.8218 14.884C48.8218 14.692 48.8338 14.452 48.8578 14.164H43.0978C43.3138 14.524 43.5058 14.92 43.6738 15.352C43.8418 15.76 43.9378 16.228 43.9618 16.756C45.0658 17.02 46.0618 17.488 46.9498 18.16C47.8618 18.808 48.5818 19.588 49.1098 20.5C49.6618 21.412 49.9738 22.396 50.0458 23.452C51.1018 23.716 52.0618 24.184 52.9258 24.856C53.8138 25.528 54.6418 26.332 55.4098 27.268C55.3858 26.98 55.3738 26.68 55.3738 26.368C55.3738 26.032 55.3738 25.636 55.3738 25.18V20.572C54.1018 20.524 52.9738 20.308 51.9898 19.924C51.0058 19.54 50.2258 18.94 49.6498 18.124C49.0978 17.308 48.8218 16.228 48.8218 14.884ZM51.5578 14.704C51.5578 15.976 51.8938 16.84 52.5658 17.296C53.2378 17.752 54.1738 18.004 55.3738 18.052V14.164H51.5938C51.5698 14.38 51.5578 14.56 51.5578 14.704ZM79.0688 11.608V14.164H75.2888V34H72.5168V17.116C72.2288 16.3 71.7968 15.604 71.2208 15.028C70.6688 14.452 69.9488 14.164 69.0608 14.164H68.7728V11.608H69.3128C69.8888 11.608 70.4888 11.8 71.1128 12.184C71.7368 12.544 72.2408 13.108 72.6248 13.876C72.6008 13.756 72.5768 13.48 72.5528 13.048C72.5288 12.616 72.5168 12.244 72.5168 11.932V9.232H74.4608L75.2528 11.608H79.0688ZM102.455 35.548H99.7553C99.3713 34.468 98.8553 33.688 98.2073 33.208C97.5833 32.704 96.7793 32.452 95.7953 32.452C94.5473 32.452 93.3353 32.56 92.1593 32.776C91.0073 32.968 89.7473 33.064 88.3793 33.064C87.5153 33.064 86.6153 32.98 85.6793 32.812C84.7433 32.644 83.8673 32.332 83.0513 31.876C82.2353 31.42 81.5753 30.748 81.0713 29.86C80.5673 28.972 80.3153 27.808 80.3153 26.368C80.3153 25.984 80.3393 25.552 80.3873 25.072C80.4353 24.592 80.5193 24.124 80.6393 23.668L83.4113 24.028C83.2193 24.652 83.1233 25.444 83.1233 26.404C83.1233 27.892 83.5913 28.948 84.5273 29.572C85.4633 30.172 86.7473 30.472 88.3793 30.472C89.5073 30.472 90.6233 30.376 91.7273 30.184C92.8313 29.968 93.9833 29.86 95.1833 29.86C96.0953 29.86 96.9353 30.016 97.7033 30.328C98.4713 30.616 99.1313 31.108 99.6833 31.804V20.932C99.2993 20.404 98.9393 19.912 98.6033 19.456C98.2673 18.976 97.9313 18.544 97.5953 18.16L88.2353 26.98L86.1113 25L87.1553 24.028C87.3953 23.692 87.5873 23.332 87.7313 22.948C87.8993 22.564 87.9833 22.132 87.9833 21.652C87.9833 21.052 87.8033 20.572 87.4433 20.212C87.0833 19.852 86.5553 19.672 85.8593 19.672C85.4753 19.672 85.1033 19.72 84.7433 19.816C84.3833 19.912 84.0113 20.08 83.6273 20.32L80.8913 17.728C82.3313 15.832 83.8313 14.296 85.3913 13.12C86.9513 11.944 88.6793 11.356 90.5753 11.356C92.4233 11.356 94.0433 11.848 95.4353 12.832C96.8273 13.792 98.2793 15.232 99.7913 17.152C99.7433 16.672 99.7073 16.168 99.6833 15.64C99.6833 15.088 99.6833 14.512 99.6833 13.912V9.232H101.591L102.419 11.608H106.235V14.164H102.455V35.548ZM90.3953 21.184C90.3953 21.304 90.3953 21.4 90.3953 21.472C90.6833 21.16 90.9713 20.86 91.2593 20.572C91.5713 20.26 91.8953 19.936 92.2313 19.6L95.8313 16.216C94.2713 14.728 92.6033 13.984 90.8273 13.984C89.4353 13.984 88.2233 14.356 87.1913 15.1C86.1593 15.844 85.2353 16.72 84.4193 17.728C85.0433 17.416 85.6913 17.26 86.3633 17.26C87.7793 17.26 88.7993 17.644 89.4233 18.412C90.0713 19.156 90.3953 20.08 90.3953 21.184ZM127.939 11.608V14.164H111.595V23.632C114.499 20.608 118.291 18.232 122.971 16.504L125.311 18.808C124.639 20.056 124.147 21.28 123.835 22.48C123.547 23.68 123.403 25.06 123.403 26.62C123.403 27.796 123.499 28.924 123.691 30.004C123.883 31.084 124.207 32.296 124.663 33.64L121.963 34.252C121.531 32.86 121.195 31.504 120.955 30.184C120.715 28.84 120.595 27.448 120.595 26.008C120.595 24.712 120.727 23.512 120.991 22.408C121.255 21.304 121.555 20.404 121.891 19.708C119.971 20.572 118.123 21.664 116.347 22.984C114.595 24.28 112.795 25.852 110.947 27.7L108.823 26.26V14.164H105.511V11.608H127.939ZM137.499 11.608V14.164H133.719V34H130.947V17.116C130.659 16.3 130.227 15.604 129.651 15.028C129.099 14.452 128.379 14.164 127.49 14.164H127.202V11.608H127.743C128.319 11.608 128.919 11.8 129.543 12.184C130.167 12.544 130.671 13.108 131.055 13.876C131.031 13.756 131.007 13.48 130.983 13.048C130.959 12.616 130.947 12.244 130.947 11.932V9.232H132.891L133.683 11.608H137.499ZM149.941 11.608V14.164H149.221C148.477 14.332 147.673 14.704 146.809 15.28C145.945 15.832 145.129 16.564 144.361 17.476C143.593 18.364 142.957 19.408 142.453 20.608C141.973 21.808 141.733 23.128 141.733 24.568C141.733 26.296 141.985 27.676 142.489 28.708C143.017 29.716 143.665 30.436 144.433 30.868C145.201 31.3 145.969 31.516 146.737 31.516C147.337 31.516 147.841 31.456 148.249 31.336C148.657 31.216 149.125 31 149.653 30.688L150.913 32.884C150.289 33.364 149.605 33.7 148.861 33.892C148.117 34.084 147.373 34.18 146.629 34.18C145.117 34.18 143.773 33.784 142.597 32.992C141.445 32.2 140.533 31.096 139.861 29.68C139.213 28.24 138.889 26.56 138.889 24.64C138.889 22.264 139.417 20.164 140.473 18.34C141.553 16.516 142.933 15.088 144.613 14.056C144.205 14.104 143.773 14.14 143.317 14.164C142.861 14.164 142.357 14.164 141.805 14.164H136.765V11.608H149.941ZM171.674 11.608V14.164H167.894V34H165.122V26.512C163.97 25.048 162.71 23.824 161.342 22.84C159.974 21.856 158.642 21.364 157.346 21.364C156.458 21.364 155.702 21.604 155.078 22.084C154.478 22.54 154.178 23.224 154.178 24.136C154.178 25.48 155.21 26.56 157.274 27.376L155.906 29.932C154.442 29.332 153.29 28.528 152.45 27.52C151.634 26.488 151.226 25.324 151.226 24.028C151.226 22.852 151.502 21.88 152.054 21.112C152.63 20.32 153.35 19.732 154.214 19.348C155.102 18.964 156.002 18.772 156.914 18.772C158.618 18.772 160.13 19.18 161.45 19.996C162.794 20.788 164.054 21.82 165.23 23.092C165.182 22.684 165.146 22.276 165.122 21.868C165.122 21.46 165.122 21.052 165.122 20.644V14.164H149.21V11.608H171.674ZM193.113 11.608V14.164H189.333V34H186.561C185.841 32.56 184.845 31.24 183.573 30.04C182.325 28.816 180.885 27.784 179.253 26.944C177.621 26.104 175.881 25.54 174.033 25.252L172.629 21.796C174.813 20.476 177.057 19.276 179.361 18.196C181.689 17.116 184.089 16.18 186.561 15.388V14.164H170.937V11.608H193.113ZM175.977 23.056C177.201 23.32 178.497 23.776 179.865 24.424C181.233 25.048 182.517 25.84 183.717 26.8C184.941 27.76 185.925 28.864 186.669 30.112C186.645 29.68 186.621 29.236 186.597 28.78C186.573 28.324 186.561 27.796 186.561 27.196V18.196C184.833 18.796 183.033 19.516 181.161 20.356C179.289 21.172 177.561 22.072 175.977 23.056ZM177.957 34.216C177.357 34.216 176.841 34.024 176.409 33.64C176.001 33.256 175.797 32.752 175.797 32.128C175.797 31.504 176.001 30.988 176.409 30.58C176.841 30.172 177.357 29.968 177.957 29.968C178.557 29.968 179.061 30.172 179.469 30.58C179.901 30.988 180.117 31.504 180.117 32.128C180.117 32.752 179.901 33.256 179.469 33.64C179.061 34.024 178.557 34.216 177.957 34.216ZM221.285 18.088C221.285 17.368 221.129 16.672 220.817 16C220.505 15.328 220.109 14.716 219.629 14.164H212.897C213.161 15.34 213.533 16.42 214.013 17.404C214.493 18.388 215.105 19.18 215.849 19.78C216.617 20.356 217.565 20.644 218.693 20.644C219.533 20.644 220.169 20.428 220.601 19.996C221.057 19.54 221.285 18.904 221.285 18.088ZM215.993 35.98C214.025 35.98 212.177 35.62 210.449 34.9C208.745 34.204 207.185 33.04 205.769 31.408C204.377 29.776 203.153 27.592 202.097 24.856L204.797 23.956C206.069 27.22 207.581 29.596 209.333 31.084C211.109 32.548 213.281 33.28 215.849 33.28C218.009 33.28 219.533 32.884 220.421 32.092C221.309 31.276 221.753 30.196 221.753 28.852C221.753 27.676 221.417 26.716 220.745 25.972C220.073 25.228 219.101 24.856 217.829 24.856C216.965 24.856 216.329 25.072 215.921 25.504C215.537 25.912 215.345 26.416 215.345 27.016C215.345 27.184 215.369 27.436 215.417 27.772C215.489 28.084 215.573 28.372 215.669 28.636L212.969 29.14C212.825 28.732 212.705 28.288 212.609 27.808C212.537 27.328 212.501 26.92 212.501 26.584C212.501 25.504 212.861 24.64 213.581 23.992C214.301 23.32 215.177 22.876 216.209 22.66C215.297 22.348 214.505 21.88 213.833 21.256C213.161 20.608 212.597 19.804 212.141 18.844C211.925 19.564 211.637 20.26 211.277 20.932C210.917 21.58 210.437 22.12 209.837 22.552C209.261 22.984 208.565 23.2 207.749 23.2C206.693 23.2 205.721 22.9 204.833 22.3C203.969 21.7 203.021 20.596 201.989 18.988L204.185 17.692C204.881 18.868 205.445 19.624 205.877 19.96C206.333 20.296 206.825 20.464 207.353 20.464C208.241 20.464 208.949 20.02 209.477 19.132C210.029 18.22 210.341 16.564 210.413 14.164H200.117V11.608H227.045V14.164H222.869C223.205 14.692 223.481 15.292 223.697 15.964C223.937 16.612 224.057 17.32 224.057 18.088C224.057 20.824 222.785 22.42 220.241 22.876C221.633 23.332 222.689 24.112 223.409 25.216C224.129 26.32 224.489 27.568 224.489 28.96C224.489 31.096 223.769 32.8 222.329 34.072C220.889 35.344 218.777 35.98 215.993 35.98ZM248.484 11.608V14.164H244.704V34H241.932C241.212 32.56 240.216 31.24 238.944 30.04C237.696 28.816 236.256 27.784 234.624 26.944C232.992 26.104 231.252 25.54 229.404 25.252L228 21.796C230.184 20.476 232.428 19.276 234.732 18.196C237.06 17.116 239.46 16.18 241.932 15.388V14.164H226.308V11.608H248.484ZM231.348 23.056C232.572 23.32 233.868 23.776 235.236 24.424C236.604 25.048 237.888 25.84 239.088 26.8C240.312 27.76 241.296 28.864 242.04 30.112C242.016 29.68 241.992 29.236 241.968 28.78C241.944 28.324 241.932 27.796 241.932 27.196V18.196C240.204 18.796 238.404 19.516 236.532 20.356C234.66 21.172 232.932 22.072 231.348 23.056ZM233.328 34.216C232.728 34.216 232.212 34.024 231.78 33.64C231.372 33.256 231.168 32.752 231.168 32.128C231.168 31.504 231.372 30.988 231.78 30.58C232.212 30.172 232.728 29.968 233.328 29.968C233.928 29.968 234.432 30.172 234.84 30.58C235.272 30.988 235.488 31.504 235.488 32.128C235.488 32.752 235.272 33.256 234.84 33.64C234.432 34.024 233.928 34.216 233.328 34.216ZM258.049 11.608V14.164H254.269V34H251.497V14.164H247.753V11.608H251.065C250.681 11.152 250.285 10.672 249.877 10.168C249.493 9.664 249.145 9.16 248.833 8.656C249.649 7.24 250.525 5.956 251.461 4.804C252.397 3.628 253.501 2.704 254.773 2.032C256.045 1.336 257.581 0.987998 259.381 0.987998C261.085 0.987998 262.693 1.264 264.205 1.816C265.717 2.368 267.229 3.148 268.741 4.156C270.253 5.14 271.837 6.316 273.493 7.684L271.981 9.628C270.325 8.284 268.825 7.168 267.481 6.28C266.161 5.392 264.889 4.732 263.665 4.3C262.465 3.844 261.181 3.616 259.813 3.616C257.821 3.616 256.225 4.12 255.025 5.128C253.825 6.136 252.793 7.444 251.929 9.052C252.121 9.412 252.385 9.808 252.721 10.24C253.057 10.672 253.441 11.128 253.873 11.608H258.049ZM279.492 11.608V14.164H275.712V34H272.94C272.22 32.56 271.224 31.24 269.952 30.04C268.704 28.816 267.264 27.784 265.632 26.944C264 26.104 262.26 25.54 260.412 25.252L259.008 21.796C261.192 20.476 263.436 19.276 265.74 18.196C268.068 17.116 270.468 16.18 272.94 15.388V14.164H257.316V11.608H279.492ZM262.356 23.056C263.58 23.32 264.876 23.776 266.244 24.424C267.612 25.048 268.896 25.84 270.096 26.8C271.32 27.76 272.304 28.864 273.048 30.112C273.024 29.68 273 29.236 272.976 28.78C272.952 28.324 272.94 27.796 272.94 27.196V18.196C271.212 18.796 269.412 19.516 267.54 20.356C265.668 21.172 263.94 22.072 262.356 23.056ZM301.225 11.608V14.164H297.445V34H294.673V26.512C293.521 25.048 292.261 23.824 290.893 22.84C289.525 21.856 288.193 21.364 286.897 21.364C286.009 21.364 285.253 21.604 284.629 22.084C284.029 22.54 283.729 23.224 283.729 24.136C283.729 25.48 284.761 26.56 286.825 27.376L285.457 29.932C283.993 29.332 282.841 28.528 282.001 27.52C281.185 26.488 280.777 25.324 280.777 24.028C280.777 22.852 281.053 21.88 281.605 21.112C282.181 20.32 282.901 19.732 283.765 19.348C284.653 18.964 285.553 18.772 286.465 18.772C288.169 18.772 289.681 19.18 291.001 19.996C292.345 20.788 293.605 21.82 294.781 23.092C294.733 22.684 294.697 22.276 294.673 21.868C294.673 21.46 294.673 21.052 294.673 20.644V14.164H278.761V11.608H301.225ZM310.388 11.608V14.164H309.092C308.372 14.812 307.82 15.412 307.436 15.964C307.076 16.516 306.836 17.092 306.716 17.692C306.596 18.292 306.536 18.988 306.536 19.78C306.536 20.572 306.632 21.412 306.824 22.3C307.016 23.188 307.208 24.112 307.4 25.072C307.616 26.008 307.724 26.992 307.724 28.024C307.724 29.176 307.532 30.268 307.148 31.3C306.788 32.332 306.092 33.244 305.06 34.036C304.028 34.828 302.504 35.44 300.488 35.872L299.732 33.388C301.268 33.028 302.396 32.584 303.116 32.056C303.86 31.504 304.34 30.88 304.556 30.184C304.796 29.488 304.916 28.744 304.916 27.952C304.916 26.992 304.82 26.056 304.628 25.144C304.436 24.232 304.232 23.332 304.016 22.444C303.824 21.556 303.728 20.692 303.728 19.852C303.728 18.652 303.872 17.632 304.16 16.792C304.472 15.952 305.024 15.076 305.816 14.164H300.488V11.608H310.388ZM319.959 11.608V14.164H316.179V34H313.407V17.116C313.119 16.3 312.687 15.604 312.111 15.028C311.559 14.452 310.839 14.164 309.951 14.164H309.663V11.608H310.203C310.779 11.608 311.379 11.8 312.003 12.184C312.627 12.544 313.131 13.108 313.515 13.876C313.491 13.756 313.467 13.48 313.443 13.048C313.419 12.616 313.407 12.244 313.407 11.932V9.232H315.351L316.143 11.608H319.959ZM344.498 11.608V14.164H340.718V34H337.946V22.516C337.418 21.868 336.938 21.376 336.506 21.04C336.098 20.68 335.69 20.5 335.282 20.5C334.946 20.5 334.634 20.596 334.346 20.788C334.058 20.98 333.734 21.352 333.374 21.904C333.014 22.432 332.534 23.248 331.934 24.352C331.286 25.528 330.698 26.5 330.17 27.268C329.642 28.012 329.078 28.564 328.478 28.924C327.902 29.26 327.194 29.428 326.354 29.428C325.394 29.428 324.482 29.128 323.618 28.528C322.754 27.904 321.83 26.8 320.846 25.216L323.042 23.884C323.69 25.036 324.23 25.792 324.662 26.152C325.094 26.512 325.562 26.692 326.066 26.692C326.57 26.692 327.062 26.488 327.542 26.08C328.022 25.648 328.598 24.868 329.27 23.74C329.054 22.252 328.814 21.076 328.55 20.212C328.286 19.324 327.866 18.628 327.29 18.124C326.69 17.572 325.874 17.164 324.842 16.9C323.81 16.612 322.514 16.372 320.954 16.18L321.35 14.164H319.226V11.608H344.498ZM323.438 14.164C325.262 14.428 326.69 14.824 327.722 15.352C328.778 15.88 329.546 16.6 330.026 17.512C330.506 18.424 330.806 19.612 330.926 21.076C331.526 19.852 332.102 19.012 332.654 18.556C333.23 18.076 333.854 17.836 334.526 17.836C335.174 17.836 335.762 17.992 336.29 18.304C336.842 18.616 337.43 19.072 338.054 19.672C338.006 19.312 337.97 18.952 337.946 18.592C337.946 18.232 337.946 17.872 337.946 17.512V14.164H323.438Z" fill="black"/>
</svg>
