<svg width="216" height="66" viewBox="0 0 216 66" fill="none" xmlns="http://www.w3.org/2000/svg">
<g filter="url(#filter0_d)">
<rect x="5" width="200" height="50" rx="15" fill="#3F7AFE"/>
</g>
<path d="M32.134 31V18.4H38.29C38.926 18.4 39.508 18.496 40.036 18.688C40.576 18.88 41.038 19.15 41.422 19.498C41.806 19.834 42.106 20.242 42.322 20.722C42.538 21.202 42.646 21.73 42.646 22.306C42.646 23.098 42.418 23.806 41.962 24.43C41.518 25.054 40.924 25.516 40.18 25.816L42.97 31H40.054L37.588 26.176H34.744V31H32.134ZM38.056 20.65H34.744V24.034H38.056C38.644 24.034 39.112 23.878 39.46 23.566C39.82 23.254 40 22.846 40 22.342C40 21.838 39.82 21.43 39.46 21.118C39.112 20.806 38.644 20.65 38.056 20.65ZM52.0499 29.83C51.4739 30.298 50.8799 30.64 50.2679 30.856C49.6679 31.072 48.9959 31.18 48.2519 31.18C47.5439 31.18 46.8779 31.054 46.2539 30.802C45.6419 30.55 45.1079 30.208 44.6519 29.776C44.2079 29.344 43.8539 28.834 43.5899 28.246C43.3379 27.646 43.2119 27.004 43.2119 26.32C43.2119 25.648 43.3319 25.018 43.5719 24.43C43.8239 23.83 44.1659 23.314 44.5979 22.882C45.0299 22.438 45.5399 22.09 46.1279 21.838C46.7279 21.586 47.3639 21.46 48.0359 21.46C48.6959 21.46 49.3079 21.592 49.8719 21.856C50.4479 22.108 50.9399 22.456 51.3479 22.9C51.7679 23.344 52.0919 23.878 52.3199 24.502C52.5599 25.114 52.6799 25.78 52.6799 26.5V27.148H45.6959C45.8639 27.736 46.1879 28.21 46.6679 28.57C47.1479 28.93 47.7119 29.11 48.3599 29.11C48.7679 29.11 49.1519 29.044 49.5119 28.912C49.8719 28.78 50.1779 28.594 50.4299 28.354L52.0499 29.83ZM47.9819 23.494C47.4179 23.494 46.9319 23.668 46.5239 24.016C46.1159 24.352 45.8339 24.808 45.6779 25.384H50.2679C50.1119 24.832 49.8239 24.382 49.4039 24.034C48.9959 23.674 48.5219 23.494 47.9819 23.494ZM58.5811 31.054C57.9211 31.054 57.2971 30.928 56.7091 30.676C56.1331 30.424 55.6291 30.082 55.1971 29.65C54.7771 29.218 54.4411 28.714 54.1891 28.138C53.9491 27.55 53.8291 26.92 53.8291 26.248C53.8291 25.588 53.9551 24.97 54.2071 24.394C54.4591 23.806 54.8011 23.296 55.2331 22.864C55.6651 22.432 56.1751 22.096 56.7631 21.856C57.3511 21.604 57.9811 21.478 58.6531 21.478C59.1211 21.478 59.5651 21.544 59.9851 21.676C60.4171 21.808 60.8191 21.994 61.1911 22.234V21.622H63.6211V31C63.6211 32.236 63.2191 33.19 62.4151 33.862C61.6231 34.534 60.4771 34.87 58.9771 34.87C58.2571 34.87 57.5611 34.798 56.8891 34.654C56.2291 34.51 55.6231 34.3 55.0711 34.024L55.9351 32.098C56.4511 32.35 56.9551 32.536 57.4471 32.656C57.9391 32.788 58.4311 32.854 58.9231 32.854C59.6551 32.854 60.2071 32.692 60.5791 32.368C60.9631 32.056 61.1551 31.594 61.1551 30.982V30.208C60.7831 30.484 60.3751 30.694 59.9311 30.838C59.4991 30.982 59.0491 31.054 58.5811 31.054ZM56.2591 26.248C56.2591 27.004 56.5171 27.646 57.0331 28.174C57.5611 28.702 58.2031 28.966 58.9591 28.966C59.4031 28.966 59.8111 28.894 60.1831 28.75C60.5551 28.594 60.8791 28.384 61.1551 28.12V24.43C60.8911 24.166 60.5671 23.962 60.1831 23.818C59.7991 23.662 59.3971 23.584 58.9771 23.584C58.2211 23.584 57.5791 23.842 57.0511 24.358C56.5231 24.874 56.2591 25.504 56.2591 26.248ZM66.7878 20.506C66.4038 20.506 66.0738 20.368 65.7978 20.092C65.5218 19.816 65.3838 19.486 65.3838 19.102C65.3838 18.718 65.5218 18.388 65.7978 18.112C66.0738 17.836 66.4038 17.698 66.7878 17.698C67.1718 17.698 67.5018 17.836 67.7778 18.112C68.0538 18.388 68.1918 18.718 68.1918 19.102C68.1918 19.486 68.0538 19.816 67.7778 20.092C67.5018 20.368 67.1718 20.506 66.7878 20.506ZM68.0298 21.622V31H65.5638V21.622H68.0298ZM69.1663 29.884L70.3903 28.246C70.9423 28.606 71.4643 28.876 71.9563 29.056C72.4483 29.224 72.9403 29.308 73.4323 29.308C73.9843 29.308 74.4223 29.218 74.7463 29.038C75.0823 28.858 75.2503 28.618 75.2503 28.318C75.2503 28.078 75.1543 27.886 74.9623 27.742C74.7823 27.598 74.4883 27.496 74.0803 27.436L72.2803 27.166C71.3563 27.022 70.6483 26.722 70.1563 26.266C69.6763 25.81 69.4363 25.204 69.4363 24.448C69.4363 23.548 69.7903 22.828 70.4983 22.288C71.2063 21.748 72.1543 21.478 73.3423 21.478C74.0263 21.478 74.6923 21.58 75.3403 21.784C75.9883 21.976 76.6063 22.264 77.1943 22.648L76.0063 24.232C75.4903 23.932 74.9983 23.71 74.5303 23.566C74.0623 23.41 73.5883 23.332 73.1083 23.332C72.6643 23.332 72.3043 23.416 72.0283 23.584C71.7643 23.752 71.6323 23.974 71.6323 24.25C71.6323 24.502 71.7283 24.7 71.9203 24.844C72.1243 24.976 72.4543 25.072 72.9103 25.132L74.7103 25.402C75.6223 25.534 76.3243 25.834 76.8163 26.302C77.3203 26.77 77.5723 27.364 77.5723 28.084C77.5723 28.528 77.4643 28.942 77.2483 29.326C77.0443 29.698 76.7623 30.022 76.4023 30.298C76.0423 30.574 75.6103 30.79 75.1063 30.946C74.6023 31.102 74.0563 31.18 73.4683 31.18C72.6163 31.18 71.8183 31.072 71.0743 30.856C70.3303 30.628 69.6943 30.304 69.1663 29.884ZM79.9023 28.354V23.692H77.9763V21.622H79.9023V19.228L82.3683 18.67V21.622H85.0323V23.692H82.3683V27.85C82.3683 28.294 82.4643 28.606 82.6563 28.786C82.8483 28.966 83.1843 29.056 83.6643 29.056C83.8923 29.056 84.1083 29.044 84.3123 29.02C84.5163 28.984 84.7383 28.924 84.9783 28.84V30.856C84.7143 30.94 84.3963 31.006 84.0243 31.054C83.6523 31.114 83.3343 31.144 83.0703 31.144C82.0263 31.144 81.2343 30.91 80.6943 30.442C80.1663 29.962 79.9023 29.266 79.9023 28.354ZM86.2533 31V21.622H88.7193V22.648C89.0193 22.24 89.3793 21.934 89.7993 21.73C90.2313 21.514 90.7053 21.406 91.2213 21.406C91.4613 21.418 91.6593 21.442 91.8153 21.478C91.9833 21.502 92.1273 21.55 92.2473 21.622V23.782C92.0673 23.698 91.8693 23.638 91.6533 23.602C91.4373 23.554 91.2153 23.53 90.9873 23.53C90.5073 23.53 90.0633 23.65 89.6553 23.89C89.2593 24.13 88.9473 24.478 88.7193 24.934V31H86.2533ZM96.2897 31.162C95.2817 31.162 94.4597 30.898 93.8237 30.37C93.1877 29.83 92.8697 29.134 92.8697 28.282C92.8697 27.394 93.2117 26.698 93.8957 26.194C94.5797 25.69 95.5217 25.438 96.7217 25.438C97.1057 25.438 97.4897 25.468 97.8737 25.528C98.2577 25.588 98.6357 25.678 99.0077 25.798V25.132C99.0077 24.592 98.8397 24.184 98.5037 23.908C98.1677 23.632 97.6757 23.494 97.0277 23.494C96.6317 23.494 96.1997 23.56 95.7317 23.692C95.2757 23.812 94.7537 24.004 94.1657 24.268L93.2657 22.45C93.9977 22.114 94.7057 21.862 95.3897 21.694C96.0857 21.526 96.7697 21.442 97.4417 21.442C98.7017 21.442 99.6797 21.748 100.376 22.36C101.084 22.96 101.438 23.812 101.438 24.916V31H99.0077V30.352C98.6117 30.628 98.1917 30.832 97.7477 30.964C97.3157 31.096 96.8297 31.162 96.2897 31.162ZM95.2277 28.228C95.2277 28.588 95.3837 28.876 95.6957 29.092C96.0077 29.296 96.4217 29.398 96.9377 29.398C97.3457 29.398 97.7177 29.35 98.0537 29.254C98.4017 29.146 98.7197 28.996 99.0077 28.804V27.4C98.7077 27.28 98.3897 27.196 98.0537 27.148C97.7297 27.088 97.3877 27.058 97.0277 27.058C96.4637 27.058 96.0197 27.166 95.6957 27.382C95.3837 27.586 95.2277 27.868 95.2277 28.228ZM104.23 28.354V23.692H102.304V21.622H104.23V19.228L106.696 18.67V21.622H109.36V23.692H106.696V27.85C106.696 28.294 106.792 28.606 106.984 28.786C107.176 28.966 107.512 29.056 107.992 29.056C108.22 29.056 108.436 29.044 108.64 29.02C108.844 28.984 109.066 28.924 109.306 28.84V30.856C109.042 30.94 108.724 31.006 108.352 31.054C107.98 31.114 107.662 31.144 107.398 31.144C106.354 31.144 105.562 30.91 105.022 30.442C104.494 29.962 104.23 29.266 104.23 28.354ZM111.805 20.506C111.421 20.506 111.091 20.368 110.815 20.092C110.539 19.816 110.401 19.486 110.401 19.102C110.401 18.718 110.539 18.388 110.815 18.112C111.091 17.836 111.421 17.698 111.805 17.698C112.189 17.698 112.519 17.836 112.795 18.112C113.071 18.388 113.209 18.718 113.209 19.102C113.209 19.486 113.071 19.816 112.795 20.092C112.519 20.368 112.189 20.506 111.805 20.506ZM113.047 21.622V31H110.581V21.622H113.047ZM114.544 26.32C114.544 25.636 114.67 25 114.922 24.412C115.186 23.812 115.54 23.296 115.984 22.864C116.44 22.42 116.974 22.072 117.586 21.82C118.198 21.568 118.852 21.442 119.548 21.442C120.244 21.442 120.898 21.568 121.51 21.82C122.122 22.072 122.65 22.42 123.094 22.864C123.55 23.296 123.904 23.812 124.156 24.412C124.42 25 124.552 25.636 124.552 26.32C124.552 27.004 124.42 27.646 124.156 28.246C123.904 28.834 123.55 29.344 123.094 29.776C122.65 30.208 122.122 30.55 121.51 30.802C120.898 31.054 120.244 31.18 119.548 31.18C118.852 31.18 118.198 31.054 117.586 30.802C116.974 30.55 116.44 30.208 115.984 29.776C115.54 29.344 115.186 28.834 114.922 28.246C114.67 27.646 114.544 27.004 114.544 26.32ZM119.548 29.038C120.268 29.038 120.88 28.774 121.384 28.246C121.888 27.718 122.14 27.076 122.14 26.32C122.14 25.552 121.888 24.904 121.384 24.376C120.88 23.848 120.268 23.584 119.548 23.584C118.828 23.584 118.216 23.848 117.712 24.376C117.208 24.904 116.956 25.552 116.956 26.32C116.956 27.076 117.208 27.718 117.712 28.246C118.216 28.774 118.828 29.038 119.548 29.038ZM126.068 31V21.622H128.534V22.36C128.894 22.06 129.29 21.832 129.722 21.676C130.166 21.52 130.646 21.442 131.162 21.442C132.242 21.442 133.13 21.79 133.826 22.486C134.522 23.182 134.87 24.076 134.87 25.168V31H132.404V25.528C132.404 24.94 132.224 24.466 131.864 24.106C131.516 23.746 131.048 23.566 130.46 23.566C130.052 23.566 129.68 23.65 129.344 23.818C129.02 23.974 128.75 24.202 128.534 24.502V31H126.068Z" fill="black"/>
<path d="M179.354 25.6464C179.549 25.8417 179.549 26.1583 179.354 26.3536L176.172 29.5355C175.976 29.7308 175.66 29.7308 175.464 29.5355C175.269 29.3403 175.269 29.0237 175.464 28.8284L178.293 26L175.464 23.1716C175.269 22.9763 175.269 22.6597 175.464 22.4645C175.66 22.2692 175.976 22.2692 176.172 22.4645L179.354 25.6464ZM159 25.5H179V26.5H159V25.5Z" fill="black"/>
<defs>
<filter id="filter0_d" x="0" y="0" width="216" height="66" filterUnits="userSpaceOnUse" color-interpolation-filters="sRGB">
<feFlood flood-opacity="0" result="BackgroundImageFix"/>
<feColorMatrix in="SourceAlpha" type="matrix" values="0 0 0 0 0 0 0 0 0 0 0 0 0 0 0 0 0 0 127 0"/>
<feOffset dx="3" dy="8"/>
<feGaussianBlur stdDeviation="4"/>
<feColorMatrix type="matrix" values="0 0 0 0 0 0 0 0 0 0 0 0 0 0 0 0 0 0 0.25 0"/>
<feBlend mode="normal" in2="BackgroundImageFix" result="effect1_dropShadow"/>
<feBlend mode="normal" in="SourceGraphic" in2="effect1_dropShadow" result="shape"/>
</filter>
</defs>
</svg>
